<?xml version="1.0" encoding="UTF-8" standalone="no"?>
<!DOCTYPE svg PUBLIC "-//W3C//DTD SVG 1.1//EN"
 "http://www.w3.org/Graphics/SVG/1.1/DTD/svg11.dtd">
<!-- Generated by graphviz version 2.30.1 (20150306.0020)
 -->
<!-- Title: snakemake_dag Pages: 1 -->
<svg width="304pt" height="692pt"
 viewBox="0.00 0.00 304.00 692.00" xmlns="http://www.w3.org/2000/svg" xmlns:xlink="http://www.w3.org/1999/xlink">
<g id="graph0" class="graph" transform="scale(1 1) rotate(0) translate(4 688)">
<title>snakemake_dag</title>
<polygon fill="white" stroke="white" points="-4,5 -4,-688 301,-688 301,5 -4,5"/>
<!-- 0 -->
<g id="node1" class="node"><title>0</title>
<path fill="none" stroke="#9fd856" stroke-width="2" stroke-dasharray="5,2" d="M162,-36C162,-36 132,-36 132,-36 126,-36 120,-30 120,-24 120,-24 120,-12 120,-12 120,-6 126,-0 132,-0 132,-0 162,-0 162,-0 168,-0 174,-6 174,-12 174,-12 174,-24 174,-24 174,-30 168,-36 162,-36"/>
<text text-anchor="middle" x="147" y="-15.5" font-family="sans" font-size="10.00">all</text>
</g>
<!-- 1 -->
<g id="node2" class="node"><title>1</title>
<path fill="none" stroke="#d88556" stroke-width="2" stroke-dasharray="5,2" d="M126.25,-108C126.25,-108 37.75,-108 37.75,-108 31.75,-108 25.75,-102 25.75,-96 25.75,-96 25.75,-84 25.75,-84 25.75,-78 31.75,-72 37.75,-72 37.75,-72 126.25,-72 126.25,-72 132.25,-72 138.25,-78 138.25,-84 138.25,-84 138.25,-96 138.25,-96 138.25,-102 132.25,-108 126.25,-108"/>
<text text-anchor="middle" x="82" y="-87.5" font-family="sans" font-size="10.00">repeatmasker_good</text>
</g>
<!-- 1&#45;&gt;0 -->
<g id="edge1" class="edge"><title>1&#45;&gt;0</title>
<path fill="none" stroke="grey" stroke-width="2" d="M98.0674,-71.6966C105.939,-63.2198 115.555,-52.8636 124.173,-43.5826"/>
<polygon fill="grey" stroke="grey" points="126.878,-45.8139 131.117,-36.1043 121.748,-41.0507 126.878,-45.8139"/>
</g>
<!-- 2 -->
<g id="node3" class="node"><title>2</title>
<path fill="none" stroke="#d88556" stroke-width="2" stroke-dasharray="5,2" d="M257.25,-108C257.25,-108 168.75,-108 168.75,-108 162.75,-108 156.75,-102 156.75,-96 156.75,-96 156.75,-84 156.75,-84 156.75,-78 162.75,-72 168.75,-72 168.75,-72 257.25,-72 257.25,-72 263.25,-72 269.25,-78 269.25,-84 269.25,-84 269.25,-96 269.25,-96 269.25,-102 263.25,-108 257.25,-108"/>
<text text-anchor="middle" x="213" y="-87.5" font-family="sans" font-size="10.00">repeatmasker_good</text>
</g>
<!-- 2&#45;&gt;0 -->
<g id="edge2" class="edge"><title>2&#45;&gt;0</title>
<path fill="none" stroke="grey" stroke-width="2" d="M196.685,-71.6966C188.693,-63.2198 178.928,-52.8636 170.178,-43.5826"/>
<polygon fill="grey" stroke="grey" points="172.534,-40.9792 163.127,-36.1043 167.441,-45.7813 172.534,-40.9792"/>
</g>
<!-- 3 -->
<g id="node4" class="node"><title>3</title>
<path fill="none" stroke="#56d8c9" stroke-width="2" stroke-dasharray="5,2" d="M127.25,-252C127.25,-252 86.75,-252 86.75,-252 80.75,-252 74.75,-246 74.75,-240 74.75,-240 74.75,-228 74.75,-228 74.75,-222 80.75,-216 86.75,-216 86.75,-216 127.25,-216 127.25,-216 133.25,-216 139.25,-222 139.25,-228 139.25,-228 139.25,-240 139.25,-240 139.25,-246 133.25,-252 127.25,-252"/>
<text text-anchor="middle" x="107" y="-237" font-family="sans" font-size="10.00">split_fasta</text>
<text text-anchor="middle" x="107" y="-226" font-family="sans" font-size="10.00">n: 2</text>
</g>
<!-- 3&#45;&gt;1 -->
<g id="edge3" class="edge"><title>3&#45;&gt;1</title>
<path fill="none" stroke="grey" stroke-width="2" d="M85.7334,-215.701C75.891,-206.305 65.2366,-193.798 60,-180 52.2327,-159.534 59.1606,-135.371 67.2361,-117.39"/>
<polygon fill="grey" stroke="grey" points="70.5284,-118.623 71.7546,-108.1 64.2334,-115.562 70.5284,-118.623"/>
</g>
<!-- 4 -->
<g id="node5" class="node"><title>4</title>
<path fill="none" stroke="#56d89a" stroke-width="2" stroke-dasharray="5,2" d="M141,-180C141,-180 81,-180 81,-180 75,-180 69,-174 69,-168 69,-168 69,-156 69,-156 69,-150 75,-144 81,-144 81,-144 141,-144 141,-144 147,-144 153,-150 153,-156 153,-156 153,-168 153,-168 153,-174 147,-180 141,-180"/>
<text text-anchor="middle" x="111" y="-159.5" font-family="sans" font-size="10.00">repeatmasker</text>
</g>
<!-- 3&#45;&gt;4 -->
<g id="edge8" class="edge"><title>3&#45;&gt;4</title>
<path fill="none" stroke="grey" stroke-width="2" d="M107.989,-215.697C108.43,-207.983 108.959,-198.712 109.451,-190.112"/>
<polygon fill="grey" stroke="grey" points="112.946,-190.288 110.023,-180.104 105.958,-189.888 112.946,-190.288"/>
</g>
<!-- 4&#45;&gt;1 -->
<g id="edge4" class="edge"><title>4&#45;&gt;1</title>
<path fill="none" stroke="grey" stroke-width="2" d="M103.831,-143.697C100.565,-135.813 96.626,-126.304 92.9978,-117.546"/>
<polygon fill="grey" stroke="grey" points="96.147,-116.003 89.0861,-108.104 89.68,-118.683 96.147,-116.003"/>
</g>
<!-- 5 -->
<g id="node6" class="node"><title>5</title>
<path fill="none" stroke="#56d89a" stroke-width="2" stroke-dasharray="5,2" d="M284,-180C284,-180 224,-180 224,-180 218,-180 212,-174 212,-168 212,-168 212,-156 212,-156 212,-150 218,-144 224,-144 224,-144 284,-144 284,-144 290,-144 296,-150 296,-156 296,-156 296,-168 296,-168 296,-174 290,-180 284,-180"/>
<text text-anchor="middle" x="254" y="-159.5" font-family="sans" font-size="10.00">repeatmasker</text>
</g>
<!-- 5&#45;&gt;2 -->
<g id="edge5" class="edge"><title>5&#45;&gt;2</title>
<path fill="none" stroke="grey" stroke-width="2" d="M243.865,-143.697C239.148,-135.644 233.438,-125.894 228.218,-116.982"/>
<polygon fill="grey" stroke="grey" points="231.092,-114.964 223.018,-108.104 225.052,-118.502 231.092,-114.964"/>
</g>
<!-- 6 -->
<g id="node7" class="node"><title>6</title>
<path fill="none" stroke="#56d8c9" stroke-width="2" stroke-dasharray="5,2" d="M210.25,-252C210.25,-252 169.75,-252 169.75,-252 163.75,-252 157.75,-246 157.75,-240 157.75,-240 157.75,-228 157.75,-228 157.75,-222 163.75,-216 169.75,-216 169.75,-216 210.25,-216 210.25,-216 216.25,-216 222.25,-222 222.25,-228 222.25,-228 222.25,-240 222.25,-240 222.25,-246 216.25,-252 210.25,-252"/>
<text text-anchor="middle" x="190" y="-237" font-family="sans" font-size="10.00">split_fasta</text>
<text text-anchor="middle" x="190" y="-226" font-family="sans" font-size="10.00">n: 1</text>
</g>
<!-- 6&#45;&gt;2 -->
<g id="edge6" class="edge"><title>6&#45;&gt;2</title>
<path fill="none" stroke="grey" stroke-width="2" d="M192.283,-215.905C194.729,-197.963 198.826,-168.95 203,-144 204.412,-135.558 206.091,-126.388 207.666,-118.086"/>
<polygon fill="grey" stroke="grey" points="211.124,-118.635 209.577,-108.154 204.25,-117.312 211.124,-118.635"/>
</g>
<!-- 6&#45;&gt;5 -->
<g id="edge9" class="edge"><title>6&#45;&gt;5</title>
<path fill="none" stroke="grey" stroke-width="2" d="M205.82,-215.697C213.57,-207.22 223.039,-196.864 231.524,-187.583"/>
<polygon fill="grey" stroke="grey" points="234.197,-189.846 238.362,-180.104 229.031,-185.123 234.197,-189.846"/>
</g>
<!-- 7 -->
<g id="node8" class="node"><title>7</title>
<path fill="none" stroke="#ced856" stroke-width="2" stroke-dasharray="5,2" d="M174.25,-324C174.25,-324 121.75,-324 121.75,-324 115.75,-324 109.75,-318 109.75,-312 109.75,-312 109.75,-300 109.75,-300 109.75,-294 115.75,-288 121.75,-288 121.75,-288 174.25,-288 174.25,-288 180.25,-288 186.25,-294 186.25,-300 186.25,-300 186.25,-312 186.25,-312 186.25,-318 180.25,-324 174.25,-324"/>
<text text-anchor="middle" x="148" y="-303.5" font-family="sans" font-size="10.00">tantan_good</text>
</g>
<!-- 7&#45;&gt;3 -->
<g id="edge7" class="edge"><title>7&#45;&gt;3</title>
<path fill="none" stroke="grey" stroke-width="2" d="M137.865,-287.697C133.148,-279.644 127.438,-269.894 122.218,-260.982"/>
<polygon fill="grey" stroke="grey" points="125.092,-258.964 117.018,-252.104 119.052,-262.502 125.092,-258.964"/>
</g>
<!-- 7&#45;&gt;6 -->
<g id="edge10" class="edge"><title>7&#45;&gt;6</title>
<path fill="none" stroke="grey" stroke-width="2" d="M158.382,-287.697C163.265,-279.559 169.187,-269.689 174.579,-260.701"/>
<polygon fill="grey" stroke="grey" points="177.594,-262.48 179.737,-252.104 171.591,-258.879 177.594,-262.48"/>
</g>
<!-- 8 -->
<g id="node9" class="node"><title>8</title>
<path fill="none" stroke="#56b1d8" stroke-width="2" stroke-dasharray="5,2" d="M163,-396C163,-396 133,-396 133,-396 127,-396 121,-390 121,-384 121,-384 121,-372 121,-372 121,-366 127,-360 133,-360 133,-360 163,-360 163,-360 169,-360 175,-366 175,-372 175,-372 175,-384 175,-384 175,-390 169,-396 163,-396"/>
<text text-anchor="middle" x="148" y="-375.5" font-family="sans" font-size="10.00">tantan</text>
</g>
<!-- 8&#45;&gt;7 -->
<g id="edge11" class="edge"><title>8&#45;&gt;7</title>
<path fill="none" stroke="grey" stroke-width="2" d="M148,-359.697C148,-351.983 148,-342.712 148,-334.112"/>
<polygon fill="grey" stroke="grey" points="151.5,-334.104 148,-324.104 144.5,-334.104 151.5,-334.104"/>
</g>
<!-- 9 -->
<g id="node10" class="node"><title>9</title>
<path fill="none" stroke="#56d86b" stroke-width="2" stroke-dasharray="5,2" d="M163,-468C163,-468 133,-468 133,-468 127,-468 121,-462 121,-456 121,-456 121,-444 121,-444 121,-438 127,-432 133,-432 133,-432 163,-432 163,-432 169,-432 175,-438 175,-444 175,-444 175,-456 175,-456 175,-462 169,-468 163,-468"/>
<text text-anchor="middle" x="148" y="-447.5" font-family="sans" font-size="10.00">cd_hit</text>
</g>
<!-- 9&#45;&gt;8 -->
<g id="edge12" class="edge"><title>9&#45;&gt;8</title>
<path fill="none" stroke="grey" stroke-width="2" d="M148,-431.697C148,-423.983 148,-414.712 148,-406.112"/>
<polygon fill="grey" stroke="grey" points="151.5,-406.104 148,-396.104 144.5,-406.104 151.5,-406.104"/>
</g>
<!-- 10 -->
<g id="node11" class="node"><title>10</title>
<path fill="none" stroke="#d85656" stroke-width="2" stroke-dasharray="5,2" d="M171.25,-540C171.25,-540 124.75,-540 124.75,-540 118.75,-540 112.75,-534 112.75,-528 112.75,-528 112.75,-516 112.75,-516 112.75,-510 118.75,-504 124.75,-504 124.75,-504 171.25,-504 171.25,-504 177.25,-504 183.25,-510 183.25,-516 183.25,-516 183.25,-528 183.25,-528 183.25,-534 177.25,-540 171.25,-540"/>
<text text-anchor="middle" x="148" y="-519.5" font-family="sans" font-size="10.00">fastq2fasta</text>
</g>
<!-- 10&#45;&gt;9 -->
<g id="edge13" class="edge"><title>10&#45;&gt;9</title>
<path fill="none" stroke="grey" stroke-width="2" d="M148,-503.697C148,-495.983 148,-486.712 148,-478.112"/>
<polygon fill="grey" stroke="grey" points="151.5,-478.104 148,-468.104 144.5,-478.104 151.5,-478.104"/>
</g>
<!-- 11 -->
<g id="node12" class="node"><title>11</title>
<path fill="none" stroke="#d8b456" stroke-width="2" stroke-dasharray="5,2" d="M176,-612C176,-612 120,-612 120,-612 114,-612 108,-606 108,-600 108,-600 108,-588 108,-588 108,-582 114,-576 120,-576 120,-576 176,-576 176,-576 182,-576 188,-582 188,-588 188,-588 188,-600 188,-600 188,-606 182,-612 176,-612"/>
<text text-anchor="middle" x="148" y="-591.5" font-family="sans" font-size="10.00">merge_reads</text>
</g>
<!-- 11&#45;&gt;10 -->
<g id="edge14" class="edge"><title>11&#45;&gt;10</title>
<path fill="none" stroke="grey" stroke-width="2" d="M148,-575.697C148,-567.983 148,-558.712 148,-550.112"/>
<polygon fill="grey" stroke="grey" points="151.5,-550.104 148,-540.104 144.5,-550.104 151.5,-550.104"/>
</g>
<!-- 12 -->
<g id="node13" class="node"><title>12</title>
<path fill="none" stroke="#70d856" stroke-width="2" stroke-dasharray="5,2" d="M284,-684C284,-684 12,-684 12,-684 6,-684 0,-678 0,-672 0,-672 0,-660 0,-660 0,-654 6,-648 12,-648 12,-648 284,-648 284,-648 290,-648 296,-654 296,-660 296,-660 296,-672 296,-672 296,-678 290,-684 284,-684"/>
<text text-anchor="middle" x="148" y="-669" font-family="sans" font-size="10.00">fastq_join</text>
<text text-anchor="middle" x="148" y="-658" font-family="sans" font-size="10.00">sample: I1164_12629_Harvard_SIV_196_06_2_24_12_mini</text>
</g>
<!-- 12&#45;&gt;11 -->
<g id="edge15" class="edge"><title>12&#45;&gt;11</title>
<path fill="none" stroke="grey" stroke-width="2" d="M148,-647.697C148,-639.983 148,-630.712 148,-622.112"/>
<polygon fill="grey" stroke="grey" points="151.5,-622.104 148,-612.104 144.5,-622.104 151.5,-622.104"/>
</g>
</g>
</svg>
