<?xml version="1.0" encoding="UTF-8" standalone="no"?>
<!DOCTYPE svg PUBLIC "-//W3C//DTD SVG 1.1//EN"
 "http://www.w3.org/Graphics/SVG/1.1/DTD/svg11.dtd">
<!-- Generated by graphviz version 2.30.1 (20150306.0020)
 -->
<!-- Title: snakemake_dag Pages: 1 -->
<svg width="602pt" height="692pt"
 viewBox="0.00 0.00 602.00 692.00" xmlns="http://www.w3.org/2000/svg" xmlns:xlink="http://www.w3.org/1999/xlink">
<g id="graph0" class="graph" transform="scale(1 1) rotate(0) translate(4 688)">
<title>snakemake_dag</title>
<polygon fill="white" stroke="white" points="-4,5 -4,-688 599,-688 599,5 -4,5"/>
<!-- 0 -->
<g id="node1" class="node"><title>0</title>
<path fill="none" stroke="#d88d56" stroke-width="2" d="M312,-36C312,-36 282,-36 282,-36 276,-36 270,-30 270,-24 270,-24 270,-12 270,-12 270,-6 276,-0 282,-0 282,-0 312,-0 312,-0 318,-0 324,-6 324,-12 324,-12 324,-24 324,-24 324,-30 318,-36 312,-36"/>
<text text-anchor="middle" x="297" y="-15.5" font-family="sans" font-size="10.00">all</text>
</g>
<!-- 1 -->
<g id="node2" class="node"><title>1</title>
<path fill="none" stroke="#bed856" stroke-width="2" d="M72,-108C72,-108 12,-108 12,-108 6,-108 0,-102 0,-96 0,-96 0,-84 0,-84 0,-78 6,-72 12,-72 12,-72 72,-72 72,-72 78,-72 84,-78 84,-84 84,-84 84,-96 84,-96 84,-102 78,-108 72,-108"/>
<text text-anchor="middle" x="42" y="-87.5" font-family="sans" font-size="10.00">repeatmasker</text>
</g>
<!-- 1&#45;&gt;0 -->
<g id="edge1" class="edge"><title>1&#45;&gt;0</title>
<path fill="none" stroke="grey" stroke-width="2" d="M84.2312,-74.6787C87.1918,-73.75 90.1364,-72.8482 93,-72 150.897,-54.8509 218.916,-37.7887 259.952,-27.8268"/>
<polygon fill="grey" stroke="grey" points="260.882,-31.2027 269.78,-25.4514 259.238,-24.3986 260.882,-31.2027"/>
</g>
<!-- 2 -->
<g id="node3" class="node"><title>2</title>
<path fill="none" stroke="#bed856" stroke-width="2" d="M174,-108C174,-108 114,-108 114,-108 108,-108 102,-102 102,-96 102,-96 102,-84 102,-84 102,-78 108,-72 114,-72 114,-72 174,-72 174,-72 180,-72 186,-78 186,-84 186,-84 186,-96 186,-96 186,-102 180,-108 174,-108"/>
<text text-anchor="middle" x="144" y="-87.5" font-family="sans" font-size="10.00">repeatmasker</text>
</g>
<!-- 2&#45;&gt;0 -->
<g id="edge2" class="edge"><title>2&#45;&gt;0</title>
<path fill="none" stroke="grey" stroke-width="2" d="M181.428,-71.8761C205.483,-60.8706 236.583,-46.6416 260.462,-35.7169"/>
<polygon fill="grey" stroke="grey" points="261.918,-38.8994 269.556,-31.5563 259.006,-32.534 261.918,-38.8994"/>
</g>
<!-- 3 -->
<g id="node4" class="node"><title>3</title>
<path fill="none" stroke="#bed856" stroke-width="2" d="M276,-108C276,-108 216,-108 216,-108 210,-108 204,-102 204,-96 204,-96 204,-84 204,-84 204,-78 210,-72 216,-72 216,-72 276,-72 276,-72 282,-72 288,-78 288,-84 288,-84 288,-96 288,-96 288,-102 282,-108 276,-108"/>
<text text-anchor="middle" x="246" y="-87.5" font-family="sans" font-size="10.00">repeatmasker</text>
</g>
<!-- 3&#45;&gt;0 -->
<g id="edge3" class="edge"><title>3&#45;&gt;0</title>
<path fill="none" stroke="grey" stroke-width="2" d="M258.607,-71.6966C264.597,-63.4741 271.876,-53.4832 278.479,-44.4207"/>
<polygon fill="grey" stroke="grey" points="281.478,-46.2477 284.538,-36.1043 275.821,-42.1257 281.478,-46.2477"/>
</g>
<!-- 4 -->
<g id="node5" class="node"><title>4</title>
<path fill="none" stroke="#bed856" stroke-width="2" d="M378,-108C378,-108 318,-108 318,-108 312,-108 306,-102 306,-96 306,-96 306,-84 306,-84 306,-78 312,-72 318,-72 318,-72 378,-72 378,-72 384,-72 390,-78 390,-84 390,-84 390,-96 390,-96 390,-102 384,-108 378,-108"/>
<text text-anchor="middle" x="348" y="-87.5" font-family="sans" font-size="10.00">repeatmasker</text>
</g>
<!-- 4&#45;&gt;0 -->
<g id="edge4" class="edge"><title>4&#45;&gt;0</title>
<path fill="none" stroke="grey" stroke-width="2" d="M335.393,-71.6966C329.403,-63.4741 322.124,-53.4832 315.521,-44.4207"/>
<polygon fill="grey" stroke="grey" points="318.179,-42.1257 309.462,-36.1043 312.522,-46.2477 318.179,-42.1257"/>
</g>
<!-- 5 -->
<g id="node6" class="node"><title>5</title>
<path fill="none" stroke="#bed856" stroke-width="2" d="M480,-108C480,-108 420,-108 420,-108 414,-108 408,-102 408,-96 408,-96 408,-84 408,-84 408,-78 414,-72 420,-72 420,-72 480,-72 480,-72 486,-72 492,-78 492,-84 492,-84 492,-96 492,-96 492,-102 486,-108 480,-108"/>
<text text-anchor="middle" x="450" y="-87.5" font-family="sans" font-size="10.00">repeatmasker</text>
</g>
<!-- 5&#45;&gt;0 -->
<g id="edge5" class="edge"><title>5&#45;&gt;0</title>
<path fill="none" stroke="grey" stroke-width="2" d="M412.572,-71.8761C388.517,-60.8706 357.417,-46.6416 333.538,-35.7169"/>
<polygon fill="grey" stroke="grey" points="334.994,-32.534 324.444,-31.5563 332.082,-38.8994 334.994,-32.534"/>
</g>
<!-- 6 -->
<g id="node7" class="node"><title>6</title>
<path fill="none" stroke="#bed856" stroke-width="2" d="M582,-108C582,-108 522,-108 522,-108 516,-108 510,-102 510,-96 510,-96 510,-84 510,-84 510,-78 516,-72 522,-72 522,-72 582,-72 582,-72 588,-72 594,-78 594,-84 594,-84 594,-96 594,-96 594,-102 588,-108 582,-108"/>
<text text-anchor="middle" x="552" y="-87.5" font-family="sans" font-size="10.00">repeatmasker</text>
</g>
<!-- 6&#45;&gt;0 -->
<g id="edge6" class="edge"><title>6&#45;&gt;0</title>
<path fill="none" stroke="grey" stroke-width="2" d="M509.769,-74.6787C506.808,-73.75 503.864,-72.8482 501,-72 443.103,-54.8509 375.084,-37.7887 334.048,-27.8268"/>
<polygon fill="grey" stroke="grey" points="334.762,-24.3986 324.22,-25.4514 333.118,-31.2027 334.762,-24.3986"/>
</g>
<!-- 7 -->
<g id="node8" class="node"><title>7</title>
<path fill="none" stroke="#59d856" stroke-width="2" d="M79.25,-180C79.25,-180 38.75,-180 38.75,-180 32.75,-180 26.75,-174 26.75,-168 26.75,-168 26.75,-156 26.75,-156 26.75,-150 32.75,-144 38.75,-144 38.75,-144 79.25,-144 79.25,-144 85.25,-144 91.25,-150 91.25,-156 91.25,-156 91.25,-168 91.25,-168 91.25,-174 85.25,-180 79.25,-180"/>
<text text-anchor="middle" x="59" y="-165" font-family="sans" font-size="10.00">split_fasta</text>
<text text-anchor="middle" x="59" y="-154" font-family="sans" font-size="10.00">n: 5</text>
</g>
<!-- 7&#45;&gt;1 -->
<g id="edge7" class="edge"><title>7&#45;&gt;1</title>
<path fill="none" stroke="grey" stroke-width="2" d="M54.7978,-143.697C52.9038,-135.898 50.6235,-126.509 48.5157,-117.829"/>
<polygon fill="grey" stroke="grey" points="51.9151,-116.996 46.1539,-108.104 45.1128,-118.648 51.9151,-116.996"/>
</g>
<!-- 8 -->
<g id="node9" class="node"><title>8</title>
<path fill="none" stroke="#59d856" stroke-width="2" d="M179.25,-180C179.25,-180 138.75,-180 138.75,-180 132.75,-180 126.75,-174 126.75,-168 126.75,-168 126.75,-156 126.75,-156 126.75,-150 132.75,-144 138.75,-144 138.75,-144 179.25,-144 179.25,-144 185.25,-144 191.25,-150 191.25,-156 191.25,-156 191.25,-168 191.25,-168 191.25,-174 185.25,-180 179.25,-180"/>
<text text-anchor="middle" x="159" y="-165" font-family="sans" font-size="10.00">split_fasta</text>
<text text-anchor="middle" x="159" y="-154" font-family="sans" font-size="10.00">n: 1</text>
</g>
<!-- 8&#45;&gt;2 -->
<g id="edge8" class="edge"><title>8&#45;&gt;2</title>
<path fill="none" stroke="grey" stroke-width="2" d="M155.292,-143.697C153.639,-135.983 151.653,-126.712 149.81,-118.112"/>
<polygon fill="grey" stroke="grey" points="153.183,-117.149 147.665,-108.104 146.338,-118.616 153.183,-117.149"/>
</g>
<!-- 9 -->
<g id="node10" class="node"><title>9</title>
<path fill="none" stroke="#59d856" stroke-width="2" d="M271.25,-180C271.25,-180 230.75,-180 230.75,-180 224.75,-180 218.75,-174 218.75,-168 218.75,-168 218.75,-156 218.75,-156 218.75,-150 224.75,-144 230.75,-144 230.75,-144 271.25,-144 271.25,-144 277.25,-144 283.25,-150 283.25,-156 283.25,-156 283.25,-168 283.25,-168 283.25,-174 277.25,-180 271.25,-180"/>
<text text-anchor="middle" x="251" y="-165" font-family="sans" font-size="10.00">split_fasta</text>
<text text-anchor="middle" x="251" y="-154" font-family="sans" font-size="10.00">n: 3</text>
</g>
<!-- 9&#45;&gt;3 -->
<g id="edge9" class="edge"><title>9&#45;&gt;3</title>
<path fill="none" stroke="grey" stroke-width="2" d="M249.764,-143.697C249.213,-135.983 248.551,-126.712 247.937,-118.112"/>
<polygon fill="grey" stroke="grey" points="251.425,-117.83 247.222,-108.104 244.443,-118.328 251.425,-117.83"/>
</g>
<!-- 10 -->
<g id="node11" class="node"><title>10</title>
<path fill="none" stroke="#59d856" stroke-width="2" d="M363.25,-180C363.25,-180 322.75,-180 322.75,-180 316.75,-180 310.75,-174 310.75,-168 310.75,-168 310.75,-156 310.75,-156 310.75,-150 316.75,-144 322.75,-144 322.75,-144 363.25,-144 363.25,-144 369.25,-144 375.25,-150 375.25,-156 375.25,-156 375.25,-168 375.25,-168 375.25,-174 369.25,-180 363.25,-180"/>
<text text-anchor="middle" x="343" y="-165" font-family="sans" font-size="10.00">split_fasta</text>
<text text-anchor="middle" x="343" y="-154" font-family="sans" font-size="10.00">n: 2</text>
</g>
<!-- 10&#45;&gt;4 -->
<g id="edge10" class="edge"><title>10&#45;&gt;4</title>
<path fill="none" stroke="grey" stroke-width="2" d="M344.236,-143.697C344.787,-135.983 345.449,-126.712 346.063,-118.112"/>
<polygon fill="grey" stroke="grey" points="349.557,-118.328 346.778,-108.104 342.575,-117.83 349.557,-118.328"/>
</g>
<!-- 11 -->
<g id="node12" class="node"><title>11</title>
<path fill="none" stroke="#59d856" stroke-width="2" d="M460.25,-180C460.25,-180 419.75,-180 419.75,-180 413.75,-180 407.75,-174 407.75,-168 407.75,-168 407.75,-156 407.75,-156 407.75,-150 413.75,-144 419.75,-144 419.75,-144 460.25,-144 460.25,-144 466.25,-144 472.25,-150 472.25,-156 472.25,-156 472.25,-168 472.25,-168 472.25,-174 466.25,-180 460.25,-180"/>
<text text-anchor="middle" x="440" y="-165" font-family="sans" font-size="10.00">split_fasta</text>
<text text-anchor="middle" x="440" y="-154" font-family="sans" font-size="10.00">n: 6</text>
</g>
<!-- 11&#45;&gt;5 -->
<g id="edge11" class="edge"><title>11&#45;&gt;5</title>
<path fill="none" stroke="grey" stroke-width="2" d="M442.472,-143.697C443.574,-135.983 444.898,-126.712 446.127,-118.112"/>
<polygon fill="grey" stroke="grey" points="449.607,-118.499 447.557,-108.104 442.677,-117.509 449.607,-118.499"/>
</g>
<!-- 12 -->
<g id="node13" class="node"><title>12</title>
<path fill="none" stroke="#59d856" stroke-width="2" d="M560.25,-180C560.25,-180 519.75,-180 519.75,-180 513.75,-180 507.75,-174 507.75,-168 507.75,-168 507.75,-156 507.75,-156 507.75,-150 513.75,-144 519.75,-144 519.75,-144 560.25,-144 560.25,-144 566.25,-144 572.25,-150 572.25,-156 572.25,-156 572.25,-168 572.25,-168 572.25,-174 566.25,-180 560.25,-180"/>
<text text-anchor="middle" x="540" y="-165" font-family="sans" font-size="10.00">split_fasta</text>
<text text-anchor="middle" x="540" y="-154" font-family="sans" font-size="10.00">n: 4</text>
</g>
<!-- 12&#45;&gt;6 -->
<g id="edge12" class="edge"><title>12&#45;&gt;6</title>
<path fill="none" stroke="grey" stroke-width="2" d="M542.966,-143.697C544.289,-135.983 545.878,-126.712 547.352,-118.112"/>
<polygon fill="grey" stroke="grey" points="550.828,-118.552 549.068,-108.104 543.928,-117.369 550.828,-118.552"/>
</g>
<!-- 13 -->
<g id="node14" class="node"><title>13</title>
<path fill="none" stroke="#d85656" stroke-width="2" stroke-dasharray="5,2" d="M337,-252C337,-252 257,-252 257,-252 251,-252 245,-246 245,-240 245,-240 245,-228 245,-228 245,-222 251,-216 257,-216 257,-216 337,-216 337,-216 343,-216 349,-222 349,-228 349,-228 349,-240 349,-240 349,-246 343,-252 337,-252"/>
<text text-anchor="middle" x="297" y="-231.5" font-family="sans" font-size="10.00">tantan_goodreads</text>
</g>
<!-- 13&#45;&gt;7 -->
<g id="edge13" class="edge"><title>13&#45;&gt;7</title>
<path fill="none" stroke="grey" stroke-width="2" d="M244.77,-217.638C201.629,-204.95 141.177,-187.17 101.092,-175.38"/>
<polygon fill="grey" stroke="grey" points="101.944,-171.982 91.3629,-172.518 99.9689,-178.698 101.944,-171.982"/>
</g>
<!-- 13&#45;&gt;8 -->
<g id="edge14" class="edge"><title>13&#45;&gt;8</title>
<path fill="none" stroke="grey" stroke-width="2" d="M263.241,-215.876C244.282,-206.259 220.469,-194.18 200.391,-183.995"/>
<polygon fill="grey" stroke="grey" points="201.961,-180.868 191.46,-179.465 198.795,-187.11 201.961,-180.868"/>
</g>
<!-- 13&#45;&gt;9 -->
<g id="edge15" class="edge"><title>13&#45;&gt;9</title>
<path fill="none" stroke="grey" stroke-width="2" d="M285.629,-215.697C280.282,-207.559 273.796,-197.689 267.889,-188.701"/>
<polygon fill="grey" stroke="grey" points="270.657,-186.539 262.24,-180.104 264.807,-190.384 270.657,-186.539"/>
</g>
<!-- 13&#45;&gt;10 -->
<g id="edge16" class="edge"><title>13&#45;&gt;10</title>
<path fill="none" stroke="grey" stroke-width="2" d="M308.371,-215.697C313.718,-207.559 320.204,-197.689 326.111,-188.701"/>
<polygon fill="grey" stroke="grey" points="329.193,-190.384 331.76,-180.104 323.343,-186.539 329.193,-190.384"/>
</g>
<!-- 13&#45;&gt;11 -->
<g id="edge17" class="edge"><title>13&#45;&gt;11</title>
<path fill="none" stroke="grey" stroke-width="2" d="M331.982,-215.876C352.005,-206.074 377.252,-193.716 398.301,-183.412"/>
<polygon fill="grey" stroke="grey" points="399.897,-186.528 407.34,-178.987 396.819,-180.241 399.897,-186.528"/>
</g>
<!-- 13&#45;&gt;12 -->
<g id="edge18" class="edge"><title>13&#45;&gt;12</title>
<path fill="none" stroke="grey" stroke-width="2" d="M349.13,-217.983C393.577,-205.179 456.651,-187.01 497.938,-175.117"/>
<polygon fill="grey" stroke="grey" points="499.043,-178.441 507.683,-172.309 497.105,-171.714 499.043,-178.441"/>
</g>
<!-- 14 -->
<g id="node15" class="node"><title>14</title>
<path fill="none" stroke="#d8bc56" stroke-width="2" stroke-dasharray="5,2" d="M312,-324C312,-324 282,-324 282,-324 276,-324 270,-318 270,-312 270,-312 270,-300 270,-300 270,-294 276,-288 282,-288 282,-288 312,-288 312,-288 318,-288 324,-294 324,-300 324,-300 324,-312 324,-312 324,-318 318,-324 312,-324"/>
<text text-anchor="middle" x="297" y="-303.5" font-family="sans" font-size="10.00">tantan</text>
</g>
<!-- 14&#45;&gt;13 -->
<g id="edge19" class="edge"><title>14&#45;&gt;13</title>
<path fill="none" stroke="grey" stroke-width="2" d="M297,-287.697C297,-279.983 297,-270.712 297,-262.112"/>
<polygon fill="grey" stroke="grey" points="300.5,-262.104 297,-252.104 293.5,-262.104 300.5,-262.104"/>
</g>
<!-- 15 -->
<g id="node16" class="node"><title>15</title>
<path fill="none" stroke="#568ad8" stroke-width="2" stroke-dasharray="5,2" d="M312,-396C312,-396 282,-396 282,-396 276,-396 270,-390 270,-384 270,-384 270,-372 270,-372 270,-366 276,-360 282,-360 282,-360 312,-360 312,-360 318,-360 324,-366 324,-372 324,-372 324,-384 324,-384 324,-390 318,-396 312,-396"/>
<text text-anchor="middle" x="297" y="-375.5" font-family="sans" font-size="10.00">cd_hit</text>
</g>
<!-- 15&#45;&gt;14 -->
<g id="edge20" class="edge"><title>15&#45;&gt;14</title>
<path fill="none" stroke="grey" stroke-width="2" d="M297,-359.697C297,-351.983 297,-342.712 297,-334.112"/>
<polygon fill="grey" stroke="grey" points="300.5,-334.104 297,-324.104 293.5,-334.104 300.5,-334.104"/>
</g>
<!-- 16 -->
<g id="node17" class="node"><title>16</title>
<path fill="none" stroke="#56d88a" stroke-width="2" stroke-dasharray="5,2" d="M320.25,-468C320.25,-468 273.75,-468 273.75,-468 267.75,-468 261.75,-462 261.75,-456 261.75,-456 261.75,-444 261.75,-444 261.75,-438 267.75,-432 273.75,-432 273.75,-432 320.25,-432 320.25,-432 326.25,-432 332.25,-438 332.25,-444 332.25,-444 332.25,-456 332.25,-456 332.25,-462 326.25,-468 320.25,-468"/>
<text text-anchor="middle" x="297" y="-447.5" font-family="sans" font-size="10.00">fastq2fasta</text>
</g>
<!-- 16&#45;&gt;15 -->
<g id="edge21" class="edge"><title>16&#45;&gt;15</title>
<path fill="none" stroke="grey" stroke-width="2" d="M297,-431.697C297,-423.983 297,-414.712 297,-406.112"/>
<polygon fill="grey" stroke="grey" points="300.5,-406.104 297,-396.104 293.5,-406.104 300.5,-406.104"/>
</g>
<!-- 17 -->
<g id="node18" class="node"><title>17</title>
<path fill="none" stroke="#56c1d8" stroke-width="2" stroke-dasharray="5,2" d="M325,-540C325,-540 269,-540 269,-540 263,-540 257,-534 257,-528 257,-528 257,-516 257,-516 257,-510 263,-504 269,-504 269,-504 325,-504 325,-504 331,-504 337,-510 337,-516 337,-516 337,-528 337,-528 337,-534 331,-540 325,-540"/>
<text text-anchor="middle" x="297" y="-519.5" font-family="sans" font-size="10.00">merge_reads</text>
</g>
<!-- 17&#45;&gt;16 -->
<g id="edge22" class="edge"><title>17&#45;&gt;16</title>
<path fill="none" stroke="grey" stroke-width="2" d="M297,-503.697C297,-495.983 297,-486.712 297,-478.112"/>
<polygon fill="grey" stroke="grey" points="300.5,-478.104 297,-468.104 293.5,-478.104 300.5,-478.104"/>
</g>
<!-- 18 -->
<g id="node19" class="node"><title>18</title>
<path fill="none" stroke="#88d856" stroke-width="2" stroke-dasharray="5,2" d="M316,-612C316,-612 278,-612 278,-612 272,-612 266,-606 266,-600 266,-600 266,-588 266,-588 266,-582 272,-576 278,-576 278,-576 316,-576 316,-576 322,-576 328,-582 328,-588 328,-588 328,-600 328,-600 328,-606 322,-612 316,-612"/>
<text text-anchor="middle" x="297" y="-591.5" font-family="sans" font-size="10.00">fastq_join</text>
</g>
<!-- 18&#45;&gt;17 -->
<g id="edge23" class="edge"><title>18&#45;&gt;17</title>
<path fill="none" stroke="grey" stroke-width="2" d="M297,-575.697C297,-567.983 297,-558.712 297,-550.112"/>
<polygon fill="grey" stroke="grey" points="300.5,-550.104 297,-540.104 293.5,-550.104 300.5,-550.104"/>
</g>
<!-- 19 -->
<g id="node20" class="node"><title>19</title>
<path fill="none" stroke="#56d8c1" stroke-width="2" stroke-dasharray="5,2" d="M433,-684C433,-684 161,-684 161,-684 155,-684 149,-678 149,-672 149,-672 149,-660 149,-660 149,-654 155,-648 161,-648 161,-648 433,-648 433,-648 439,-648 445,-654 445,-660 445,-660 445,-672 445,-672 445,-678 439,-684 433,-684"/>
<text text-anchor="middle" x="297" y="-669" font-family="sans" font-size="10.00">fastp</text>
<text text-anchor="middle" x="297" y="-658" font-family="sans" font-size="10.00">sample: I1164_12629_Harvard_SIV_196_06_2_24_12_mini</text>
</g>
<!-- 19&#45;&gt;18 -->
<g id="edge24" class="edge"><title>19&#45;&gt;18</title>
<path fill="none" stroke="grey" stroke-width="2" d="M297,-647.697C297,-639.983 297,-630.712 297,-622.112"/>
<polygon fill="grey" stroke="grey" points="300.5,-622.104 297,-612.104 293.5,-622.104 300.5,-622.104"/>
</g>
</g>
</svg>
