<?xml version="1.0" encoding="UTF-8" standalone="no"?>
<!DOCTYPE svg PUBLIC "-//W3C//DTD SVG 1.1//EN"
 "http://www.w3.org/Graphics/SVG/1.1/DTD/svg11.dtd">
<!-- Generated by graphviz version 2.30.1 (20150306.0020)
 -->
<!-- Title: snakemake_dag Pages: 1 -->
<svg width="304pt" height="404pt"
 viewBox="0.00 0.00 304.00 404.00" xmlns="http://www.w3.org/2000/svg" xmlns:xlink="http://www.w3.org/1999/xlink">
<g id="graph0" class="graph" transform="scale(1 1) rotate(0) translate(4 400)">
<title>snakemake_dag</title>
<polygon fill="white" stroke="white" points="-4,5 -4,-400 301,-400 301,5 -4,5"/>
<!-- 0 -->
<g id="node1" class="node"><title>0</title>
<path fill="none" stroke="#59d856" stroke-width="2" stroke-dasharray="5,2" d="M163,-36C163,-36 133,-36 133,-36 127,-36 121,-30 121,-24 121,-24 121,-12 121,-12 121,-6 127,-0 133,-0 133,-0 163,-0 163,-0 169,-0 175,-6 175,-12 175,-12 175,-24 175,-24 175,-30 169,-36 163,-36"/>
<text text-anchor="middle" x="148" y="-15.5" font-family="sans" font-size="10.00">all</text>
</g>
<!-- 1 -->
<g id="node2" class="node"><title>1</title>
<path fill="none" stroke="#56a9d8" stroke-width="2" stroke-dasharray="5,2" d="M163,-108C163,-108 133,-108 133,-108 127,-108 121,-102 121,-96 121,-96 121,-84 121,-84 121,-78 127,-72 133,-72 133,-72 163,-72 163,-72 169,-72 175,-78 175,-84 175,-84 175,-96 175,-96 175,-102 169,-108 163,-108"/>
<text text-anchor="middle" x="148" y="-87.5" font-family="sans" font-size="10.00">cd_hit</text>
</g>
<!-- 1&#45;&gt;0 -->
<g id="edge1" class="edge"><title>1&#45;&gt;0</title>
<path fill="none" stroke="grey" stroke-width="2" d="M148,-71.6966C148,-63.9827 148,-54.7125 148,-46.1124"/>
<polygon fill="grey" stroke="grey" points="151.5,-46.1043 148,-36.1043 144.5,-46.1044 151.5,-46.1043"/>
</g>
<!-- 2 -->
<g id="node3" class="node"><title>2</title>
<path fill="none" stroke="#56d8a9" stroke-width="2" stroke-dasharray="5,2" d="M171.25,-180C171.25,-180 124.75,-180 124.75,-180 118.75,-180 112.75,-174 112.75,-168 112.75,-168 112.75,-156 112.75,-156 112.75,-150 118.75,-144 124.75,-144 124.75,-144 171.25,-144 171.25,-144 177.25,-144 183.25,-150 183.25,-156 183.25,-156 183.25,-168 183.25,-168 183.25,-174 177.25,-180 171.25,-180"/>
<text text-anchor="middle" x="148" y="-159.5" font-family="sans" font-size="10.00">fastq2fasta</text>
</g>
<!-- 2&#45;&gt;1 -->
<g id="edge2" class="edge"><title>2&#45;&gt;1</title>
<path fill="none" stroke="grey" stroke-width="2" d="M148,-143.697C148,-135.983 148,-126.712 148,-118.112"/>
<polygon fill="grey" stroke="grey" points="151.5,-118.104 148,-108.104 144.5,-118.104 151.5,-118.104"/>
</g>
<!-- 3 -->
<g id="node4" class="node"><title>3</title>
<path fill="none" stroke="#afd856" stroke-width="2" stroke-dasharray="5,2" d="M176,-252C176,-252 120,-252 120,-252 114,-252 108,-246 108,-240 108,-240 108,-228 108,-228 108,-222 114,-216 120,-216 120,-216 176,-216 176,-216 182,-216 188,-222 188,-228 188,-228 188,-240 188,-240 188,-246 182,-252 176,-252"/>
<text text-anchor="middle" x="148" y="-231.5" font-family="sans" font-size="10.00">merge_reads</text>
</g>
<!-- 3&#45;&gt;2 -->
<g id="edge3" class="edge"><title>3&#45;&gt;2</title>
<path fill="none" stroke="grey" stroke-width="2" d="M148,-215.697C148,-207.983 148,-198.712 148,-190.112"/>
<polygon fill="grey" stroke="grey" points="151.5,-190.104 148,-180.104 144.5,-190.104 151.5,-190.104"/>
</g>
<!-- 4 -->
<g id="node5" class="node"><title>4</title>
<path fill="none" stroke="#d8ac56" stroke-width="2" stroke-dasharray="5,2" d="M167,-324C167,-324 129,-324 129,-324 123,-324 117,-318 117,-312 117,-312 117,-300 117,-300 117,-294 123,-288 129,-288 129,-288 167,-288 167,-288 173,-288 179,-294 179,-300 179,-300 179,-312 179,-312 179,-318 173,-324 167,-324"/>
<text text-anchor="middle" x="148" y="-303.5" font-family="sans" font-size="10.00">fastq_join</text>
</g>
<!-- 4&#45;&gt;3 -->
<g id="edge4" class="edge"><title>4&#45;&gt;3</title>
<path fill="none" stroke="grey" stroke-width="2" d="M148,-287.697C148,-279.983 148,-270.712 148,-262.112"/>
<polygon fill="grey" stroke="grey" points="151.5,-262.104 148,-252.104 144.5,-262.104 151.5,-262.104"/>
</g>
<!-- 5 -->
<g id="node6" class="node"><title>5</title>
<path fill="none" stroke="#d85656" stroke-width="2" stroke-dasharray="5,2" d="M284,-396C284,-396 12,-396 12,-396 6,-396 0,-390 0,-384 0,-384 0,-372 0,-372 0,-366 6,-360 12,-360 12,-360 284,-360 284,-360 290,-360 296,-366 296,-372 296,-372 296,-384 296,-384 296,-390 290,-396 284,-396"/>
<text text-anchor="middle" x="148" y="-381" font-family="sans" font-size="10.00">fastp</text>
<text text-anchor="middle" x="148" y="-370" font-family="sans" font-size="10.00">sample: I1164_12629_Harvard_SIV_196_06_2_24_12_mini</text>
</g>
<!-- 5&#45;&gt;4 -->
<g id="edge5" class="edge"><title>5&#45;&gt;4</title>
<path fill="none" stroke="grey" stroke-width="2" d="M148,-359.697C148,-351.983 148,-342.712 148,-334.112"/>
<polygon fill="grey" stroke="grey" points="151.5,-334.104 148,-324.104 144.5,-334.104 151.5,-334.104"/>
</g>
</g>
</svg>
