<?xml version="1.0" encoding="UTF-8" standalone="no"?>
<!DOCTYPE svg PUBLIC "-//W3C//DTD SVG 1.1//EN"
 "http://www.w3.org/Graphics/SVG/1.1/DTD/svg11.dtd">
<!-- Generated by graphviz version 2.30.1 (20150306.0020)
 -->
<!-- Title: snakemake_dag Pages: 1 -->
<svg width="412pt" height="764pt"
 viewBox="0.00 0.00 412.00 764.00" xmlns="http://www.w3.org/2000/svg" xmlns:xlink="http://www.w3.org/1999/xlink">
<g id="graph0" class="graph" transform="scale(1 1) rotate(0) translate(4 760)">
<title>snakemake_dag</title>
<polygon fill="white" stroke="white" points="-4,5 -4,-760 409,-760 409,5 -4,5"/>
<!-- 0 -->
<g id="node1" class="node"><title>0</title>
<path fill="none" stroke="#d88556" stroke-width="2" d="M202,-36C202,-36 172,-36 172,-36 166,-36 160,-30 160,-24 160,-24 160,-12 160,-12 160,-6 166,-0 172,-0 172,-0 202,-0 202,-0 208,-0 214,-6 214,-12 214,-12 214,-24 214,-24 214,-30 208,-36 202,-36"/>
<text text-anchor="middle" x="187" y="-15.5" font-family="sans" font-size="10.00">all</text>
</g>
<!-- 1 -->
<g id="node2" class="node"><title>1</title>
<path fill="none" stroke="#5682d8" stroke-width="2" d="M100.25,-108C100.25,-108 11.75,-108 11.75,-108 5.75,-108 -0.25,-102 -0.25,-96 -0.25,-96 -0.25,-84 -0.25,-84 -0.25,-78 5.75,-72 11.75,-72 11.75,-72 100.25,-72 100.25,-72 106.25,-72 112.25,-78 112.25,-84 112.25,-84 112.25,-96 112.25,-96 112.25,-102 106.25,-108 100.25,-108"/>
<text text-anchor="middle" x="56" y="-87.5" font-family="sans" font-size="10.00">repeatmasker_good</text>
</g>
<!-- 1&#45;&gt;0 -->
<g id="edge1" class="edge"><title>1&#45;&gt;0</title>
<path fill="none" stroke="grey" stroke-width="2" d="M88.0462,-71.8761C107.01,-61.743 131.087,-48.8773 150.743,-38.374"/>
<polygon fill="grey" stroke="grey" points="152.541,-41.3816 159.711,-33.5818 149.242,-35.2078 152.541,-41.3816"/>
</g>
<!-- 2 -->
<g id="node3" class="node"><title>2</title>
<path fill="none" stroke="#5682d8" stroke-width="2" d="M231.25,-108C231.25,-108 142.75,-108 142.75,-108 136.75,-108 130.75,-102 130.75,-96 130.75,-96 130.75,-84 130.75,-84 130.75,-78 136.75,-72 142.75,-72 142.75,-72 231.25,-72 231.25,-72 237.25,-72 243.25,-78 243.25,-84 243.25,-84 243.25,-96 243.25,-96 243.25,-102 237.25,-108 231.25,-108"/>
<text text-anchor="middle" x="187" y="-87.5" font-family="sans" font-size="10.00">repeatmasker_good</text>
</g>
<!-- 2&#45;&gt;0 -->
<g id="edge2" class="edge"><title>2&#45;&gt;0</title>
<path fill="none" stroke="grey" stroke-width="2" d="M187,-71.6966C187,-63.9827 187,-54.7125 187,-46.1124"/>
<polygon fill="grey" stroke="grey" points="190.5,-46.1043 187,-36.1043 183.5,-46.1044 190.5,-46.1043"/>
</g>
<!-- 3 -->
<g id="node4" class="node"><title>3</title>
<path fill="none" stroke="#5682d8" stroke-width="2" d="M362.25,-108C362.25,-108 273.75,-108 273.75,-108 267.75,-108 261.75,-102 261.75,-96 261.75,-96 261.75,-84 261.75,-84 261.75,-78 267.75,-72 273.75,-72 273.75,-72 362.25,-72 362.25,-72 368.25,-72 374.25,-78 374.25,-84 374.25,-84 374.25,-96 374.25,-96 374.25,-102 368.25,-108 362.25,-108"/>
<text text-anchor="middle" x="318" y="-87.5" font-family="sans" font-size="10.00">repeatmasker_good</text>
</g>
<!-- 3&#45;&gt;0 -->
<g id="edge3" class="edge"><title>3&#45;&gt;0</title>
<path fill="none" stroke="grey" stroke-width="2" d="M285.954,-71.8761C266.99,-61.743 242.913,-48.8773 223.257,-38.374"/>
<polygon fill="grey" stroke="grey" points="224.758,-35.2078 214.289,-33.5818 221.459,-41.3816 224.758,-35.2078"/>
</g>
<!-- 4 -->
<g id="node5" class="node"><title>4</title>
<path fill="none" stroke="#56b1d8" stroke-width="2" stroke-dasharray="5,2" d="M112,-180C112,-180 52,-180 52,-180 46,-180 40,-174 40,-168 40,-168 40,-156 40,-156 40,-150 46,-144 52,-144 52,-144 112,-144 112,-144 118,-144 124,-150 124,-156 124,-156 124,-168 124,-168 124,-174 118,-180 112,-180"/>
<text text-anchor="middle" x="82" y="-159.5" font-family="sans" font-size="10.00">repeatmasker</text>
</g>
<!-- 4&#45;&gt;1 -->
<g id="edge4" class="edge"><title>4&#45;&gt;1</title>
<path fill="none" stroke="grey" stroke-width="2" d="M75.573,-143.697C72.6449,-135.813 69.113,-126.304 65.8601,-117.546"/>
<polygon fill="grey" stroke="grey" points="69.116,-116.26 62.353,-108.104 62.554,-118.697 69.116,-116.26"/>
</g>
<!-- 5 -->
<g id="node6" class="node"><title>5</title>
<path fill="none" stroke="#9fd856" stroke-width="2" stroke-dasharray="5,2" d="M102.25,-252C102.25,-252 61.75,-252 61.75,-252 55.75,-252 49.75,-246 49.75,-240 49.75,-240 49.75,-228 49.75,-228 49.75,-222 55.75,-216 61.75,-216 61.75,-216 102.25,-216 102.25,-216 108.25,-216 114.25,-222 114.25,-228 114.25,-228 114.25,-240 114.25,-240 114.25,-246 108.25,-252 102.25,-252"/>
<text text-anchor="middle" x="82" y="-237" font-family="sans" font-size="10.00">split_fasta</text>
<text text-anchor="middle" x="82" y="-226" font-family="sans" font-size="10.00">n: 2</text>
</g>
<!-- 5&#45;&gt;1 -->
<g id="edge5" class="edge"><title>5&#45;&gt;1</title>
<path fill="none" stroke="grey" stroke-width="2" d="M58.695,-215.819C48.0994,-206.538 36.6799,-194.094 31,-180 22.6731,-159.337 30.7257,-134.917 39.8436,-116.888"/>
<polygon fill="grey" stroke="grey" points="42.9222,-118.553 44.6277,-108.096 36.7736,-115.207 42.9222,-118.553"/>
</g>
<!-- 5&#45;&gt;4 -->
<g id="edge10" class="edge"><title>5&#45;&gt;4</title>
<path fill="none" stroke="grey" stroke-width="2" d="M82,-215.697C82,-207.983 82,-198.712 82,-190.112"/>
<polygon fill="grey" stroke="grey" points="85.5001,-190.104 82,-180.104 78.5001,-190.104 85.5001,-190.104"/>
</g>
<!-- 6 -->
<g id="node7" class="node"><title>6</title>
<path fill="none" stroke="#56b1d8" stroke-width="2" stroke-dasharray="5,2" d="M252,-180C252,-180 192,-180 192,-180 186,-180 180,-174 180,-168 180,-168 180,-156 180,-156 180,-150 186,-144 192,-144 192,-144 252,-144 252,-144 258,-144 264,-150 264,-156 264,-156 264,-168 264,-168 264,-174 258,-180 252,-180"/>
<text text-anchor="middle" x="222" y="-159.5" font-family="sans" font-size="10.00">repeatmasker</text>
</g>
<!-- 6&#45;&gt;2 -->
<g id="edge6" class="edge"><title>6&#45;&gt;2</title>
<path fill="none" stroke="grey" stroke-width="2" d="M213.348,-143.697C209.364,-135.728 204.55,-126.1 200.132,-117.264"/>
<polygon fill="grey" stroke="grey" points="203.155,-115.483 195.552,-108.104 196.894,-118.614 203.155,-115.483"/>
</g>
<!-- 7 -->
<g id="node8" class="node"><title>7</title>
<path fill="none" stroke="#9fd856" stroke-width="2" stroke-dasharray="5,2" d="M207.25,-252C207.25,-252 166.75,-252 166.75,-252 160.75,-252 154.75,-246 154.75,-240 154.75,-240 154.75,-228 154.75,-228 154.75,-222 160.75,-216 166.75,-216 166.75,-216 207.25,-216 207.25,-216 213.25,-216 219.25,-222 219.25,-228 219.25,-228 219.25,-240 219.25,-240 219.25,-246 213.25,-252 207.25,-252"/>
<text text-anchor="middle" x="187" y="-237" font-family="sans" font-size="10.00">split_fasta</text>
<text text-anchor="middle" x="187" y="-226" font-family="sans" font-size="10.00">n: 3</text>
</g>
<!-- 7&#45;&gt;2 -->
<g id="edge7" class="edge"><title>7&#45;&gt;2</title>
<path fill="none" stroke="grey" stroke-width="2" d="M180.348,-215.628C176.797,-205.421 172.797,-192.171 171,-180 168.663,-164.172 168.663,-159.828 171,-144 172.278,-135.347 174.669,-126.149 177.22,-117.887"/>
<polygon fill="grey" stroke="grey" points="180.55,-118.965 180.348,-108.372 173.9,-116.779 180.55,-118.965"/>
</g>
<!-- 7&#45;&gt;6 -->
<g id="edge12" class="edge"><title>7&#45;&gt;6</title>
<path fill="none" stroke="grey" stroke-width="2" d="M195.652,-215.697C199.636,-207.728 204.45,-198.1 208.868,-189.264"/>
<polygon fill="grey" stroke="grey" points="212.106,-190.614 213.448,-180.104 205.845,-187.483 212.106,-190.614"/>
</g>
<!-- 8 -->
<g id="node9" class="node"><title>8</title>
<path fill="none" stroke="#56b1d8" stroke-width="2" stroke-dasharray="5,2" d="M392,-180C392,-180 332,-180 332,-180 326,-180 320,-174 320,-168 320,-168 320,-156 320,-156 320,-150 326,-144 332,-144 332,-144 392,-144 392,-144 398,-144 404,-150 404,-156 404,-156 404,-168 404,-168 404,-174 398,-180 392,-180"/>
<text text-anchor="middle" x="362" y="-159.5" font-family="sans" font-size="10.00">repeatmasker</text>
</g>
<!-- 8&#45;&gt;3 -->
<g id="edge8" class="edge"><title>8&#45;&gt;3</title>
<path fill="none" stroke="grey" stroke-width="2" d="M351.124,-143.697C346.008,-135.559 339.805,-125.689 334.155,-116.701"/>
<polygon fill="grey" stroke="grey" points="337.036,-114.708 328.751,-108.104 331.11,-118.433 337.036,-114.708"/>
</g>
<!-- 9 -->
<g id="node10" class="node"><title>9</title>
<path fill="none" stroke="#9fd856" stroke-width="2" stroke-dasharray="5,2" d="M312.25,-252C312.25,-252 271.75,-252 271.75,-252 265.75,-252 259.75,-246 259.75,-240 259.75,-240 259.75,-228 259.75,-228 259.75,-222 265.75,-216 271.75,-216 271.75,-216 312.25,-216 312.25,-216 318.25,-216 324.25,-222 324.25,-228 324.25,-228 324.25,-240 324.25,-240 324.25,-246 318.25,-252 312.25,-252"/>
<text text-anchor="middle" x="292" y="-237" font-family="sans" font-size="10.00">split_fasta</text>
<text text-anchor="middle" x="292" y="-226" font-family="sans" font-size="10.00">n: 1</text>
</g>
<!-- 9&#45;&gt;3 -->
<g id="edge9" class="edge"><title>9&#45;&gt;3</title>
<path fill="none" stroke="grey" stroke-width="2" d="M295.136,-215.871C299.567,-191.67 307.708,-147.211 312.984,-118.393"/>
<polygon fill="grey" stroke="grey" points="316.494,-118.656 314.853,-108.189 309.609,-117.395 316.494,-118.656"/>
</g>
<!-- 9&#45;&gt;8 -->
<g id="edge14" class="edge"><title>9&#45;&gt;8</title>
<path fill="none" stroke="grey" stroke-width="2" d="M309.303,-215.697C317.865,-207.135 328.344,-196.656 337.696,-187.304"/>
<polygon fill="grey" stroke="grey" points="340.299,-189.65 344.896,-180.104 335.35,-184.701 340.299,-189.65"/>
</g>
<!-- 10 -->
<g id="node11" class="node"><title>10</title>
<path fill="none" stroke="#70d856" stroke-width="2" stroke-dasharray="5,2" d="M213.25,-324C213.25,-324 160.75,-324 160.75,-324 154.75,-324 148.75,-318 148.75,-312 148.75,-312 148.75,-300 148.75,-300 148.75,-294 154.75,-288 160.75,-288 160.75,-288 213.25,-288 213.25,-288 219.25,-288 225.25,-294 225.25,-300 225.25,-300 225.25,-312 225.25,-312 225.25,-318 219.25,-324 213.25,-324"/>
<text text-anchor="middle" x="187" y="-303.5" font-family="sans" font-size="10.00">tantan_good</text>
</g>
<!-- 10&#45;&gt;5 -->
<g id="edge11" class="edge"><title>10&#45;&gt;5</title>
<path fill="none" stroke="grey" stroke-width="2" d="M161.314,-287.876C147.712,-278.808 130.828,-267.552 116.139,-257.759"/>
<polygon fill="grey" stroke="grey" points="118.047,-254.825 107.785,-252.19 114.164,-260.649 118.047,-254.825"/>
</g>
<!-- 10&#45;&gt;7 -->
<g id="edge13" class="edge"><title>10&#45;&gt;7</title>
<path fill="none" stroke="grey" stroke-width="2" d="M187,-287.697C187,-279.983 187,-270.712 187,-262.112"/>
<polygon fill="grey" stroke="grey" points="190.5,-262.104 187,-252.104 183.5,-262.104 190.5,-262.104"/>
</g>
<!-- 10&#45;&gt;9 -->
<g id="edge15" class="edge"><title>10&#45;&gt;9</title>
<path fill="none" stroke="grey" stroke-width="2" d="M212.686,-287.876C226.288,-278.808 243.172,-267.552 257.861,-257.759"/>
<polygon fill="grey" stroke="grey" points="259.836,-260.649 266.215,-252.19 255.953,-254.825 259.836,-260.649"/>
</g>
<!-- 11 -->
<g id="node12" class="node"><title>11</title>
<path fill="none" stroke="#d85656" stroke-width="2" stroke-dasharray="5,2" d="M202,-396C202,-396 172,-396 172,-396 166,-396 160,-390 160,-384 160,-384 160,-372 160,-372 160,-366 166,-360 172,-360 172,-360 202,-360 202,-360 208,-360 214,-366 214,-372 214,-372 214,-384 214,-384 214,-390 208,-396 202,-396"/>
<text text-anchor="middle" x="187" y="-375.5" font-family="sans" font-size="10.00">tantan</text>
</g>
<!-- 11&#45;&gt;10 -->
<g id="edge16" class="edge"><title>11&#45;&gt;10</title>
<path fill="none" stroke="grey" stroke-width="2" d="M187,-359.697C187,-351.983 187,-342.712 187,-334.112"/>
<polygon fill="grey" stroke="grey" points="190.5,-334.104 187,-324.104 183.5,-334.104 190.5,-334.104"/>
</g>
<!-- 12 -->
<g id="node13" class="node"><title>12</title>
<path fill="none" stroke="#56d86b" stroke-width="2" stroke-dasharray="5,2" d="M202,-468C202,-468 172,-468 172,-468 166,-468 160,-462 160,-456 160,-456 160,-444 160,-444 160,-438 166,-432 172,-432 172,-432 202,-432 202,-432 208,-432 214,-438 214,-444 214,-444 214,-456 214,-456 214,-462 208,-468 202,-468"/>
<text text-anchor="middle" x="187" y="-447.5" font-family="sans" font-size="10.00">cd_hit</text>
</g>
<!-- 12&#45;&gt;11 -->
<g id="edge17" class="edge"><title>12&#45;&gt;11</title>
<path fill="none" stroke="grey" stroke-width="2" d="M187,-431.697C187,-423.983 187,-414.712 187,-406.112"/>
<polygon fill="grey" stroke="grey" points="190.5,-406.104 187,-396.104 183.5,-406.104 190.5,-406.104"/>
</g>
<!-- 13 -->
<g id="node14" class="node"><title>13</title>
<path fill="none" stroke="#56d8c9" stroke-width="2" stroke-dasharray="5,2" d="M210.25,-540C210.25,-540 163.75,-540 163.75,-540 157.75,-540 151.75,-534 151.75,-528 151.75,-528 151.75,-516 151.75,-516 151.75,-510 157.75,-504 163.75,-504 163.75,-504 210.25,-504 210.25,-504 216.25,-504 222.25,-510 222.25,-516 222.25,-516 222.25,-528 222.25,-528 222.25,-534 216.25,-540 210.25,-540"/>
<text text-anchor="middle" x="187" y="-519.5" font-family="sans" font-size="10.00">fastq2fasta</text>
</g>
<!-- 13&#45;&gt;12 -->
<g id="edge18" class="edge"><title>13&#45;&gt;12</title>
<path fill="none" stroke="grey" stroke-width="2" d="M187,-503.697C187,-495.983 187,-486.712 187,-478.112"/>
<polygon fill="grey" stroke="grey" points="190.5,-478.104 187,-468.104 183.5,-478.104 190.5,-478.104"/>
</g>
<!-- 14 -->
<g id="node15" class="node"><title>14</title>
<path fill="none" stroke="#d8b456" stroke-width="2" stroke-dasharray="5,2" d="M215,-612C215,-612 159,-612 159,-612 153,-612 147,-606 147,-600 147,-600 147,-588 147,-588 147,-582 153,-576 159,-576 159,-576 215,-576 215,-576 221,-576 227,-582 227,-588 227,-588 227,-600 227,-600 227,-606 221,-612 215,-612"/>
<text text-anchor="middle" x="187" y="-591.5" font-family="sans" font-size="10.00">merge_reads</text>
</g>
<!-- 14&#45;&gt;13 -->
<g id="edge19" class="edge"><title>14&#45;&gt;13</title>
<path fill="none" stroke="grey" stroke-width="2" d="M187,-575.697C187,-567.983 187,-558.712 187,-550.112"/>
<polygon fill="grey" stroke="grey" points="190.5,-550.104 187,-540.104 183.5,-550.104 190.5,-550.104"/>
</g>
<!-- 15 -->
<g id="node16" class="node"><title>15</title>
<path fill="none" stroke="#56d89a" stroke-width="2" stroke-dasharray="5,2" d="M206,-684C206,-684 168,-684 168,-684 162,-684 156,-678 156,-672 156,-672 156,-660 156,-660 156,-654 162,-648 168,-648 168,-648 206,-648 206,-648 212,-648 218,-654 218,-660 218,-660 218,-672 218,-672 218,-678 212,-684 206,-684"/>
<text text-anchor="middle" x="187" y="-663.5" font-family="sans" font-size="10.00">fastq_join</text>
</g>
<!-- 15&#45;&gt;14 -->
<g id="edge20" class="edge"><title>15&#45;&gt;14</title>
<path fill="none" stroke="grey" stroke-width="2" d="M187,-647.697C187,-639.983 187,-630.712 187,-622.112"/>
<polygon fill="grey" stroke="grey" points="190.5,-622.104 187,-612.104 183.5,-622.104 190.5,-622.104"/>
</g>
<!-- 16 -->
<g id="node17" class="node"><title>16</title>
<path fill="none" stroke="#ced856" stroke-width="2" stroke-dasharray="5,2" d="M323,-756C323,-756 51,-756 51,-756 45,-756 39,-750 39,-744 39,-744 39,-732 39,-732 39,-726 45,-720 51,-720 51,-720 323,-720 323,-720 329,-720 335,-726 335,-732 335,-732 335,-744 335,-744 335,-750 329,-756 323,-756"/>
<text text-anchor="middle" x="187" y="-741" font-family="sans" font-size="10.00">fastp</text>
<text text-anchor="middle" x="187" y="-730" font-family="sans" font-size="10.00">sample: I1164_12629_Harvard_SIV_196_06_2_24_12_mini</text>
</g>
<!-- 16&#45;&gt;15 -->
<g id="edge21" class="edge"><title>16&#45;&gt;15</title>
<path fill="none" stroke="grey" stroke-width="2" d="M187,-719.697C187,-711.983 187,-702.712 187,-694.112"/>
<polygon fill="grey" stroke="grey" points="190.5,-694.104 187,-684.104 183.5,-694.104 190.5,-694.104"/>
</g>
</g>
</svg>
