<?xml version="1.0" encoding="UTF-8" standalone="no"?>
<!DOCTYPE svg PUBLIC "-//W3C//DTD SVG 1.1//EN"
 "http://www.w3.org/Graphics/SVG/1.1/DTD/svg11.dtd">
<!-- Generated by graphviz version 2.30.1 (20150306.0020)
 -->
<!-- Title: snakemake_dag Pages: 1 -->
<svg width="304pt" height="692pt"
 viewBox="0.00 0.00 304.00 692.00" xmlns="http://www.w3.org/2000/svg" xmlns:xlink="http://www.w3.org/1999/xlink">
<g id="graph0" class="graph" transform="scale(1 1) rotate(0) translate(4 688)">
<title>snakemake_dag</title>
<polygon fill="white" stroke="white" points="-4,5 -4,-688 301,-688 301,5 -4,5"/>
<!-- 0 -->
<g id="node1" class="node"><title>0</title>
<path fill="none" stroke="#59d856" stroke-width="2" d="M163,-36C163,-36 133,-36 133,-36 127,-36 121,-30 121,-24 121,-24 121,-12 121,-12 121,-6 127,-0 133,-0 133,-0 163,-0 163,-0 169,-0 175,-6 175,-12 175,-12 175,-24 175,-24 175,-30 169,-36 163,-36"/>
<text text-anchor="middle" x="148" y="-15.5" font-family="sans" font-size="10.00">all</text>
</g>
<!-- 1 -->
<g id="node2" class="node"><title>1</title>
<path fill="none" stroke="#bed856" stroke-width="2" d="M76,-108C76,-108 16,-108 16,-108 10,-108 4,-102 4,-96 4,-96 4,-84 4,-84 4,-78 10,-72 16,-72 16,-72 76,-72 76,-72 82,-72 88,-78 88,-84 88,-84 88,-96 88,-96 88,-102 82,-108 76,-108"/>
<text text-anchor="middle" x="46" y="-87.5" font-family="sans" font-size="10.00">repeatmasker</text>
</g>
<!-- 1&#45;&gt;0 -->
<g id="edge1" class="edge"><title>1&#45;&gt;0</title>
<path fill="none" stroke="grey" stroke-width="2" d="M70.952,-71.8761C84.0415,-62.8931 100.26,-51.7625 114.436,-42.0341"/>
<polygon fill="grey" stroke="grey" points="116.687,-44.734 122.952,-36.1898 112.726,-38.9624 116.687,-44.734"/>
</g>
<!-- 2 -->
<g id="node3" class="node"><title>2</title>
<path fill="none" stroke="#bed856" stroke-width="2" d="M178,-108C178,-108 118,-108 118,-108 112,-108 106,-102 106,-96 106,-96 106,-84 106,-84 106,-78 112,-72 118,-72 118,-72 178,-72 178,-72 184,-72 190,-78 190,-84 190,-84 190,-96 190,-96 190,-102 184,-108 178,-108"/>
<text text-anchor="middle" x="148" y="-87.5" font-family="sans" font-size="10.00">repeatmasker</text>
</g>
<!-- 2&#45;&gt;0 -->
<g id="edge2" class="edge"><title>2&#45;&gt;0</title>
<path fill="none" stroke="grey" stroke-width="2" d="M148,-71.6966C148,-63.9827 148,-54.7125 148,-46.1124"/>
<polygon fill="grey" stroke="grey" points="151.5,-46.1043 148,-36.1043 144.5,-46.1044 151.5,-46.1043"/>
</g>
<!-- 3 -->
<g id="node4" class="node"><title>3</title>
<path fill="none" stroke="#bed856" stroke-width="2" d="M280,-108C280,-108 220,-108 220,-108 214,-108 208,-102 208,-96 208,-96 208,-84 208,-84 208,-78 214,-72 220,-72 220,-72 280,-72 280,-72 286,-72 292,-78 292,-84 292,-84 292,-96 292,-96 292,-102 286,-108 280,-108"/>
<text text-anchor="middle" x="250" y="-87.5" font-family="sans" font-size="10.00">repeatmasker</text>
</g>
<!-- 3&#45;&gt;0 -->
<g id="edge3" class="edge"><title>3&#45;&gt;0</title>
<path fill="none" stroke="grey" stroke-width="2" d="M225.048,-71.8761C211.958,-62.8931 195.74,-51.7625 181.564,-42.0341"/>
<polygon fill="grey" stroke="grey" points="183.274,-38.9624 173.048,-36.1898 179.313,-44.734 183.274,-38.9624"/>
</g>
<!-- 4 -->
<g id="node5" class="node"><title>4</title>
<path fill="none" stroke="#d8bc56" stroke-width="2" d="M75.25,-180C75.25,-180 34.75,-180 34.75,-180 28.75,-180 22.75,-174 22.75,-168 22.75,-168 22.75,-156 22.75,-156 22.75,-150 28.75,-144 34.75,-144 34.75,-144 75.25,-144 75.25,-144 81.25,-144 87.25,-150 87.25,-156 87.25,-156 87.25,-168 87.25,-168 87.25,-174 81.25,-180 75.25,-180"/>
<text text-anchor="middle" x="55" y="-165" font-family="sans" font-size="10.00">split_fasta</text>
<text text-anchor="middle" x="55" y="-154" font-family="sans" font-size="10.00">n: 1</text>
</g>
<!-- 4&#45;&gt;1 -->
<g id="edge4" class="edge"><title>4&#45;&gt;1</title>
<path fill="none" stroke="grey" stroke-width="2" d="M52.7753,-143.697C51.7835,-135.983 50.5916,-126.712 49.4859,-118.112"/>
<polygon fill="grey" stroke="grey" points="52.9459,-117.576 48.1991,-108.104 46.003,-118.469 52.9459,-117.576"/>
</g>
<!-- 5 -->
<g id="node6" class="node"><title>5</title>
<path fill="none" stroke="#d8bc56" stroke-width="2" d="M168.25,-180C168.25,-180 127.75,-180 127.75,-180 121.75,-180 115.75,-174 115.75,-168 115.75,-168 115.75,-156 115.75,-156 115.75,-150 121.75,-144 127.75,-144 127.75,-144 168.25,-144 168.25,-144 174.25,-144 180.25,-150 180.25,-156 180.25,-156 180.25,-168 180.25,-168 180.25,-174 174.25,-180 168.25,-180"/>
<text text-anchor="middle" x="148" y="-165" font-family="sans" font-size="10.00">split_fasta</text>
<text text-anchor="middle" x="148" y="-154" font-family="sans" font-size="10.00">n: 2</text>
</g>
<!-- 5&#45;&gt;2 -->
<g id="edge5" class="edge"><title>5&#45;&gt;2</title>
<path fill="none" stroke="grey" stroke-width="2" d="M148,-143.697C148,-135.983 148,-126.712 148,-118.112"/>
<polygon fill="grey" stroke="grey" points="151.5,-118.104 148,-108.104 144.5,-118.104 151.5,-118.104"/>
</g>
<!-- 6 -->
<g id="node7" class="node"><title>6</title>
<path fill="none" stroke="#d8bc56" stroke-width="2" d="M260.25,-180C260.25,-180 219.75,-180 219.75,-180 213.75,-180 207.75,-174 207.75,-168 207.75,-168 207.75,-156 207.75,-156 207.75,-150 213.75,-144 219.75,-144 219.75,-144 260.25,-144 260.25,-144 266.25,-144 272.25,-150 272.25,-156 272.25,-156 272.25,-168 272.25,-168 272.25,-174 266.25,-180 260.25,-180"/>
<text text-anchor="middle" x="240" y="-165" font-family="sans" font-size="10.00">split_fasta</text>
<text text-anchor="middle" x="240" y="-154" font-family="sans" font-size="10.00">n: 3</text>
</g>
<!-- 6&#45;&gt;3 -->
<g id="edge6" class="edge"><title>6&#45;&gt;3</title>
<path fill="none" stroke="grey" stroke-width="2" d="M242.472,-143.697C243.574,-135.983 244.898,-126.712 246.127,-118.112"/>
<polygon fill="grey" stroke="grey" points="249.607,-118.499 247.557,-108.104 242.677,-117.509 249.607,-118.499"/>
</g>
<!-- 7 -->
<g id="node8" class="node"><title>7</title>
<path fill="none" stroke="#56c1d8" stroke-width="2" d="M188,-252C188,-252 108,-252 108,-252 102,-252 96,-246 96,-240 96,-240 96,-228 96,-228 96,-222 102,-216 108,-216 108,-216 188,-216 188,-216 194,-216 200,-222 200,-228 200,-228 200,-240 200,-240 200,-246 194,-252 188,-252"/>
<text text-anchor="middle" x="148" y="-231.5" font-family="sans" font-size="10.00">tantan_goodreads</text>
</g>
<!-- 7&#45;&gt;4 -->
<g id="edge7" class="edge"><title>7&#45;&gt;4</title>
<path fill="none" stroke="grey" stroke-width="2" d="M125.011,-215.697C113.186,-206.796 98.608,-195.823 85.8214,-186.199"/>
<polygon fill="grey" stroke="grey" points="87.8188,-183.322 77.7243,-180.104 83.6092,-188.915 87.8188,-183.322"/>
</g>
<!-- 7&#45;&gt;5 -->
<g id="edge8" class="edge"><title>7&#45;&gt;5</title>
<path fill="none" stroke="grey" stroke-width="2" d="M148,-215.697C148,-207.983 148,-198.712 148,-190.112"/>
<polygon fill="grey" stroke="grey" points="151.5,-190.104 148,-180.104 144.5,-190.104 151.5,-190.104"/>
</g>
<!-- 7&#45;&gt;6 -->
<g id="edge9" class="edge"><title>7&#45;&gt;6</title>
<path fill="none" stroke="grey" stroke-width="2" d="M170.742,-215.697C182.44,-206.796 196.861,-195.823 209.51,-186.199"/>
<polygon fill="grey" stroke="grey" points="211.681,-188.945 217.52,-180.104 207.442,-183.374 211.681,-188.945"/>
</g>
<!-- 8 -->
<g id="node9" class="node"><title>8</title>
<path fill="none" stroke="#56d88a" stroke-width="2" d="M163,-324C163,-324 133,-324 133,-324 127,-324 121,-318 121,-312 121,-312 121,-300 121,-300 121,-294 127,-288 133,-288 133,-288 163,-288 163,-288 169,-288 175,-294 175,-300 175,-300 175,-312 175,-312 175,-318 169,-324 163,-324"/>
<text text-anchor="middle" x="148" y="-303.5" font-family="sans" font-size="10.00">tantan</text>
</g>
<!-- 8&#45;&gt;7 -->
<g id="edge10" class="edge"><title>8&#45;&gt;7</title>
<path fill="none" stroke="grey" stroke-width="2" d="M148,-287.697C148,-279.983 148,-270.712 148,-262.112"/>
<polygon fill="grey" stroke="grey" points="151.5,-262.104 148,-252.104 144.5,-262.104 151.5,-262.104"/>
</g>
<!-- 9 -->
<g id="node10" class="node"><title>9</title>
<path fill="none" stroke="#56d8c1" stroke-width="2" d="M163,-396C163,-396 133,-396 133,-396 127,-396 121,-390 121,-384 121,-384 121,-372 121,-372 121,-366 127,-360 133,-360 133,-360 163,-360 163,-360 169,-360 175,-366 175,-372 175,-372 175,-384 175,-384 175,-390 169,-396 163,-396"/>
<text text-anchor="middle" x="148" y="-375.5" font-family="sans" font-size="10.00">cd_hit</text>
</g>
<!-- 9&#45;&gt;8 -->
<g id="edge11" class="edge"><title>9&#45;&gt;8</title>
<path fill="none" stroke="grey" stroke-width="2" d="M148,-359.697C148,-351.983 148,-342.712 148,-334.112"/>
<polygon fill="grey" stroke="grey" points="151.5,-334.104 148,-324.104 144.5,-334.104 151.5,-334.104"/>
</g>
<!-- 10 -->
<g id="node11" class="node"><title>10</title>
<path fill="none" stroke="#88d856" stroke-width="2" d="M171.25,-468C171.25,-468 124.75,-468 124.75,-468 118.75,-468 112.75,-462 112.75,-456 112.75,-456 112.75,-444 112.75,-444 112.75,-438 118.75,-432 124.75,-432 124.75,-432 171.25,-432 171.25,-432 177.25,-432 183.25,-438 183.25,-444 183.25,-444 183.25,-456 183.25,-456 183.25,-462 177.25,-468 171.25,-468"/>
<text text-anchor="middle" x="148" y="-447.5" font-family="sans" font-size="10.00">fastq2fasta</text>
</g>
<!-- 10&#45;&gt;9 -->
<g id="edge12" class="edge"><title>10&#45;&gt;9</title>
<path fill="none" stroke="grey" stroke-width="2" d="M148,-431.697C148,-423.983 148,-414.712 148,-406.112"/>
<polygon fill="grey" stroke="grey" points="151.5,-406.104 148,-396.104 144.5,-406.104 151.5,-406.104"/>
</g>
<!-- 11 -->
<g id="node12" class="node"><title>11</title>
<path fill="none" stroke="#568ad8" stroke-width="2" d="M176,-540C176,-540 120,-540 120,-540 114,-540 108,-534 108,-528 108,-528 108,-516 108,-516 108,-510 114,-504 120,-504 120,-504 176,-504 176,-504 182,-504 188,-510 188,-516 188,-516 188,-528 188,-528 188,-534 182,-540 176,-540"/>
<text text-anchor="middle" x="148" y="-519.5" font-family="sans" font-size="10.00">merge_reads</text>
</g>
<!-- 11&#45;&gt;10 -->
<g id="edge13" class="edge"><title>11&#45;&gt;10</title>
<path fill="none" stroke="grey" stroke-width="2" d="M148,-503.697C148,-495.983 148,-486.712 148,-478.112"/>
<polygon fill="grey" stroke="grey" points="151.5,-478.104 148,-468.104 144.5,-478.104 151.5,-478.104"/>
</g>
<!-- 12 -->
<g id="node13" class="node"><title>12</title>
<path fill="none" stroke="#d88d56" stroke-width="2" d="M167,-612C167,-612 129,-612 129,-612 123,-612 117,-606 117,-600 117,-600 117,-588 117,-588 117,-582 123,-576 129,-576 129,-576 167,-576 167,-576 173,-576 179,-582 179,-588 179,-588 179,-600 179,-600 179,-606 173,-612 167,-612"/>
<text text-anchor="middle" x="148" y="-591.5" font-family="sans" font-size="10.00">fastq_join</text>
</g>
<!-- 12&#45;&gt;11 -->
<g id="edge14" class="edge"><title>12&#45;&gt;11</title>
<path fill="none" stroke="grey" stroke-width="2" d="M148,-575.697C148,-567.983 148,-558.712 148,-550.112"/>
<polygon fill="grey" stroke="grey" points="151.5,-550.104 148,-540.104 144.5,-550.104 151.5,-550.104"/>
</g>
<!-- 13 -->
<g id="node14" class="node"><title>13</title>
<path fill="none" stroke="#d85656" stroke-width="2" d="M284,-684C284,-684 12,-684 12,-684 6,-684 0,-678 0,-672 0,-672 0,-660 0,-660 0,-654 6,-648 12,-648 12,-648 284,-648 284,-648 290,-648 296,-654 296,-660 296,-660 296,-672 296,-672 296,-678 290,-684 284,-684"/>
<text text-anchor="middle" x="148" y="-669" font-family="sans" font-size="10.00">fastp</text>
<text text-anchor="middle" x="148" y="-658" font-family="sans" font-size="10.00">sample: I1164_12629_Harvard_SIV_196_06_2_24_12_mini</text>
</g>
<!-- 13&#45;&gt;12 -->
<g id="edge15" class="edge"><title>13&#45;&gt;12</title>
<path fill="none" stroke="grey" stroke-width="2" d="M148,-647.697C148,-639.983 148,-630.712 148,-622.112"/>
<polygon fill="grey" stroke="grey" points="151.5,-622.104 148,-612.104 144.5,-622.104 151.5,-622.104"/>
</g>
</g>
</svg>
