<?xml version="1.0" encoding="UTF-8" standalone="no"?>
<!DOCTYPE svg PUBLIC "-//W3C//DTD SVG 1.1//EN"
 "http://www.w3.org/Graphics/SVG/1.1/DTD/svg11.dtd">
<!-- Generated by graphviz version 2.30.1 (20150306.0020)
 -->
<!-- Title: snakemake_dag Pages: 1 -->
<svg width="304pt" height="548pt"
 viewBox="0.00 0.00 304.00 548.00" xmlns="http://www.w3.org/2000/svg" xmlns:xlink="http://www.w3.org/1999/xlink">
<g id="graph0" class="graph" transform="scale(1 1) rotate(0) translate(4 544)">
<title>snakemake_dag</title>
<polygon fill="white" stroke="white" points="-4,5 -4,-544 301,-544 301,5 -4,5"/>
<!-- 0 -->
<g id="node1" class="node"><title>0</title>
<path fill="none" stroke="#d89556" stroke-width="2" stroke-dasharray="5,2" d="M163,-36C163,-36 133,-36 133,-36 127,-36 121,-30 121,-24 121,-24 121,-12 121,-12 121,-6 127,-0 133,-0 133,-0 163,-0 163,-0 169,-0 175,-6 175,-12 175,-12 175,-24 175,-24 175,-30 169,-36 163,-36"/>
<text text-anchor="middle" x="148" y="-15.5" font-family="sans" font-size="10.00">all</text>
</g>
<!-- 1 -->
<g id="node2" class="node"><title>1</title>
<path fill="none" stroke="#97d856" stroke-width="2" stroke-dasharray="5,2" d="M188,-108C188,-108 108,-108 108,-108 102,-108 96,-102 96,-96 96,-96 96,-84 96,-84 96,-78 102,-72 108,-72 108,-72 188,-72 188,-72 194,-72 200,-78 200,-84 200,-84 200,-96 200,-96 200,-102 194,-108 188,-108"/>
<text text-anchor="middle" x="148" y="-87.5" font-family="sans" font-size="10.00">tantan_goodreads</text>
</g>
<!-- 1&#45;&gt;0 -->
<g id="edge1" class="edge"><title>1&#45;&gt;0</title>
<path fill="none" stroke="grey" stroke-width="2" d="M148,-71.6966C148,-63.9827 148,-54.7125 148,-46.1124"/>
<polygon fill="grey" stroke="grey" points="151.5,-46.1043 148,-36.1043 144.5,-46.1044 151.5,-46.1043"/>
</g>
<!-- 2 -->
<g id="node3" class="node"><title>2</title>
<path fill="none" stroke="#56d8d8" stroke-width="2" stroke-dasharray="5,2" d="M163,-180C163,-180 133,-180 133,-180 127,-180 121,-174 121,-168 121,-168 121,-156 121,-156 121,-150 127,-144 133,-144 133,-144 163,-144 163,-144 169,-144 175,-150 175,-156 175,-156 175,-168 175,-168 175,-174 169,-180 163,-180"/>
<text text-anchor="middle" x="148" y="-159.5" font-family="sans" font-size="10.00">tantan</text>
</g>
<!-- 2&#45;&gt;1 -->
<g id="edge2" class="edge"><title>2&#45;&gt;1</title>
<path fill="none" stroke="grey" stroke-width="2" d="M148,-143.697C148,-135.983 148,-126.712 148,-118.112"/>
<polygon fill="grey" stroke="grey" points="151.5,-118.104 148,-108.104 144.5,-118.104 151.5,-118.104"/>
</g>
<!-- 3 -->
<g id="node4" class="node"><title>3</title>
<path fill="none" stroke="#59d856" stroke-width="2" stroke-dasharray="5,2" d="M163,-252C163,-252 133,-252 133,-252 127,-252 121,-246 121,-240 121,-240 121,-228 121,-228 121,-222 127,-216 133,-216 133,-216 163,-216 163,-216 169,-216 175,-222 175,-228 175,-228 175,-240 175,-240 175,-246 169,-252 163,-252"/>
<text text-anchor="middle" x="148" y="-231.5" font-family="sans" font-size="10.00">cd_hit</text>
</g>
<!-- 3&#45;&gt;2 -->
<g id="edge3" class="edge"><title>3&#45;&gt;2</title>
<path fill="none" stroke="grey" stroke-width="2" d="M148,-215.697C148,-207.983 148,-198.712 148,-190.112"/>
<polygon fill="grey" stroke="grey" points="151.5,-190.104 148,-180.104 144.5,-190.104 151.5,-190.104"/>
</g>
<!-- 4 -->
<g id="node5" class="node"><title>4</title>
<path fill="none" stroke="#d6d856" stroke-width="2" stroke-dasharray="5,2" d="M171.25,-324C171.25,-324 124.75,-324 124.75,-324 118.75,-324 112.75,-318 112.75,-312 112.75,-312 112.75,-300 112.75,-300 112.75,-294 118.75,-288 124.75,-288 124.75,-288 171.25,-288 171.25,-288 177.25,-288 183.25,-294 183.25,-300 183.25,-300 183.25,-312 183.25,-312 183.25,-318 177.25,-324 171.25,-324"/>
<text text-anchor="middle" x="148" y="-303.5" font-family="sans" font-size="10.00">fastq2fasta</text>
</g>
<!-- 4&#45;&gt;3 -->
<g id="edge4" class="edge"><title>4&#45;&gt;3</title>
<path fill="none" stroke="grey" stroke-width="2" d="M148,-287.697C148,-279.983 148,-270.712 148,-262.112"/>
<polygon fill="grey" stroke="grey" points="151.5,-262.104 148,-252.104 144.5,-262.104 151.5,-262.104"/>
</g>
<!-- 5 -->
<g id="node6" class="node"><title>5</title>
<path fill="none" stroke="#d85656" stroke-width="2" stroke-dasharray="5,2" d="M176,-396C176,-396 120,-396 120,-396 114,-396 108,-390 108,-384 108,-384 108,-372 108,-372 108,-366 114,-360 120,-360 120,-360 176,-360 176,-360 182,-360 188,-366 188,-372 188,-372 188,-384 188,-384 188,-390 182,-396 176,-396"/>
<text text-anchor="middle" x="148" y="-375.5" font-family="sans" font-size="10.00">merge_reads</text>
</g>
<!-- 5&#45;&gt;4 -->
<g id="edge5" class="edge"><title>5&#45;&gt;4</title>
<path fill="none" stroke="grey" stroke-width="2" d="M148,-359.697C148,-351.983 148,-342.712 148,-334.112"/>
<polygon fill="grey" stroke="grey" points="151.5,-334.104 148,-324.104 144.5,-334.104 151.5,-334.104"/>
</g>
<!-- 6 -->
<g id="node7" class="node"><title>6</title>
<path fill="none" stroke="#569ad8" stroke-width="2" stroke-dasharray="5,2" d="M167,-468C167,-468 129,-468 129,-468 123,-468 117,-462 117,-456 117,-456 117,-444 117,-444 117,-438 123,-432 129,-432 129,-432 167,-432 167,-432 173,-432 179,-438 179,-444 179,-444 179,-456 179,-456 179,-462 173,-468 167,-468"/>
<text text-anchor="middle" x="148" y="-447.5" font-family="sans" font-size="10.00">fastq_join</text>
</g>
<!-- 6&#45;&gt;5 -->
<g id="edge6" class="edge"><title>6&#45;&gt;5</title>
<path fill="none" stroke="grey" stroke-width="2" d="M148,-431.697C148,-423.983 148,-414.712 148,-406.112"/>
<polygon fill="grey" stroke="grey" points="151.5,-406.104 148,-396.104 144.5,-406.104 151.5,-406.104"/>
</g>
<!-- 7 -->
<g id="node8" class="node"><title>7</title>
<path fill="none" stroke="#56d89a" stroke-width="2" stroke-dasharray="5,2" d="M284,-540C284,-540 12,-540 12,-540 6,-540 0,-534 0,-528 0,-528 0,-516 0,-516 0,-510 6,-504 12,-504 12,-504 284,-504 284,-504 290,-504 296,-510 296,-516 296,-516 296,-528 296,-528 296,-534 290,-540 284,-540"/>
<text text-anchor="middle" x="148" y="-525" font-family="sans" font-size="10.00">fastp</text>
<text text-anchor="middle" x="148" y="-514" font-family="sans" font-size="10.00">sample: I1164_12629_Harvard_SIV_196_06_2_24_12_mini</text>
</g>
<!-- 7&#45;&gt;6 -->
<g id="edge7" class="edge"><title>7&#45;&gt;6</title>
<path fill="none" stroke="grey" stroke-width="2" d="M148,-503.697C148,-495.983 148,-486.712 148,-478.112"/>
<polygon fill="grey" stroke="grey" points="151.5,-478.104 148,-468.104 144.5,-478.104 151.5,-478.104"/>
</g>
</g>
</svg>
