<?xml version="1.0" encoding="UTF-8" standalone="no"?>
<!DOCTYPE svg PUBLIC "-//W3C//DTD SVG 1.1//EN"
 "http://www.w3.org/Graphics/SVG/1.1/DTD/svg11.dtd">
<!-- Generated by graphviz version 2.30.1 (20150306.0020)
 -->
<!-- Title: snakemake_dag Pages: 1 -->
<svg width="320pt" height="1124pt"
 viewBox="0.00 0.00 320.00 1124.00" xmlns="http://www.w3.org/2000/svg" xmlns:xlink="http://www.w3.org/1999/xlink">
<g id="graph0" class="graph" transform="scale(1 1) rotate(0) translate(4 1120)">
<title>snakemake_dag</title>
<polygon fill="white" stroke="white" points="-4,5 -4,-1120 317,-1120 317,5 -4,5"/>
<!-- 0 -->
<g id="node1" class="node"><title>0</title>
<path fill="none" stroke="#56b9d8" stroke-width="2" d="M176,-972C176,-972 120,-972 120,-972 114,-972 108,-966 108,-960 108,-960 108,-948 108,-948 108,-942 114,-936 120,-936 120,-936 176,-936 176,-936 182,-936 188,-942 188,-948 188,-948 188,-960 188,-960 188,-966 182,-972 176,-972"/>
<text text-anchor="middle" x="148" y="-951.5" font-family="sans" font-size="10.00">merge_reads</text>
</g>
<!-- 16 -->
<g id="node17" class="node"><title>16</title>
<path fill="none" stroke="#56d87b" stroke-width="2" d="M171.25,-900C171.25,-900 124.75,-900 124.75,-900 118.75,-900 112.75,-894 112.75,-888 112.75,-888 112.75,-876 112.75,-876 112.75,-870 118.75,-864 124.75,-864 124.75,-864 171.25,-864 171.25,-864 177.25,-864 183.25,-870 183.25,-876 183.25,-876 183.25,-888 183.25,-888 183.25,-894 177.25,-900 171.25,-900"/>
<text text-anchor="middle" x="148" y="-879.5" font-family="sans" font-size="10.00">fastq2fasta</text>
</g>
<!-- 0&#45;&gt;16 -->
<g id="edge20" class="edge"><title>0&#45;&gt;16</title>
<path fill="none" stroke="grey" stroke-width="2" d="M148,-935.697C148,-927.983 148,-918.712 148,-910.112"/>
<polygon fill="grey" stroke="grey" points="151.5,-910.104 148,-900.104 144.5,-910.104 151.5,-910.104"/>
</g>
<!-- 1 -->
<g id="node2" class="node"><title>1</title>
<path fill="none" stroke="#567bd8" stroke-width="2" d="M117.25,-612C117.25,-612 76.75,-612 76.75,-612 70.75,-612 64.75,-606 64.75,-600 64.75,-600 64.75,-588 64.75,-588 64.75,-582 70.75,-576 76.75,-576 76.75,-576 117.25,-576 117.25,-576 123.25,-576 129.25,-582 129.25,-588 129.25,-588 129.25,-600 129.25,-600 129.25,-606 123.25,-612 117.25,-612"/>
<text text-anchor="middle" x="97" y="-597" font-family="sans" font-size="10.00">split_fasta</text>
<text text-anchor="middle" x="97" y="-586" font-family="sans" font-size="10.00">n: 1</text>
</g>
<!-- 3 -->
<g id="node4" class="node"><title>3</title>
<path fill="none" stroke="#56d8b9" stroke-width="2" d="M116.25,-468C116.25,-468 27.75,-468 27.75,-468 21.75,-468 15.75,-462 15.75,-456 15.75,-456 15.75,-444 15.75,-444 15.75,-438 21.75,-432 27.75,-432 27.75,-432 116.25,-432 116.25,-432 122.25,-432 128.25,-438 128.25,-444 128.25,-444 128.25,-456 128.25,-456 128.25,-462 122.25,-468 116.25,-468"/>
<text text-anchor="middle" x="72" y="-447.5" font-family="sans" font-size="10.00">repeatmasker_good</text>
</g>
<!-- 1&#45;&gt;3 -->
<g id="edge4" class="edge"><title>1&#45;&gt;3</title>
<path fill="none" stroke="grey" stroke-width="2" d="M73.695,-575.819C63.0994,-566.538 51.6799,-554.094 46,-540 37.6483,-519.276 45.9969,-494.86 55.3912,-476.849"/>
<polygon fill="grey" stroke="grey" points="58.4772,-478.502 60.3162,-468.068 52.3718,-475.077 58.4772,-478.502"/>
</g>
<!-- 9 -->
<g id="node10" class="node"><title>9</title>
<path fill="none" stroke="#78d856" stroke-width="2" d="M127,-540C127,-540 67,-540 67,-540 61,-540 55,-534 55,-528 55,-528 55,-516 55,-516 55,-510 61,-504 67,-504 67,-504 127,-504 127,-504 133,-504 139,-510 139,-516 139,-516 139,-528 139,-528 139,-534 133,-540 127,-540"/>
<text text-anchor="middle" x="97" y="-519.5" font-family="sans" font-size="10.00">repeatmasker</text>
</g>
<!-- 1&#45;&gt;9 -->
<g id="edge12" class="edge"><title>1&#45;&gt;9</title>
<path fill="none" stroke="grey" stroke-width="2" d="M97,-575.697C97,-567.983 97,-558.712 97,-550.112"/>
<polygon fill="grey" stroke="grey" points="100.5,-550.104 97,-540.104 93.5001,-550.104 100.5,-550.104"/>
</g>
<!-- 2 -->
<g id="node3" class="node"><title>2</title>
<path fill="none" stroke="#56d8d8" stroke-width="2" d="M163,-756C163,-756 133,-756 133,-756 127,-756 121,-750 121,-744 121,-744 121,-732 121,-732 121,-726 127,-720 133,-720 133,-720 163,-720 163,-720 169,-720 175,-726 175,-732 175,-732 175,-744 175,-744 175,-750 169,-756 163,-756"/>
<text text-anchor="middle" x="148" y="-735.5" font-family="sans" font-size="10.00">tantan</text>
</g>
<!-- 22 -->
<g id="node23" class="node"><title>22</title>
<path fill="none" stroke="#d6d856" stroke-width="2" d="M174.25,-684C174.25,-684 121.75,-684 121.75,-684 115.75,-684 109.75,-678 109.75,-672 109.75,-672 109.75,-660 109.75,-660 109.75,-654 115.75,-648 121.75,-648 121.75,-648 174.25,-648 174.25,-648 180.25,-648 186.25,-654 186.25,-660 186.25,-660 186.25,-672 186.25,-672 186.25,-678 180.25,-684 174.25,-684"/>
<text text-anchor="middle" x="148" y="-663.5" font-family="sans" font-size="10.00">tantan_good</text>
</g>
<!-- 2&#45;&gt;22 -->
<g id="edge27" class="edge"><title>2&#45;&gt;22</title>
<path fill="none" stroke="grey" stroke-width="2" d="M148,-719.697C148,-711.983 148,-702.712 148,-694.112"/>
<polygon fill="grey" stroke="grey" points="151.5,-694.104 148,-684.104 144.5,-694.104 151.5,-694.104"/>
</g>
<!-- 6 -->
<g id="node7" class="node"><title>6</title>
<path fill="none" stroke="#59d856" stroke-width="2" d="M80,-396C80,-396 38,-396 38,-396 32,-396 26,-390 26,-384 26,-384 26,-372 26,-372 26,-366 32,-360 38,-360 38,-360 80,-360 80,-360 86,-360 92,-366 92,-372 92,-372 92,-384 92,-384 92,-390 86,-396 80,-396"/>
<text text-anchor="middle" x="59" y="-375.5" font-family="sans" font-size="10.00">bwa_mem</text>
</g>
<!-- 3&#45;&gt;6 -->
<g id="edge9" class="edge"><title>3&#45;&gt;6</title>
<path fill="none" stroke="grey" stroke-width="2" d="M68.7865,-431.697C67.3539,-423.983 65.6323,-414.712 64.0352,-406.112"/>
<polygon fill="grey" stroke="grey" points="67.4437,-405.297 62.1765,-396.104 60.5614,-406.575 67.4437,-405.297"/>
</g>
<!-- 21 -->
<g id="node22" class="node"><title>21</title>
<path fill="none" stroke="#d89556" stroke-width="2" d="M125,-252C125,-252 37,-252 37,-252 31,-252 25,-246 25,-240 25,-240 25,-228 25,-228 25,-222 31,-216 37,-216 37,-216 125,-216 125,-216 131,-216 137,-222 137,-228 137,-228 137,-240 137,-240 137,-246 131,-252 125,-252"/>
<text text-anchor="middle" x="81" y="-231.5" font-family="sans" font-size="10.00">unmapped_masked</text>
</g>
<!-- 3&#45;&gt;21 -->
<g id="edge25" class="edge"><title>3&#45;&gt;21</title>
<path fill="none" stroke="grey" stroke-width="2" d="M83.7631,-431.629C89.9357,-421.639 97.023,-408.603 101,-396 115.484,-350.099 120.582,-334.717 109,-288 106.708,-278.753 102.474,-269.342 97.9808,-261.067"/>
<polygon fill="grey" stroke="grey" points="100.929,-259.173 92.8872,-252.275 94.8721,-262.682 100.929,-259.173"/>
</g>
<!-- 4 -->
<g id="node5" class="node"><title>4</title>
<path fill="none" stroke="#569ad8" stroke-width="2" d="M167,-1044C167,-1044 129,-1044 129,-1044 123,-1044 117,-1038 117,-1032 117,-1032 117,-1020 117,-1020 117,-1014 123,-1008 129,-1008 129,-1008 167,-1008 167,-1008 173,-1008 179,-1014 179,-1020 179,-1020 179,-1032 179,-1032 179,-1038 173,-1044 167,-1044"/>
<text text-anchor="middle" x="148" y="-1023.5" font-family="sans" font-size="10.00">fastq_join</text>
</g>
<!-- 4&#45;&gt;0 -->
<g id="edge1" class="edge"><title>4&#45;&gt;0</title>
<path fill="none" stroke="grey" stroke-width="2" d="M148,-1007.7C148,-999.983 148,-990.712 148,-982.112"/>
<polygon fill="grey" stroke="grey" points="151.5,-982.104 148,-972.104 144.5,-982.104 151.5,-982.104"/>
</g>
<!-- 5 -->
<g id="node6" class="node"><title>5</title>
<path fill="none" stroke="#d89556" stroke-width="2" d="M274,-252C274,-252 186,-252 186,-252 180,-252 174,-246 174,-240 174,-240 174,-228 174,-228 174,-222 180,-216 186,-216 186,-216 274,-216 274,-216 280,-216 286,-222 286,-228 286,-228 286,-240 286,-240 286,-246 280,-252 274,-252"/>
<text text-anchor="middle" x="230" y="-231.5" font-family="sans" font-size="10.00">unmapped_masked</text>
</g>
<!-- 19 -->
<g id="node20" class="node"><title>19</title>
<path fill="none" stroke="#d87556" stroke-width="2" d="M283.25,-180C283.25,-180 176.75,-180 176.75,-180 170.75,-180 164.75,-174 164.75,-168 164.75,-168 164.75,-156 164.75,-156 164.75,-150 170.75,-144 176.75,-144 176.75,-144 283.25,-144 283.25,-144 289.25,-144 295.25,-150 295.25,-156 295.25,-156 295.25,-168 295.25,-168 295.25,-174 289.25,-180 283.25,-180"/>
<text text-anchor="middle" x="230" y="-159.5" font-family="sans" font-size="10.00">megablast_ref_genome</text>
</g>
<!-- 5&#45;&gt;19 -->
<g id="edge23" class="edge"><title>5&#45;&gt;19</title>
<path fill="none" stroke="grey" stroke-width="2" d="M230,-215.697C230,-207.983 230,-198.712 230,-190.112"/>
<polygon fill="grey" stroke="grey" points="233.5,-190.104 230,-180.104 226.5,-190.104 233.5,-190.104"/>
</g>
<!-- 7 -->
<g id="node8" class="node"><title>7</title>
<path fill="none" stroke="#b6d856" stroke-width="2" d="M88.25,-324C88.25,-324 11.75,-324 11.75,-324 5.75,-324 -0.25,-318 -0.25,-312 -0.25,-312 -0.25,-300 -0.25,-300 -0.25,-294 5.75,-288 11.75,-288 11.75,-288 88.25,-288 88.25,-288 94.25,-288 100.25,-294 100.25,-300 100.25,-300 100.25,-312 100.25,-312 100.25,-318 94.25,-324 88.25,-324"/>
<text text-anchor="middle" x="50" y="-303.5" font-family="sans" font-size="10.00">unmapped_reads</text>
</g>
<!-- 6&#45;&gt;7 -->
<g id="edge10" class="edge"><title>6&#45;&gt;7</title>
<path fill="none" stroke="grey" stroke-width="2" d="M56.7753,-359.697C55.7835,-351.983 54.5916,-342.712 53.4859,-334.112"/>
<polygon fill="grey" stroke="grey" points="56.9459,-333.576 52.1991,-324.104 50.003,-334.469 56.9459,-333.576"/>
</g>
<!-- 7&#45;&gt;21 -->
<g id="edge26" class="edge"><title>7&#45;&gt;21</title>
<path fill="none" stroke="grey" stroke-width="2" d="M57.6629,-287.697C61.1917,-279.728 65.4559,-270.1 69.3687,-261.264"/>
<polygon fill="grey" stroke="grey" points="72.5761,-262.665 73.4252,-252.104 66.1757,-259.831 72.5761,-262.665"/>
</g>
<!-- 8 -->
<g id="node9" class="node"><title>8</title>
<path fill="none" stroke="#d8b456" stroke-width="2" d="M134,-108C134,-108 58,-108 58,-108 52,-108 46,-102 46,-96 46,-96 46,-84 46,-84 46,-78 52,-72 58,-72 58,-72 134,-72 134,-72 140,-72 146,-78 146,-84 146,-84 146,-96 146,-96 146,-102 140,-108 134,-108"/>
<text text-anchor="middle" x="96" y="-87.5" font-family="sans" font-size="10.00">parse_megablast</text>
</g>
<!-- 14 -->
<g id="node15" class="node"><title>14</title>
<path fill="none" stroke="#d85656" stroke-width="2" d="M174,-36C174,-36 144,-36 144,-36 138,-36 132,-30 132,-24 132,-24 132,-12 132,-12 132,-6 138,-0 144,-0 144,-0 174,-0 174,-0 180,-0 186,-6 186,-12 186,-12 186,-24 186,-24 186,-30 180,-36 174,-36"/>
<text text-anchor="middle" x="159" y="-15.5" font-family="sans" font-size="10.00">all</text>
</g>
<!-- 8&#45;&gt;14 -->
<g id="edge18" class="edge"><title>8&#45;&gt;14</title>
<path fill="none" stroke="grey" stroke-width="2" d="M111.573,-71.6966C119.202,-63.2198 128.523,-52.8636 136.876,-43.5826"/>
<polygon fill="grey" stroke="grey" points="139.518,-45.8787 143.606,-36.1043 134.315,-41.1959 139.518,-45.8787"/>
</g>
<!-- 9&#45;&gt;3 -->
<g id="edge5" class="edge"><title>9&#45;&gt;3</title>
<path fill="none" stroke="grey" stroke-width="2" d="M90.8202,-503.697C88.0047,-495.813 84.6087,-486.304 81.4809,-477.546"/>
<polygon fill="grey" stroke="grey" points="84.7682,-476.345 78.1087,-468.104 78.176,-478.699 84.7682,-476.345"/>
</g>
<!-- 10 -->
<g id="node11" class="node"><title>10</title>
<path fill="none" stroke="#78d856" stroke-width="2" d="M229,-540C229,-540 169,-540 169,-540 163,-540 157,-534 157,-528 157,-528 157,-516 157,-516 157,-510 163,-504 169,-504 169,-504 229,-504 229,-504 235,-504 241,-510 241,-516 241,-516 241,-528 241,-528 241,-534 235,-540 229,-540"/>
<text text-anchor="middle" x="199" y="-519.5" font-family="sans" font-size="10.00">repeatmasker</text>
</g>
<!-- 13 -->
<g id="node14" class="node"><title>13</title>
<path fill="none" stroke="#56d8b9" stroke-width="2" d="M267.25,-468C267.25,-468 178.75,-468 178.75,-468 172.75,-468 166.75,-462 166.75,-456 166.75,-456 166.75,-444 166.75,-444 166.75,-438 172.75,-432 178.75,-432 178.75,-432 267.25,-432 267.25,-432 273.25,-432 279.25,-438 279.25,-444 279.25,-444 279.25,-456 279.25,-456 279.25,-462 273.25,-468 267.25,-468"/>
<text text-anchor="middle" x="223" y="-447.5" font-family="sans" font-size="10.00">repeatmasker_good</text>
</g>
<!-- 10&#45;&gt;13 -->
<g id="edge16" class="edge"><title>10&#45;&gt;13</title>
<path fill="none" stroke="grey" stroke-width="2" d="M204.933,-503.697C207.606,-495.898 210.826,-486.509 213.801,-477.829"/>
<polygon fill="grey" stroke="grey" points="217.203,-478.699 217.136,-468.104 210.582,-476.429 217.203,-478.699"/>
</g>
<!-- 11 -->
<g id="node12" class="node"><title>11</title>
<path fill="none" stroke="#97d856" stroke-width="2" d="M163,-828C163,-828 133,-828 133,-828 127,-828 121,-822 121,-816 121,-816 121,-804 121,-804 121,-798 127,-792 133,-792 133,-792 163,-792 163,-792 169,-792 175,-798 175,-804 175,-804 175,-816 175,-816 175,-822 169,-828 163,-828"/>
<text text-anchor="middle" x="148" y="-807.5" font-family="sans" font-size="10.00">cd_hit</text>
</g>
<!-- 11&#45;&gt;2 -->
<g id="edge3" class="edge"><title>11&#45;&gt;2</title>
<path fill="none" stroke="grey" stroke-width="2" d="M148,-791.697C148,-783.983 148,-774.712 148,-766.112"/>
<polygon fill="grey" stroke="grey" points="151.5,-766.104 148,-756.104 144.5,-766.104 151.5,-766.104"/>
</g>
<!-- 12 -->
<g id="node13" class="node"><title>12</title>
<path fill="none" stroke="#d87556" stroke-width="2" d="M134.25,-180C134.25,-180 27.75,-180 27.75,-180 21.75,-180 15.75,-174 15.75,-168 15.75,-168 15.75,-156 15.75,-156 15.75,-150 21.75,-144 27.75,-144 27.75,-144 134.25,-144 134.25,-144 140.25,-144 146.25,-150 146.25,-156 146.25,-156 146.25,-168 146.25,-168 146.25,-174 140.25,-180 134.25,-180"/>
<text text-anchor="middle" x="81" y="-159.5" font-family="sans" font-size="10.00">megablast_ref_genome</text>
</g>
<!-- 12&#45;&gt;8 -->
<g id="edge11" class="edge"><title>12&#45;&gt;8</title>
<path fill="none" stroke="grey" stroke-width="2" d="M84.7079,-143.697C86.3608,-135.983 88.3473,-126.712 90.1902,-118.112"/>
<polygon fill="grey" stroke="grey" points="93.6617,-118.616 92.3348,-108.104 86.8171,-117.149 93.6617,-118.616"/>
</g>
<!-- 13&#45;&gt;5 -->
<g id="edge7" class="edge"><title>13&#45;&gt;5</title>
<path fill="none" stroke="grey" stroke-width="2" d="M216.643,-431.844C206.551,-402.154 189.248,-339.437 202,-288 204.292,-278.753 208.526,-269.342 213.019,-261.067"/>
<polygon fill="grey" stroke="grey" points="216.128,-262.682 218.113,-252.275 210.071,-259.173 216.128,-262.682"/>
</g>
<!-- 20 -->
<g id="node21" class="node"><title>20</title>
<path fill="none" stroke="#59d856" stroke-width="2" d="M274,-396C274,-396 232,-396 232,-396 226,-396 220,-390 220,-384 220,-384 220,-372 220,-372 220,-366 226,-360 232,-360 232,-360 274,-360 274,-360 280,-360 286,-366 286,-372 286,-372 286,-384 286,-384 286,-390 280,-396 274,-396"/>
<text text-anchor="middle" x="253" y="-375.5" font-family="sans" font-size="10.00">bwa_mem</text>
</g>
<!-- 13&#45;&gt;20 -->
<g id="edge24" class="edge"><title>13&#45;&gt;20</title>
<path fill="none" stroke="grey" stroke-width="2" d="M230.416,-431.697C233.794,-423.813 237.87,-414.304 241.623,-405.546"/>
<polygon fill="grey" stroke="grey" points="244.947,-406.675 245.67,-396.104 238.513,-403.917 244.947,-406.675"/>
</g>
<!-- 15 -->
<g id="node16" class="node"><title>15</title>
<path fill="none" stroke="#56d89a" stroke-width="2" d="M284,-1116C284,-1116 12,-1116 12,-1116 6,-1116 0,-1110 0,-1104 0,-1104 0,-1092 0,-1092 0,-1086 6,-1080 12,-1080 12,-1080 284,-1080 284,-1080 290,-1080 296,-1086 296,-1092 296,-1092 296,-1104 296,-1104 296,-1110 290,-1116 284,-1116"/>
<text text-anchor="middle" x="148" y="-1101" font-family="sans" font-size="10.00">fastp</text>
<text text-anchor="middle" x="148" y="-1090" font-family="sans" font-size="10.00">sample: I1164_12629_Harvard_SIV_196_06_2_24_12_mini</text>
</g>
<!-- 15&#45;&gt;4 -->
<g id="edge6" class="edge"><title>15&#45;&gt;4</title>
<path fill="none" stroke="grey" stroke-width="2" d="M148,-1079.7C148,-1071.98 148,-1062.71 148,-1054.11"/>
<polygon fill="grey" stroke="grey" points="151.5,-1054.1 148,-1044.1 144.5,-1054.1 151.5,-1054.1"/>
</g>
<!-- 16&#45;&gt;11 -->
<g id="edge14" class="edge"><title>16&#45;&gt;11</title>
<path fill="none" stroke="grey" stroke-width="2" d="M148,-863.697C148,-855.983 148,-846.712 148,-838.112"/>
<polygon fill="grey" stroke="grey" points="151.5,-838.104 148,-828.104 144.5,-838.104 151.5,-838.104"/>
</g>
<!-- 17 -->
<g id="node18" class="node"><title>17</title>
<path fill="none" stroke="#567bd8" stroke-width="2" d="M219.25,-612C219.25,-612 178.75,-612 178.75,-612 172.75,-612 166.75,-606 166.75,-600 166.75,-600 166.75,-588 166.75,-588 166.75,-582 172.75,-576 178.75,-576 178.75,-576 219.25,-576 219.25,-576 225.25,-576 231.25,-582 231.25,-588 231.25,-588 231.25,-600 231.25,-600 231.25,-606 225.25,-612 219.25,-612"/>
<text text-anchor="middle" x="199" y="-597" font-family="sans" font-size="10.00">split_fasta</text>
<text text-anchor="middle" x="199" y="-586" font-family="sans" font-size="10.00">n: 2</text>
</g>
<!-- 17&#45;&gt;10 -->
<g id="edge13" class="edge"><title>17&#45;&gt;10</title>
<path fill="none" stroke="grey" stroke-width="2" d="M199,-575.697C199,-567.983 199,-558.712 199,-550.112"/>
<polygon fill="grey" stroke="grey" points="202.5,-550.104 199,-540.104 195.5,-550.104 202.5,-550.104"/>
</g>
<!-- 17&#45;&gt;13 -->
<g id="edge17" class="edge"><title>17&#45;&gt;13</title>
<path fill="none" stroke="grey" stroke-width="2" d="M222.305,-575.819C232.901,-566.538 244.32,-554.094 250,-540 258.377,-519.212 249.733,-494.802 240.062,-476.809"/>
<polygon fill="grey" stroke="grey" points="243.028,-474.947 234.996,-468.038 236.967,-478.448 243.028,-474.947"/>
</g>
<!-- 18 -->
<g id="node19" class="node"><title>18</title>
<path fill="none" stroke="#d8b456" stroke-width="2" d="M260,-108C260,-108 184,-108 184,-108 178,-108 172,-102 172,-96 172,-96 172,-84 172,-84 172,-78 178,-72 184,-72 184,-72 260,-72 260,-72 266,-72 272,-78 272,-84 272,-84 272,-96 272,-96 272,-102 266,-108 260,-108"/>
<text text-anchor="middle" x="222" y="-87.5" font-family="sans" font-size="10.00">parse_megablast</text>
</g>
<!-- 18&#45;&gt;14 -->
<g id="edge19" class="edge"><title>18&#45;&gt;14</title>
<path fill="none" stroke="grey" stroke-width="2" d="M206.427,-71.6966C198.798,-63.2198 189.477,-52.8636 181.124,-43.5826"/>
<polygon fill="grey" stroke="grey" points="183.685,-41.1959 174.394,-36.1043 178.482,-45.8787 183.685,-41.1959"/>
</g>
<!-- 19&#45;&gt;18 -->
<g id="edge22" class="edge"><title>19&#45;&gt;18</title>
<path fill="none" stroke="grey" stroke-width="2" d="M228.022,-143.697C227.141,-135.983 226.081,-126.712 225.099,-118.112"/>
<polygon fill="grey" stroke="grey" points="228.568,-117.642 223.955,-108.104 221.613,-118.437 228.568,-117.642"/>
</g>
<!-- 23 -->
<g id="node24" class="node"><title>23</title>
<path fill="none" stroke="#b6d856" stroke-width="2" d="M300.25,-324C300.25,-324 223.75,-324 223.75,-324 217.75,-324 211.75,-318 211.75,-312 211.75,-312 211.75,-300 211.75,-300 211.75,-294 217.75,-288 223.75,-288 223.75,-288 300.25,-288 300.25,-288 306.25,-288 312.25,-294 312.25,-300 312.25,-300 312.25,-312 312.25,-312 312.25,-318 306.25,-324 300.25,-324"/>
<text text-anchor="middle" x="262" y="-303.5" font-family="sans" font-size="10.00">unmapped_reads</text>
</g>
<!-- 20&#45;&gt;23 -->
<g id="edge28" class="edge"><title>20&#45;&gt;23</title>
<path fill="none" stroke="grey" stroke-width="2" d="M255.225,-359.697C256.217,-351.983 257.408,-342.712 258.514,-334.112"/>
<polygon fill="grey" stroke="grey" points="261.997,-334.469 259.801,-324.104 255.054,-333.576 261.997,-334.469"/>
</g>
<!-- 21&#45;&gt;12 -->
<g id="edge15" class="edge"><title>21&#45;&gt;12</title>
<path fill="none" stroke="grey" stroke-width="2" d="M81,-215.697C81,-207.983 81,-198.712 81,-190.112"/>
<polygon fill="grey" stroke="grey" points="84.5001,-190.104 81,-180.104 77.5001,-190.104 84.5001,-190.104"/>
</g>
<!-- 22&#45;&gt;1 -->
<g id="edge2" class="edge"><title>22&#45;&gt;1</title>
<path fill="none" stroke="grey" stroke-width="2" d="M135.393,-647.697C129.403,-639.474 122.124,-629.483 115.521,-620.421"/>
<polygon fill="grey" stroke="grey" points="118.179,-618.126 109.462,-612.104 112.522,-622.248 118.179,-618.126"/>
</g>
<!-- 22&#45;&gt;17 -->
<g id="edge21" class="edge"><title>22&#45;&gt;17</title>
<path fill="none" stroke="grey" stroke-width="2" d="M160.607,-647.697C166.597,-639.474 173.876,-629.483 180.479,-620.421"/>
<polygon fill="grey" stroke="grey" points="183.478,-622.248 186.538,-612.104 177.821,-618.126 183.478,-622.248"/>
</g>
<!-- 23&#45;&gt;5 -->
<g id="edge8" class="edge"><title>23&#45;&gt;5</title>
<path fill="none" stroke="grey" stroke-width="2" d="M254.09,-287.697C250.447,-279.728 246.046,-270.1 242.006,-261.264"/>
<polygon fill="grey" stroke="grey" points="245.16,-259.744 237.819,-252.104 238.794,-262.654 245.16,-259.744"/>
</g>
</g>
</svg>
