<?xml version="1.0" encoding="UTF-8" standalone="no"?>
<!DOCTYPE svg PUBLIC "-//W3C//DTD SVG 1.1//EN"
 "http://www.w3.org/Graphics/SVG/1.1/DTD/svg11.dtd">
<!-- Generated by graphviz version 2.38.0 (20140413.2041)
 -->
<!-- Title: snakemake_dag Pages: 1 -->
<svg width="737pt" height="1268pt"
 viewBox="0.00 0.00 737.00 1268.00" xmlns="http://www.w3.org/2000/svg" xmlns:xlink="http://www.w3.org/1999/xlink">
<g id="graph0" class="graph" transform="scale(1 1) rotate(0) translate(4 1264)">
<title>snakemake_dag</title>
<polygon fill="white" stroke="none" points="-4,4 -4,-1264 733,-1264 733,4 -4,4"/>
<!-- 0 -->
<g id="node1" class="node"><title>0</title>
<path fill="none" stroke="#56d8c9" stroke-width="2" stroke-dasharray="1,5" d="M421,-36C421,-36 391,-36 391,-36 385,-36 379,-30 379,-24 379,-24 379,-12 379,-12 379,-6 385,-0 391,-0 391,-0 421,-0 421,-0 427,-0 433,-6 433,-12 433,-12 433,-24 433,-24 433,-30 427,-36 421,-36"/>
<text text-anchor="middle" x="406" y="-15.5" font-family="sans" font-size="10.00">all</text>
</g>
<!-- 1 -->
<g id="node2" class="node"><title>1</title>
<path fill="none" stroke="#d8bc56" stroke-width="2" stroke-dasharray="1,5" d="M322.5,-108C322.5,-108 239.5,-108 239.5,-108 233.5,-108 227.5,-102 227.5,-96 227.5,-96 227.5,-84 227.5,-84 227.5,-78 233.5,-72 239.5,-72 239.5,-72 322.5,-72 322.5,-72 328.5,-72 334.5,-78 334.5,-84 334.5,-84 334.5,-96 334.5,-96 334.5,-102 328.5,-108 322.5,-108"/>
<text text-anchor="middle" x="281" y="-87.5" font-family="sans" font-size="10.00">parse_virusntblast</text>
</g>
<!-- 1&#45;&gt;0 -->
<g id="edge1" class="edge"><title>1&#45;&gt;0</title>
<path fill="none" stroke="grey" stroke-width="2" d="M311.578,-71.8761C329.219,-61.9975 351.496,-49.522 369.982,-39.17"/>
<polygon fill="grey" stroke="grey" stroke-width="2" points="371.701,-42.2192 378.715,-34.2793 368.28,-36.1117 371.701,-42.2192"/>
</g>
<!-- 2 -->
<g id="node3" class="node"><title>2</title>
<path fill="none" stroke="#d8bc56" stroke-width="2" stroke-dasharray="1,5" d="M447.5,-108C447.5,-108 364.5,-108 364.5,-108 358.5,-108 352.5,-102 352.5,-96 352.5,-96 352.5,-84 352.5,-84 352.5,-78 358.5,-72 364.5,-72 364.5,-72 447.5,-72 447.5,-72 453.5,-72 459.5,-78 459.5,-84 459.5,-84 459.5,-96 459.5,-96 459.5,-102 453.5,-108 447.5,-108"/>
<text text-anchor="middle" x="406" y="-87.5" font-family="sans" font-size="10.00">parse_virusntblast</text>
</g>
<!-- 2&#45;&gt;0 -->
<g id="edge2" class="edge"><title>2&#45;&gt;0</title>
<path fill="none" stroke="grey" stroke-width="2" d="M406,-71.6966C406,-63.9827 406,-54.7125 406,-46.1124"/>
<polygon fill="grey" stroke="grey" stroke-width="2" points="409.5,-46.1043 406,-36.1043 402.5,-46.1044 409.5,-46.1043"/>
</g>
<!-- 3 -->
<g id="node4" class="node"><title>3</title>
<path fill="none" stroke="#d8bc56" stroke-width="2" stroke-dasharray="1,5" d="M572.5,-108C572.5,-108 489.5,-108 489.5,-108 483.5,-108 477.5,-102 477.5,-96 477.5,-96 477.5,-84 477.5,-84 477.5,-78 483.5,-72 489.5,-72 489.5,-72 572.5,-72 572.5,-72 578.5,-72 584.5,-78 584.5,-84 584.5,-84 584.5,-96 584.5,-96 584.5,-102 578.5,-108 572.5,-108"/>
<text text-anchor="middle" x="531" y="-87.5" font-family="sans" font-size="10.00">parse_virusntblast</text>
</g>
<!-- 3&#45;&gt;0 -->
<g id="edge3" class="edge"><title>3&#45;&gt;0</title>
<path fill="none" stroke="grey" stroke-width="2" d="M500.422,-71.8761C482.781,-61.9975 460.504,-49.522 442.018,-39.17"/>
<polygon fill="grey" stroke="grey" stroke-width="2" points="443.72,-36.1117 433.285,-34.2793 440.299,-42.2192 443.72,-36.1117"/>
</g>
<!-- 4 -->
<g id="node5" class="node"><title>4</title>
<path fill="none" stroke="#d8d356" stroke-width="2" stroke-dasharray="1,5" d="M318.5,-180C318.5,-180 251.5,-180 251.5,-180 245.5,-180 239.5,-174 239.5,-168 239.5,-168 239.5,-156 239.5,-156 239.5,-150 245.5,-144 251.5,-144 251.5,-144 318.5,-144 318.5,-144 324.5,-144 330.5,-150 330.5,-156 330.5,-156 330.5,-168 330.5,-168 330.5,-174 324.5,-180 318.5,-180"/>
<text text-anchor="middle" x="285" y="-159.5" font-family="sans" font-size="10.00">blastn_virus_nt</text>
</g>
<!-- 4&#45;&gt;1 -->
<g id="edge4" class="edge"><title>4&#45;&gt;1</title>
<path fill="none" stroke="grey" stroke-width="2" d="M284.011,-143.697C283.57,-135.983 283.041,-126.712 282.549,-118.112"/>
<polygon fill="grey" stroke="grey" stroke-width="2" points="286.042,-117.888 281.977,-108.104 279.054,-118.288 286.042,-117.888"/>
</g>
<!-- 5 -->
<g id="node6" class="node"><title>5</title>
<path fill="none" stroke="#56d0d8" stroke-width="2" stroke-dasharray="1,5" d="M258.5,-252C258.5,-252 181.5,-252 181.5,-252 175.5,-252 169.5,-246 169.5,-240 169.5,-240 169.5,-228 169.5,-228 169.5,-222 175.5,-216 181.5,-216 181.5,-216 258.5,-216 258.5,-216 264.5,-216 270.5,-222 270.5,-228 270.5,-228 270.5,-240 270.5,-240 270.5,-246 264.5,-252 258.5,-252"/>
<text text-anchor="middle" x="220" y="-231.5" font-family="sans" font-size="10.00">parse_megablast</text>
</g>
<!-- 5&#45;&gt;1 -->
<g id="edge5" class="edge"><title>5&#45;&gt;1</title>
<path fill="none" stroke="grey" stroke-width="2" d="M218.747,-215.721C218.105,-197.115 219.161,-167.081 230,-144 235.08,-133.183 243.261,-123.192 251.598,-114.868"/>
<polygon fill="grey" stroke="grey" stroke-width="2" points="254.007,-117.406 258.89,-108.004 249.209,-112.31 254.007,-117.406"/>
</g>
<!-- 5&#45;&gt;4 -->
<g id="edge10" class="edge"><title>5&#45;&gt;4</title>
<path fill="none" stroke="grey" stroke-width="2" d="M236.067,-215.697C243.939,-207.22 253.555,-196.864 262.173,-187.583"/>
<polygon fill="grey" stroke="grey" stroke-width="2" points="264.878,-189.814 269.117,-180.104 259.748,-185.051 264.878,-189.814"/>
</g>
<!-- 6 -->
<g id="node7" class="node"><title>6</title>
<path fill="none" stroke="#d8d356" stroke-width="2" stroke-dasharray="1,5" d="M480.5,-180C480.5,-180 413.5,-180 413.5,-180 407.5,-180 401.5,-174 401.5,-168 401.5,-168 401.5,-156 401.5,-156 401.5,-150 407.5,-144 413.5,-144 413.5,-144 480.5,-144 480.5,-144 486.5,-144 492.5,-150 492.5,-156 492.5,-156 492.5,-168 492.5,-168 492.5,-174 486.5,-180 480.5,-180"/>
<text text-anchor="middle" x="447" y="-159.5" font-family="sans" font-size="10.00">blastn_virus_nt</text>
</g>
<!-- 6&#45;&gt;2 -->
<g id="edge6" class="edge"><title>6&#45;&gt;2</title>
<path fill="none" stroke="grey" stroke-width="2" d="M436.865,-143.697C432.148,-135.644 426.438,-125.894 421.218,-116.982"/>
<polygon fill="grey" stroke="grey" stroke-width="2" points="424.092,-114.964 416.018,-108.104 418.052,-118.502 424.092,-114.964"/>
</g>
<!-- 7 -->
<g id="node8" class="node"><title>7</title>
<path fill="none" stroke="#56d0d8" stroke-width="2" stroke-dasharray="1,5" d="M419.5,-252C419.5,-252 342.5,-252 342.5,-252 336.5,-252 330.5,-246 330.5,-240 330.5,-240 330.5,-228 330.5,-228 330.5,-222 336.5,-216 342.5,-216 342.5,-216 419.5,-216 419.5,-216 425.5,-216 431.5,-222 431.5,-228 431.5,-228 431.5,-240 431.5,-240 431.5,-246 425.5,-252 419.5,-252"/>
<text text-anchor="middle" x="381" y="-231.5" font-family="sans" font-size="10.00">parse_megablast</text>
</g>
<!-- 7&#45;&gt;2 -->
<g id="edge7" class="edge"><title>7&#45;&gt;2</title>
<path fill="none" stroke="grey" stroke-width="2" d="M382.427,-215.83C384.086,-197.827 387.221,-168.765 392,-144 393.648,-135.458 395.904,-126.26 398.124,-117.962"/>
<polygon fill="grey" stroke="grey" stroke-width="2" points="401.573,-118.622 400.868,-108.05 394.826,-116.754 401.573,-118.622"/>
</g>
<!-- 7&#45;&gt;6 -->
<g id="edge13" class="edge"><title>7&#45;&gt;6</title>
<path fill="none" stroke="grey" stroke-width="2" d="M397.315,-215.697C405.307,-207.22 415.072,-196.864 423.822,-187.583"/>
<polygon fill="grey" stroke="grey" stroke-width="2" points="426.559,-189.781 430.873,-180.104 421.466,-184.979 426.559,-189.781"/>
</g>
<!-- 8 -->
<g id="node9" class="node"><title>8</title>
<path fill="none" stroke="#d8d356" stroke-width="2" stroke-dasharray="1,5" d="M635.5,-180C635.5,-180 568.5,-180 568.5,-180 562.5,-180 556.5,-174 556.5,-168 556.5,-168 556.5,-156 556.5,-156 556.5,-150 562.5,-144 568.5,-144 568.5,-144 635.5,-144 635.5,-144 641.5,-144 647.5,-150 647.5,-156 647.5,-156 647.5,-168 647.5,-168 647.5,-174 641.5,-180 635.5,-180"/>
<text text-anchor="middle" x="602" y="-159.5" font-family="sans" font-size="10.00">blastn_virus_nt</text>
</g>
<!-- 8&#45;&gt;3 -->
<g id="edge8" class="edge"><title>8&#45;&gt;3</title>
<path fill="none" stroke="grey" stroke-width="2" d="M584.449,-143.697C575.766,-135.135 565.137,-124.656 555.652,-115.304"/>
<polygon fill="grey" stroke="grey" stroke-width="2" points="557.927,-112.633 548.349,-108.104 553.012,-117.617 557.927,-112.633"/>
</g>
<!-- 9 -->
<g id="node10" class="node"><title>9</title>
<path fill="none" stroke="#56d0d8" stroke-width="2" stroke-dasharray="1,5" d="M611.5,-252C611.5,-252 534.5,-252 534.5,-252 528.5,-252 522.5,-246 522.5,-240 522.5,-240 522.5,-228 522.5,-228 522.5,-222 528.5,-216 534.5,-216 534.5,-216 611.5,-216 611.5,-216 617.5,-216 623.5,-222 623.5,-228 623.5,-228 623.5,-240 623.5,-240 623.5,-246 617.5,-252 611.5,-252"/>
<text text-anchor="middle" x="573" y="-231.5" font-family="sans" font-size="10.00">parse_megablast</text>
</g>
<!-- 9&#45;&gt;3 -->
<g id="edge9" class="edge"><title>9&#45;&gt;3</title>
<path fill="none" stroke="grey" stroke-width="2" d="M563.067,-215.849C557.589,-205.715 551.089,-192.465 547,-180 540.364,-159.769 536.268,-135.996 533.884,-118.11"/>
<polygon fill="grey" stroke="grey" stroke-width="2" points="537.344,-117.571 532.643,-108.076 530.397,-118.43 537.344,-117.571"/>
</g>
<!-- 9&#45;&gt;8 -->
<g id="edge16" class="edge"><title>9&#45;&gt;8</title>
<path fill="none" stroke="grey" stroke-width="2" d="M580.169,-215.697C583.435,-207.813 587.374,-198.304 591.002,-189.546"/>
<polygon fill="grey" stroke="grey" stroke-width="2" points="594.32,-190.683 594.914,-180.104 587.853,-188.003 594.32,-190.683"/>
</g>
<!-- 10 -->
<g id="node11" class="node"><title>10</title>
<path fill="none" stroke="#d88556" stroke-width="2" stroke-dasharray="1,5" d="M297,-324C297,-324 189,-324 189,-324 183,-324 177,-318 177,-312 177,-312 177,-300 177,-300 177,-294 183,-288 189,-288 189,-288 297,-288 297,-288 303,-288 309,-294 309,-300 309,-300 309,-312 309,-312 309,-318 303,-324 297,-324"/>
<text text-anchor="middle" x="243" y="-303.5" font-family="sans" font-size="10.00">megablast_ref_genome</text>
</g>
<!-- 10&#45;&gt;5 -->
<g id="edge11" class="edge"><title>10&#45;&gt;5</title>
<path fill="none" stroke="grey" stroke-width="2" d="M237.315,-287.697C234.752,-279.898 231.667,-270.509 228.815,-261.829"/>
<polygon fill="grey" stroke="grey" stroke-width="2" points="232.067,-260.512 225.62,-252.104 225.416,-262.697 232.067,-260.512"/>
</g>
<!-- 11 -->
<g id="node12" class="node"><title>11</title>
<path fill="none" stroke="#d85656" stroke-width="2" stroke-dasharray="1,5" d="M223.5,-396C223.5,-396 134.5,-396 134.5,-396 128.5,-396 122.5,-390 122.5,-384 122.5,-384 122.5,-372 122.5,-372 122.5,-366 128.5,-360 134.5,-360 134.5,-360 223.5,-360 223.5,-360 229.5,-360 235.5,-366 235.5,-372 235.5,-372 235.5,-384 235.5,-384 235.5,-390 229.5,-396 223.5,-396"/>
<text text-anchor="middle" x="179" y="-375.5" font-family="sans" font-size="10.00">unmapped_masked</text>
</g>
<!-- 11&#45;&gt;5 -->
<g id="edge12" class="edge"><title>11&#45;&gt;5</title>
<path fill="none" stroke="grey" stroke-width="2" d="M172.017,-359.936C165.572,-341.514 158.341,-311.636 168,-288 172.488,-277.017 180.47,-267.081 188.854,-258.858"/>
<polygon fill="grey" stroke="grey" stroke-width="2" points="191.235,-261.424 196.248,-252.09 186.508,-256.261 191.235,-261.424"/>
</g>
<!-- 11&#45;&gt;10 -->
<g id="edge19" class="edge"><title>11&#45;&gt;10</title>
<path fill="none" stroke="grey" stroke-width="2" d="M194.82,-359.697C202.57,-351.22 212.039,-340.864 220.524,-331.583"/>
<polygon fill="grey" stroke="grey" stroke-width="2" points="223.197,-333.846 227.362,-324.104 218.031,-329.123 223.197,-333.846"/>
</g>
<!-- 12 -->
<g id="node13" class="node"><title>12</title>
<path fill="none" stroke="#d85656" stroke-width="2" stroke-dasharray="1,5" d="M455.5,-396C455.5,-396 366.5,-396 366.5,-396 360.5,-396 354.5,-390 354.5,-384 354.5,-384 354.5,-372 354.5,-372 354.5,-366 360.5,-360 366.5,-360 366.5,-360 455.5,-360 455.5,-360 461.5,-360 467.5,-366 467.5,-372 467.5,-372 467.5,-384 467.5,-384 467.5,-390 461.5,-396 455.5,-396"/>
<text text-anchor="middle" x="411" y="-375.5" font-family="sans" font-size="10.00">unmapped_masked</text>
</g>
<!-- 12&#45;&gt;7 -->
<g id="edge14" class="edge"><title>12&#45;&gt;7</title>
<path fill="none" stroke="grey" stroke-width="2" d="M399.223,-359.697C393.132,-349.728 386.298,-336.691 383,-324 377.728,-303.713 377.481,-279.943 378.414,-262.073"/>
<polygon fill="grey" stroke="grey" stroke-width="2" points="381.909,-262.263 379.091,-252.05 374.925,-261.791 381.909,-262.263"/>
</g>
<!-- 13 -->
<g id="node14" class="node"><title>13</title>
<path fill="none" stroke="#d88556" stroke-width="2" stroke-dasharray="1,5" d="M512,-324C512,-324 404,-324 404,-324 398,-324 392,-318 392,-312 392,-312 392,-300 392,-300 392,-294 398,-288 404,-288 404,-288 512,-288 512,-288 518,-288 524,-294 524,-300 524,-300 524,-312 524,-312 524,-318 518,-324 512,-324"/>
<text text-anchor="middle" x="458" y="-303.5" font-family="sans" font-size="10.00">megablast_ref_genome</text>
</g>
<!-- 12&#45;&gt;13 -->
<g id="edge24" class="edge"><title>12&#45;&gt;13</title>
<path fill="none" stroke="grey" stroke-width="2" d="M422.618,-359.697C428.139,-351.474 434.847,-341.483 440.932,-332.421"/>
<polygon fill="grey" stroke="grey" stroke-width="2" points="443.847,-334.358 446.516,-324.104 438.035,-330.456 443.847,-334.358"/>
</g>
<!-- 13&#45;&gt;7 -->
<g id="edge15" class="edge"><title>13&#45;&gt;7</title>
<path fill="none" stroke="grey" stroke-width="2" d="M438.966,-287.697C429.455,-279.05 417.793,-268.449 407.43,-259.027"/>
<polygon fill="grey" stroke="grey" stroke-width="2" points="409.569,-256.241 399.815,-252.104 404.86,-261.421 409.569,-256.241"/>
</g>
<!-- 14 -->
<g id="node15" class="node"><title>14</title>
<path fill="none" stroke="#d85656" stroke-width="2" stroke-dasharray="1,5" d="M647.5,-396C647.5,-396 558.5,-396 558.5,-396 552.5,-396 546.5,-390 546.5,-384 546.5,-384 546.5,-372 546.5,-372 546.5,-366 552.5,-360 558.5,-360 558.5,-360 647.5,-360 647.5,-360 653.5,-360 659.5,-366 659.5,-372 659.5,-372 659.5,-384 659.5,-384 659.5,-390 653.5,-396 647.5,-396"/>
<text text-anchor="middle" x="603" y="-375.5" font-family="sans" font-size="10.00">unmapped_masked</text>
</g>
<!-- 14&#45;&gt;9 -->
<g id="edge17" class="edge"><title>14&#45;&gt;9</title>
<path fill="none" stroke="grey" stroke-width="2" d="M597.66,-359.935C594.555,-349.606 590.73,-336.128 588,-324 583.384,-303.492 579.487,-280.036 576.822,-262.355"/>
<polygon fill="grey" stroke="grey" stroke-width="2" points="580.243,-261.555 575.327,-252.17 573.317,-262.572 580.243,-261.555"/>
</g>
<!-- 15 -->
<g id="node16" class="node"><title>15</title>
<path fill="none" stroke="#d88556" stroke-width="2" stroke-dasharray="1,5" d="M717,-324C717,-324 609,-324 609,-324 603,-324 597,-318 597,-312 597,-312 597,-300 597,-300 597,-294 603,-288 609,-288 609,-288 717,-288 717,-288 723,-288 729,-294 729,-300 729,-300 729,-312 729,-312 729,-318 723,-324 717,-324"/>
<text text-anchor="middle" x="663" y="-303.5" font-family="sans" font-size="10.00">megablast_ref_genome</text>
</g>
<!-- 14&#45;&gt;15 -->
<g id="edge27" class="edge"><title>14&#45;&gt;15</title>
<path fill="none" stroke="grey" stroke-width="2" d="M617.831,-359.697C625.025,-351.305 633.797,-341.07 641.69,-331.861"/>
<polygon fill="grey" stroke="grey" stroke-width="2" points="644.489,-333.975 648.339,-324.104 639.174,-329.419 644.489,-333.975"/>
</g>
<!-- 15&#45;&gt;9 -->
<g id="edge18" class="edge"><title>15&#45;&gt;9</title>
<path fill="none" stroke="grey" stroke-width="2" d="M640.753,-287.697C629.418,-278.881 615.47,-268.032 603.181,-258.474"/>
<polygon fill="grey" stroke="grey" stroke-width="2" points="605.034,-255.481 594.991,-252.104 600.736,-261.007 605.034,-255.481"/>
</g>
<!-- 16 -->
<g id="node17" class="node"><title>16</title>
<path fill="none" stroke="#afd856" stroke-width="2" stroke-dasharray="1,5" d="M257.5,-468C257.5,-468 180.5,-468 180.5,-468 174.5,-468 168.5,-462 168.5,-456 168.5,-456 168.5,-444 168.5,-444 168.5,-438 174.5,-432 180.5,-432 180.5,-432 257.5,-432 257.5,-432 263.5,-432 269.5,-438 269.5,-444 269.5,-444 269.5,-456 269.5,-456 269.5,-462 263.5,-468 257.5,-468"/>
<text text-anchor="middle" x="219" y="-447.5" font-family="sans" font-size="10.00">unmapped_reads</text>
</g>
<!-- 16&#45;&gt;11 -->
<g id="edge20" class="edge"><title>16&#45;&gt;11</title>
<path fill="none" stroke="grey" stroke-width="2" d="M209.112,-431.697C204.511,-423.644 198.94,-413.894 193.847,-404.982"/>
<polygon fill="grey" stroke="grey" stroke-width="2" points="196.774,-403.05 188.774,-396.104 190.696,-406.523 196.774,-403.05"/>
</g>
<!-- 17 -->
<g id="node18" class="node"><title>17</title>
<path fill="none" stroke="#97d856" stroke-width="2" stroke-dasharray="1,5" d="M214,-612C214,-612 124,-612 124,-612 118,-612 112,-606 112,-600 112,-600 112,-588 112,-588 112,-582 118,-576 124,-576 124,-576 214,-576 214,-576 220,-576 226,-582 226,-588 226,-588 226,-600 226,-600 226,-606 220,-612 214,-612"/>
<text text-anchor="middle" x="169" y="-591.5" font-family="sans" font-size="10.00">repeatmasker_good</text>
</g>
<!-- 17&#45;&gt;11 -->
<g id="edge21" class="edge"><title>17&#45;&gt;11</title>
<path fill="none" stroke="grey" stroke-width="2" d="M165.258,-575.919C159.374,-546.345 149.552,-483.795 159,-432 160.606,-423.196 163.597,-413.954 166.786,-405.698"/>
<polygon fill="grey" stroke="grey" stroke-width="2" points="170.121,-406.791 170.694,-396.212 163.649,-404.125 170.121,-406.791"/>
</g>
<!-- 22 -->
<g id="node23" class="node"><title>22</title>
<path fill="none" stroke="#56d8a9" stroke-width="2" stroke-dasharray="1,5" d="M233,-540C233,-540 189,-540 189,-540 183,-540 177,-534 177,-528 177,-528 177,-516 177,-516 177,-510 183,-504 189,-504 189,-504 233,-504 233,-504 239,-504 245,-510 245,-516 245,-516 245,-528 245,-528 245,-534 239,-540 233,-540"/>
<text text-anchor="middle" x="211" y="-519.5" font-family="sans" font-size="10.00">bwa_mem</text>
</g>
<!-- 17&#45;&gt;22 -->
<g id="edge37" class="edge"><title>17&#45;&gt;22</title>
<path fill="none" stroke="grey" stroke-width="2" d="M179.382,-575.697C184.265,-567.559 190.187,-557.689 195.579,-548.701"/>
<polygon fill="grey" stroke="grey" stroke-width="2" points="198.594,-550.48 200.737,-540.104 192.591,-546.879 198.594,-550.48"/>
</g>
<!-- 18 -->
<g id="node19" class="node"><title>18</title>
<path fill="none" stroke="#afd856" stroke-width="2" stroke-dasharray="1,5" d="M515.5,-468C515.5,-468 438.5,-468 438.5,-468 432.5,-468 426.5,-462 426.5,-456 426.5,-456 426.5,-444 426.5,-444 426.5,-438 432.5,-432 438.5,-432 438.5,-432 515.5,-432 515.5,-432 521.5,-432 527.5,-438 527.5,-444 527.5,-444 527.5,-456 527.5,-456 527.5,-462 521.5,-468 515.5,-468"/>
<text text-anchor="middle" x="477" y="-447.5" font-family="sans" font-size="10.00">unmapped_reads</text>
</g>
<!-- 18&#45;&gt;12 -->
<g id="edge22" class="edge"><title>18&#45;&gt;12</title>
<path fill="none" stroke="grey" stroke-width="2" d="M460.685,-431.697C452.693,-423.22 442.928,-412.864 434.178,-403.583"/>
<polygon fill="grey" stroke="grey" stroke-width="2" points="436.534,-400.979 427.127,-396.104 431.441,-405.781 436.534,-400.979"/>
</g>
<!-- 19 -->
<g id="node20" class="node"><title>19</title>
<path fill="none" stroke="#97d856" stroke-width="2" stroke-dasharray="1,5" d="M448,-612C448,-612 358,-612 358,-612 352,-612 346,-606 346,-600 346,-600 346,-588 346,-588 346,-582 352,-576 358,-576 358,-576 448,-576 448,-576 454,-576 460,-582 460,-588 460,-588 460,-600 460,-600 460,-606 454,-612 448,-612"/>
<text text-anchor="middle" x="403" y="-591.5" font-family="sans" font-size="10.00">repeatmasker_good</text>
</g>
<!-- 19&#45;&gt;12 -->
<g id="edge23" class="edge"><title>19&#45;&gt;12</title>
<path fill="none" stroke="grey" stroke-width="2" d="M403.641,-575.849C405.025,-538.832 408.302,-451.181 409.976,-406.386"/>
<polygon fill="grey" stroke="grey" stroke-width="2" points="413.48,-406.356 410.356,-396.232 406.485,-406.095 413.48,-406.356"/>
</g>
<!-- 25 -->
<g id="node26" class="node"><title>25</title>
<path fill="none" stroke="#56d8a9" stroke-width="2" stroke-dasharray="1,5" d="M491,-540C491,-540 447,-540 447,-540 441,-540 435,-534 435,-528 435,-528 435,-516 435,-516 435,-510 441,-504 447,-504 447,-504 491,-504 491,-504 497,-504 503,-510 503,-516 503,-516 503,-528 503,-528 503,-534 497,-540 491,-540"/>
<text text-anchor="middle" x="469" y="-519.5" font-family="sans" font-size="10.00">bwa_mem</text>
</g>
<!-- 19&#45;&gt;25 -->
<g id="edge40" class="edge"><title>19&#45;&gt;25</title>
<path fill="none" stroke="grey" stroke-width="2" d="M419.315,-575.697C427.307,-567.22 437.072,-556.864 445.822,-547.583"/>
<polygon fill="grey" stroke="grey" stroke-width="2" points="448.559,-549.781 452.873,-540.104 443.466,-544.979 448.559,-549.781"/>
</g>
<!-- 20 -->
<g id="node21" class="node"><title>20</title>
<path fill="none" stroke="#afd856" stroke-width="2" stroke-dasharray="1,5" d="M690.5,-468C690.5,-468 613.5,-468 613.5,-468 607.5,-468 601.5,-462 601.5,-456 601.5,-456 601.5,-444 601.5,-444 601.5,-438 607.5,-432 613.5,-432 613.5,-432 690.5,-432 690.5,-432 696.5,-432 702.5,-438 702.5,-444 702.5,-444 702.5,-456 702.5,-456 702.5,-462 696.5,-468 690.5,-468"/>
<text text-anchor="middle" x="652" y="-447.5" font-family="sans" font-size="10.00">unmapped_reads</text>
</g>
<!-- 20&#45;&gt;14 -->
<g id="edge25" class="edge"><title>20&#45;&gt;14</title>
<path fill="none" stroke="grey" stroke-width="2" d="M639.888,-431.697C634.132,-423.474 627.138,-413.483 620.794,-404.421"/>
<polygon fill="grey" stroke="grey" stroke-width="2" points="623.575,-402.29 614.973,-396.104 617.84,-406.304 623.575,-402.29"/>
</g>
<!-- 21 -->
<g id="node22" class="node"><title>21</title>
<path fill="none" stroke="#97d856" stroke-width="2" stroke-dasharray="1,5" d="M649,-612C649,-612 559,-612 559,-612 553,-612 547,-606 547,-600 547,-600 547,-588 547,-588 547,-582 553,-576 559,-576 559,-576 649,-576 649,-576 655,-576 661,-582 661,-588 661,-588 661,-600 661,-600 661,-606 655,-612 649,-612"/>
<text text-anchor="middle" x="604" y="-591.5" font-family="sans" font-size="10.00">repeatmasker_good</text>
</g>
<!-- 21&#45;&gt;14 -->
<g id="edge26" class="edge"><title>21&#45;&gt;14</title>
<path fill="none" stroke="grey" stroke-width="2" d="M600.688,-575.58C595.517,-546.014 586.646,-484.14 592,-432 592.877,-423.455 594.531,-414.255 596.294,-405.958"/>
<polygon fill="grey" stroke="grey" stroke-width="2" points="599.743,-406.573 598.536,-396.047 592.915,-405.028 599.743,-406.573"/>
</g>
<!-- 28 -->
<g id="node29" class="node"><title>28</title>
<path fill="none" stroke="#56d8a9" stroke-width="2" stroke-dasharray="1,5" d="M665,-540C665,-540 621,-540 621,-540 615,-540 609,-534 609,-528 609,-528 609,-516 609,-516 609,-510 615,-504 621,-504 621,-504 665,-504 665,-504 671,-504 677,-510 677,-516 677,-516 677,-528 677,-528 677,-534 671,-540 665,-540"/>
<text text-anchor="middle" x="643" y="-519.5" font-family="sans" font-size="10.00">bwa_mem</text>
</g>
<!-- 21&#45;&gt;28 -->
<g id="edge43" class="edge"><title>21&#45;&gt;28</title>
<path fill="none" stroke="grey" stroke-width="2" d="M613.64,-575.697C618.127,-567.644 623.559,-557.894 628.524,-548.982"/>
<polygon fill="grey" stroke="grey" stroke-width="2" points="631.661,-550.544 633.47,-540.104 625.546,-547.137 631.661,-550.544"/>
</g>
<!-- 22&#45;&gt;16 -->
<g id="edge28" class="edge"><title>22&#45;&gt;16</title>
<path fill="none" stroke="grey" stroke-width="2" d="M212.978,-503.697C213.859,-495.983 214.919,-486.712 215.901,-478.112"/>
<polygon fill="grey" stroke="grey" stroke-width="2" points="219.387,-478.437 217.045,-468.104 212.432,-477.642 219.387,-478.437"/>
</g>
<!-- 23 -->
<g id="node24" class="node"><title>23</title>
<path fill="none" stroke="#56b9d8" stroke-width="2" stroke-dasharray="1,5" d="M235.5,-684C235.5,-684 174.5,-684 174.5,-684 168.5,-684 162.5,-678 162.5,-672 162.5,-672 162.5,-660 162.5,-660 162.5,-654 168.5,-648 174.5,-648 174.5,-648 235.5,-648 235.5,-648 241.5,-648 247.5,-654 247.5,-660 247.5,-660 247.5,-672 247.5,-672 247.5,-678 241.5,-684 235.5,-684"/>
<text text-anchor="middle" x="205" y="-663.5" font-family="sans" font-size="10.00">repeatmasker</text>
</g>
<!-- 23&#45;&gt;17 -->
<g id="edge29" class="edge"><title>23&#45;&gt;17</title>
<path fill="none" stroke="grey" stroke-width="2" d="M196.101,-647.697C192.003,-639.728 187.051,-630.1 182.507,-621.264"/>
<polygon fill="grey" stroke="grey" stroke-width="2" points="185.483,-619.396 177.797,-612.104 179.258,-622.598 185.483,-619.396"/>
</g>
<!-- 24 -->
<g id="node25" class="node"><title>24</title>
<path fill="none" stroke="#c6d856" stroke-width="2" stroke-dasharray="1,5" d="M158,-756C158,-756 114,-756 114,-756 108,-756 102,-750 102,-744 102,-744 102,-732 102,-732 102,-726 108,-720 114,-720 114,-720 158,-720 158,-720 164,-720 170,-726 170,-732 170,-732 170,-744 170,-744 170,-750 164,-756 158,-756"/>
<text text-anchor="middle" x="136" y="-741" font-family="sans" font-size="10.00">split_fasta</text>
<text text-anchor="middle" x="136" y="-730" font-family="sans" font-size="10.00">n: ...</text>
</g>
<!-- 24&#45;&gt;17 -->
<g id="edge30" class="edge"><title>24&#45;&gt;17</title>
<path fill="none" stroke="grey" stroke-width="2" d="M138.733,-719.823C141.726,-701.814 146.919,-672.748 153,-648 155.12,-639.373 157.794,-630.068 160.347,-621.698"/>
<polygon fill="grey" stroke="grey" stroke-width="2" points="163.716,-622.649 163.354,-612.061 157.034,-620.564 163.716,-622.649"/>
</g>
<!-- 24&#45;&gt;23 -->
<g id="edge38" class="edge"><title>24&#45;&gt;23</title>
<path fill="none" stroke="grey" stroke-width="2" d="M153.056,-719.697C161.495,-711.135 171.825,-700.656 181.043,-691.304"/>
<polygon fill="grey" stroke="grey" stroke-width="2" points="183.613,-693.683 188.14,-684.104 178.627,-688.769 183.613,-693.683"/>
</g>
<!-- 25&#45;&gt;18 -->
<g id="edge31" class="edge"><title>25&#45;&gt;18</title>
<path fill="none" stroke="grey" stroke-width="2" d="M470.978,-503.697C471.859,-495.983 472.919,-486.712 473.901,-478.112"/>
<polygon fill="grey" stroke="grey" stroke-width="2" points="477.387,-478.437 475.045,-468.104 470.432,-477.642 477.387,-478.437"/>
</g>
<!-- 26 -->
<g id="node27" class="node"><title>26</title>
<path fill="none" stroke="#56b9d8" stroke-width="2" stroke-dasharray="1,5" d="M501.5,-684C501.5,-684 440.5,-684 440.5,-684 434.5,-684 428.5,-678 428.5,-672 428.5,-672 428.5,-660 428.5,-660 428.5,-654 434.5,-648 440.5,-648 440.5,-648 501.5,-648 501.5,-648 507.5,-648 513.5,-654 513.5,-660 513.5,-660 513.5,-672 513.5,-672 513.5,-678 507.5,-684 501.5,-684"/>
<text text-anchor="middle" x="471" y="-663.5" font-family="sans" font-size="10.00">repeatmasker</text>
</g>
<!-- 26&#45;&gt;19 -->
<g id="edge32" class="edge"><title>26&#45;&gt;19</title>
<path fill="none" stroke="grey" stroke-width="2" d="M454.191,-647.697C445.874,-639.135 435.695,-628.656 426.61,-619.304"/>
<polygon fill="grey" stroke="grey" stroke-width="2" points="429.094,-616.838 419.616,-612.104 424.073,-621.716 429.094,-616.838"/>
</g>
<!-- 27 -->
<g id="node28" class="node"><title>27</title>
<path fill="none" stroke="#c6d856" stroke-width="2" stroke-dasharray="1,5" d="M444,-756C444,-756 400,-756 400,-756 394,-756 388,-750 388,-744 388,-744 388,-732 388,-732 388,-726 394,-720 400,-720 400,-720 444,-720 444,-720 450,-720 456,-726 456,-732 456,-732 456,-744 456,-744 456,-750 450,-756 444,-756"/>
<text text-anchor="middle" x="422" y="-741" font-family="sans" font-size="10.00">split_fasta</text>
<text text-anchor="middle" x="422" y="-730" font-family="sans" font-size="10.00">n: ...</text>
</g>
<!-- 27&#45;&gt;19 -->
<g id="edge33" class="edge"><title>27&#45;&gt;19</title>
<path fill="none" stroke="grey" stroke-width="2" d="M419.708,-719.871C416.47,-695.67 410.521,-651.211 406.665,-622.393"/>
<polygon fill="grey" stroke="grey" stroke-width="2" points="410.095,-621.637 405.3,-612.189 403.157,-622.565 410.095,-621.637"/>
</g>
<!-- 27&#45;&gt;26 -->
<g id="edge41" class="edge"><title>27&#45;&gt;26</title>
<path fill="none" stroke="grey" stroke-width="2" d="M434.112,-719.697C439.868,-711.474 446.862,-701.483 453.206,-692.421"/>
<polygon fill="grey" stroke="grey" stroke-width="2" points="456.16,-694.304 459.027,-684.104 450.425,-690.29 456.16,-694.304"/>
</g>
<!-- 28&#45;&gt;20 -->
<g id="edge34" class="edge"><title>28&#45;&gt;20</title>
<path fill="none" stroke="grey" stroke-width="2" d="M645.225,-503.697C646.217,-495.983 647.408,-486.712 648.514,-478.112"/>
<polygon fill="grey" stroke="grey" stroke-width="2" points="651.997,-478.469 649.801,-468.104 645.054,-477.576 651.997,-478.469"/>
</g>
<!-- 29 -->
<g id="node30" class="node"><title>29</title>
<path fill="none" stroke="#56b9d8" stroke-width="2" stroke-dasharray="1,5" d="M652.5,-684C652.5,-684 591.5,-684 591.5,-684 585.5,-684 579.5,-678 579.5,-672 579.5,-672 579.5,-660 579.5,-660 579.5,-654 585.5,-648 591.5,-648 591.5,-648 652.5,-648 652.5,-648 658.5,-648 664.5,-654 664.5,-660 664.5,-660 664.5,-672 664.5,-672 664.5,-678 658.5,-684 652.5,-684"/>
<text text-anchor="middle" x="622" y="-663.5" font-family="sans" font-size="10.00">repeatmasker</text>
</g>
<!-- 29&#45;&gt;21 -->
<g id="edge35" class="edge"><title>29&#45;&gt;21</title>
<path fill="none" stroke="grey" stroke-width="2" d="M617.551,-647.697C615.545,-639.898 613.131,-630.509 610.899,-621.829"/>
<polygon fill="grey" stroke="grey" stroke-width="2" points="614.278,-620.918 608.398,-612.104 607.499,-622.661 614.278,-620.918"/>
</g>
<!-- 30 -->
<g id="node31" class="node"><title>30</title>
<path fill="none" stroke="#c6d856" stroke-width="2" stroke-dasharray="1,5" d="M608,-756C608,-756 564,-756 564,-756 558,-756 552,-750 552,-744 552,-744 552,-732 552,-732 552,-726 558,-720 564,-720 564,-720 608,-720 608,-720 614,-720 620,-726 620,-732 620,-732 620,-744 620,-744 620,-750 614,-756 608,-756"/>
<text text-anchor="middle" x="586" y="-741" font-family="sans" font-size="10.00">split_fasta</text>
<text text-anchor="middle" x="586" y="-730" font-family="sans" font-size="10.00">n: ...</text>
</g>
<!-- 30&#45;&gt;21 -->
<g id="edge36" class="edge"><title>30&#45;&gt;21</title>
<path fill="none" stroke="grey" stroke-width="2" d="M578.218,-719.685C571.153,-701.563 562.845,-672.405 570,-648 572.801,-638.447 577.911,-628.984 583.333,-620.756"/>
<polygon fill="grey" stroke="grey" stroke-width="2" points="586.346,-622.557 589.245,-612.366 580.624,-618.525 586.346,-622.557"/>
</g>
<!-- 30&#45;&gt;29 -->
<g id="edge44" class="edge"><title>30&#45;&gt;29</title>
<path fill="none" stroke="grey" stroke-width="2" d="M594.899,-719.697C598.997,-711.728 603.949,-702.1 608.493,-693.264"/>
<polygon fill="grey" stroke="grey" stroke-width="2" points="611.742,-694.598 613.203,-684.104 605.517,-691.396 611.742,-694.598"/>
</g>
<!-- 31 -->
<g id="node32" class="node"><title>31</title>
<path fill="none" stroke="#5673d8" stroke-width="2" stroke-dasharray="5,2" d="M162.5,-828C162.5,-828 109.5,-828 109.5,-828 103.5,-828 97.5,-822 97.5,-816 97.5,-816 97.5,-804 97.5,-804 97.5,-798 103.5,-792 109.5,-792 109.5,-792 162.5,-792 162.5,-792 168.5,-792 174.5,-798 174.5,-804 174.5,-804 174.5,-816 174.5,-816 174.5,-822 168.5,-828 162.5,-828"/>
<text text-anchor="middle" x="136" y="-807.5" font-family="sans" font-size="10.00">tantan_good</text>
</g>
<!-- 31&#45;&gt;24 -->
<g id="edge39" class="edge"><title>31&#45;&gt;24</title>
<path fill="none" stroke="grey" stroke-width="2" d="M136,-791.697C136,-783.983 136,-774.712 136,-766.112"/>
<polygon fill="grey" stroke="grey" stroke-width="2" points="139.5,-766.104 136,-756.104 132.5,-766.104 139.5,-766.104"/>
</g>
<!-- 32 -->
<g id="node33" class="node"><title>32</title>
<path fill="none" stroke="#5673d8" stroke-width="2" stroke-dasharray="1,5" d="M448.5,-828C448.5,-828 395.5,-828 395.5,-828 389.5,-828 383.5,-822 383.5,-816 383.5,-816 383.5,-804 383.5,-804 383.5,-798 389.5,-792 395.5,-792 395.5,-792 448.5,-792 448.5,-792 454.5,-792 460.5,-798 460.5,-804 460.5,-804 460.5,-816 460.5,-816 460.5,-822 454.5,-828 448.5,-828"/>
<text text-anchor="middle" x="422" y="-807.5" font-family="sans" font-size="10.00">tantan_good</text>
</g>
<!-- 32&#45;&gt;27 -->
<g id="edge42" class="edge"><title>32&#45;&gt;27</title>
<path fill="none" stroke="grey" stroke-width="2" d="M422,-791.697C422,-783.983 422,-774.712 422,-766.112"/>
<polygon fill="grey" stroke="grey" stroke-width="2" points="425.5,-766.104 422,-756.104 418.5,-766.104 425.5,-766.104"/>
</g>
<!-- 33 -->
<g id="node34" class="node"><title>33</title>
<path fill="none" stroke="#5673d8" stroke-width="2" stroke-dasharray="1,5" d="M612.5,-828C612.5,-828 559.5,-828 559.5,-828 553.5,-828 547.5,-822 547.5,-816 547.5,-816 547.5,-804 547.5,-804 547.5,-798 553.5,-792 559.5,-792 559.5,-792 612.5,-792 612.5,-792 618.5,-792 624.5,-798 624.5,-804 624.5,-804 624.5,-816 624.5,-816 624.5,-822 618.5,-828 612.5,-828"/>
<text text-anchor="middle" x="586" y="-807.5" font-family="sans" font-size="10.00">tantan_good</text>
</g>
<!-- 33&#45;&gt;30 -->
<g id="edge45" class="edge"><title>33&#45;&gt;30</title>
<path fill="none" stroke="grey" stroke-width="2" d="M586,-791.697C586,-783.983 586,-774.712 586,-766.112"/>
<polygon fill="grey" stroke="grey" stroke-width="2" points="589.5,-766.104 586,-756.104 582.5,-766.104 589.5,-766.104"/>
</g>
<!-- 34 -->
<g id="node35" class="node"><title>34</title>
<path fill="none" stroke="#d86e56" stroke-width="2" stroke-dasharray="5,2" d="M151,-900C151,-900 121,-900 121,-900 115,-900 109,-894 109,-888 109,-888 109,-876 109,-876 109,-870 115,-864 121,-864 121,-864 151,-864 151,-864 157,-864 163,-870 163,-876 163,-876 163,-888 163,-888 163,-894 157,-900 151,-900"/>
<text text-anchor="middle" x="136" y="-879.5" font-family="sans" font-size="10.00">tantan</text>
</g>
<!-- 34&#45;&gt;31 -->
<g id="edge46" class="edge"><title>34&#45;&gt;31</title>
<path fill="none" stroke="grey" stroke-width="2" d="M136,-863.697C136,-855.983 136,-846.712 136,-838.112"/>
<polygon fill="grey" stroke="grey" stroke-width="2" points="139.5,-838.104 136,-828.104 132.5,-838.104 139.5,-838.104"/>
</g>
<!-- 35 -->
<g id="node36" class="node"><title>35</title>
<path fill="none" stroke="#d86e56" stroke-width="2" stroke-dasharray="1,5" d="M437,-900C437,-900 407,-900 407,-900 401,-900 395,-894 395,-888 395,-888 395,-876 395,-876 395,-870 401,-864 407,-864 407,-864 437,-864 437,-864 443,-864 449,-870 449,-876 449,-876 449,-888 449,-888 449,-894 443,-900 437,-900"/>
<text text-anchor="middle" x="422" y="-879.5" font-family="sans" font-size="10.00">tantan</text>
</g>
<!-- 35&#45;&gt;32 -->
<g id="edge47" class="edge"><title>35&#45;&gt;32</title>
<path fill="none" stroke="grey" stroke-width="2" d="M422,-863.697C422,-855.983 422,-846.712 422,-838.112"/>
<polygon fill="grey" stroke="grey" stroke-width="2" points="425.5,-838.104 422,-828.104 418.5,-838.104 425.5,-838.104"/>
</g>
<!-- 36 -->
<g id="node37" class="node"><title>36</title>
<path fill="none" stroke="#d86e56" stroke-width="2" stroke-dasharray="1,5" d="M601,-900C601,-900 571,-900 571,-900 565,-900 559,-894 559,-888 559,-888 559,-876 559,-876 559,-870 565,-864 571,-864 571,-864 601,-864 601,-864 607,-864 613,-870 613,-876 613,-876 613,-888 613,-888 613,-894 607,-900 601,-900"/>
<text text-anchor="middle" x="586" y="-879.5" font-family="sans" font-size="10.00">tantan</text>
</g>
<!-- 36&#45;&gt;33 -->
<g id="edge48" class="edge"><title>36&#45;&gt;33</title>
<path fill="none" stroke="grey" stroke-width="2" d="M586,-863.697C586,-855.983 586,-846.712 586,-838.112"/>
<polygon fill="grey" stroke="grey" stroke-width="2" points="589.5,-838.104 586,-828.104 582.5,-838.104 589.5,-838.104"/>
</g>
<!-- 37 -->
<g id="node38" class="node"><title>37</title>
<path fill="none" stroke="#61d856" stroke-width="2" stroke-dasharray="5,2" d="M151,-972C151,-972 121,-972 121,-972 115,-972 109,-966 109,-960 109,-960 109,-948 109,-948 109,-942 115,-936 121,-936 121,-936 151,-936 151,-936 157,-936 163,-942 163,-948 163,-948 163,-960 163,-960 163,-966 157,-972 151,-972"/>
<text text-anchor="middle" x="136" y="-951.5" font-family="sans" font-size="10.00">cd_hit</text>
</g>
<!-- 37&#45;&gt;34 -->
<g id="edge49" class="edge"><title>37&#45;&gt;34</title>
<path fill="none" stroke="grey" stroke-width="2" d="M136,-935.697C136,-927.983 136,-918.712 136,-910.112"/>
<polygon fill="grey" stroke="grey" stroke-width="2" points="139.5,-910.104 136,-900.104 132.5,-910.104 139.5,-910.104"/>
</g>
<!-- 38 -->
<g id="node39" class="node"><title>38</title>
<path fill="none" stroke="#61d856" stroke-width="2" stroke-dasharray="1,5" d="M437,-972C437,-972 407,-972 407,-972 401,-972 395,-966 395,-960 395,-960 395,-948 395,-948 395,-942 401,-936 407,-936 407,-936 437,-936 437,-936 443,-936 449,-942 449,-948 449,-948 449,-960 449,-960 449,-966 443,-972 437,-972"/>
<text text-anchor="middle" x="422" y="-951.5" font-family="sans" font-size="10.00">cd_hit</text>
</g>
<!-- 38&#45;&gt;35 -->
<g id="edge50" class="edge"><title>38&#45;&gt;35</title>
<path fill="none" stroke="grey" stroke-width="2" d="M422,-935.697C422,-927.983 422,-918.712 422,-910.112"/>
<polygon fill="grey" stroke="grey" stroke-width="2" points="425.5,-910.104 422,-900.104 418.5,-910.104 425.5,-910.104"/>
</g>
<!-- 39 -->
<g id="node40" class="node"><title>39</title>
<path fill="none" stroke="#61d856" stroke-width="2" stroke-dasharray="1,5" d="M601,-972C601,-972 571,-972 571,-972 565,-972 559,-966 559,-960 559,-960 559,-948 559,-948 559,-942 565,-936 571,-936 571,-936 601,-936 601,-936 607,-936 613,-942 613,-948 613,-948 613,-960 613,-960 613,-966 607,-972 601,-972"/>
<text text-anchor="middle" x="586" y="-951.5" font-family="sans" font-size="10.00">cd_hit</text>
</g>
<!-- 39&#45;&gt;36 -->
<g id="edge51" class="edge"><title>39&#45;&gt;36</title>
<path fill="none" stroke="grey" stroke-width="2" d="M586,-935.697C586,-927.983 586,-918.712 586,-910.112"/>
<polygon fill="grey" stroke="grey" stroke-width="2" points="589.5,-910.104 586,-900.104 582.5,-910.104 589.5,-910.104"/>
</g>
<!-- 40 -->
<g id="node41" class="node"><title>40</title>
<path fill="none" stroke="#56d87b" stroke-width="2" stroke-dasharray="5,2" d="M160,-1044C160,-1044 112,-1044 112,-1044 106,-1044 100,-1038 100,-1032 100,-1032 100,-1020 100,-1020 100,-1014 106,-1008 112,-1008 112,-1008 160,-1008 160,-1008 166,-1008 172,-1014 172,-1020 172,-1020 172,-1032 172,-1032 172,-1038 166,-1044 160,-1044"/>
<text text-anchor="middle" x="136" y="-1023.5" font-family="sans" font-size="10.00">fastq2fasta</text>
</g>
<!-- 40&#45;&gt;37 -->
<g id="edge52" class="edge"><title>40&#45;&gt;37</title>
<path fill="none" stroke="grey" stroke-width="2" d="M136,-1007.7C136,-999.983 136,-990.712 136,-982.112"/>
<polygon fill="grey" stroke="grey" stroke-width="2" points="139.5,-982.104 136,-972.104 132.5,-982.104 139.5,-982.104"/>
</g>
<!-- 41 -->
<g id="node42" class="node"><title>41</title>
<path fill="none" stroke="#56d87b" stroke-width="2" stroke-dasharray="1,5" d="M446,-1044C446,-1044 398,-1044 398,-1044 392,-1044 386,-1038 386,-1032 386,-1032 386,-1020 386,-1020 386,-1014 392,-1008 398,-1008 398,-1008 446,-1008 446,-1008 452,-1008 458,-1014 458,-1020 458,-1020 458,-1032 458,-1032 458,-1038 452,-1044 446,-1044"/>
<text text-anchor="middle" x="422" y="-1023.5" font-family="sans" font-size="10.00">fastq2fasta</text>
</g>
<!-- 41&#45;&gt;38 -->
<g id="edge53" class="edge"><title>41&#45;&gt;38</title>
<path fill="none" stroke="grey" stroke-width="2" d="M422,-1007.7C422,-999.983 422,-990.712 422,-982.112"/>
<polygon fill="grey" stroke="grey" stroke-width="2" points="425.5,-982.104 422,-972.104 418.5,-982.104 425.5,-982.104"/>
</g>
<!-- 42 -->
<g id="node43" class="node"><title>42</title>
<path fill="none" stroke="#56d87b" stroke-width="2" stroke-dasharray="1,5" d="M610,-1044C610,-1044 562,-1044 562,-1044 556,-1044 550,-1038 550,-1032 550,-1032 550,-1020 550,-1020 550,-1014 556,-1008 562,-1008 562,-1008 610,-1008 610,-1008 616,-1008 622,-1014 622,-1020 622,-1020 622,-1032 622,-1032 622,-1038 616,-1044 610,-1044"/>
<text text-anchor="middle" x="586" y="-1023.5" font-family="sans" font-size="10.00">fastq2fasta</text>
</g>
<!-- 42&#45;&gt;39 -->
<g id="edge54" class="edge"><title>42&#45;&gt;39</title>
<path fill="none" stroke="grey" stroke-width="2" d="M586,-1007.7C586,-999.983 586,-990.712 586,-982.112"/>
<polygon fill="grey" stroke="grey" stroke-width="2" points="589.5,-982.104 586,-972.104 582.5,-982.104 589.5,-982.104"/>
</g>
<!-- 43 -->
<g id="node44" class="node"><title>43</title>
<path fill="none" stroke="#d8a456" stroke-width="2" stroke-dasharray="5,2" d="M164,-1116C164,-1116 108,-1116 108,-1116 102,-1116 96,-1110 96,-1104 96,-1104 96,-1092 96,-1092 96,-1086 102,-1080 108,-1080 108,-1080 164,-1080 164,-1080 170,-1080 176,-1086 176,-1092 176,-1092 176,-1104 176,-1104 176,-1110 170,-1116 164,-1116"/>
<text text-anchor="middle" x="136" y="-1095.5" font-family="sans" font-size="10.00">merge_reads</text>
</g>
<!-- 43&#45;&gt;40 -->
<g id="edge55" class="edge"><title>43&#45;&gt;40</title>
<path fill="none" stroke="grey" stroke-width="2" d="M136,-1079.7C136,-1071.98 136,-1062.71 136,-1054.11"/>
<polygon fill="grey" stroke="grey" stroke-width="2" points="139.5,-1054.1 136,-1044.1 132.5,-1054.1 139.5,-1054.1"/>
</g>
<!-- 44 -->
<g id="node45" class="node"><title>44</title>
<path fill="none" stroke="#d8a456" stroke-width="2" stroke-dasharray="1,5" d="M450,-1116C450,-1116 394,-1116 394,-1116 388,-1116 382,-1110 382,-1104 382,-1104 382,-1092 382,-1092 382,-1086 388,-1080 394,-1080 394,-1080 450,-1080 450,-1080 456,-1080 462,-1086 462,-1092 462,-1092 462,-1104 462,-1104 462,-1110 456,-1116 450,-1116"/>
<text text-anchor="middle" x="422" y="-1095.5" font-family="sans" font-size="10.00">merge_reads</text>
</g>
<!-- 44&#45;&gt;41 -->
<g id="edge56" class="edge"><title>44&#45;&gt;41</title>
<path fill="none" stroke="grey" stroke-width="2" d="M422,-1079.7C422,-1071.98 422,-1062.71 422,-1054.11"/>
<polygon fill="grey" stroke="grey" stroke-width="2" points="425.5,-1054.1 422,-1044.1 418.5,-1054.1 425.5,-1054.1"/>
</g>
<!-- 45 -->
<g id="node46" class="node"><title>45</title>
<path fill="none" stroke="#d8a456" stroke-width="2" stroke-dasharray="1,5" d="M614,-1116C614,-1116 558,-1116 558,-1116 552,-1116 546,-1110 546,-1104 546,-1104 546,-1092 546,-1092 546,-1086 552,-1080 558,-1080 558,-1080 614,-1080 614,-1080 620,-1080 626,-1086 626,-1092 626,-1092 626,-1104 626,-1104 626,-1110 620,-1116 614,-1116"/>
<text text-anchor="middle" x="586" y="-1095.5" font-family="sans" font-size="10.00">merge_reads</text>
</g>
<!-- 45&#45;&gt;42 -->
<g id="edge57" class="edge"><title>45&#45;&gt;42</title>
<path fill="none" stroke="grey" stroke-width="2" d="M586,-1079.7C586,-1071.98 586,-1062.71 586,-1054.11"/>
<polygon fill="grey" stroke="grey" stroke-width="2" points="589.5,-1054.1 586,-1044.1 582.5,-1054.1 589.5,-1054.1"/>
</g>
<!-- 46 -->
<g id="node47" class="node"><title>46</title>
<path fill="none" stroke="#56d863" stroke-width="2" stroke-dasharray="5,2" d="M156.5,-1188C156.5,-1188 115.5,-1188 115.5,-1188 109.5,-1188 103.5,-1182 103.5,-1176 103.5,-1176 103.5,-1164 103.5,-1164 103.5,-1158 109.5,-1152 115.5,-1152 115.5,-1152 156.5,-1152 156.5,-1152 162.5,-1152 168.5,-1158 168.5,-1164 168.5,-1164 168.5,-1176 168.5,-1176 168.5,-1182 162.5,-1188 156.5,-1188"/>
<text text-anchor="middle" x="136" y="-1167.5" font-family="sans" font-size="10.00">fastq_join</text>
</g>
<!-- 46&#45;&gt;43 -->
<g id="edge58" class="edge"><title>46&#45;&gt;43</title>
<path fill="none" stroke="grey" stroke-width="2" d="M136,-1151.7C136,-1143.98 136,-1134.71 136,-1126.11"/>
<polygon fill="grey" stroke="grey" stroke-width="2" points="139.5,-1126.1 136,-1116.1 132.5,-1126.1 139.5,-1126.1"/>
</g>
<!-- 47 -->
<g id="node48" class="node"><title>47</title>
<path fill="none" stroke="#56d863" stroke-width="2" stroke-dasharray="1,5" d="M442.5,-1188C442.5,-1188 401.5,-1188 401.5,-1188 395.5,-1188 389.5,-1182 389.5,-1176 389.5,-1176 389.5,-1164 389.5,-1164 389.5,-1158 395.5,-1152 401.5,-1152 401.5,-1152 442.5,-1152 442.5,-1152 448.5,-1152 454.5,-1158 454.5,-1164 454.5,-1164 454.5,-1176 454.5,-1176 454.5,-1182 448.5,-1188 442.5,-1188"/>
<text text-anchor="middle" x="422" y="-1167.5" font-family="sans" font-size="10.00">fastq_join</text>
</g>
<!-- 47&#45;&gt;44 -->
<g id="edge59" class="edge"><title>47&#45;&gt;44</title>
<path fill="none" stroke="grey" stroke-width="2" d="M422,-1151.7C422,-1143.98 422,-1134.71 422,-1126.11"/>
<polygon fill="grey" stroke="grey" stroke-width="2" points="425.5,-1126.1 422,-1116.1 418.5,-1126.1 425.5,-1126.1"/>
</g>
<!-- 48 -->
<g id="node49" class="node"><title>48</title>
<path fill="none" stroke="#56d863" stroke-width="2" stroke-dasharray="1,5" d="M606.5,-1188C606.5,-1188 565.5,-1188 565.5,-1188 559.5,-1188 553.5,-1182 553.5,-1176 553.5,-1176 553.5,-1164 553.5,-1164 553.5,-1158 559.5,-1152 565.5,-1152 565.5,-1152 606.5,-1152 606.5,-1152 612.5,-1152 618.5,-1158 618.5,-1164 618.5,-1164 618.5,-1176 618.5,-1176 618.5,-1182 612.5,-1188 606.5,-1188"/>
<text text-anchor="middle" x="586" y="-1167.5" font-family="sans" font-size="10.00">fastq_join</text>
</g>
<!-- 48&#45;&gt;45 -->
<g id="edge60" class="edge"><title>48&#45;&gt;45</title>
<path fill="none" stroke="grey" stroke-width="2" d="M586,-1151.7C586,-1143.98 586,-1134.71 586,-1126.11"/>
<polygon fill="grey" stroke="grey" stroke-width="2" points="589.5,-1126.1 586,-1116.1 582.5,-1126.1 589.5,-1126.1"/>
</g>
<!-- 49 -->
<g id="node50" class="node"><title>49</title>
<path fill="none" stroke="#56a2d8" stroke-width="2" stroke-dasharray="5,2" d="M260,-1260C260,-1260 12,-1260 12,-1260 6,-1260 0,-1254 0,-1248 0,-1248 0,-1236 0,-1236 0,-1230 6,-1224 12,-1224 12,-1224 260,-1224 260,-1224 266,-1224 272,-1230 272,-1236 272,-1236 272,-1248 272,-1248 272,-1254 266,-1260 260,-1260"/>
<text text-anchor="middle" x="136" y="-1245" font-family="sans" font-size="10.00">fastp</text>
<text text-anchor="middle" x="136" y="-1234" font-family="sans" font-size="10.00">sample: I1164_12629_Harvard_SIV_196_06_2_24_12</text>
</g>
<!-- 49&#45;&gt;46 -->
<g id="edge61" class="edge"><title>49&#45;&gt;46</title>
<path fill="none" stroke="grey" stroke-width="2" d="M136,-1223.7C136,-1215.98 136,-1206.71 136,-1198.11"/>
<polygon fill="grey" stroke="grey" stroke-width="2" points="139.5,-1198.1 136,-1188.1 132.5,-1198.1 139.5,-1198.1"/>
</g>
<!-- 50 -->
<g id="node51" class="node"><title>50</title>
<path fill="none" stroke="#56a2d8" stroke-width="2" stroke-dasharray="5,2" d="M467,-1260C467,-1260 377,-1260 377,-1260 371,-1260 365,-1254 365,-1248 365,-1248 365,-1236 365,-1236 365,-1230 371,-1224 377,-1224 377,-1224 467,-1224 467,-1224 473,-1224 479,-1230 479,-1236 479,-1236 479,-1248 479,-1248 479,-1254 473,-1260 467,-1260"/>
<text text-anchor="middle" x="422" y="-1245" font-family="sans" font-size="10.00">fastp</text>
<text text-anchor="middle" x="422" y="-1234" font-family="sans" font-size="10.00">sample: SRR848973</text>
</g>
<!-- 50&#45;&gt;47 -->
<g id="edge62" class="edge"><title>50&#45;&gt;47</title>
<path fill="none" stroke="grey" stroke-width="2" d="M422,-1223.7C422,-1215.98 422,-1206.71 422,-1198.11"/>
<polygon fill="grey" stroke="grey" stroke-width="2" points="425.5,-1198.1 422,-1188.1 418.5,-1198.1 425.5,-1198.1"/>
</g>
<!-- 51 -->
<g id="node52" class="node"><title>51</title>
<path fill="none" stroke="#56a2d8" stroke-width="2" stroke-dasharray="5,2" d="M631,-1260C631,-1260 541,-1260 541,-1260 535,-1260 529,-1254 529,-1248 529,-1248 529,-1236 529,-1236 529,-1230 535,-1224 541,-1224 541,-1224 631,-1224 631,-1224 637,-1224 643,-1230 643,-1236 643,-1236 643,-1248 643,-1248 643,-1254 637,-1260 631,-1260"/>
<text text-anchor="middle" x="586" y="-1245" font-family="sans" font-size="10.00">fastp</text>
<text text-anchor="middle" x="586" y="-1234" font-family="sans" font-size="10.00">sample: SRR848994</text>
</g>
<!-- 51&#45;&gt;48 -->
<g id="edge63" class="edge"><title>51&#45;&gt;48</title>
<path fill="none" stroke="grey" stroke-width="2" d="M586,-1223.7C586,-1215.98 586,-1206.71 586,-1198.11"/>
<polygon fill="grey" stroke="grey" stroke-width="2" points="589.5,-1198.1 586,-1188.1 582.5,-1198.1 589.5,-1198.1"/>
</g>
</g>
</svg>
