<?xml version="1.0" encoding="UTF-8" standalone="no"?>
<!DOCTYPE svg PUBLIC "-//W3C//DTD SVG 1.1//EN"
 "http://www.w3.org/Graphics/SVG/1.1/DTD/svg11.dtd">
<!-- Generated by graphviz version 2.40.1 (20161225.0304)
 -->
<!-- Title: snakemake_dag Pages: 1 -->
<svg width="1062pt" height="1772pt"
 viewBox="0.00 0.00 1062.03 1772.00" xmlns="http://www.w3.org/2000/svg" xmlns:xlink="http://www.w3.org/1999/xlink">
<g id="graph0" class="graph" transform="scale(1 1) rotate(0) translate(4 1768)">
<title>snakemake_dag</title>
<polygon fill="#ffffff" stroke="transparent" points="-4,4 -4,-1768 1058.0269,-1768 1058.0269,4 -4,4"/>
<!-- 0 -->
<g id="node1" class="node">
<title>0</title>
<path fill="none" stroke="#56d882" stroke-width="2" d="M668,-36C668,-36 638,-36 638,-36 632,-36 626,-30 626,-24 626,-24 626,-12 626,-12 626,-6 632,0 638,0 638,0 668,0 668,0 674,0 680,-6 680,-12 680,-12 680,-24 680,-24 680,-30 674,-36 668,-36"/>
<text text-anchor="middle" x="653" y="-15" font-family="sans" font-size="10.00" fill="#000000">all</text>
</g>
<!-- 1 -->
<g id="node2" class="node">
<title>1</title>
<path fill="none" stroke="#5682d8" stroke-width="2" d="M170.4404,-756C170.4404,-756 39.5596,-756 39.5596,-756 33.5596,-756 27.5596,-750 27.5596,-744 27.5596,-744 27.5596,-732 27.5596,-732 27.5596,-726 33.5596,-720 39.5596,-720 39.5596,-720 170.4404,-720 170.4404,-720 176.4404,-720 182.4404,-726 182.4404,-732 182.4404,-732 182.4404,-744 182.4404,-744 182.4404,-750 176.4404,-756 170.4404,-756"/>
<text text-anchor="middle" x="105" y="-735" font-family="sans" font-size="10.00" fill="#000000">merge_classify_viruses_results</text>
</g>
<!-- 1&#45;&gt;0 -->
<g id="edge1" class="edge">
<title>1&#45;&gt;0</title>
<path fill="none" stroke="#c0c0c0" stroke-width="2" d="M111.9985,-719.6679C121.6853,-692.6028 138,-640.1665 138,-594 138,-594 138,-594 138,-162 138,-62.7562 497.1964,-28.843 615.6264,-20.3587"/>
<polygon fill="#c0c0c0" stroke="#c0c0c0" stroke-width="2" points="615.9423,-23.8453 625.675,-19.6589 615.4559,-16.8622 615.9423,-23.8453"/>
</g>
<!-- 2 -->
<g id="node3" class="node">
<title>2</title>
<path fill="none" stroke="#d85656" stroke-width="2" d="M754.5821,-108C754.5821,-108 697.4179,-108 697.4179,-108 691.4179,-108 685.4179,-102 685.4179,-96 685.4179,-96 685.4179,-84 685.4179,-84 685.4179,-78 691.4179,-72 697.4179,-72 697.4179,-72 754.5821,-72 754.5821,-72 760.5821,-72 766.5821,-78 766.5821,-84 766.5821,-84 766.5821,-96 766.5821,-96 766.5821,-102 760.5821,-108 754.5821,-108"/>
<text text-anchor="middle" x="726" y="-87" font-family="sans" font-size="10.00" fill="#000000">merge_viruses</text>
</g>
<!-- 2&#45;&gt;0 -->
<g id="edge2" class="edge">
<title>2&#45;&gt;0</title>
<path fill="none" stroke="#c0c0c0" stroke-width="2" d="M707.579,-71.8314C698.8471,-63.219 688.2683,-52.7851 678.7577,-43.4048"/>
<polygon fill="#c0c0c0" stroke="#c0c0c0" stroke-width="2" points="680.9925,-40.6931 671.4151,-36.1628 676.077,-45.6769 680.9925,-40.6931"/>
</g>
<!-- 3 -->
<g id="node4" class="node">
<title>3</title>
<path fill="none" stroke="#80d856" stroke-width="2" d="M863.4886,-108C863.4886,-108 796.5114,-108 796.5114,-108 790.5114,-108 784.5114,-102 784.5114,-96 784.5114,-96 784.5114,-84 784.5114,-84 784.5114,-78 790.5114,-72 796.5114,-72 796.5114,-72 863.4886,-72 863.4886,-72 869.4886,-72 875.4886,-78 875.4886,-84 875.4886,-84 875.4886,-96 875.4886,-96 875.4886,-102 869.4886,-108 863.4886,-108"/>
<text text-anchor="middle" x="830" y="-87" font-family="sans" font-size="10.00" fill="#000000">merge_non_viral</text>
</g>
<!-- 3&#45;&gt;0 -->
<g id="edge3" class="edge">
<title>3&#45;&gt;0</title>
<path fill="none" stroke="#c0c0c0" stroke-width="2" d="M785.3354,-71.8314C755.6536,-59.7574 717.1708,-44.1034 689.3621,-32.7913"/>
<polygon fill="#c0c0c0" stroke="#c0c0c0" stroke-width="2" points="690.5846,-29.5102 680.0029,-28.9842 687.947,-35.9943 690.5846,-29.5102"/>
</g>
<!-- 4 -->
<g id="node5" class="node">
<title>4</title>
<path fill="none" stroke="#d8c356" stroke-width="2" d="M691.5586,-252C691.5586,-252 614.4414,-252 614.4414,-252 608.4414,-252 602.4414,-246 602.4414,-240 602.4414,-240 602.4414,-228 602.4414,-228 602.4414,-222 608.4414,-216 614.4414,-216 614.4414,-216 691.5586,-216 691.5586,-216 697.5586,-216 703.5586,-222 703.5586,-228 703.5586,-228 703.5586,-240 703.5586,-240 703.5586,-246 697.5586,-252 691.5586,-252"/>
<text text-anchor="middle" x="653" y="-231" font-family="sans" font-size="10.00" fill="#000000">merge_unassigned</text>
</g>
<!-- 4&#45;&gt;0 -->
<g id="edge4" class="edge">
<title>4&#45;&gt;0</title>
<path fill="none" stroke="#c0c0c0" stroke-width="2" d="M653,-215.9555C653,-178.3938 653,-91.5541 653,-46.4103"/>
<polygon fill="#c0c0c0" stroke="#c0c0c0" stroke-width="2" points="656.5001,-46.145 653,-36.1451 649.5001,-46.1451 656.5001,-46.145"/>
</g>
<!-- 5 -->
<g id="node6" class="node">
<title>5</title>
<path fill="none" stroke="#d89c56" stroke-width="2" d="M472.503,-1548C472.503,-1548 381.497,-1548 381.497,-1548 375.497,-1548 369.497,-1542 369.497,-1536 369.497,-1536 369.497,-1524 369.497,-1524 369.497,-1518 375.497,-1512 381.497,-1512 381.497,-1512 472.503,-1512 472.503,-1512 478.503,-1512 484.503,-1518 484.503,-1524 484.503,-1524 484.503,-1536 484.503,-1536 484.503,-1542 478.503,-1548 472.503,-1548"/>
<text text-anchor="middle" x="427" y="-1527" font-family="sans" font-size="10.00" fill="#000000">refgenome_bam_stats</text>
</g>
<!-- 5&#45;&gt;0 -->
<g id="edge5" class="edge">
<title>5&#45;&gt;0</title>
<path fill="none" stroke="#c0c0c0" stroke-width="2" d="M369.4129,-1522.8589C252.8602,-1506.7937 0,-1463.0604 0,-1386 0,-1386 0,-1386 0,-162 0,-72.9546 93.6641,-97.4335 179,-72 260.8611,-47.6022 518.5291,-27.4635 615.5527,-20.5597"/>
<polygon fill="#c0c0c0" stroke="#c0c0c0" stroke-width="2" points="616.04,-24.0341 625.7691,-19.8396 615.5478,-17.0515 616.04,-24.0341"/>
</g>
<!-- 6 -->
<g id="node7" class="node">
<title>6</title>
<path fill="none" stroke="#56d8d0" stroke-width="2" d="M951.1476,-972C951.1476,-972 882.8524,-972 882.8524,-972 876.8524,-972 870.8524,-966 870.8524,-960 870.8524,-960 870.8524,-948 870.8524,-948 870.8524,-942 876.8524,-936 882.8524,-936 882.8524,-936 951.1476,-936 951.1476,-936 957.1476,-936 963.1476,-942 963.1476,-948 963.1476,-948 963.1476,-960 963.1476,-960 963.1476,-966 957.1476,-972 951.1476,-972"/>
<text text-anchor="middle" x="917" y="-951" font-family="sans" font-size="10.00" fill="#000000">preprocess_stats</text>
</g>
<!-- 6&#45;&gt;0 -->
<g id="edge6" class="edge">
<title>6&#45;&gt;0</title>
<path fill="none" stroke="#c0c0c0" stroke-width="2" d="M939.7507,-935.6661C968.1392,-910.5651 1013,-862.581 1013,-810 1013,-810 1013,-810 1013,-162 1013,-107.8872 978.1773,-98.5047 931,-72 890.1088,-49.0269 755.7538,-30.3025 689.9623,-22.2543"/>
<polygon fill="#c0c0c0" stroke="#c0c0c0" stroke-width="2" points="690.3637,-18.7774 680.0167,-21.0552 689.5258,-25.7271 690.3637,-18.7774"/>
</g>
<!-- 7 -->
<g id="node8" class="node">
<title>7</title>
<path fill="none" stroke="#61d856" stroke-width="2" d="M542.803,-252C542.803,-252 503.197,-252 503.197,-252 497.197,-252 491.197,-246 491.197,-240 491.197,-240 491.197,-228 491.197,-228 491.197,-222 497.197,-216 503.197,-216 503.197,-216 542.803,-216 542.803,-216 548.803,-216 554.803,-222 554.803,-228 554.803,-228 554.803,-240 554.803,-240 554.803,-246 548.803,-252 542.803,-252"/>
<text text-anchor="middle" x="523" y="-231" font-family="sans" font-size="10.00" fill="#000000">blast_stats</text>
</g>
<!-- 7&#45;&gt;0 -->
<g id="edge7" class="edge">
<title>7&#45;&gt;0</title>
<path fill="none" stroke="#c0c0c0" stroke-width="2" d="M533.8601,-215.9555C556.7057,-177.9967 609.8396,-89.7127 636.7543,-44.9928"/>
<polygon fill="#c0c0c0" stroke="#c0c0c0" stroke-width="2" points="639.9215,-46.5178 642.0794,-36.1451 633.9239,-42.9082 639.9215,-46.5178"/>
</g>
<!-- 8 -->
<g id="node9" class="node">
<title>8</title>
<path fill="none" stroke="#70d856" stroke-width="2" d="M972.9886,-540C972.9886,-540 901.0114,-540 901.0114,-540 895.0114,-540 889.0114,-534 889.0114,-528 889.0114,-528 889.0114,-516 889.0114,-516 889.0114,-510 895.0114,-504 901.0114,-504 901.0114,-504 972.9886,-504 972.9886,-504 978.9886,-504 984.9886,-510 984.9886,-516 984.9886,-516 984.9886,-528 984.9886,-528 984.9886,-534 978.9886,-540 972.9886,-540"/>
<text text-anchor="middle" x="937" y="-519" font-family="sans" font-size="10.00" fill="#000000">refbac_bam_stats</text>
</g>
<!-- 8&#45;&gt;0 -->
<g id="edge8" class="edge">
<title>8&#45;&gt;0</title>
<path fill="none" stroke="#c0c0c0" stroke-width="2" d="M945.0588,-503.7668C956.2134,-476.8248 975,-424.5405 975,-378 975,-378 975,-378 975,-162 975,-105.1163 933.7898,-99.5087 884,-72 821.663,-37.559 738.1424,-25.0077 690.4986,-20.4885"/>
<polygon fill="#c0c0c0" stroke="#c0c0c0" stroke-width="2" points="690.597,-16.9837 680.329,-19.5949 689.9843,-23.9568 690.597,-16.9837"/>
</g>
<!-- 9 -->
<g id="node10" class="node">
<title>9</title>
<path fill="none" stroke="#70d856" stroke-width="2" d="M359.9886,-612C359.9886,-612 288.0114,-612 288.0114,-612 282.0114,-612 276.0114,-606 276.0114,-600 276.0114,-600 276.0114,-588 276.0114,-588 276.0114,-582 282.0114,-576 288.0114,-576 288.0114,-576 359.9886,-576 359.9886,-576 365.9886,-576 371.9886,-582 371.9886,-588 371.9886,-588 371.9886,-600 371.9886,-600 371.9886,-606 365.9886,-612 359.9886,-612"/>
<text text-anchor="middle" x="324" y="-591" font-family="sans" font-size="10.00" fill="#000000">refbac_bam_stats</text>
</g>
<!-- 9&#45;&gt;0 -->
<g id="edge9" class="edge">
<title>9&#45;&gt;0</title>
<path fill="none" stroke="#c0c0c0" stroke-width="2" d="M306.7544,-575.6186C284.3312,-549.719 248,-500.0348 248,-450 248,-450 248,-450 248,-162 248,-84.3402 515.7086,-37.7738 615.8185,-23.0752"/>
<polygon fill="#c0c0c0" stroke="#c0c0c0" stroke-width="2" points="616.4007,-26.5275 625.7979,-21.6344 615.4004,-19.5993 616.4007,-26.5275"/>
</g>
<!-- 10 -->
<g id="node11" class="node">
<title>10</title>
<path fill="none" stroke="#56d8a9" stroke-width="2" d="M312.0195,-828C312.0195,-828 249.9805,-828 249.9805,-828 243.9805,-828 237.9805,-822 237.9805,-816 237.9805,-816 237.9805,-804 237.9805,-804 237.9805,-798 243.9805,-792 249.9805,-792 249.9805,-792 312.0195,-792 312.0195,-792 318.0195,-792 324.0195,-798 324.0195,-804 324.0195,-804 324.0195,-816 324.0195,-816 324.0195,-822 318.0195,-828 312.0195,-828"/>
<text text-anchor="middle" x="281" y="-807" font-family="sans" font-size="10.00" fill="#000000">classify_viruses</text>
</g>
<!-- 10&#45;&gt;1 -->
<g id="edge10" class="edge">
<title>10&#45;&gt;1</title>
<path fill="none" stroke="#c0c0c0" stroke-width="2" d="M237.9456,-792.3868C214.0324,-782.6042 184.0664,-770.3453 158.6403,-759.9437"/>
<polygon fill="#c0c0c0" stroke="#c0c0c0" stroke-width="2" points="159.7206,-756.6042 149.1398,-756.0572 157.0701,-763.083 159.7206,-756.6042"/>
</g>
<!-- 11 -->
<g id="node12" class="node">
<title>11</title>
<path fill="none" stroke="#56d8a9" stroke-width="2" d="M153.0195,-828C153.0195,-828 90.9805,-828 90.9805,-828 84.9805,-828 78.9805,-822 78.9805,-816 78.9805,-816 78.9805,-804 78.9805,-804 78.9805,-798 84.9805,-792 90.9805,-792 90.9805,-792 153.0195,-792 153.0195,-792 159.0195,-792 165.0195,-798 165.0195,-804 165.0195,-804 165.0195,-816 165.0195,-816 165.0195,-822 159.0195,-828 153.0195,-828"/>
<text text-anchor="middle" x="122" y="-807" font-family="sans" font-size="10.00" fill="#000000">classify_viruses</text>
</g>
<!-- 11&#45;&gt;1 -->
<g id="edge11" class="edge">
<title>11&#45;&gt;1</title>
<path fill="none" stroke="#c0c0c0" stroke-width="2" d="M117.7102,-791.8314C115.892,-784.131 113.7301,-774.9743 111.7095,-766.4166"/>
<polygon fill="#c0c0c0" stroke="#c0c0c0" stroke-width="2" points="115.0519,-765.3414 109.3476,-756.4133 108.2392,-766.95 115.0519,-765.3414"/>
</g>
<!-- 12 -->
<g id="node13" class="node">
<title>12</title>
<path fill="none" stroke="#d88d56" stroke-width="2" d="M857.128,-180C857.128,-180 808.872,-180 808.872,-180 802.872,-180 796.872,-174 796.872,-168 796.872,-168 796.872,-156 796.872,-156 796.872,-150 802.872,-144 808.872,-144 808.872,-144 857.128,-144 857.128,-144 863.128,-144 869.128,-150 869.128,-156 869.128,-156 869.128,-168 869.128,-168 869.128,-174 863.128,-180 857.128,-180"/>
<text text-anchor="middle" x="833" y="-159" font-family="sans" font-size="10.00" fill="#000000">filter_viruses</text>
</g>
<!-- 12&#45;&gt;2 -->
<g id="edge12" class="edge">
<title>12&#45;&gt;2</title>
<path fill="none" stroke="#c0c0c0" stroke-width="2" d="M805.9994,-143.8314C792.5669,-134.7927 776.1527,-123.7476 761.6961,-114.0198"/>
<polygon fill="#c0c0c0" stroke="#c0c0c0" stroke-width="2" points="763.2425,-110.8418 752.992,-108.1628 759.3346,-116.6494 763.2425,-110.8418"/>
</g>
<!-- 12&#45;&gt;3 -->
<g id="edge14" class="edge">
<title>12&#45;&gt;3</title>
<path fill="none" stroke="#c0c0c0" stroke-width="2" d="M832.243,-143.8314C831.9221,-136.131 831.5406,-126.9743 831.184,-118.4166"/>
<polygon fill="#c0c0c0" stroke="#c0c0c0" stroke-width="2" points="834.6806,-118.2589 830.7672,-108.4133 827.6867,-118.5503 834.6806,-118.2589"/>
</g>
<!-- 13 -->
<g id="node14" class="node">
<title>13</title>
<path fill="none" stroke="#d88d56" stroke-width="2" d="M767.128,-180C767.128,-180 718.872,-180 718.872,-180 712.872,-180 706.872,-174 706.872,-168 706.872,-168 706.872,-156 706.872,-156 706.872,-150 712.872,-144 718.872,-144 718.872,-144 767.128,-144 767.128,-144 773.128,-144 779.128,-150 779.128,-156 779.128,-156 779.128,-168 779.128,-168 779.128,-174 773.128,-180 767.128,-180"/>
<text text-anchor="middle" x="743" y="-159" font-family="sans" font-size="10.00" fill="#000000">filter_viruses</text>
</g>
<!-- 13&#45;&gt;2 -->
<g id="edge13" class="edge">
<title>13&#45;&gt;2</title>
<path fill="none" stroke="#c0c0c0" stroke-width="2" d="M738.7102,-143.8314C736.892,-136.131 734.7301,-126.9743 732.7095,-118.4166"/>
<polygon fill="#c0c0c0" stroke="#c0c0c0" stroke-width="2" points="736.0519,-117.3414 730.3476,-108.4133 729.2392,-118.95 736.0519,-117.3414"/>
</g>
<!-- 13&#45;&gt;3 -->
<g id="edge15" class="edge">
<title>13&#45;&gt;3</title>
<path fill="none" stroke="#c0c0c0" stroke-width="2" d="M764.9538,-143.8314C775.6695,-134.9632 788.7189,-124.1637 800.309,-114.5718"/>
<polygon fill="#c0c0c0" stroke="#c0c0c0" stroke-width="2" points="802.5808,-117.2349 808.0533,-108.1628 798.1178,-111.8422 802.5808,-117.2349"/>
</g>
<!-- 14 -->
<g id="node15" class="node">
<title>14</title>
<path fill="none" stroke="#56d0d8" stroke-width="2" d="M890.6623,-324C890.6623,-324 827.3377,-324 827.3377,-324 821.3377,-324 815.3377,-318 815.3377,-312 815.3377,-312 815.3377,-300 815.3377,-300 815.3377,-294 821.3377,-288 827.3377,-288 827.3377,-288 890.6623,-288 890.6623,-288 896.6623,-288 902.6623,-294 902.6623,-300 902.6623,-300 902.6623,-312 902.6623,-312 902.6623,-318 896.6623,-324 890.6623,-324"/>
<text text-anchor="middle" x="859" y="-303" font-family="sans" font-size="10.00" fill="#000000">parse_blastn_nt</text>
</g>
<!-- 14&#45;&gt;4 -->
<g id="edge16" class="edge">
<title>14&#45;&gt;4</title>
<path fill="none" stroke="#c0c0c0" stroke-width="2" d="M815.3127,-290.7307C785.6445,-280.3612 746.0169,-266.5107 713.3443,-255.0912"/>
<polygon fill="#c0c0c0" stroke="#c0c0c0" stroke-width="2" points="714.4831,-251.7817 703.8883,-251.7862 712.1735,-258.3897 714.4831,-251.7817"/>
</g>
<!-- 14&#45;&gt;7 -->
<g id="edge32" class="edge">
<title>14&#45;&gt;7</title>
<path fill="none" stroke="#c0c0c0" stroke-width="2" d="M815.1472,-291.7352C810.396,-290.386 805.6128,-289.11 801,-288 709.785,-266.0501 684.7276,-271.6983 593,-252 583.8102,-250.0265 574.0051,-247.6668 564.7317,-245.3159"/>
<polygon fill="#c0c0c0" stroke="#c0c0c0" stroke-width="2" points="565.4894,-241.8968 554.932,-242.787 563.7402,-248.6748 565.4894,-241.8968"/>
</g>
<!-- 38 -->
<g id="node39" class="node">
<title>38</title>
<path fill="none" stroke="#d87d56" stroke-width="2" d="M874,-252C874,-252 844,-252 844,-252 838,-252 832,-246 832,-240 832,-240 832,-228 832,-228 832,-222 838,-216 844,-216 844,-216 874,-216 874,-216 880,-216 886,-222 886,-228 886,-228 886,-240 886,-240 886,-246 880,-252 874,-252"/>
<text text-anchor="middle" x="859" y="-231" font-family="sans" font-size="10.00" fill="#000000">classify</text>
</g>
<!-- 14&#45;&gt;38 -->
<g id="edge84" class="edge">
<title>14&#45;&gt;38</title>
<path fill="none" stroke="#c0c0c0" stroke-width="2" d="M859,-287.8314C859,-280.131 859,-270.9743 859,-262.4166"/>
<polygon fill="#c0c0c0" stroke="#c0c0c0" stroke-width="2" points="862.5001,-262.4132 859,-252.4133 855.5001,-262.4133 862.5001,-262.4132"/>
</g>
<!-- 15 -->
<g id="node16" class="node">
<title>15</title>
<path fill="none" stroke="#56d0d8" stroke-width="2" d="M702.6623,-324C702.6623,-324 639.3377,-324 639.3377,-324 633.3377,-324 627.3377,-318 627.3377,-312 627.3377,-312 627.3377,-300 627.3377,-300 627.3377,-294 633.3377,-288 639.3377,-288 639.3377,-288 702.6623,-288 702.6623,-288 708.6623,-288 714.6623,-294 714.6623,-300 714.6623,-300 714.6623,-312 714.6623,-312 714.6623,-318 708.6623,-324 702.6623,-324"/>
<text text-anchor="middle" x="671" y="-303" font-family="sans" font-size="10.00" fill="#000000">parse_blastn_nt</text>
</g>
<!-- 15&#45;&gt;4 -->
<g id="edge17" class="edge">
<title>15&#45;&gt;4</title>
<path fill="none" stroke="#c0c0c0" stroke-width="2" d="M666.4578,-287.8314C664.5116,-280.0463 662.1932,-270.7729 660.0337,-262.1347"/>
<polygon fill="#c0c0c0" stroke="#c0c0c0" stroke-width="2" points="663.4242,-261.2658 657.6033,-252.4133 656.6332,-262.9636 663.4242,-261.2658"/>
</g>
<!-- 15&#45;&gt;7 -->
<g id="edge33" class="edge">
<title>15&#45;&gt;7</title>
<path fill="none" stroke="#c0c0c0" stroke-width="2" d="M633.6534,-287.8314C612.3737,-277.4791 585.6841,-264.495 563.8488,-253.8724"/>
<polygon fill="#c0c0c0" stroke="#c0c0c0" stroke-width="2" points="565.3414,-250.7064 554.8179,-249.479 562.2791,-257.001 565.3414,-250.7064"/>
</g>
<!-- 39 -->
<g id="node40" class="node">
<title>39</title>
<path fill="none" stroke="#d87d56" stroke-width="2" d="M764,-252C764,-252 734,-252 734,-252 728,-252 722,-246 722,-240 722,-240 722,-228 722,-228 722,-222 728,-216 734,-216 734,-216 764,-216 764,-216 770,-216 776,-222 776,-228 776,-228 776,-240 776,-240 776,-246 770,-252 764,-252"/>
<text text-anchor="middle" x="749" y="-231" font-family="sans" font-size="10.00" fill="#000000">classify</text>
</g>
<!-- 15&#45;&gt;39 -->
<g id="edge86" class="edge">
<title>15&#45;&gt;39</title>
<path fill="none" stroke="#c0c0c0" stroke-width="2" d="M690.6827,-287.8314C700.1051,-279.1337 711.5401,-268.5783 721.7796,-259.1265"/>
<polygon fill="#c0c0c0" stroke="#c0c0c0" stroke-width="2" points="724.3495,-261.5175 729.3236,-252.1628 719.6016,-256.3738 724.3495,-261.5175"/>
</g>
<!-- 16 -->
<g id="node17" class="node">
<title>16</title>
<path fill="none" stroke="#56b9d8" stroke-width="2" d="M1005.9981,-1692C1005.9981,-1692 914.0019,-1692 914.0019,-1692 908.0019,-1692 902.0019,-1686 902.0019,-1680 902.0019,-1680 902.0019,-1668 902.0019,-1668 902.0019,-1662 908.0019,-1656 914.0019,-1656 914.0019,-1656 1005.9981,-1656 1005.9981,-1656 1011.9981,-1656 1017.9981,-1662 1017.9981,-1668 1017.9981,-1668 1017.9981,-1680 1017.9981,-1680 1017.9981,-1686 1011.9981,-1692 1005.9981,-1692"/>
<text text-anchor="middle" x="960" y="-1671" font-family="sans" font-size="10.00" fill="#000000">bwa_mem_refgenome</text>
</g>
<!-- 16&#45;&gt;5 -->
<g id="edge18" class="edge">
<title>16&#45;&gt;5</title>
<path fill="none" stroke="#c0c0c0" stroke-width="2" d="M902.1994,-1658.3841C802.8603,-1631.5458 600.2552,-1576.8082 494.5636,-1548.2536"/>
<polygon fill="#c0c0c0" stroke="#c0c0c0" stroke-width="2" points="495.2114,-1544.8032 484.6446,-1545.5738 493.3856,-1551.5609 495.2114,-1544.8032"/>
</g>
<!-- 18 -->
<g id="node19" class="node">
<title>18</title>
<path fill="none" stroke="#5663d8" stroke-width="2" d="M1006.1305,-1620C1006.1305,-1620 913.8695,-1620 913.8695,-1620 907.8695,-1620 901.8695,-1614 901.8695,-1608 901.8695,-1608 901.8695,-1596 901.8695,-1596 901.8695,-1590 907.8695,-1584 913.8695,-1584 913.8695,-1584 1006.1305,-1584 1006.1305,-1584 1012.1305,-1584 1018.1305,-1590 1018.1305,-1596 1018.1305,-1596 1018.1305,-1608 1018.1305,-1608 1018.1305,-1614 1012.1305,-1620 1006.1305,-1620"/>
<text text-anchor="middle" x="960" y="-1599" font-family="sans" font-size="10.00" fill="#000000">unmapped_refgenome</text>
</g>
<!-- 16&#45;&gt;18 -->
<g id="edge51" class="edge">
<title>16&#45;&gt;18</title>
<path fill="none" stroke="#c0c0c0" stroke-width="2" d="M960,-1655.8314C960,-1648.131 960,-1638.9743 960,-1630.4166"/>
<polygon fill="#c0c0c0" stroke="#c0c0c0" stroke-width="2" points="963.5001,-1630.4132 960,-1620.4133 956.5001,-1630.4133 963.5001,-1630.4132"/>
</g>
<!-- 17 -->
<g id="node18" class="node">
<title>17</title>
<path fill="none" stroke="#56d8c1" stroke-width="2" d="M1042.0537,-1764C1042.0537,-1764 969.9463,-1764 969.9463,-1764 963.9463,-1764 957.9463,-1758 957.9463,-1752 957.9463,-1752 957.9463,-1740 957.9463,-1740 957.9463,-1734 963.9463,-1728 969.9463,-1728 969.9463,-1728 1042.0537,-1728 1042.0537,-1728 1048.0537,-1728 1054.0537,-1734 1054.0537,-1740 1054.0537,-1740 1054.0537,-1752 1054.0537,-1752 1054.0537,-1758 1048.0537,-1764 1042.0537,-1764"/>
<text text-anchor="middle" x="1006" y="-1748" font-family="sans" font-size="10.00" fill="#000000">preprocess</text>
<text text-anchor="middle" x="1006" y="-1738" font-family="sans" font-size="10.00" fill="#000000">run: SRR5557999</text>
</g>
<!-- 17&#45;&gt;6 -->
<g id="edge19" class="edge">
<title>17&#45;&gt;6</title>
<path fill="none" stroke="#c0c0c0" stroke-width="2" d="M1015.3313,-1727.9025C1028.2471,-1701.1296 1050,-1649.0538 1050,-1602 1050,-1602 1050,-1602 1050,-1098 1050,-1044.0557 999.0089,-1001.7061 960.1727,-977.2745"/>
<polygon fill="#c0c0c0" stroke="#c0c0c0" stroke-width="2" points="961.9563,-974.2628 951.597,-972.0414 958.31,-980.2381 961.9563,-974.2628"/>
</g>
<!-- 17&#45;&gt;16 -->
<g id="edge50" class="edge">
<title>17&#45;&gt;16</title>
<path fill="none" stroke="#c0c0c0" stroke-width="2" d="M994.3923,-1727.8314C989.2022,-1719.7079 982.9768,-1709.9637 977.2575,-1701.0118"/>
<polygon fill="#c0c0c0" stroke="#c0c0c0" stroke-width="2" points="980.0974,-1698.9559 971.764,-1692.4133 974.1985,-1702.7246 980.0974,-1698.9559"/>
</g>
<!-- 18&#45;&gt;6 -->
<g id="edge20" class="edge">
<title>18&#45;&gt;6</title>
<path fill="none" stroke="#c0c0c0" stroke-width="2" d="M973.2597,-1583.8329C980.0684,-1573.7256 987.9681,-1560.6606 993,-1548 1008.0994,-1510.009 1012,-1498.8816 1012,-1458 1012,-1458 1012,-1458 1012,-1098 1012,-1050.0912 974.9087,-1005.8312 947.079,-979.3654"/>
<polygon fill="#c0c0c0" stroke="#c0c0c0" stroke-width="2" points="949.2364,-976.5938 939.5137,-972.3843 944.4892,-981.7382 949.2364,-976.5938"/>
</g>
<!-- 21 -->
<g id="node22" class="node">
<title>21</title>
<path fill="none" stroke="#568ad8" stroke-width="2" d="M972,-1548C972,-1548 942,-1548 942,-1548 936,-1548 930,-1542 930,-1536 930,-1536 930,-1524 930,-1524 930,-1518 936,-1512 942,-1512 942,-1512 972,-1512 972,-1512 978,-1512 984,-1518 984,-1524 984,-1524 984,-1536 984,-1536 984,-1542 978,-1548 972,-1548"/>
<text text-anchor="middle" x="957" y="-1527" font-family="sans" font-size="10.00" fill="#000000">cd_hit</text>
</g>
<!-- 18&#45;&gt;21 -->
<g id="edge56" class="edge">
<title>18&#45;&gt;21</title>
<path fill="none" stroke="#c0c0c0" stroke-width="2" d="M959.243,-1583.8314C958.9221,-1576.131 958.5406,-1566.9743 958.184,-1558.4166"/>
<polygon fill="#c0c0c0" stroke="#c0c0c0" stroke-width="2" points="961.6806,-1558.2589 957.7672,-1548.4133 954.6867,-1558.5503 961.6806,-1558.2589"/>
</g>
<!-- 19 -->
<g id="node20" class="node">
<title>19</title>
<path fill="none" stroke="#8fd856" stroke-width="2" d="M698.083,-1044C698.083,-1044 575.917,-1044 575.917,-1044 569.917,-1044 563.917,-1038 563.917,-1032 563.917,-1032 563.917,-1020 563.917,-1020 563.917,-1014 569.917,-1008 575.917,-1008 575.917,-1008 698.083,-1008 698.083,-1008 704.083,-1008 710.083,-1014 710.083,-1020 710.083,-1020 710.083,-1032 710.083,-1032 710.083,-1038 704.083,-1044 698.083,-1044"/>
<text text-anchor="middle" x="637" y="-1023" font-family="sans" font-size="10.00" fill="#000000">parse_megablast_refgenome</text>
</g>
<!-- 19&#45;&gt;6 -->
<g id="edge21" class="edge">
<title>19&#45;&gt;6</title>
<path fill="none" stroke="#c0c0c0" stroke-width="2" d="M707.2944,-1007.9243C754.8855,-995.6866 816.9046,-979.7388 861.1257,-968.3677"/>
<polygon fill="#c0c0c0" stroke="#c0c0c0" stroke-width="2" points="862.0264,-971.75 870.8397,-965.8698 860.2831,-964.9706 862.0264,-971.75"/>
</g>
<!-- 26 -->
<g id="node27" class="node">
<title>26</title>
<path fill="none" stroke="#b6d856" stroke-width="2" d="M502.9356,-900C502.9356,-900 427.0644,-900 427.0644,-900 421.0644,-900 415.0644,-894 415.0644,-888 415.0644,-888 415.0644,-876 415.0644,-876 415.0644,-870 421.0644,-864 427.0644,-864 427.0644,-864 502.9356,-864 502.9356,-864 508.9356,-864 514.9356,-870 514.9356,-876 514.9356,-876 514.9356,-888 514.9356,-888 514.9356,-894 508.9356,-900 502.9356,-900"/>
<text text-anchor="middle" x="465" y="-879" font-family="sans" font-size="10.00" fill="#000000">parse_blastn_virus</text>
</g>
<!-- 19&#45;&gt;26 -->
<g id="edge63" class="edge">
<title>19&#45;&gt;26</title>
<path fill="none" stroke="#c0c0c0" stroke-width="2" d="M615.2161,-1007.7623C584.5866,-982.119 528.7083,-935.3372 494.4146,-906.6262"/>
<polygon fill="#c0c0c0" stroke="#c0c0c0" stroke-width="2" points="496.5214,-903.8254 486.607,-900.0896 492.0279,-909.1927 496.5214,-903.8254"/>
</g>
<!-- 47 -->
<g id="node48" class="node">
<title>47</title>
<path fill="none" stroke="#d8b456" stroke-width="2" d="M487.8603,-972C487.8603,-972 442.1397,-972 442.1397,-972 436.1397,-972 430.1397,-966 430.1397,-960 430.1397,-960 430.1397,-948 430.1397,-948 430.1397,-942 436.1397,-936 442.1397,-936 442.1397,-936 487.8603,-936 487.8603,-936 493.8603,-936 499.8603,-942 499.8603,-948 499.8603,-948 499.8603,-960 499.8603,-960 499.8603,-966 493.8603,-972 487.8603,-972"/>
<text text-anchor="middle" x="465" y="-951" font-family="sans" font-size="10.00" fill="#000000">blastn_virus</text>
</g>
<!-- 19&#45;&gt;47 -->
<g id="edge94" class="edge">
<title>19&#45;&gt;47</title>
<path fill="none" stroke="#c0c0c0" stroke-width="2" d="M593.5971,-1007.8314C567.7161,-996.9974 534.949,-983.281 508.9685,-972.4054"/>
<polygon fill="#c0c0c0" stroke="#c0c0c0" stroke-width="2" points="510.3051,-969.1707 499.7291,-968.5378 507.602,-975.6278 510.3051,-969.1707"/>
</g>
<!-- 20 -->
<g id="node21" class="node">
<title>20</title>
<path fill="none" stroke="#8fd856" stroke-width="2" d="M349.083,-1044C349.083,-1044 226.917,-1044 226.917,-1044 220.917,-1044 214.917,-1038 214.917,-1032 214.917,-1032 214.917,-1020 214.917,-1020 214.917,-1014 220.917,-1008 226.917,-1008 226.917,-1008 349.083,-1008 349.083,-1008 355.083,-1008 361.083,-1014 361.083,-1020 361.083,-1020 361.083,-1032 361.083,-1032 361.083,-1038 355.083,-1044 349.083,-1044"/>
<text text-anchor="middle" x="288" y="-1023" font-family="sans" font-size="10.00" fill="#000000">parse_megablast_refgenome</text>
</g>
<!-- 20&#45;&gt;6 -->
<g id="edge22" class="edge">
<title>20&#45;&gt;6</title>
<path fill="none" stroke="#c0c0c0" stroke-width="2" d="M361.1961,-1014.6088C376.9479,-1012.2981 393.5153,-1009.9739 409,-1008 572.6649,-987.1371 766.7162,-968.0806 860.5704,-959.2217"/>
<polygon fill="#c0c0c0" stroke="#c0c0c0" stroke-width="2" points="861.0681,-962.6904 870.6961,-958.2688 860.4122,-955.7212 861.0681,-962.6904"/>
</g>
<!-- 27 -->
<g id="node28" class="node">
<title>27</title>
<path fill="none" stroke="#b6d856" stroke-width="2" d="M281.9356,-900C281.9356,-900 206.0644,-900 206.0644,-900 200.0644,-900 194.0644,-894 194.0644,-888 194.0644,-888 194.0644,-876 194.0644,-876 194.0644,-870 200.0644,-864 206.0644,-864 206.0644,-864 281.9356,-864 281.9356,-864 287.9356,-864 293.9356,-870 293.9356,-876 293.9356,-876 293.9356,-888 293.9356,-888 293.9356,-894 287.9356,-900 281.9356,-900"/>
<text text-anchor="middle" x="244" y="-879" font-family="sans" font-size="10.00" fill="#000000">parse_blastn_virus</text>
</g>
<!-- 20&#45;&gt;27 -->
<g id="edge65" class="edge">
<title>20&#45;&gt;27</title>
<path fill="none" stroke="#c0c0c0" stroke-width="2" d="M278.3826,-1007.9237C273.2252,-997.6273 267.1048,-984.3528 263,-972 256.296,-951.8254 251.4265,-928.2954 248.2963,-910.3553"/>
<polygon fill="#c0c0c0" stroke="#c0c0c0" stroke-width="2" points="251.7082,-909.5362 246.6125,-900.2472 244.8033,-910.6864 251.7082,-909.5362"/>
</g>
<!-- 48 -->
<g id="node49" class="node">
<title>48</title>
<path fill="none" stroke="#d8b456" stroke-width="2" d="M329.8603,-972C329.8603,-972 284.1397,-972 284.1397,-972 278.1397,-972 272.1397,-966 272.1397,-960 272.1397,-960 272.1397,-948 272.1397,-948 272.1397,-942 278.1397,-936 284.1397,-936 284.1397,-936 329.8603,-936 329.8603,-936 335.8603,-936 341.8603,-942 341.8603,-948 341.8603,-948 341.8603,-960 341.8603,-960 341.8603,-966 335.8603,-972 329.8603,-972"/>
<text text-anchor="middle" x="307" y="-951" font-family="sans" font-size="10.00" fill="#000000">blastn_virus</text>
</g>
<!-- 20&#45;&gt;48 -->
<g id="edge96" class="edge">
<title>20&#45;&gt;48</title>
<path fill="none" stroke="#c0c0c0" stroke-width="2" d="M292.7945,-1007.8314C294.8489,-1000.0463 297.296,-990.7729 299.5756,-982.1347"/>
<polygon fill="#c0c0c0" stroke="#c0c0c0" stroke-width="2" points="302.9735,-982.9753 302.1409,-972.4133 296.2052,-981.1892 302.9735,-982.9753"/>
</g>
<!-- 21&#45;&gt;6 -->
<g id="edge23" class="edge">
<title>21&#45;&gt;6</title>
<path fill="none" stroke="#c0c0c0" stroke-width="2" d="M960.5224,-1511.8955C965.5018,-1484.6824 974,-1431.5642 974,-1386 974,-1386 974,-1386 974,-1098 974,-1054.7597 951.5055,-1009.0187 934.7788,-980.9832"/>
<polygon fill="#c0c0c0" stroke="#c0c0c0" stroke-width="2" points="937.5874,-978.8688 929.3682,-972.1834 931.6244,-982.5353 937.5874,-978.8688"/>
</g>
<!-- 22 -->
<g id="node23" class="node">
<title>22</title>
<path fill="none" stroke="#ced856" stroke-width="2" d="M934,-1476C934,-1476 904,-1476 904,-1476 898,-1476 892,-1470 892,-1464 892,-1464 892,-1452 892,-1452 892,-1446 898,-1440 904,-1440 904,-1440 934,-1440 934,-1440 940,-1440 946,-1446 946,-1452 946,-1452 946,-1464 946,-1464 946,-1470 940,-1476 934,-1476"/>
<text text-anchor="middle" x="919" y="-1455" font-family="sans" font-size="10.00" fill="#000000">tantan</text>
</g>
<!-- 21&#45;&gt;22 -->
<g id="edge57" class="edge">
<title>21&#45;&gt;22</title>
<path fill="none" stroke="#c0c0c0" stroke-width="2" d="M947.411,-1511.8314C943.1683,-1503.7925 938.0879,-1494.1666 933.404,-1485.2918"/>
<polygon fill="#c0c0c0" stroke="#c0c0c0" stroke-width="2" points="936.4811,-1483.6235 928.7181,-1476.4133 930.2904,-1486.8908 936.4811,-1483.6235"/>
</g>
<!-- 22&#45;&gt;6 -->
<g id="edge24" class="edge">
<title>22&#45;&gt;6</title>
<path fill="none" stroke="#c0c0c0" stroke-width="2" d="M922.5224,-1439.8955C927.5018,-1412.6824 936,-1359.5642 936,-1314 936,-1314 936,-1314 936,-1098 936,-1057.5282 928.532,-1011.2037 922.96,-982.2725"/>
<polygon fill="#c0c0c0" stroke="#c0c0c0" stroke-width="2" points="926.3177,-981.2111 920.9368,-972.0844 919.4517,-982.5746 926.3177,-981.2111"/>
</g>
<!-- 23 -->
<g id="node24" class="node">
<title>23</title>
<path fill="none" stroke="#56d863" stroke-width="2" d="M895.6114,-1404C895.6114,-1404 848.3886,-1404 848.3886,-1404 842.3886,-1404 836.3886,-1398 836.3886,-1392 836.3886,-1392 836.3886,-1380 836.3886,-1380 836.3886,-1374 842.3886,-1368 848.3886,-1368 848.3886,-1368 895.6114,-1368 895.6114,-1368 901.6114,-1368 907.6114,-1374 907.6114,-1380 907.6114,-1380 907.6114,-1392 907.6114,-1392 907.6114,-1398 901.6114,-1404 895.6114,-1404"/>
<text text-anchor="middle" x="872" y="-1383" font-family="sans" font-size="10.00" fill="#000000">tantan_good</text>
</g>
<!-- 22&#45;&gt;23 -->
<g id="edge58" class="edge">
<title>22&#45;&gt;23</title>
<path fill="none" stroke="#c0c0c0" stroke-width="2" d="M907.1399,-1439.8314C901.8371,-1431.7079 895.4763,-1421.9637 889.6327,-1413.0118"/>
<polygon fill="#c0c0c0" stroke="#c0c0c0" stroke-width="2" points="892.4169,-1410.8739 884.0198,-1404.4133 886.5552,-1414.7003 892.4169,-1410.8739"/>
</g>
<!-- 23&#45;&gt;6 -->
<g id="edge25" class="edge">
<title>23&#45;&gt;6</title>
<path fill="none" stroke="#c0c0c0" stroke-width="2" d="M877.5139,-1367.5519C885.146,-1340.3422 898,-1287.7276 898,-1242 898,-1242 898,-1242 898,-1098 898,-1057.5282 905.468,-1011.2037 911.04,-982.2725"/>
<polygon fill="#c0c0c0" stroke="#c0c0c0" stroke-width="2" points="914.5483,-982.5746 913.0632,-972.0844 907.6823,-981.2111 914.5483,-982.5746"/>
</g>
<!-- 45 -->
<g id="node46" class="node">
<title>45</title>
<path fill="none" stroke="#d86656" stroke-width="2" d="M692.5244,-1332C692.5244,-1332 655.4756,-1332 655.4756,-1332 649.4756,-1332 643.4756,-1326 643.4756,-1320 643.4756,-1320 643.4756,-1308 643.4756,-1308 643.4756,-1302 649.4756,-1296 655.4756,-1296 655.4756,-1296 692.5244,-1296 692.5244,-1296 698.5244,-1296 704.5244,-1302 704.5244,-1308 704.5244,-1308 704.5244,-1320 704.5244,-1320 704.5244,-1326 698.5244,-1332 692.5244,-1332"/>
<text text-anchor="middle" x="674" y="-1311" font-family="sans" font-size="10.00" fill="#000000">split_fasta</text>
</g>
<!-- 23&#45;&gt;45 -->
<g id="edge92" class="edge">
<title>23&#45;&gt;45</title>
<path fill="none" stroke="#c0c0c0" stroke-width="2" d="M836.1437,-1372.9613C801.8153,-1360.4783 750.1025,-1341.6736 714.3493,-1328.6725"/>
<polygon fill="#c0c0c0" stroke="#c0c0c0" stroke-width="2" points="715.3101,-1325.2977 704.716,-1325.1695 712.9178,-1331.8762 715.3101,-1325.2977"/>
</g>
<!-- 24 -->
<g id="node25" class="node">
<title>24</title>
<path fill="none" stroke="#d8ac56" stroke-width="2" d="M781.4453,-1188C781.4453,-1188 700.5547,-1188 700.5547,-1188 694.5547,-1188 688.5547,-1182 688.5547,-1176 688.5547,-1176 688.5547,-1164 688.5547,-1164 688.5547,-1158 694.5547,-1152 700.5547,-1152 700.5547,-1152 781.4453,-1152 781.4453,-1152 787.4453,-1152 793.4453,-1158 793.4453,-1164 793.4453,-1164 793.4453,-1176 793.4453,-1176 793.4453,-1182 787.4453,-1188 781.4453,-1188"/>
<text text-anchor="middle" x="741" y="-1167" font-family="sans" font-size="10.00" fill="#000000">repeatmasker_good</text>
</g>
<!-- 24&#45;&gt;6 -->
<g id="edge26" class="edge">
<title>24&#45;&gt;6</title>
<path fill="none" stroke="#c0c0c0" stroke-width="2" d="M778.3434,-1151.8302C801.0686,-1140.2034 827.3388,-1125.5607 836,-1116 871.2659,-1077.0715 859.5864,-1054.509 884,-1008 888.7754,-998.9026 894.4655,-989.2459 899.7648,-980.6525"/>
<polygon fill="#c0c0c0" stroke="#c0c0c0" stroke-width="2" points="902.7483,-982.4827 905.091,-972.1501 896.8161,-978.7666 902.7483,-982.4827"/>
</g>
<!-- 24&#45;&gt;19 -->
<g id="edge53" class="edge">
<title>24&#45;&gt;19</title>
<path fill="none" stroke="#c0c0c0" stroke-width="2" d="M688.4569,-1157.6156C650.6559,-1147.5187 604.4066,-1132.3041 593,-1116 578.8672,-1095.7993 593.8756,-1070.3757 610.0867,-1051.7066"/>
<polygon fill="#c0c0c0" stroke="#c0c0c0" stroke-width="2" points="612.8376,-1053.8856 617.0264,-1044.154 607.6831,-1049.1494 612.8376,-1053.8856"/>
</g>
<!-- 30 -->
<g id="node31" class="node">
<title>30</title>
<path fill="none" stroke="#d87556" stroke-width="2" d="M676.4935,-828C676.4935,-828 609.5065,-828 609.5065,-828 603.5065,-828 597.5065,-822 597.5065,-816 597.5065,-816 597.5065,-804 597.5065,-804 597.5065,-798 603.5065,-792 609.5065,-792 609.5065,-792 676.4935,-792 676.4935,-792 682.4935,-792 688.4935,-798 688.4935,-804 688.4935,-804 688.4935,-816 688.4935,-816 688.4935,-822 682.4935,-828 676.4935,-828"/>
<text text-anchor="middle" x="643" y="-807" font-family="sans" font-size="10.00" fill="#000000">unmasked_other</text>
</g>
<!-- 24&#45;&gt;30 -->
<g id="edge72" class="edge">
<title>24&#45;&gt;30</title>
<path fill="none" stroke="#c0c0c0" stroke-width="2" d="M742.036,-1151.8216C743.5005,-1124.5143 746,-1071.2773 746,-1026 746,-1026 746,-1026 746,-954 746,-904.7637 705.6723,-860.7636 675.4849,-834.7245"/>
<polygon fill="#c0c0c0" stroke="#c0c0c0" stroke-width="2" points="677.5856,-831.9185 667.6711,-828.1831 673.0922,-837.286 677.5856,-831.9185"/>
</g>
<!-- 34 -->
<g id="node35" class="node">
<title>34</title>
<path fill="none" stroke="#59d856" stroke-width="2" d="M823.6915,-612C823.6915,-612 710.3085,-612 710.3085,-612 704.3085,-612 698.3085,-606 698.3085,-600 698.3085,-600 698.3085,-588 698.3085,-588 698.3085,-582 704.3085,-576 710.3085,-576 710.3085,-576 823.6915,-576 823.6915,-576 829.6915,-576 835.6915,-582 835.6915,-588 835.6915,-588 835.6915,-600 835.6915,-600 835.6915,-606 829.6915,-612 823.6915,-612"/>
<text text-anchor="middle" x="767" y="-591" font-family="sans" font-size="10.00" fill="#000000">refbac_unmapped_masked</text>
</g>
<!-- 24&#45;&gt;34 -->
<g id="edge78" class="edge">
<title>24&#45;&gt;34</title>
<path fill="none" stroke="#c0c0c0" stroke-width="2" d="M747.4958,-1151.691C750.9891,-1141.3218 755.1518,-1128.0521 758,-1116 774.771,-1045.0334 784,-1026.9214 784,-954 784,-954 784,-954 784,-738 784,-697.5973 777.3181,-651.2552 772.3326,-622.3013"/>
<polygon fill="#c0c0c0" stroke="#c0c0c0" stroke-width="2" points="775.7165,-621.3387 770.5224,-612.1045 768.8243,-622.5623 775.7165,-621.3387"/>
</g>
<!-- 42 -->
<g id="node43" class="node">
<title>42</title>
<path fill="none" stroke="#5673d8" stroke-width="2" d="M705.5079,-1116C705.5079,-1116 614.4921,-1116 614.4921,-1116 608.4921,-1116 602.4921,-1110 602.4921,-1104 602.4921,-1104 602.4921,-1092 602.4921,-1092 602.4921,-1086 608.4921,-1080 614.4921,-1080 614.4921,-1080 705.5079,-1080 705.5079,-1080 711.5079,-1080 717.5079,-1086 717.5079,-1092 717.5079,-1092 717.5079,-1104 717.5079,-1104 717.5079,-1110 711.5079,-1116 705.5079,-1116"/>
<text text-anchor="middle" x="660" y="-1095" font-family="sans" font-size="10.00" fill="#000000">megablast_refgenome</text>
</g>
<!-- 24&#45;&gt;42 -->
<g id="edge89" class="edge">
<title>24&#45;&gt;42</title>
<path fill="none" stroke="#c0c0c0" stroke-width="2" d="M720.5603,-1151.8314C710.6795,-1143.0485 698.6676,-1132.3712 687.955,-1122.8489"/>
<polygon fill="#c0c0c0" stroke="#c0c0c0" stroke-width="2" points="690.2326,-1120.1906 680.4332,-1116.1628 685.582,-1125.4224 690.2326,-1120.1906"/>
</g>
<!-- 25 -->
<g id="node26" class="node">
<title>25</title>
<path fill="none" stroke="#d8ac56" stroke-width="2" d="M576.4453,-1188C576.4453,-1188 495.5547,-1188 495.5547,-1188 489.5547,-1188 483.5547,-1182 483.5547,-1176 483.5547,-1176 483.5547,-1164 483.5547,-1164 483.5547,-1158 489.5547,-1152 495.5547,-1152 495.5547,-1152 576.4453,-1152 576.4453,-1152 582.4453,-1152 588.4453,-1158 588.4453,-1164 588.4453,-1164 588.4453,-1176 588.4453,-1176 588.4453,-1182 582.4453,-1188 576.4453,-1188"/>
<text text-anchor="middle" x="536" y="-1167" font-family="sans" font-size="10.00" fill="#000000">repeatmasker_good</text>
</g>
<!-- 25&#45;&gt;6 -->
<g id="edge27" class="edge">
<title>25&#45;&gt;6</title>
<path fill="none" stroke="#c0c0c0" stroke-width="2" d="M588.5565,-1161.4655C628.2723,-1153.5497 683.2353,-1139.3872 727,-1116 762.7059,-1096.9193 847.4559,-1019.4401 890.6736,-978.9387"/>
<polygon fill="#c0c0c0" stroke="#c0c0c0" stroke-width="2" points="893.0988,-981.4626 897.9894,-972.064 888.3052,-976.3614 893.0988,-981.4626"/>
</g>
<!-- 25&#45;&gt;20 -->
<g id="edge55" class="edge">
<title>25&#45;&gt;20</title>
<path fill="none" stroke="#c0c0c0" stroke-width="2" d="M483.3528,-1168.3487C405.8685,-1164.6848 266.9318,-1152.9966 236,-1116 219.2703,-1095.9901 238.0071,-1069.8864 257.4951,-1050.9483"/>
<polygon fill="#c0c0c0" stroke="#c0c0c0" stroke-width="2" points="259.9667,-1053.4298 264.9285,-1044.0686 255.212,-1048.2924 259.9667,-1053.4298"/>
</g>
<!-- 31 -->
<g id="node32" class="node">
<title>31</title>
<path fill="none" stroke="#d87556" stroke-width="2" d="M420.4935,-828C420.4935,-828 353.5065,-828 353.5065,-828 347.5065,-828 341.5065,-822 341.5065,-816 341.5065,-816 341.5065,-804 341.5065,-804 341.5065,-798 347.5065,-792 353.5065,-792 353.5065,-792 420.4935,-792 420.4935,-792 426.4935,-792 432.4935,-798 432.4935,-804 432.4935,-804 432.4935,-816 432.4935,-816 432.4935,-822 426.4935,-828 420.4935,-828"/>
<text text-anchor="middle" x="387" y="-807" font-family="sans" font-size="10.00" fill="#000000">unmasked_other</text>
</g>
<!-- 25&#45;&gt;31 -->
<g id="edge74" class="edge">
<title>25&#45;&gt;31</title>
<path fill="none" stroke="#c0c0c0" stroke-width="2" d="M508.6604,-1151.9054C478.457,-1130.2255 431.1653,-1090.8938 409,-1044 376.714,-975.6945 379.6223,-883.7864 383.7044,-838.1492"/>
<polygon fill="#c0c0c0" stroke="#c0c0c0" stroke-width="2" points="387.1969,-838.3956 384.6913,-828.1013 380.2305,-837.7113 387.1969,-838.3956"/>
</g>
<!-- 35 -->
<g id="node36" class="node">
<title>35</title>
<path fill="none" stroke="#59d856" stroke-width="2" d="M629.6915,-612C629.6915,-612 516.3085,-612 516.3085,-612 510.3085,-612 504.3085,-606 504.3085,-600 504.3085,-600 504.3085,-588 504.3085,-588 504.3085,-582 510.3085,-576 516.3085,-576 516.3085,-576 629.6915,-576 629.6915,-576 635.6915,-576 641.6915,-582 641.6915,-588 641.6915,-588 641.6915,-600 641.6915,-600 641.6915,-606 635.6915,-612 629.6915,-612"/>
<text text-anchor="middle" x="573" y="-591" font-family="sans" font-size="10.00" fill="#000000">refbac_unmapped_masked</text>
</g>
<!-- 25&#45;&gt;35 -->
<g id="edge80" class="edge">
<title>25&#45;&gt;35</title>
<path fill="none" stroke="#c0c0c0" stroke-width="2" d="M536.609,-1151.6448C538.312,-1098.6725 543,-940.9623 543,-810 543,-810 543,-810 543,-738 543,-697.0614 554.7646,-650.926 563.5593,-622.1567"/>
<polygon fill="#c0c0c0" stroke="#c0c0c0" stroke-width="2" points="566.9711,-622.9746 566.6378,-612.385 560.2946,-620.8712 566.9711,-622.9746"/>
</g>
<!-- 43 -->
<g id="node44" class="node">
<title>43</title>
<path fill="none" stroke="#5673d8" stroke-width="2" d="M348.5079,-1116C348.5079,-1116 257.4921,-1116 257.4921,-1116 251.4921,-1116 245.4921,-1110 245.4921,-1104 245.4921,-1104 245.4921,-1092 245.4921,-1092 245.4921,-1086 251.4921,-1080 257.4921,-1080 257.4921,-1080 348.5079,-1080 348.5079,-1080 354.5079,-1080 360.5079,-1086 360.5079,-1092 360.5079,-1092 360.5079,-1104 360.5079,-1104 360.5079,-1110 354.5079,-1116 348.5079,-1116"/>
<text text-anchor="middle" x="303" y="-1095" font-family="sans" font-size="10.00" fill="#000000">megablast_refgenome</text>
</g>
<!-- 25&#45;&gt;43 -->
<g id="edge90" class="edge">
<title>25&#45;&gt;43</title>
<path fill="none" stroke="#c0c0c0" stroke-width="2" d="M483.4197,-1153.752C450.0491,-1143.4401 406.5442,-1129.9965 370.6163,-1118.8943"/>
<polygon fill="#c0c0c0" stroke="#c0c0c0" stroke-width="2" points="371.286,-1115.438 360.6984,-1115.8295 369.2193,-1122.126 371.286,-1115.438"/>
</g>
<!-- 26&#45;&gt;7 -->
<g id="edge28" class="edge">
<title>26&#45;&gt;7</title>
<path fill="none" stroke="#c0c0c0" stroke-width="2" d="M467.2792,-863.8486C470.5012,-836.5755 476,-783.3818 476,-738 476,-738 476,-738 476,-666 476,-567.7536 523,-548.2464 523,-450 523,-450 523,-450 523,-378 523,-337.876 523,-291.4631 523,-262.4177"/>
<polygon fill="#c0c0c0" stroke="#c0c0c0" stroke-width="2" points="526.5001,-262.1853 523,-252.1854 519.5001,-262.1854 526.5001,-262.1853"/>
</g>
<!-- 26&#45;&gt;10 -->
<g id="edge42" class="edge">
<title>26&#45;&gt;10</title>
<path fill="none" stroke="#c0c0c0" stroke-width="2" d="M418.569,-863.8314C392.7786,-853.7395 360.5964,-841.1464 333.8445,-830.6783"/>
<polygon fill="#c0c0c0" stroke="#c0c0c0" stroke-width="2" points="334.8439,-827.311 324.2561,-826.9263 332.2931,-833.8297 334.8439,-827.311"/>
</g>
<!-- 26&#45;&gt;30 -->
<g id="edge71" class="edge">
<title>26&#45;&gt;30</title>
<path fill="none" stroke="#c0c0c0" stroke-width="2" d="M509.9169,-863.8314C533.935,-854.1162 563.6834,-842.0831 588.9592,-831.8592"/>
<polygon fill="#c0c0c0" stroke="#c0c0c0" stroke-width="2" points="590.4482,-835.0325 598.4061,-828.038 587.8233,-828.5432 590.4482,-835.0325"/>
</g>
<!-- 27&#45;&gt;7 -->
<g id="edge29" class="edge">
<title>27&#45;&gt;7</title>
<path fill="none" stroke="#c0c0c0" stroke-width="2" d="M236.7895,-863.6867C226.8091,-836.6448 210,-784.2373 210,-738 210,-738 210,-738 210,-378 210,-320.4809 252.6566,-315.8207 303,-288 359.8028,-256.6097 434.7887,-243.2503 480.9132,-237.7192"/>
<polygon fill="#c0c0c0" stroke="#c0c0c0" stroke-width="2" points="481.3194,-241.1957 490.8628,-236.5942 480.5328,-234.24 481.3194,-241.1957"/>
</g>
<!-- 27&#45;&gt;11 -->
<g id="edge43" class="edge">
<title>27&#45;&gt;11</title>
<path fill="none" stroke="#c0c0c0" stroke-width="2" d="M213.2142,-863.8314C197.6097,-854.6221 178.476,-843.3301 161.7697,-833.4706"/>
<polygon fill="#c0c0c0" stroke="#c0c0c0" stroke-width="2" points="163.1669,-830.2312 152.7759,-828.1628 159.6091,-836.2596 163.1669,-830.2312"/>
</g>
<!-- 27&#45;&gt;31 -->
<g id="edge73" class="edge">
<title>27&#45;&gt;31</title>
<path fill="none" stroke="#c0c0c0" stroke-width="2" d="M280.0849,-863.8314C298.7989,-854.4089 321.8432,-842.8062 341.74,-832.7883"/>
<polygon fill="#c0c0c0" stroke="#c0c0c0" stroke-width="2" points="343.5689,-835.7861 350.9266,-828.1628 340.4208,-829.5339 343.5689,-835.7861"/>
</g>
<!-- 28 -->
<g id="node29" class="node">
<title>28</title>
<path fill="none" stroke="#56d8b9" stroke-width="2" d="M879.1159,-468C879.1159,-468 796.8841,-468 796.8841,-468 790.8841,-468 784.8841,-462 784.8841,-456 784.8841,-456 784.8841,-444 784.8841,-444 784.8841,-438 790.8841,-432 796.8841,-432 796.8841,-432 879.1159,-432 879.1159,-432 885.1159,-432 891.1159,-438 891.1159,-444 891.1159,-444 891.1159,-456 891.1159,-456 891.1159,-462 885.1159,-468 879.1159,-468"/>
<text text-anchor="middle" x="838" y="-447" font-family="sans" font-size="10.00" fill="#000000">parse_megablast_nt</text>
</g>
<!-- 28&#45;&gt;7 -->
<g id="edge30" class="edge">
<title>28&#45;&gt;7</title>
<path fill="none" stroke="#c0c0c0" stroke-width="2" d="M827.3938,-431.8249C804.8403,-393.7475 751.906,-307.505 724,-288 720.6736,-285.675 622.966,-260.0034 565.0262,-244.9093"/>
<polygon fill="#c0c0c0" stroke="#c0c0c0" stroke-width="2" points="565.6082,-241.4442 555.049,-242.3122 563.8448,-248.2185 565.6082,-241.4442"/>
</g>
<!-- 28&#45;&gt;14 -->
<g id="edge46" class="edge">
<title>28&#45;&gt;14</title>
<path fill="none" stroke="#c0c0c0" stroke-width="2" d="M857.05,-431.8859C865.857,-422.1885 875.3746,-409.4808 880,-396 887.0296,-375.512 880.8052,-351.6043 873.3508,-333.581"/>
<polygon fill="#c0c0c0" stroke="#c0c0c0" stroke-width="2" points="876.4443,-331.9254 869.1593,-324.2326 870.0569,-334.7893 876.4443,-331.9254"/>
</g>
<!-- 28&#45;&gt;38 -->
<g id="edge83" class="edge">
<title>28&#45;&gt;38</title>
<path fill="none" stroke="#c0c0c0" stroke-width="2" d="M862.8395,-431.9964C874.2406,-422.5041 886.9777,-409.9419 895,-396 911.3984,-367.5013 908.1967,-356.6592 912,-324 913.8508,-308.1074 918.0538,-302.8105 912,-288 907.5408,-277.0907 899.6975,-267.1954 891.3897,-258.9434"/>
<polygon fill="#c0c0c0" stroke="#c0c0c0" stroke-width="2" points="893.7552,-256.3637 884.0428,-252.1305 888.9955,-261.4965 893.7552,-256.3637"/>
</g>
<!-- 40 -->
<g id="node41" class="node">
<title>40</title>
<path fill="none" stroke="#56d88a" stroke-width="2" d="M859.0874,-396C859.0874,-396 826.9126,-396 826.9126,-396 820.9126,-396 814.9126,-390 814.9126,-384 814.9126,-384 814.9126,-372 814.9126,-372 814.9126,-366 820.9126,-360 826.9126,-360 826.9126,-360 859.0874,-360 859.0874,-360 865.0874,-360 871.0874,-366 871.0874,-372 871.0874,-372 871.0874,-384 871.0874,-384 871.0874,-390 865.0874,-396 859.0874,-396"/>
<text text-anchor="middle" x="843" y="-375" font-family="sans" font-size="10.00" fill="#000000">blastn_nt</text>
</g>
<!-- 28&#45;&gt;40 -->
<g id="edge87" class="edge">
<title>28&#45;&gt;40</title>
<path fill="none" stroke="#c0c0c0" stroke-width="2" d="M839.2617,-431.8314C839.7965,-424.131 840.4323,-414.9743 841.0266,-406.4166"/>
<polygon fill="#c0c0c0" stroke="#c0c0c0" stroke-width="2" points="844.52,-406.6317 841.7213,-396.4133 837.5368,-406.1467 844.52,-406.6317"/>
</g>
<!-- 29 -->
<g id="node30" class="node">
<title>29</title>
<path fill="none" stroke="#56d8b9" stroke-width="2" d="M696.1159,-468C696.1159,-468 613.8841,-468 613.8841,-468 607.8841,-468 601.8841,-462 601.8841,-456 601.8841,-456 601.8841,-444 601.8841,-444 601.8841,-438 607.8841,-432 613.8841,-432 613.8841,-432 696.1159,-432 696.1159,-432 702.1159,-432 708.1159,-438 708.1159,-444 708.1159,-444 708.1159,-456 708.1159,-456 708.1159,-462 702.1159,-468 696.1159,-468"/>
<text text-anchor="middle" x="655" y="-447" font-family="sans" font-size="10.00" fill="#000000">parse_megablast_nt</text>
</g>
<!-- 29&#45;&gt;7 -->
<g id="edge31" class="edge">
<title>29&#45;&gt;7</title>
<path fill="none" stroke="#c0c0c0" stroke-width="2" d="M640.921,-431.6531C633.5178,-421.4932 624.6297,-408.4351 618,-396 593.6939,-350.41 602.9981,-331.4205 575,-288 568.3993,-277.7634 559.6752,-267.7945 551.2625,-259.2657"/>
<polygon fill="#c0c0c0" stroke="#c0c0c0" stroke-width="2" points="553.6064,-256.6624 544.0108,-252.1708 548.7111,-261.666 553.6064,-256.6624"/>
</g>
<!-- 29&#45;&gt;15 -->
<g id="edge48" class="edge">
<title>29&#45;&gt;15</title>
<path fill="none" stroke="#c0c0c0" stroke-width="2" d="M671.4281,-431.989C679.3025,-422.1289 687.898,-409.2441 692,-396 698.4085,-375.3094 692.2181,-351.4126 684.9346,-333.4452"/>
<polygon fill="#c0c0c0" stroke="#c0c0c0" stroke-width="2" points="688.0712,-331.8828 680.8488,-324.1312 681.6609,-334.6949 688.0712,-331.8828"/>
</g>
<!-- 29&#45;&gt;39 -->
<g id="edge85" class="edge">
<title>29&#45;&gt;39</title>
<path fill="none" stroke="#c0c0c0" stroke-width="2" d="M677.2404,-431.7698C687.6699,-422.1349 699.4378,-409.5162 707,-396 731.0661,-352.9859 741.6799,-295.8423 746.1021,-262.1834"/>
<polygon fill="#c0c0c0" stroke="#c0c0c0" stroke-width="2" points="749.592,-262.4785 747.3295,-252.1281 742.6436,-261.6303 749.592,-262.4785"/>
</g>
<!-- 41 -->
<g id="node42" class="node">
<title>41</title>
<path fill="none" stroke="#56d88a" stroke-width="2" d="M671.0874,-396C671.0874,-396 638.9126,-396 638.9126,-396 632.9126,-396 626.9126,-390 626.9126,-384 626.9126,-384 626.9126,-372 626.9126,-372 626.9126,-366 632.9126,-360 638.9126,-360 638.9126,-360 671.0874,-360 671.0874,-360 677.0874,-360 683.0874,-366 683.0874,-372 683.0874,-372 683.0874,-384 683.0874,-384 683.0874,-390 677.0874,-396 671.0874,-396"/>
<text text-anchor="middle" x="655" y="-375" font-family="sans" font-size="10.00" fill="#000000">blastn_nt</text>
</g>
<!-- 29&#45;&gt;41 -->
<g id="edge88" class="edge">
<title>29&#45;&gt;41</title>
<path fill="none" stroke="#c0c0c0" stroke-width="2" d="M655,-431.8314C655,-424.131 655,-414.9743 655,-406.4166"/>
<polygon fill="#c0c0c0" stroke="#c0c0c0" stroke-width="2" points="658.5001,-406.4132 655,-396.4133 651.5001,-406.4133 658.5001,-406.4132"/>
</g>
<!-- 30&#45;&gt;7 -->
<g id="edge34" class="edge">
<title>30&#45;&gt;7</title>
<path fill="none" stroke="#c0c0c0" stroke-width="2" d="M619.7077,-791.739C560.5201,-743.0916 409,-603.5583 409,-450 409,-450 409,-450 409,-378 409,-334.0449 422.338,-322.1594 450,-288 459.2605,-276.5644 471.4732,-266.2889 483.254,-257.8478"/>
<polygon fill="#c0c0c0" stroke="#c0c0c0" stroke-width="2" points="485.4505,-260.5851 491.7075,-252.0352 481.4844,-254.817 485.4505,-260.5851"/>
</g>
<!-- 36 -->
<g id="node37" class="node">
<title>36</title>
<path fill="none" stroke="#56d873" stroke-width="2" d="M705.9836,-756C705.9836,-756 634.0164,-756 634.0164,-756 628.0164,-756 622.0164,-750 622.0164,-744 622.0164,-744 622.0164,-732 622.0164,-732 622.0164,-726 628.0164,-720 634.0164,-720 634.0164,-720 705.9836,-720 705.9836,-720 711.9836,-720 717.9836,-726 717.9836,-732 717.9836,-732 717.9836,-744 717.9836,-744 717.9836,-750 711.9836,-756 705.9836,-756"/>
<text text-anchor="middle" x="670" y="-735" font-family="sans" font-size="10.00" fill="#000000">bwa_mem_refbac</text>
</g>
<!-- 30&#45;&gt;36 -->
<g id="edge81" class="edge">
<title>30&#45;&gt;36</title>
<path fill="none" stroke="#c0c0c0" stroke-width="2" d="M649.8132,-791.8314C652.7644,-783.9617 656.2858,-774.5712 659.555,-765.8533"/>
<polygon fill="#c0c0c0" stroke="#c0c0c0" stroke-width="2" points="662.8609,-767.0055 663.095,-756.4133 656.3066,-764.5476 662.8609,-767.0055"/>
</g>
<!-- 31&#45;&gt;7 -->
<g id="edge35" class="edge">
<title>31&#45;&gt;7</title>
<path fill="none" stroke="#c0c0c0" stroke-width="2" d="M363.7931,-791.8048C352.5153,-782.0868 339.4032,-769.385 330,-756 289.8431,-698.8386 281.303,-680.3771 267,-612 259.1688,-574.5621 286,-504.021 286,-450 286,-450 286,-450 286,-378 286,-287.7847 412.9752,-252.4873 481.0449,-240.0465"/>
<polygon fill="#c0c0c0" stroke="#c0c0c0" stroke-width="2" points="481.7856,-243.4703 491.0371,-238.3069 480.585,-236.574 481.7856,-243.4703"/>
</g>
<!-- 37 -->
<g id="node38" class="node">
<title>37</title>
<path fill="none" stroke="#56d873" stroke-width="2" d="M422.9836,-756C422.9836,-756 351.0164,-756 351.0164,-756 345.0164,-756 339.0164,-750 339.0164,-744 339.0164,-744 339.0164,-732 339.0164,-732 339.0164,-726 345.0164,-720 351.0164,-720 351.0164,-720 422.9836,-720 422.9836,-720 428.9836,-720 434.9836,-726 434.9836,-732 434.9836,-732 434.9836,-744 434.9836,-744 434.9836,-750 428.9836,-756 422.9836,-756"/>
<text text-anchor="middle" x="387" y="-735" font-family="sans" font-size="10.00" fill="#000000">bwa_mem_refbac</text>
</g>
<!-- 31&#45;&gt;37 -->
<g id="edge82" class="edge">
<title>31&#45;&gt;37</title>
<path fill="none" stroke="#c0c0c0" stroke-width="2" d="M387,-791.8314C387,-784.131 387,-774.9743 387,-766.4166"/>
<polygon fill="#c0c0c0" stroke="#c0c0c0" stroke-width="2" points="390.5001,-766.4132 387,-756.4133 383.5001,-766.4133 390.5001,-766.4132"/>
</g>
<!-- 32 -->
<g id="node33" class="node">
<title>32</title>
<path fill="none" stroke="#97d856" stroke-width="2" d="M706.116,-684C706.116,-684 633.884,-684 633.884,-684 627.884,-684 621.884,-678 621.884,-672 621.884,-672 621.884,-660 621.884,-660 621.884,-654 627.884,-648 633.884,-648 633.884,-648 706.116,-648 706.116,-648 712.116,-648 718.116,-654 718.116,-660 718.116,-660 718.116,-672 718.116,-672 718.116,-678 712.116,-684 706.116,-684"/>
<text text-anchor="middle" x="670" y="-663" font-family="sans" font-size="10.00" fill="#000000">unmapped_refbac</text>
</g>
<!-- 32&#45;&gt;7 -->
<g id="edge36" class="edge">
<title>32&#45;&gt;7</title>
<path fill="none" stroke="#c0c0c0" stroke-width="2" d="M671.1605,-647.7754C671.4179,-627.7328 668.6768,-595.7552 651,-576 616.9802,-537.9801 582.2222,-571.3853 542,-540 504.6718,-510.8729 485,-497.3474 485,-450 485,-450 485,-450 485,-378 485,-336.3681 500.0328,-290.14 511.1881,-261.567"/>
<polygon fill="#c0c0c0" stroke="#c0c0c0" stroke-width="2" points="514.4578,-262.817 514.9412,-252.2332 507.9632,-260.2055 514.4578,-262.817"/>
</g>
<!-- 32&#45;&gt;34 -->
<g id="edge77" class="edge">
<title>32&#45;&gt;34</title>
<path fill="none" stroke="#c0c0c0" stroke-width="2" d="M694.4772,-647.8314C706.5395,-638.8779 721.254,-627.9558 734.2686,-618.2955"/>
<polygon fill="#c0c0c0" stroke="#c0c0c0" stroke-width="2" points="736.587,-620.9335 742.5306,-612.1628 732.4148,-615.3127 736.587,-620.9335"/>
</g>
<!-- 33 -->
<g id="node34" class="node">
<title>33</title>
<path fill="none" stroke="#97d856" stroke-width="2" d="M436.116,-684C436.116,-684 363.884,-684 363.884,-684 357.884,-684 351.884,-678 351.884,-672 351.884,-672 351.884,-660 351.884,-660 351.884,-654 357.884,-648 363.884,-648 363.884,-648 436.116,-648 436.116,-648 442.116,-648 448.116,-654 448.116,-660 448.116,-660 448.116,-672 448.116,-672 448.116,-678 442.116,-684 436.116,-684"/>
<text text-anchor="middle" x="400" y="-663" font-family="sans" font-size="10.00" fill="#000000">unmapped_refbac</text>
</g>
<!-- 33&#45;&gt;7 -->
<g id="edge37" class="edge">
<title>33&#45;&gt;7</title>
<path fill="none" stroke="#c0c0c0" stroke-width="2" d="M395.9065,-647.9045C387.9126,-610.9326 371,-523.9703 371,-450 371,-450 371,-450 371,-378 371,-336.6022 367.8249,-319.2296 395,-288 416.9973,-262.7207 452.8201,-248.9751 480.9821,-241.69"/>
<polygon fill="#c0c0c0" stroke="#c0c0c0" stroke-width="2" points="482.0662,-245.0292 490.9712,-239.2889 480.4302,-238.223 482.0662,-245.0292"/>
</g>
<!-- 33&#45;&gt;35 -->
<g id="edge79" class="edge">
<title>33&#45;&gt;35</title>
<path fill="none" stroke="#c0c0c0" stroke-width="2" d="M443.6552,-647.8314C466.8958,-638.159 495.6568,-626.1891 520.1523,-615.9944"/>
<polygon fill="#c0c0c0" stroke="#c0c0c0" stroke-width="2" points="521.7712,-619.1117 529.6587,-612.038 519.0815,-612.6491 521.7712,-619.1117"/>
</g>
<!-- 34&#45;&gt;7 -->
<g id="edge38" class="edge">
<title>34&#45;&gt;7</title>
<path fill="none" stroke="#c0c0c0" stroke-width="2" d="M739.9469,-575.8271C693.6568,-544.5266 603.2286,-482.4078 593,-468 580.8679,-450.911 545.7282,-320.6663 530.3511,-262.2255"/>
<polygon fill="#c0c0c0" stroke="#c0c0c0" stroke-width="2" points="533.6422,-260.9774 527.7199,-252.1924 526.8712,-262.7532 533.6422,-260.9774"/>
</g>
<!-- 34&#45;&gt;28 -->
<g id="edge67" class="edge">
<title>34&#45;&gt;28</title>
<path fill="none" stroke="#c0c0c0" stroke-width="2" d="M767.9042,-575.7541C769.4956,-556.8279 773.8865,-526.8592 786,-504 791.609,-493.4154 799.9063,-483.4616 808.2339,-475.0533"/>
<polygon fill="#c0c0c0" stroke="#c0c0c0" stroke-width="2" points="810.7027,-477.535 815.4931,-468.085 805.8552,-472.4851 810.7027,-477.535"/>
</g>
<!-- 49 -->
<g id="node50" class="node">
<title>49</title>
<path fill="none" stroke="#d8d356" stroke-width="2" d="M859.0391,-540C859.0391,-540 806.9609,-540 806.9609,-540 800.9609,-540 794.9609,-534 794.9609,-528 794.9609,-528 794.9609,-516 794.9609,-516 794.9609,-510 800.9609,-504 806.9609,-504 806.9609,-504 859.0391,-504 859.0391,-504 865.0391,-504 871.0391,-510 871.0391,-516 871.0391,-516 871.0391,-528 871.0391,-528 871.0391,-534 865.0391,-540 859.0391,-540"/>
<text text-anchor="middle" x="833" y="-519" font-family="sans" font-size="10.00" fill="#000000">megablast_nt</text>
</g>
<!-- 34&#45;&gt;49 -->
<g id="edge98" class="edge">
<title>34&#45;&gt;49</title>
<path fill="none" stroke="#c0c0c0" stroke-width="2" d="M783.6546,-575.8314C791.4114,-567.3694 800.7802,-557.1489 809.261,-547.8971"/>
<polygon fill="#c0c0c0" stroke="#c0c0c0" stroke-width="2" points="811.9439,-550.1499 816.1212,-540.4133 806.7838,-545.4198 811.9439,-550.1499"/>
</g>
<!-- 35&#45;&gt;7 -->
<g id="edge39" class="edge">
<title>35&#45;&gt;7</title>
<path fill="none" stroke="#c0c0c0" stroke-width="2" d="M519.9628,-575.9977C502.1379,-567.5794 483.6027,-555.8341 471,-540 445.2196,-507.6094 447,-491.3978 447,-450 447,-450 447,-450 447,-378 447,-336.6022 450.6618,-324.0574 471,-288 476.9346,-277.4787 485.4009,-267.4885 493.7833,-259.0273"/>
<polygon fill="#c0c0c0" stroke="#c0c0c0" stroke-width="2" points="496.2919,-261.4705 501.0622,-252.0103 491.4336,-256.4309 496.2919,-261.4705"/>
</g>
<!-- 35&#45;&gt;29 -->
<g id="edge69" class="edge">
<title>35&#45;&gt;29</title>
<path fill="none" stroke="#c0c0c0" stroke-width="2" d="M601.5941,-575.87C613.9809,-566.595 627.5522,-554.2506 636,-540 647.1479,-521.1947 651.8063,-496.7659 653.7279,-478.1051"/>
<polygon fill="#c0c0c0" stroke="#c0c0c0" stroke-width="2" points="657.216,-478.3929 654.5547,-468.1378 650.2399,-477.8142 657.216,-478.3929"/>
</g>
<!-- 50 -->
<g id="node51" class="node">
<title>50</title>
<path fill="none" stroke="#d8d356" stroke-width="2" d="M615.0391,-540C615.0391,-540 562.9609,-540 562.9609,-540 556.9609,-540 550.9609,-534 550.9609,-528 550.9609,-528 550.9609,-516 550.9609,-516 550.9609,-510 556.9609,-504 562.9609,-504 562.9609,-504 615.0391,-504 615.0391,-504 621.0391,-504 627.0391,-510 627.0391,-516 627.0391,-516 627.0391,-528 627.0391,-528 627.0391,-534 621.0391,-540 615.0391,-540"/>
<text text-anchor="middle" x="589" y="-519" font-family="sans" font-size="10.00" fill="#000000">megablast_nt</text>
</g>
<!-- 35&#45;&gt;50 -->
<g id="edge99" class="edge">
<title>35&#45;&gt;50</title>
<path fill="none" stroke="#c0c0c0" stroke-width="2" d="M577.0375,-575.8314C578.7487,-568.131 580.7835,-558.9743 582.6852,-550.4166"/>
<polygon fill="#c0c0c0" stroke="#c0c0c0" stroke-width="2" points="586.1554,-550.9344 584.9082,-540.4133 579.3221,-549.4159 586.1554,-550.9344"/>
</g>
<!-- 36&#45;&gt;8 -->
<g id="edge40" class="edge">
<title>36&#45;&gt;8</title>
<path fill="none" stroke="#c0c0c0" stroke-width="2" d="M697.6266,-719.9995C732.9383,-696.572 795.4307,-653.6853 845,-612 869.2405,-591.615 894.8433,-566.2111 912.8678,-547.5964"/>
<polygon fill="#c0c0c0" stroke="#c0c0c0" stroke-width="2" points="915.6966,-549.704 920.1025,-540.0688 910.6496,-544.8534 915.6966,-549.704"/>
</g>
<!-- 36&#45;&gt;32 -->
<g id="edge75" class="edge">
<title>36&#45;&gt;32</title>
<path fill="none" stroke="#c0c0c0" stroke-width="2" d="M670,-719.8314C670,-712.131 670,-702.9743 670,-694.4166"/>
<polygon fill="#c0c0c0" stroke="#c0c0c0" stroke-width="2" points="673.5001,-694.4132 670,-684.4133 666.5001,-694.4133 673.5001,-694.4132"/>
</g>
<!-- 37&#45;&gt;9 -->
<g id="edge41" class="edge">
<title>37&#45;&gt;9</title>
<path fill="none" stroke="#c0c0c0" stroke-width="2" d="M368.2389,-719.5576C359.3174,-709.7765 349.2582,-697.0929 343,-684 333.6737,-664.4883 328.8976,-640.4348 326.4676,-622.1046"/>
<polygon fill="#c0c0c0" stroke="#c0c0c0" stroke-width="2" points="329.9297,-621.5765 325.2912,-612.051 322.9772,-622.39 329.9297,-621.5765"/>
</g>
<!-- 37&#45;&gt;33 -->
<g id="edge76" class="edge">
<title>37&#45;&gt;33</title>
<path fill="none" stroke="#c0c0c0" stroke-width="2" d="M390.2804,-719.8314C391.6708,-712.131 393.3241,-702.9743 394.8692,-694.4166"/>
<polygon fill="#c0c0c0" stroke="#c0c0c0" stroke-width="2" points="398.3428,-694.8761 396.6754,-684.4133 391.4542,-693.6322 398.3428,-694.8761"/>
</g>
<!-- 38&#45;&gt;12 -->
<g id="edge44" class="edge">
<title>38&#45;&gt;12</title>
<path fill="none" stroke="#c0c0c0" stroke-width="2" d="M852.4391,-215.8314C849.5973,-207.9617 846.2063,-198.5712 843.0581,-189.8533"/>
<polygon fill="#c0c0c0" stroke="#c0c0c0" stroke-width="2" points="846.3377,-188.63 839.6492,-180.4133 839.7538,-191.0076 846.3377,-188.63"/>
</g>
<!-- 39&#45;&gt;13 -->
<g id="edge45" class="edge">
<title>39&#45;&gt;13</title>
<path fill="none" stroke="#c0c0c0" stroke-width="2" d="M747.4859,-215.8314C746.8442,-208.131 746.0812,-198.9743 745.3681,-190.4166"/>
<polygon fill="#c0c0c0" stroke="#c0c0c0" stroke-width="2" points="748.8529,-190.088 744.5344,-180.4133 741.8771,-190.6694 748.8529,-190.088"/>
</g>
<!-- 40&#45;&gt;14 -->
<g id="edge47" class="edge">
<title>40&#45;&gt;14</title>
<path fill="none" stroke="#c0c0c0" stroke-width="2" d="M847.0375,-359.8314C848.7487,-352.131 850.7835,-342.9743 852.6852,-334.4166"/>
<polygon fill="#c0c0c0" stroke="#c0c0c0" stroke-width="2" points="856.1554,-334.9344 854.9082,-324.4133 849.3221,-333.4159 856.1554,-334.9344"/>
</g>
<!-- 41&#45;&gt;15 -->
<g id="edge49" class="edge">
<title>41&#45;&gt;15</title>
<path fill="none" stroke="#c0c0c0" stroke-width="2" d="M659.0375,-359.8314C660.7487,-352.131 662.7835,-342.9743 664.6852,-334.4166"/>
<polygon fill="#c0c0c0" stroke="#c0c0c0" stroke-width="2" points="668.1554,-334.9344 666.9082,-324.4133 661.3221,-333.4159 668.1554,-334.9344"/>
</g>
<!-- 42&#45;&gt;19 -->
<g id="edge52" class="edge">
<title>42&#45;&gt;19</title>
<path fill="none" stroke="#c0c0c0" stroke-width="2" d="M654.1961,-1079.8314C651.7092,-1072.0463 648.7469,-1062.7729 645.9875,-1054.1347"/>
<polygon fill="#c0c0c0" stroke="#c0c0c0" stroke-width="2" points="649.2591,-1052.874 642.882,-1044.4133 642.591,-1055.0041 649.2591,-1052.874"/>
</g>
<!-- 43&#45;&gt;20 -->
<g id="edge54" class="edge">
<title>43&#45;&gt;20</title>
<path fill="none" stroke="#c0c0c0" stroke-width="2" d="M299.2149,-1079.8314C297.6106,-1072.131 295.703,-1062.9743 293.9201,-1054.4166"/>
<polygon fill="#c0c0c0" stroke="#c0c0c0" stroke-width="2" points="297.3021,-1053.4892 291.8361,-1044.4133 290.4493,-1054.9169 297.3021,-1053.4892"/>
</g>
<!-- 44 -->
<g id="node45" class="node">
<title>44</title>
<path fill="none" stroke="#56c1d8" stroke-width="2" d="M767.6378,-1260C767.6378,-1260 714.3622,-1260 714.3622,-1260 708.3622,-1260 702.3622,-1254 702.3622,-1248 702.3622,-1248 702.3622,-1236 702.3622,-1236 702.3622,-1230 708.3622,-1224 714.3622,-1224 714.3622,-1224 767.6378,-1224 767.6378,-1224 773.6378,-1224 779.6378,-1230 779.6378,-1236 779.6378,-1236 779.6378,-1248 779.6378,-1248 779.6378,-1254 773.6378,-1260 767.6378,-1260"/>
<text text-anchor="middle" x="741" y="-1244" font-family="sans" font-size="10.00" fill="#000000">repeatmasker</text>
<text text-anchor="middle" x="741" y="-1234" font-family="sans" font-size="10.00" fill="#000000">n: 1</text>
</g>
<!-- 44&#45;&gt;24 -->
<g id="edge59" class="edge">
<title>44&#45;&gt;24</title>
<path fill="none" stroke="#c0c0c0" stroke-width="2" d="M741,-1223.8314C741,-1216.131 741,-1206.9743 741,-1198.4166"/>
<polygon fill="#c0c0c0" stroke="#c0c0c0" stroke-width="2" points="744.5001,-1198.4132 741,-1188.4133 737.5001,-1198.4133 744.5001,-1198.4132"/>
</g>
<!-- 45&#45;&gt;24 -->
<g id="edge60" class="edge">
<title>45&#45;&gt;24</title>
<path fill="none" stroke="#c0c0c0" stroke-width="2" d="M675.0896,-1295.85C676.8321,-1277.0019 681.3448,-1247.0962 693,-1224 698.1919,-1213.7116 705.8396,-1203.8528 713.5116,-1195.4403"/>
<polygon fill="#c0c0c0" stroke="#c0c0c0" stroke-width="2" points="716.1047,-1197.793 720.4945,-1188.1504 711.0496,-1192.9508 716.1047,-1197.793"/>
</g>
<!-- 45&#45;&gt;25 -->
<g id="edge62" class="edge">
<title>45&#45;&gt;25</title>
<path fill="none" stroke="#c0c0c0" stroke-width="2" d="M657.1673,-1295.9741C640.0908,-1277.7352 612.8502,-1248.772 589,-1224 580.0315,-1214.6849 570.1237,-1204.5492 561.3251,-1195.6014"/>
<polygon fill="#c0c0c0" stroke="#c0c0c0" stroke-width="2" points="563.7511,-1193.0767 554.2401,-1188.4086 558.7642,-1197.989 563.7511,-1193.0767"/>
</g>
<!-- 45&#45;&gt;44 -->
<g id="edge91" class="edge">
<title>45&#45;&gt;44</title>
<path fill="none" stroke="#c0c0c0" stroke-width="2" d="M690.9069,-1295.8314C698.7813,-1287.3694 708.292,-1277.1489 716.9013,-1267.8971"/>
<polygon fill="#c0c0c0" stroke="#c0c0c0" stroke-width="2" points="719.6153,-1270.1183 723.8654,-1260.4133 714.4908,-1265.3497 719.6153,-1270.1183"/>
</g>
<!-- 46 -->
<g id="node47" class="node">
<title>46</title>
<path fill="none" stroke="#56c1d8" stroke-width="2" d="M567.6378,-1260C567.6378,-1260 514.3622,-1260 514.3622,-1260 508.3622,-1260 502.3622,-1254 502.3622,-1248 502.3622,-1248 502.3622,-1236 502.3622,-1236 502.3622,-1230 508.3622,-1224 514.3622,-1224 514.3622,-1224 567.6378,-1224 567.6378,-1224 573.6378,-1224 579.6378,-1230 579.6378,-1236 579.6378,-1236 579.6378,-1248 579.6378,-1248 579.6378,-1254 573.6378,-1260 567.6378,-1260"/>
<text text-anchor="middle" x="541" y="-1244" font-family="sans" font-size="10.00" fill="#000000">repeatmasker</text>
<text text-anchor="middle" x="541" y="-1234" font-family="sans" font-size="10.00" fill="#000000">n: 2</text>
</g>
<!-- 45&#45;&gt;46 -->
<g id="edge93" class="edge">
<title>45&#45;&gt;46</title>
<path fill="none" stroke="#c0c0c0" stroke-width="2" d="M643.4871,-1297.4817C625.7438,-1287.8763 603.1091,-1275.623 583.6266,-1265.0761"/>
<polygon fill="#c0c0c0" stroke="#c0c0c0" stroke-width="2" points="585.0997,-1261.8936 574.6394,-1260.2108 581.7672,-1268.0495 585.0997,-1261.8936"/>
</g>
<!-- 46&#45;&gt;25 -->
<g id="edge61" class="edge">
<title>46&#45;&gt;25</title>
<path fill="none" stroke="#c0c0c0" stroke-width="2" d="M539.7383,-1223.8314C539.2035,-1216.131 538.5677,-1206.9743 537.9734,-1198.4166"/>
<polygon fill="#c0c0c0" stroke="#c0c0c0" stroke-width="2" points="541.4632,-1198.1467 537.2787,-1188.4133 534.48,-1198.6317 541.4632,-1198.1467"/>
</g>
<!-- 47&#45;&gt;26 -->
<g id="edge64" class="edge">
<title>47&#45;&gt;26</title>
<path fill="none" stroke="#c0c0c0" stroke-width="2" d="M465,-935.8314C465,-928.131 465,-918.9743 465,-910.4166"/>
<polygon fill="#c0c0c0" stroke="#c0c0c0" stroke-width="2" points="468.5001,-910.4132 465,-900.4133 461.5001,-910.4133 468.5001,-910.4132"/>
</g>
<!-- 48&#45;&gt;27 -->
<g id="edge66" class="edge">
<title>48&#45;&gt;27</title>
<path fill="none" stroke="#c0c0c0" stroke-width="2" d="M291.1024,-935.8314C283.7722,-927.454 274.934,-917.3531 266.9031,-908.1749"/>
<polygon fill="#c0c0c0" stroke="#c0c0c0" stroke-width="2" points="269.3307,-905.6343 260.1116,-900.4133 264.0627,-910.2438 269.3307,-905.6343"/>
</g>
<!-- 49&#45;&gt;28 -->
<g id="edge68" class="edge">
<title>49&#45;&gt;28</title>
<path fill="none" stroke="#c0c0c0" stroke-width="2" d="M834.2617,-503.8314C834.7965,-496.131 835.4323,-486.9743 836.0266,-478.4166"/>
<polygon fill="#c0c0c0" stroke="#c0c0c0" stroke-width="2" points="839.52,-478.6317 836.7213,-468.4133 832.5368,-478.1467 839.52,-478.6317"/>
</g>
<!-- 50&#45;&gt;29 -->
<g id="edge70" class="edge">
<title>50&#45;&gt;29</title>
<path fill="none" stroke="#c0c0c0" stroke-width="2" d="M605.6546,-503.8314C613.4114,-495.3694 622.7802,-485.1489 631.261,-475.8971"/>
<polygon fill="#c0c0c0" stroke="#c0c0c0" stroke-width="2" points="633.9439,-478.1499 638.1212,-468.4133 628.7838,-473.4198 633.9439,-478.1499"/>
</g>
<!-- 51 -->
<g id="node52" class="node">
<title>51</title>
<path fill="none" stroke="#c6d856" stroke-width="2" d="M494.2611,-1044C494.2611,-1044 429.7389,-1044 429.7389,-1044 423.7389,-1044 417.7389,-1038 417.7389,-1032 417.7389,-1032 417.7389,-1020 417.7389,-1020 417.7389,-1014 423.7389,-1008 429.7389,-1008 429.7389,-1008 494.2611,-1008 494.2611,-1008 500.2611,-1008 506.2611,-1014 506.2611,-1020 506.2611,-1020 506.2611,-1032 506.2611,-1032 506.2611,-1038 500.2611,-1044 494.2611,-1044"/>
<text text-anchor="middle" x="462" y="-1023" font-family="sans" font-size="10.00" fill="#000000">get_virus_taxids</text>
</g>
<!-- 51&#45;&gt;47 -->
<g id="edge95" class="edge">
<title>51&#45;&gt;47</title>
<path fill="none" stroke="#c0c0c0" stroke-width="2" d="M462.757,-1007.8314C463.0779,-1000.131 463.4594,-990.9743 463.816,-982.4166"/>
<polygon fill="#c0c0c0" stroke="#c0c0c0" stroke-width="2" points="467.3133,-982.5503 464.2328,-972.4133 460.3194,-982.2589 467.3133,-982.5503"/>
</g>
<!-- 51&#45;&gt;48 -->
<g id="edge97" class="edge">
<title>51&#45;&gt;48</title>
<path fill="none" stroke="#c0c0c0" stroke-width="2" d="M422.887,-1007.8314C401.0717,-997.6978 373.8274,-985.0424 351.2369,-974.5487"/>
<polygon fill="#c0c0c0" stroke="#c0c0c0" stroke-width="2" points="352.4133,-971.2361 341.8695,-970.1975 349.4643,-977.5846 352.4133,-971.2361"/>
</g>
</g>
</svg>
