<?xml version="1.0" encoding="UTF-8" standalone="no"?>
<!DOCTYPE svg PUBLIC "-//W3C//DTD SVG 1.1//EN"
 "http://www.w3.org/Graphics/SVG/1.1/DTD/svg11.dtd">
<!-- Generated by graphviz version 2.38.0 (20140413.2041)
 -->
<!-- Title: snakemake_dag Pages: 1 -->
<svg width="1212pt" height="1844pt"
 viewBox="0.00 0.00 1212.00 1844.00" xmlns="http://www.w3.org/2000/svg" xmlns:xlink="http://www.w3.org/1999/xlink">
<g id="graph0" class="graph" transform="scale(1 1) rotate(0) translate(4 1840)">
<title>snakemake_dag</title>
<polygon fill="white" stroke="none" points="-4,4 -4,-1840 1208,-1840 1208,4 -4,4"/>
<!-- 0 -->
<g id="node1" class="node"><title>0</title>
<path fill="none" stroke="#a7d856" stroke-width="2" d="M399,-36C399,-36 369,-36 369,-36 363,-36 357,-30 357,-24 357,-24 357,-12 357,-12 357,-6 363,-0 369,-0 369,-0 399,-0 399,-0 405,-0 411,-6 411,-12 411,-12 411,-24 411,-24 411,-30 405,-36 399,-36"/>
<text text-anchor="middle" x="384" y="-15.5" font-family="sans" font-size="10.00">all</text>
</g>
<!-- 1 -->
<g id="node2" class="node"><title>1</title>
<path fill="none" stroke="#d8c356" stroke-width="2" stroke-dasharray="5,2" d="M170,-972C170,-972 58,-972 58,-972 52,-972 46,-966 46,-960 46,-960 46,-948 46,-948 46,-942 52,-936 58,-936 58,-936 170,-936 170,-936 176,-936 182,-942 182,-948 182,-948 182,-960 182,-960 182,-966 176,-972 170,-972"/>
<text text-anchor="middle" x="114" y="-951.5" font-family="sans" font-size="10.00">prepare_taxonomy_data</text>
</g>
<!-- 1&#45;&gt;0 -->
<g id="edge1" class="edge"><title>1&#45;&gt;0</title>
<path fill="none" stroke="grey" stroke-width="2" d="M97.5091,-935.772C75.1569,-910.534 38,-861.051 38,-811 38,-811 38,-811 38,-161 38,-108.109 71.111,-98.2989 117,-72 190.612,-29.813 292.291,-20.7309 346.467,-19.0693"/>
<polygon fill="grey" stroke="grey" stroke-width="2" points="346.732,-22.5641 356.646,-18.8283 346.566,-15.566 346.732,-22.5641"/>
</g>
<!-- 24 -->
<g id="node25" class="node"><title>24</title>
<path fill="none" stroke="#ced856" stroke-width="2" stroke-dasharray="5,2" d="M424.5,-900C424.5,-900 353.5,-900 353.5,-900 347.5,-900 341.5,-894 341.5,-888 341.5,-888 341.5,-876 341.5,-876 341.5,-870 347.5,-864 353.5,-864 353.5,-864 424.5,-864 424.5,-864 430.5,-864 436.5,-870 436.5,-876 436.5,-876 436.5,-888 436.5,-888 436.5,-894 430.5,-900 424.5,-900"/>
<text text-anchor="middle" x="389" y="-879.5" font-family="sans" font-size="10.00">classify_phages</text>
</g>
<!-- 1&#45;&gt;24 -->
<g id="edge63" class="edge"><title>1&#45;&gt;24</title>
<path fill="none" stroke="grey" stroke-width="2" d="M180.921,-935.966C226.94,-924.252 287.43,-908.854 331.321,-897.682"/>
<polygon fill="grey" stroke="grey" stroke-width="2" points="332.433,-901.011 341.261,-895.152 330.706,-894.227 332.433,-901.011"/>
</g>
<!-- 25 -->
<g id="node26" class="node"><title>25</title>
<path fill="none" stroke="#ced856" stroke-width="2" stroke-dasharray="5,2" d="M661.5,-900C661.5,-900 590.5,-900 590.5,-900 584.5,-900 578.5,-894 578.5,-888 578.5,-888 578.5,-876 578.5,-876 578.5,-870 584.5,-864 590.5,-864 590.5,-864 661.5,-864 661.5,-864 667.5,-864 673.5,-870 673.5,-876 673.5,-876 673.5,-888 673.5,-888 673.5,-894 667.5,-900 661.5,-900"/>
<text text-anchor="middle" x="626" y="-879.5" font-family="sans" font-size="10.00">classify_phages</text>
</g>
<!-- 1&#45;&gt;25 -->
<g id="edge65" class="edge"><title>1&#45;&gt;25</title>
<path fill="none" stroke="grey" stroke-width="2" d="M182.254,-943.668C283.913,-929.77 473.305,-903.876 568.397,-890.875"/>
<polygon fill="grey" stroke="grey" stroke-width="2" points="568.973,-894.329 578.407,-889.507 568.025,-887.394 568.973,-894.329"/>
</g>
<!-- 26 -->
<g id="node27" class="node"><title>26</title>
<path fill="none" stroke="#59d856" stroke-width="2" d="M520.5,-252C520.5,-252 409.5,-252 409.5,-252 403.5,-252 397.5,-246 397.5,-240 397.5,-240 397.5,-228 397.5,-228 397.5,-222 403.5,-216 409.5,-216 409.5,-216 520.5,-216 520.5,-216 526.5,-216 532.5,-222 532.5,-228 532.5,-228 532.5,-240 532.5,-240 532.5,-246 526.5,-252 520.5,-252"/>
<text text-anchor="middle" x="465" y="-231.5" font-family="sans" font-size="10.00">classify_phages_viruses</text>
</g>
<!-- 1&#45;&gt;26 -->
<g id="edge68" class="edge"><title>1&#45;&gt;26</title>
<path fill="none" stroke="grey" stroke-width="2" d="M114,-935.951C114,-909.292 114,-856.115 114,-811 114,-811 114,-811 114,-521 114,-390.413 185.765,-362.521 293,-288 308.84,-276.992 349.409,-264.274 387.17,-254.056"/>
<polygon fill="grey" stroke="grey" stroke-width="2" points="388.446,-257.338 397.206,-251.38 386.642,-250.575 388.446,-257.338"/>
</g>
<!-- 27 -->
<g id="node28" class="node"><title>27</title>
<path fill="none" stroke="#59d856" stroke-width="2" d="M367.5,-252C367.5,-252 256.5,-252 256.5,-252 250.5,-252 244.5,-246 244.5,-240 244.5,-240 244.5,-228 244.5,-228 244.5,-222 250.5,-216 256.5,-216 256.5,-216 367.5,-216 367.5,-216 373.5,-216 379.5,-222 379.5,-228 379.5,-228 379.5,-240 379.5,-240 379.5,-246 373.5,-252 367.5,-252"/>
<text text-anchor="middle" x="312" y="-231.5" font-family="sans" font-size="10.00">classify_phages_viruses</text>
</g>
<!-- 1&#45;&gt;27 -->
<g id="edge70" class="edge"><title>1&#45;&gt;27</title>
<path fill="none" stroke="grey" stroke-width="2" d="M106.31,-935.907C95.2064,-909.623 76,-857.447 76,-811 76,-811 76,-811 76,-377 76,-301.572 165.604,-265.184 234.388,-248.363"/>
<polygon fill="grey" stroke="grey" stroke-width="2" points="235.436,-251.713 244.372,-246.021 233.837,-244.898 235.436,-251.713"/>
</g>
<!-- 2 -->
<g id="node3" class="node"><title>2</title>
<path fill="none" stroke="#56d882" stroke-width="2" stroke-dasharray="5,2" d="M1085.5,-1044C1085.5,-1044 1010.5,-1044 1010.5,-1044 1004.5,-1044 998.5,-1038 998.5,-1032 998.5,-1032 998.5,-1020 998.5,-1020 998.5,-1014 1004.5,-1008 1010.5,-1008 1010.5,-1008 1085.5,-1008 1085.5,-1008 1091.5,-1008 1097.5,-1014 1097.5,-1020 1097.5,-1020 1097.5,-1032 1097.5,-1032 1097.5,-1038 1091.5,-1044 1085.5,-1044"/>
<text text-anchor="middle" x="1048" y="-1023.5" font-family="sans" font-size="10.00">preprocess_stats</text>
</g>
<!-- 2&#45;&gt;0 -->
<g id="edge2" class="edge"><title>2&#45;&gt;0</title>
<path fill="none" stroke="grey" stroke-width="2" d="M1049.58,-1007.97C1051.91,-981.332 1056,-928.186 1056,-883 1056,-883 1056,-883 1056,-161 1056,-102.164 1011.85,-95.7056 958,-72 861.171,-29.3742 532.755,-21.0058 421.333,-19.384"/>
<polygon fill="grey" stroke="grey" stroke-width="2" points="421.29,-15.8832 411.243,-19.2472 421.195,-22.8825 421.29,-15.8832"/>
</g>
<!-- 3 -->
<g id="node4" class="node"><title>3</title>
<path fill="none" stroke="#5663d8" stroke-width="2" stroke-dasharray="5,2" d="M940,-612C940,-612 860,-612 860,-612 854,-612 848,-606 848,-600 848,-600 848,-588 848,-588 848,-582 854,-576 860,-576 860,-576 940,-576 940,-576 946,-576 952,-582 952,-588 952,-588 952,-600 952,-600 952,-606 946,-612 940,-612"/>
<text text-anchor="middle" x="900" y="-591.5" font-family="sans" font-size="10.00">refbac_bam_stats</text>
</g>
<!-- 3&#45;&gt;0 -->
<g id="edge3" class="edge"><title>3&#45;&gt;0</title>
<path fill="none" stroke="grey" stroke-width="2" d="M910.061,-575.789C938.596,-525.291 1018,-372.428 1018,-235 1018,-235 1018,-235 1018,-161 1018,-37.999 557.854,-21.513 421.585,-19.3277"/>
<polygon fill="grey" stroke="grey" stroke-width="2" points="421.291,-15.8232 411.242,-19.1797 421.191,-22.8225 421.291,-15.8232"/>
</g>
<!-- 4 -->
<g id="node5" class="node"><title>4</title>
<path fill="none" stroke="#d87d56" stroke-width="2" d="M650.5,-252C650.5,-252 565.5,-252 565.5,-252 559.5,-252 553.5,-246 553.5,-240 553.5,-240 553.5,-228 553.5,-228 553.5,-222 559.5,-216 565.5,-216 565.5,-216 650.5,-216 650.5,-216 656.5,-216 662.5,-222 662.5,-228 662.5,-228 662.5,-240 662.5,-240 662.5,-246 656.5,-252 650.5,-252"/>
<text text-anchor="middle" x="608" y="-231.5" font-family="sans" font-size="10.00">merge_unassigned</text>
</g>
<!-- 4&#45;&gt;0 -->
<g id="edge4" class="edge"><title>4&#45;&gt;0</title>
<path fill="none" stroke="grey" stroke-width="2" d="M609.422,-215.707C610.119,-196.541 608.552,-165.503 594,-144 552.263,-82.3273 469.044,-46.4639 420.843,-30.0095"/>
<polygon fill="grey" stroke="grey" stroke-width="2" points="421.71,-26.6097 411.116,-26.7905 419.51,-33.2552 421.71,-26.6097"/>
</g>
<!-- 5 -->
<g id="node6" class="node"><title>5</title>
<path fill="none" stroke="#d89c56" stroke-width="2" stroke-dasharray="5,2" d="M414,-756C414,-756 268,-756 268,-756 262,-756 256,-750 256,-744 256,-744 256,-732 256,-732 256,-726 262,-720 268,-720 268,-720 414,-720 414,-720 420,-720 426,-726 426,-732 426,-732 426,-744 426,-744 426,-750 420,-756 414,-756"/>
<text text-anchor="middle" x="341" y="-735.5" font-family="sans" font-size="10.00">merge_classify_phages_results</text>
</g>
<!-- 5&#45;&gt;0 -->
<g id="edge5" class="edge"><title>5&#45;&gt;0</title>
<path fill="none" stroke="grey" stroke-width="2" d="M271.888,-719.941C248.822,-711.812 224.145,-700.212 205,-684 169.867,-654.248 152,-641.038 152,-595 152,-595 152,-595 152,-521 152,-424.552 116,-403.448 116,-307 116,-307 116,-307 116,-161 116,-119.258 114.961,-99.9111 146,-72 175.248,-45.6986 287.456,-29.6532 346.762,-22.8339"/>
<polygon fill="grey" stroke="grey" stroke-width="2" points="347.294,-26.2962 356.843,-21.7051 346.515,-19.3397 347.294,-26.2962"/>
</g>
<!-- 8 -->
<g id="node9" class="node"><title>8</title>
<path fill="none" stroke="#d86656" stroke-width="2" d="M344,-108C344,-108 294,-108 294,-108 288,-108 282,-102 282,-96 282,-96 282,-84 282,-84 282,-78 288,-72 294,-72 294,-72 344,-72 344,-72 350,-72 356,-78 356,-84 356,-84 356,-96 356,-96 356,-102 350,-108 344,-108"/>
<text text-anchor="middle" x="319" y="-87.5" font-family="sans" font-size="10.00">query_taxid</text>
</g>
<!-- 5&#45;&gt;8 -->
<g id="edge40" class="edge"><title>5&#45;&gt;8</title>
<path fill="none" stroke="grey" stroke-width="2" d="M300.137,-719.824C255.418,-697.97 190,-655.637 190,-595 190,-595 190,-595 190,-521 190,-353.185 118.316,-283.899 211,-144 218.577,-132.563 246.817,-118.908 272.518,-108.322"/>
<polygon fill="grey" stroke="grey" stroke-width="2" points="273.861,-111.555 281.829,-104.571 271.245,-105.062 273.861,-111.555"/>
</g>
<!-- 6 -->
<g id="node7" class="node"><title>6</title>
<path fill="none" stroke="#d87556" stroke-width="2" d="M573.5,-180C573.5,-180 460.5,-180 460.5,-180 454.5,-180 448.5,-174 448.5,-168 448.5,-168 448.5,-156 448.5,-156 448.5,-150 454.5,-144 460.5,-144 460.5,-144 573.5,-144 573.5,-144 579.5,-144 585.5,-150 585.5,-156 585.5,-156 585.5,-168 585.5,-168 585.5,-174 579.5,-180 573.5,-180"/>
<text text-anchor="middle" x="517" y="-159.5" font-family="sans" font-size="10.00">merge_non_viral_results</text>
</g>
<!-- 6&#45;&gt;0 -->
<g id="edge6" class="edge"><title>6&#45;&gt;0</title>
<path fill="none" stroke="grey" stroke-width="2" d="M500.957,-143.871C477.591,-118.924 434.062,-72.4495 407.203,-43.7729"/>
<polygon fill="grey" stroke="grey" stroke-width="2" points="409.49,-41.0953 400.1,-36.1893 404.381,-45.8805 409.49,-41.0953"/>
</g>
<!-- 7 -->
<g id="node8" class="node"><title>7</title>
<path fill="none" stroke="#56a9d8" stroke-width="2" d="M739,-252C739,-252 693,-252 693,-252 687,-252 681,-246 681,-240 681,-240 681,-228 681,-228 681,-222 687,-216 693,-216 693,-216 739,-216 739,-216 745,-216 751,-222 751,-228 751,-228 751,-240 751,-240 751,-246 745,-252 739,-252"/>
<text text-anchor="middle" x="716" y="-231.5" font-family="sans" font-size="10.00">blast_stats</text>
</g>
<!-- 7&#45;&gt;0 -->
<g id="edge7" class="edge"><title>7&#45;&gt;0</title>
<path fill="none" stroke="grey" stroke-width="2" d="M702.976,-215.766C677.387,-183.062 617.245,-111.729 551,-72 509.925,-47.3662 456.201,-32.985 420.926,-25.5634"/>
<polygon fill="grey" stroke="grey" stroke-width="2" points="421.545,-22.1177 411.049,-23.5659 420.157,-28.9788 421.545,-22.1177"/>
</g>
<!-- 8&#45;&gt;0 -->
<g id="edge8" class="edge"><title>8&#45;&gt;0</title>
<path fill="none" stroke="grey" stroke-width="2" d="M335.067,-71.6966C342.939,-63.2198 352.555,-52.8636 361.173,-43.5826"/>
<polygon fill="grey" stroke="grey" stroke-width="2" points="363.878,-45.8139 368.117,-36.1043 358.748,-41.0507 363.878,-45.8139"/>
</g>
<!-- 9 -->
<g id="node10" class="node"><title>9</title>
<path fill="none" stroke="#56b9d8" stroke-width="2" stroke-dasharray="5,2" d="M503,-1620C503,-1620 401,-1620 401,-1620 395,-1620 389,-1614 389,-1608 389,-1608 389,-1596 389,-1596 389,-1590 395,-1584 401,-1584 401,-1584 503,-1584 503,-1584 509,-1584 515,-1590 515,-1596 515,-1596 515,-1608 515,-1608 515,-1614 509,-1620 503,-1620"/>
<text text-anchor="middle" x="452" y="-1599.5" font-family="sans" font-size="10.00">refgenome_bam_stats</text>
</g>
<!-- 9&#45;&gt;0 -->
<g id="edge9" class="edge"><title>9&#45;&gt;0</title>
<path fill="none" stroke="grey" stroke-width="2" d="M388.675,-1594.48C264.279,-1579.92 0,-1539.51 0,-1459 0,-1459 0,-1459 0,-161 0,-114.027 17.733,-97.7783 57,-72 104.238,-40.989 271.63,-26.3578 346.881,-21.2323"/>
<polygon fill="grey" stroke="grey" stroke-width="2" points="347.119,-24.7243 356.866,-20.5714 346.656,-17.7396 347.119,-24.7243"/>
</g>
<!-- 10 -->
<g id="node11" class="node"><title>10</title>
<path fill="none" stroke="#61d856" stroke-width="2" d="M418,-180C418,-180 232,-180 232,-180 226,-180 220,-174 220,-168 220,-168 220,-156 220,-156 220,-150 226,-144 232,-144 232,-144 418,-144 418,-144 424,-144 430,-150 430,-156 430,-156 430,-168 430,-168 430,-174 424,-180 418,-180"/>
<text text-anchor="middle" x="325" y="-159.5" font-family="sans" font-size="10.00">merge_classify_phages_viruses_results</text>
</g>
<!-- 10&#45;&gt;0 -->
<g id="edge10" class="edge"><title>10&#45;&gt;0</title>
<path fill="none" stroke="grey" stroke-width="2" d="M341.201,-143.629C349.491,-133.844 359.062,-121.003 365,-108 373.998,-88.2974 378.808,-64.1733 381.335,-46.0138"/>
<polygon fill="grey" stroke="grey" stroke-width="2" points="384.808,-46.4459 382.573,-36.0895 377.862,-45.5792 384.808,-46.4459"/>
</g>
<!-- 10&#45;&gt;8 -->
<g id="edge41" class="edge"><title>10&#45;&gt;8</title>
<path fill="none" stroke="grey" stroke-width="2" d="M323.517,-143.697C322.856,-135.983 322.061,-126.712 321.324,-118.112"/>
<polygon fill="grey" stroke="grey" stroke-width="2" points="324.807,-117.769 320.466,-108.104 317.833,-118.367 324.807,-117.769"/>
</g>
<!-- 11 -->
<g id="node12" class="node"><title>11</title>
<path fill="none" stroke="#5663d8" stroke-width="2" stroke-dasharray="5,2" d="M247,-108C247,-108 167,-108 167,-108 161,-108 155,-102 155,-96 155,-96 155,-84 155,-84 155,-78 161,-72 167,-72 167,-72 247,-72 247,-72 253,-72 259,-78 259,-84 259,-84 259,-96 259,-96 259,-102 253,-108 247,-108"/>
<text text-anchor="middle" x="207" y="-87.5" font-family="sans" font-size="10.00">refbac_bam_stats</text>
</g>
<!-- 11&#45;&gt;0 -->
<g id="edge11" class="edge"><title>11&#45;&gt;0</title>
<path fill="none" stroke="grey" stroke-width="2" d="M250.299,-71.8761C280.053,-60.109 319.125,-44.6569 347.34,-33.4985"/>
<polygon fill="grey" stroke="grey" stroke-width="2" points="348.822,-36.6762 356.834,-29.7438 346.247,-30.1668 348.822,-36.6762"/>
</g>
<!-- 12 -->
<g id="node13" class="node"><title>12</title>
<path fill="none" stroke="#56c1d8" stroke-width="2" stroke-dasharray="5,2" d="M915,-1260C915,-1260 825,-1260 825,-1260 819,-1260 813,-1254 813,-1248 813,-1248 813,-1236 813,-1236 813,-1230 819,-1224 825,-1224 825,-1224 915,-1224 915,-1224 921,-1224 927,-1230 927,-1236 927,-1236 927,-1248 927,-1248 927,-1254 921,-1260 915,-1260"/>
<text text-anchor="middle" x="870" y="-1239.5" font-family="sans" font-size="10.00">repeatmasker_good</text>
</g>
<!-- 12&#45;&gt;2 -->
<g id="edge12" class="edge"><title>12&#45;&gt;2</title>
<path fill="none" stroke="grey" stroke-width="2" d="M921.011,-1223.98C940.169,-1215.56 960.933,-1203.77 976,-1188 1012.29,-1150.02 1002.5,-1127.93 1024,-1080 1027.91,-1071.3 1032.2,-1061.8 1036.06,-1053.28"/>
<polygon fill="grey" stroke="grey" stroke-width="2" points="1039.24,-1054.72 1040.19,-1044.17 1032.87,-1051.83 1039.24,-1054.72"/>
</g>
<!-- 16 -->
<g id="node17" class="node"><title>16</title>
<path fill="none" stroke="#569ad8" stroke-width="2" stroke-dasharray="5,2" d="M880.5,-1116C880.5,-1116 745.5,-1116 745.5,-1116 739.5,-1116 733.5,-1110 733.5,-1104 733.5,-1104 733.5,-1092 733.5,-1092 733.5,-1086 739.5,-1080 745.5,-1080 745.5,-1080 880.5,-1080 880.5,-1080 886.5,-1080 892.5,-1086 892.5,-1092 892.5,-1092 892.5,-1104 892.5,-1104 892.5,-1110 886.5,-1116 880.5,-1116"/>
<text text-anchor="middle" x="813" y="-1095.5" font-family="sans" font-size="10.00">parse_megablast_refgenome</text>
</g>
<!-- 12&#45;&gt;16 -->
<g id="edge54" class="edge"><title>12&#45;&gt;16</title>
<path fill="none" stroke="grey" stroke-width="2" d="M885.255,-1223.89C899.763,-1205.43 917.519,-1175.52 904,-1152 896.523,-1138.99 884.489,-1128.88 871.587,-1121.14"/>
<polygon fill="grey" stroke="grey" stroke-width="2" points="873.008,-1117.93 862.562,-1116.15 869.623,-1124.05 873.008,-1117.93"/>
</g>
<!-- 31 -->
<g id="node32" class="node"><title>31</title>
<path fill="none" stroke="#56d8a9" stroke-width="2" stroke-dasharray="5,2" d="M948,-828C948,-828 874,-828 874,-828 868,-828 862,-822 862,-816 862,-816 862,-804 862,-804 862,-798 868,-792 874,-792 874,-792 948,-792 948,-792 954,-792 960,-798 960,-804 960,-804 960,-816 960,-816 960,-822 954,-828 948,-828"/>
<text text-anchor="middle" x="911" y="-807.5" font-family="sans" font-size="10.00">unmasked_other</text>
</g>
<!-- 12&#45;&gt;31 -->
<g id="edge79" class="edge"><title>12&#45;&gt;31</title>
<path fill="none" stroke="grey" stroke-width="2" d="M890.876,-1223.63C918.02,-1198.97 962,-1150.99 962,-1099 962,-1099 962,-1099 962,-953 962,-910.588 941.6,-865.023 926.604,-837.258"/>
<polygon fill="grey" stroke="grey" stroke-width="2" points="929.49,-835.248 921.567,-828.214 923.375,-838.654 929.49,-835.248"/>
</g>
<!-- 33 -->
<g id="node34" class="node"><title>33</title>
<path fill="none" stroke="#56d8d0" stroke-width="2" stroke-dasharray="5,2" d="M741.5,-612C741.5,-612 616.5,-612 616.5,-612 610.5,-612 604.5,-606 604.5,-600 604.5,-600 604.5,-588 604.5,-588 604.5,-582 610.5,-576 616.5,-576 616.5,-576 741.5,-576 741.5,-576 747.5,-576 753.5,-582 753.5,-588 753.5,-588 753.5,-600 753.5,-600 753.5,-606 747.5,-612 741.5,-612"/>
<text text-anchor="middle" x="679" y="-591.5" font-family="sans" font-size="10.00">refbac_unmapped_masked</text>
</g>
<!-- 12&#45;&gt;33 -->
<g id="edge84" class="edge"><title>12&#45;&gt;33</title>
<path fill="none" stroke="grey" stroke-width="2" d="M821.407,-1223.81C771.791,-1202.79 702,-1162.01 702,-1099 702,-1099 702,-1099 702,-737 702,-696.696 692.86,-650.776 686.103,-622.337"/>
<polygon fill="grey" stroke="grey" stroke-width="2" points="689.433,-621.222 683.654,-612.342 682.635,-622.888 689.433,-621.222"/>
</g>
<!-- 44 -->
<g id="node45" class="node"><title>44</title>
<path fill="none" stroke="#d85656" stroke-width="2" stroke-dasharray="5,2" d="M883.5,-1188C883.5,-1188 780.5,-1188 780.5,-1188 774.5,-1188 768.5,-1182 768.5,-1176 768.5,-1176 768.5,-1164 768.5,-1164 768.5,-1158 774.5,-1152 780.5,-1152 780.5,-1152 883.5,-1152 883.5,-1152 889.5,-1152 895.5,-1158 895.5,-1164 895.5,-1164 895.5,-1176 895.5,-1176 895.5,-1182 889.5,-1188 883.5,-1188"/>
<text text-anchor="middle" x="832" y="-1167.5" font-family="sans" font-size="10.00">megablast_refgenome</text>
</g>
<!-- 12&#45;&gt;44 -->
<g id="edge97" class="edge"><title>12&#45;&gt;44</title>
<path fill="none" stroke="grey" stroke-width="2" d="M860.607,-1223.7C856.235,-1215.64 850.943,-1205.89 846.105,-1196.98"/>
<polygon fill="grey" stroke="grey" stroke-width="2" points="849.132,-1195.22 841.285,-1188.1 842.98,-1198.56 849.132,-1195.22"/>
</g>
<!-- 13 -->
<g id="node14" class="node"><title>13</title>
<path fill="none" stroke="#97d856" stroke-width="2" stroke-dasharray="5,2" d="M1101,-1620C1101,-1620 1071,-1620 1071,-1620 1065,-1620 1059,-1614 1059,-1608 1059,-1608 1059,-1596 1059,-1596 1059,-1590 1065,-1584 1071,-1584 1071,-1584 1101,-1584 1101,-1584 1107,-1584 1113,-1590 1113,-1596 1113,-1596 1113,-1608 1113,-1608 1113,-1614 1107,-1620 1101,-1620"/>
<text text-anchor="middle" x="1086" y="-1599.5" font-family="sans" font-size="10.00">cd_hit</text>
</g>
<!-- 13&#45;&gt;2 -->
<g id="edge13" class="edge"><title>13&#45;&gt;2</title>
<path fill="none" stroke="grey" stroke-width="2" d="M1103.36,-1583.93C1126.89,-1558.89 1166,-1509.65 1166,-1459 1166,-1459 1166,-1459 1166,-1169 1166,-1117.44 1119.41,-1074.6 1084.77,-1049.89"/>
<polygon fill="grey" stroke="grey" stroke-width="2" points="1086.48,-1046.82 1076.26,-1044.01 1082.5,-1052.57 1086.48,-1046.82"/>
</g>
<!-- 17 -->
<g id="node18" class="node"><title>17</title>
<path fill="none" stroke="#56d8c1" stroke-width="2" stroke-dasharray="5,2" d="M1101,-1548C1101,-1548 1071,-1548 1071,-1548 1065,-1548 1059,-1542 1059,-1536 1059,-1536 1059,-1524 1059,-1524 1059,-1518 1065,-1512 1071,-1512 1071,-1512 1101,-1512 1101,-1512 1107,-1512 1113,-1518 1113,-1524 1113,-1524 1113,-1536 1113,-1536 1113,-1542 1107,-1548 1101,-1548"/>
<text text-anchor="middle" x="1086" y="-1527.5" font-family="sans" font-size="10.00">tantan</text>
</g>
<!-- 13&#45;&gt;17 -->
<g id="edge55" class="edge"><title>13&#45;&gt;17</title>
<path fill="none" stroke="grey" stroke-width="2" d="M1086,-1583.7C1086,-1575.98 1086,-1566.71 1086,-1558.11"/>
<polygon fill="grey" stroke="grey" stroke-width="2" points="1089.5,-1558.1 1086,-1548.1 1082.5,-1558.1 1089.5,-1558.1"/>
</g>
<!-- 14 -->
<g id="node15" class="node"><title>14</title>
<path fill="none" stroke="#56c1d8" stroke-width="2" stroke-dasharray="5,2" d="M595,-1260C595,-1260 505,-1260 505,-1260 499,-1260 493,-1254 493,-1248 493,-1248 493,-1236 493,-1236 493,-1230 499,-1224 505,-1224 505,-1224 595,-1224 595,-1224 601,-1224 607,-1230 607,-1236 607,-1236 607,-1248 607,-1248 607,-1254 601,-1260 595,-1260"/>
<text text-anchor="middle" x="550" y="-1239.5" font-family="sans" font-size="10.00">repeatmasker_good</text>
</g>
<!-- 14&#45;&gt;2 -->
<g id="edge14" class="edge"><title>14&#45;&gt;2</title>
<path fill="none" stroke="grey" stroke-width="2" d="M585.591,-1223.84C626.669,-1204.52 696.596,-1173.06 759,-1152 820.69,-1131.18 840.94,-1141.14 901,-1116 943.15,-1098.36 987.481,-1069.97 1016.3,-1050.01"/>
<polygon fill="grey" stroke="grey" stroke-width="2" points="1018.54,-1052.71 1024.72,-1044.11 1014.52,-1046.98 1018.54,-1052.71"/>
</g>
<!-- 15 -->
<g id="node16" class="node"><title>15</title>
<path fill="none" stroke="#569ad8" stroke-width="2" stroke-dasharray="5,2" d="M509.5,-1116C509.5,-1116 374.5,-1116 374.5,-1116 368.5,-1116 362.5,-1110 362.5,-1104 362.5,-1104 362.5,-1092 362.5,-1092 362.5,-1086 368.5,-1080 374.5,-1080 374.5,-1080 509.5,-1080 509.5,-1080 515.5,-1080 521.5,-1086 521.5,-1092 521.5,-1092 521.5,-1104 521.5,-1104 521.5,-1110 515.5,-1116 509.5,-1116"/>
<text text-anchor="middle" x="442" y="-1095.5" font-family="sans" font-size="10.00">parse_megablast_refgenome</text>
</g>
<!-- 14&#45;&gt;15 -->
<g id="edge52" class="edge"><title>14&#45;&gt;15</title>
<path fill="none" stroke="grey" stroke-width="2" d="M540.161,-1223.99C529.251,-1205.61 510.709,-1175.77 492,-1152 484.375,-1142.31 475.309,-1132.32 467.005,-1123.66"/>
<polygon fill="grey" stroke="grey" stroke-width="2" points="469.445,-1121.15 459.959,-1116.43 464.433,-1126.04 469.445,-1121.15"/>
</g>
<!-- 29 -->
<g id="node30" class="node"><title>29</title>
<path fill="none" stroke="#56d8d0" stroke-width="2" stroke-dasharray="5,2" d="M492.5,-612C492.5,-612 367.5,-612 367.5,-612 361.5,-612 355.5,-606 355.5,-600 355.5,-600 355.5,-588 355.5,-588 355.5,-582 361.5,-576 367.5,-576 367.5,-576 492.5,-576 492.5,-576 498.5,-576 504.5,-582 504.5,-588 504.5,-588 504.5,-600 504.5,-600 504.5,-606 498.5,-612 492.5,-612"/>
<text text-anchor="middle" x="430" y="-591.5" font-family="sans" font-size="10.00">refbac_unmapped_masked</text>
</g>
<!-- 14&#45;&gt;29 -->
<g id="edge76" class="edge"><title>14&#45;&gt;29</title>
<path fill="none" stroke="grey" stroke-width="2" d="M492.804,-1240.53C400.274,-1236.42 228,-1213.4 228,-1099 228,-1099 228,-1099 228,-737 228,-673.379 295.892,-635.799 352.957,-615.449"/>
<polygon fill="grey" stroke="grey" stroke-width="2" points="354.417,-618.648 362.737,-612.089 352.142,-612.028 354.417,-618.648"/>
</g>
<!-- 34 -->
<g id="node35" class="node"><title>34</title>
<path fill="none" stroke="#56d8a9" stroke-width="2" stroke-dasharray="5,2" d="M540,-828C540,-828 466,-828 466,-828 460,-828 454,-822 454,-816 454,-816 454,-804 454,-804 454,-798 460,-792 466,-792 466,-792 540,-792 540,-792 546,-792 552,-798 552,-804 552,-804 552,-816 552,-816 552,-822 546,-828 540,-828"/>
<text text-anchor="middle" x="503" y="-807.5" font-family="sans" font-size="10.00">unmasked_other</text>
</g>
<!-- 14&#45;&gt;34 -->
<g id="edge85" class="edge"><title>14&#45;&gt;34</title>
<path fill="none" stroke="grey" stroke-width="2" d="M550,-1223.95C550,-1197.29 550,-1144.11 550,-1099 550,-1099 550,-1099 550,-953 550,-910.955 531.2,-865.293 517.38,-837.407"/>
<polygon fill="grey" stroke="grey" stroke-width="2" points="520.404,-835.633 512.738,-828.32 514.17,-838.817 520.404,-835.633"/>
</g>
<!-- 43 -->
<g id="node44" class="node"><title>43</title>
<path fill="none" stroke="#d85656" stroke-width="2" stroke-dasharray="5,2" d="M471.5,-1188C471.5,-1188 368.5,-1188 368.5,-1188 362.5,-1188 356.5,-1182 356.5,-1176 356.5,-1176 356.5,-1164 356.5,-1164 356.5,-1158 362.5,-1152 368.5,-1152 368.5,-1152 471.5,-1152 471.5,-1152 477.5,-1152 483.5,-1158 483.5,-1164 483.5,-1164 483.5,-1176 483.5,-1176 483.5,-1182 477.5,-1188 471.5,-1188"/>
<text text-anchor="middle" x="420" y="-1167.5" font-family="sans" font-size="10.00">megablast_refgenome</text>
</g>
<!-- 14&#45;&gt;43 -->
<g id="edge96" class="edge"><title>14&#45;&gt;43</title>
<path fill="none" stroke="grey" stroke-width="2" d="M518.198,-1223.88C500.886,-1214.55 479.279,-1202.92 460.744,-1192.94"/>
<polygon fill="grey" stroke="grey" stroke-width="2" points="462.388,-1189.85 451.924,-1188.19 459.069,-1196.01 462.388,-1189.85"/>
</g>
<!-- 15&#45;&gt;2 -->
<g id="edge15" class="edge"><title>15&#45;&gt;2</title>
<path fill="none" stroke="grey" stroke-width="2" d="M521.535,-1087.81C644.567,-1073.6 878.276,-1046.61 988.123,-1033.92"/>
<polygon fill="grey" stroke="grey" stroke-width="2" points="988.826,-1037.36 998.358,-1032.73 988.023,-1030.4 988.826,-1037.36"/>
</g>
<!-- 36 -->
<g id="node37" class="node"><title>36</title>
<path fill="none" stroke="#5673d8" stroke-width="2" stroke-dasharray="5,2" d="M497,-972C497,-972 413,-972 413,-972 407,-972 401,-966 401,-960 401,-960 401,-948 401,-948 401,-942 407,-936 413,-936 413,-936 497,-936 497,-936 503,-936 509,-942 509,-948 509,-948 509,-960 509,-960 509,-966 503,-972 497,-972"/>
<text text-anchor="middle" x="455" y="-951.5" font-family="sans" font-size="10.00">parse_blastn_virus</text>
</g>
<!-- 15&#45;&gt;36 -->
<g id="edge89" class="edge"><title>15&#45;&gt;36</title>
<path fill="none" stroke="grey" stroke-width="2" d="M450.306,-1079.79C454.741,-1069.63 459.741,-1056.38 462,-1044 465.731,-1023.54 463.629,-1000.09 460.783,-982.391"/>
<polygon fill="grey" stroke="grey" stroke-width="2" points="464.166,-981.423 458.961,-972.195 457.275,-982.655 464.166,-981.423"/>
</g>
<!-- 50 -->
<g id="node51" class="node"><title>50</title>
<path fill="none" stroke="#568ad8" stroke-width="2" stroke-dasharray="5,2" d="M441,-1044C441,-1044 389,-1044 389,-1044 383,-1044 377,-1038 377,-1032 377,-1032 377,-1020 377,-1020 377,-1014 383,-1008 389,-1008 389,-1008 441,-1008 441,-1008 447,-1008 453,-1014 453,-1020 453,-1020 453,-1032 453,-1032 453,-1038 447,-1044 441,-1044"/>
<text text-anchor="middle" x="415" y="-1023.5" font-family="sans" font-size="10.00">blastn_virus</text>
</g>
<!-- 15&#45;&gt;50 -->
<g id="edge103" class="edge"><title>15&#45;&gt;50</title>
<path fill="none" stroke="grey" stroke-width="2" d="M435.326,-1079.7C432.285,-1071.81 428.617,-1062.3 425.239,-1053.55"/>
<polygon fill="grey" stroke="grey" stroke-width="2" points="428.462,-1052.17 421.597,-1044.1 421.931,-1054.69 428.462,-1052.17"/>
</g>
<!-- 16&#45;&gt;2 -->
<g id="edge16" class="edge"><title>16&#45;&gt;2</title>
<path fill="none" stroke="grey" stroke-width="2" d="M870.187,-1079.97C905.952,-1069.31 951.946,-1055.61 988.195,-1044.81"/>
<polygon fill="grey" stroke="grey" stroke-width="2" points="989.56,-1048.06 998.145,-1041.85 987.562,-1041.35 989.56,-1048.06"/>
</g>
<!-- 32 -->
<g id="node33" class="node"><title>32</title>
<path fill="none" stroke="#5673d8" stroke-width="2" stroke-dasharray="5,2" d="M890,-972C890,-972 806,-972 806,-972 800,-972 794,-966 794,-960 794,-960 794,-948 794,-948 794,-942 800,-936 806,-936 806,-936 890,-936 890,-936 896,-936 902,-942 902,-948 902,-948 902,-960 902,-960 902,-966 896,-972 890,-972"/>
<text text-anchor="middle" x="848" y="-951.5" font-family="sans" font-size="10.00">parse_blastn_virus</text>
</g>
<!-- 16&#45;&gt;32 -->
<g id="edge82" class="edge"><title>16&#45;&gt;32</title>
<path fill="none" stroke="grey" stroke-width="2" d="M833.823,-1079.62C843.458,-1070.2 853.885,-1057.7 859,-1044 866.456,-1024.03 862.793,-999.972 857.77,-981.903"/>
<polygon fill="grey" stroke="grey" stroke-width="2" points="861.099,-980.821 854.815,-972.29 854.408,-982.877 861.099,-980.821"/>
</g>
<!-- 49 -->
<g id="node50" class="node"><title>49</title>
<path fill="none" stroke="#568ad8" stroke-width="2" stroke-dasharray="5,2" d="M838,-1044C838,-1044 786,-1044 786,-1044 780,-1044 774,-1038 774,-1032 774,-1032 774,-1020 774,-1020 774,-1014 780,-1008 786,-1008 786,-1008 838,-1008 838,-1008 844,-1008 850,-1014 850,-1020 850,-1020 850,-1032 850,-1032 850,-1038 844,-1044 838,-1044"/>
<text text-anchor="middle" x="812" y="-1023.5" font-family="sans" font-size="10.00">blastn_virus</text>
</g>
<!-- 16&#45;&gt;49 -->
<g id="edge102" class="edge"><title>16&#45;&gt;49</title>
<path fill="none" stroke="grey" stroke-width="2" d="M812.753,-1079.7C812.643,-1071.98 812.51,-1062.71 812.387,-1054.11"/>
<polygon fill="grey" stroke="grey" stroke-width="2" points="815.887,-1054.05 812.244,-1044.1 808.888,-1054.15 815.887,-1054.05"/>
</g>
<!-- 17&#45;&gt;2 -->
<g id="edge17" class="edge"><title>17&#45;&gt;2</title>
<path fill="none" stroke="grey" stroke-width="2" d="M1094.5,-1511.99C1106.77,-1485.82 1128,-1433.79 1128,-1387 1128,-1387 1128,-1387 1128,-1169 1128,-1123.1 1095.88,-1078.35 1072.34,-1051.73"/>
<polygon fill="grey" stroke="grey" stroke-width="2" points="1074.68,-1049.1 1065.36,-1044.07 1069.51,-1053.81 1074.68,-1049.1"/>
</g>
<!-- 18 -->
<g id="node19" class="node"><title>18</title>
<path fill="none" stroke="#8fd856" stroke-width="2" stroke-dasharray="5,2" d="M1087.5,-1476C1087.5,-1476 1034.5,-1476 1034.5,-1476 1028.5,-1476 1022.5,-1470 1022.5,-1464 1022.5,-1464 1022.5,-1452 1022.5,-1452 1022.5,-1446 1028.5,-1440 1034.5,-1440 1034.5,-1440 1087.5,-1440 1087.5,-1440 1093.5,-1440 1099.5,-1446 1099.5,-1452 1099.5,-1452 1099.5,-1464 1099.5,-1464 1099.5,-1470 1093.5,-1476 1087.5,-1476"/>
<text text-anchor="middle" x="1061" y="-1455.5" font-family="sans" font-size="10.00">tantan_good</text>
</g>
<!-- 17&#45;&gt;18 -->
<g id="edge56" class="edge"><title>17&#45;&gt;18</title>
<path fill="none" stroke="grey" stroke-width="2" d="M1079.82,-1511.7C1077,-1503.81 1073.61,-1494.3 1070.48,-1485.55"/>
<polygon fill="grey" stroke="grey" stroke-width="2" points="1073.77,-1484.34 1067.11,-1476.1 1067.18,-1486.7 1073.77,-1484.34"/>
</g>
<!-- 18&#45;&gt;2 -->
<g id="edge18" class="edge"><title>18&#45;&gt;2</title>
<path fill="none" stroke="grey" stroke-width="2" d="M1064.04,-1439.57C1068.42,-1412.86 1076,-1360.12 1076,-1315 1076,-1315 1076,-1315 1076,-1169 1076,-1128.27 1064.77,-1082.19 1056.54,-1053.86"/>
<polygon fill="grey" stroke="grey" stroke-width="2" points="1059.89,-1052.85 1053.67,-1044.27 1053.18,-1054.86 1059.89,-1052.85"/>
</g>
<!-- 41 -->
<g id="node42" class="node"><title>41</title>
<path fill="none" stroke="#d8ac56" stroke-width="2" stroke-dasharray="5,2" d="M821,-1404C821,-1404 777,-1404 777,-1404 771,-1404 765,-1398 765,-1392 765,-1392 765,-1380 765,-1380 765,-1374 771,-1368 777,-1368 777,-1368 821,-1368 821,-1368 827,-1368 833,-1374 833,-1380 833,-1380 833,-1392 833,-1392 833,-1398 827,-1404 821,-1404"/>
<text text-anchor="middle" x="799" y="-1383.5" font-family="sans" font-size="10.00">split_fasta</text>
</g>
<!-- 18&#45;&gt;41 -->
<g id="edge94" class="edge"><title>18&#45;&gt;41</title>
<path fill="none" stroke="grey" stroke-width="2" d="M1022.34,-1446.67C974.533,-1433.9 893.342,-1412.21 843.137,-1398.79"/>
<polygon fill="grey" stroke="grey" stroke-width="2" points="843.787,-1395.34 833.223,-1396.14 841.98,-1402.11 843.787,-1395.34"/>
</g>
<!-- 19 -->
<g id="node20" class="node"><title>19</title>
<path fill="none" stroke="#d88d56" stroke-width="2" stroke-dasharray="5,2" d="M1091.5,-1692C1091.5,-1692 988.5,-1692 988.5,-1692 982.5,-1692 976.5,-1686 976.5,-1680 976.5,-1680 976.5,-1668 976.5,-1668 976.5,-1662 982.5,-1656 988.5,-1656 988.5,-1656 1091.5,-1656 1091.5,-1656 1097.5,-1656 1103.5,-1662 1103.5,-1668 1103.5,-1668 1103.5,-1680 1103.5,-1680 1103.5,-1686 1097.5,-1692 1091.5,-1692"/>
<text text-anchor="middle" x="1040" y="-1671.5" font-family="sans" font-size="10.00">unmapped_refgenome</text>
</g>
<!-- 19&#45;&gt;2 -->
<g id="edge19" class="edge"><title>19&#45;&gt;2</title>
<path fill="none" stroke="grey" stroke-width="2" d="M1036.98,-1655.95C1031.12,-1621.89 1018.4,-1542.95 1014,-1476 1003.49,-1316.06 1031.62,-1124.3 1043.24,-1054.29"/>
<polygon fill="grey" stroke="grey" stroke-width="2" points="1046.75,-1054.56 1044.96,-1044.12 1039.84,-1053.4 1046.75,-1054.56"/>
</g>
<!-- 19&#45;&gt;13 -->
<g id="edge48" class="edge"><title>19&#45;&gt;13</title>
<path fill="none" stroke="grey" stroke-width="2" d="M1051.37,-1655.7C1056.72,-1647.56 1063.2,-1637.69 1069.11,-1628.7"/>
<polygon fill="grey" stroke="grey" stroke-width="2" points="1072.19,-1630.38 1074.76,-1620.1 1066.34,-1626.54 1072.19,-1630.38"/>
</g>
<!-- 20 -->
<g id="node21" class="node"><title>20</title>
<path fill="none" stroke="#c6d856" stroke-width="2" stroke-dasharray="5,2" d="M1160,-1836C1160,-1836 1084,-1836 1084,-1836 1078,-1836 1072,-1830 1072,-1824 1072,-1824 1072,-1812 1072,-1812 1072,-1806 1078,-1800 1084,-1800 1084,-1800 1160,-1800 1160,-1800 1166,-1800 1172,-1806 1172,-1812 1172,-1812 1172,-1824 1172,-1824 1172,-1830 1166,-1836 1160,-1836"/>
<text text-anchor="middle" x="1122" y="-1821" font-family="sans" font-size="10.00">preprocess</text>
<text text-anchor="middle" x="1122" y="-1810" font-family="sans" font-size="10.00">run: SRR5557999</text>
</g>
<!-- 20&#45;&gt;2 -->
<g id="edge20" class="edge"><title>20&#45;&gt;2</title>
<path fill="none" stroke="grey" stroke-width="2" d="M1140.2,-1799.6C1164.36,-1774.53 1204,-1725.67 1204,-1675 1204,-1675 1204,-1675 1204,-1169 1204,-1111.61 1145.55,-1071.27 1100.2,-1048.62"/>
<polygon fill="grey" stroke="grey" stroke-width="2" points="1101.57,-1045.39 1091.04,-1044.18 1098.52,-1051.69 1101.57,-1045.39"/>
</g>
<!-- 38 -->
<g id="node39" class="node"><title>38</title>
<path fill="none" stroke="#56d863" stroke-width="2" stroke-dasharray="5,2" d="M1091,-1764C1091,-1764 989,-1764 989,-1764 983,-1764 977,-1758 977,-1752 977,-1752 977,-1740 977,-1740 977,-1734 983,-1728 989,-1728 989,-1728 1091,-1728 1091,-1728 1097,-1728 1103,-1734 1103,-1740 1103,-1740 1103,-1752 1103,-1752 1103,-1758 1097,-1764 1091,-1764"/>
<text text-anchor="middle" x="1040" y="-1743.5" font-family="sans" font-size="10.00">bwa_mem_refgenome</text>
</g>
<!-- 20&#45;&gt;38 -->
<g id="edge91" class="edge"><title>20&#45;&gt;38</title>
<path fill="none" stroke="grey" stroke-width="2" d="M1101.73,-1799.7C1091.5,-1790.97 1078.94,-1780.24 1067.82,-1770.75"/>
<polygon fill="grey" stroke="grey" stroke-width="2" points="1069.91,-1767.94 1060.04,-1764.1 1065.37,-1773.26 1069.91,-1767.94"/>
</g>
<!-- 21 -->
<g id="node22" class="node"><title>21</title>
<path fill="none" stroke="#56d8b9" stroke-width="2" stroke-dasharray="5,2" d="M940,-756C940,-756 860,-756 860,-756 854,-756 848,-750 848,-744 848,-744 848,-732 848,-732 848,-726 854,-720 860,-720 860,-720 940,-720 940,-720 946,-720 952,-726 952,-732 952,-732 952,-744 952,-744 952,-750 946,-756 940,-756"/>
<text text-anchor="middle" x="900" y="-735.5" font-family="sans" font-size="10.00">bwa_mem_refbac</text>
</g>
<!-- 21&#45;&gt;3 -->
<g id="edge21" class="edge"><title>21&#45;&gt;3</title>
<path fill="none" stroke="grey" stroke-width="2" d="M900,-719.871C900,-695.67 900,-651.211 900,-622.393"/>
<polygon fill="grey" stroke="grey" stroke-width="2" points="903.5,-622.189 900,-612.189 896.5,-622.189 903.5,-622.189"/>
</g>
<!-- 37 -->
<g id="node38" class="node"><title>37</title>
<path fill="none" stroke="#d8b456" stroke-width="2" stroke-dasharray="5,2" d="M860,-684C860,-684 780,-684 780,-684 774,-684 768,-678 768,-672 768,-672 768,-660 768,-660 768,-654 774,-648 780,-648 780,-648 860,-648 860,-648 866,-648 872,-654 872,-660 872,-660 872,-672 872,-672 872,-678 866,-684 860,-684"/>
<text text-anchor="middle" x="820" y="-663.5" font-family="sans" font-size="10.00">unmapped_refbac</text>
</g>
<!-- 21&#45;&gt;37 -->
<g id="edge90" class="edge"><title>21&#45;&gt;37</title>
<path fill="none" stroke="grey" stroke-width="2" d="M880.225,-719.697C870.246,-710.965 857.989,-700.24 847.143,-690.75"/>
<polygon fill="grey" stroke="grey" stroke-width="2" points="849.378,-688.055 839.548,-684.104 844.769,-693.323 849.378,-688.055"/>
</g>
<!-- 22 -->
<g id="node23" class="node"><title>22</title>
<path fill="none" stroke="#56d88a" stroke-width="2" d="M686,-324C686,-324 616,-324 616,-324 610,-324 604,-318 604,-312 604,-312 604,-300 604,-300 604,-294 610,-288 616,-288 616,-288 686,-288 686,-288 692,-288 698,-294 698,-300 698,-300 698,-312 698,-312 698,-318 692,-324 686,-324"/>
<text text-anchor="middle" x="651" y="-303.5" font-family="sans" font-size="10.00">parse_blastn_nt</text>
</g>
<!-- 22&#45;&gt;4 -->
<g id="edge22" class="edge"><title>22&#45;&gt;4</title>
<path fill="none" stroke="grey" stroke-width="2" d="M640.371,-287.697C635.372,-279.559 629.309,-269.689 623.788,-260.701"/>
<polygon fill="grey" stroke="grey" stroke-width="2" points="626.723,-258.793 618.507,-252.104 620.759,-262.457 626.723,-258.793"/>
</g>
<!-- 22&#45;&gt;7 -->
<g id="edge28" class="edge"><title>22&#45;&gt;7</title>
<path fill="none" stroke="grey" stroke-width="2" d="M667.067,-287.697C674.939,-279.22 684.555,-268.864 693.173,-259.583"/>
<polygon fill="grey" stroke="grey" stroke-width="2" points="695.878,-261.814 700.117,-252.104 690.748,-257.051 695.878,-261.814"/>
</g>
<!-- 22&#45;&gt;26 -->
<g id="edge69" class="edge"><title>22&#45;&gt;26</title>
<path fill="none" stroke="grey" stroke-width="2" d="M605.499,-287.876C579.62,-278.137 547.033,-265.872 519.759,-255.608"/>
<polygon fill="grey" stroke="grey" stroke-width="2" points="520.945,-252.315 510.353,-252.068 518.479,-258.866 520.945,-252.315"/>
</g>
<!-- 23 -->
<g id="node24" class="node"><title>23</title>
<path fill="none" stroke="#56d88a" stroke-width="2" d="M384,-324C384,-324 314,-324 314,-324 308,-324 302,-318 302,-312 302,-312 302,-300 302,-300 302,-294 308,-288 314,-288 314,-288 384,-288 384,-288 390,-288 396,-294 396,-300 396,-300 396,-312 396,-312 396,-318 390,-324 384,-324"/>
<text text-anchor="middle" x="349" y="-303.5" font-family="sans" font-size="10.00">parse_blastn_nt</text>
</g>
<!-- 23&#45;&gt;4 -->
<g id="edge23" class="edge"><title>23&#45;&gt;4</title>
<path fill="none" stroke="grey" stroke-width="2" d="M396.275,-291.773C400.911,-290.492 405.546,-289.217 410,-288 454.431,-275.863 504.549,-262.45 543.244,-252.154"/>
<polygon fill="grey" stroke="grey" stroke-width="2" points="544.567,-255.424 553.332,-249.472 542.769,-248.659 544.567,-255.424"/>
</g>
<!-- 23&#45;&gt;7 -->
<g id="edge35" class="edge"><title>23&#45;&gt;7</title>
<path fill="none" stroke="grey" stroke-width="2" d="M396.135,-291.188C400.799,-290.025 405.479,-288.937 410,-288 524.66,-264.228 557.517,-280.872 671,-252 671.101,-251.974 671.202,-251.948 671.304,-251.922"/>
<polygon fill="grey" stroke="grey" stroke-width="2" points="672.251,-255.292 680.867,-249.125 670.286,-248.573 672.251,-255.292"/>
</g>
<!-- 23&#45;&gt;27 -->
<g id="edge71" class="edge"><title>23&#45;&gt;27</title>
<path fill="none" stroke="grey" stroke-width="2" d="M339.854,-287.697C335.597,-279.644 330.444,-269.894 325.734,-260.982"/>
<polygon fill="grey" stroke="grey" stroke-width="2" points="328.808,-259.31 321.041,-252.104 322.62,-262.581 328.808,-259.31"/>
</g>
<!-- 24&#45;&gt;5 -->
<g id="edge24" class="edge"><title>24&#45;&gt;5</title>
<path fill="none" stroke="grey" stroke-width="2" d="M383.21,-863.871C374.993,-839.564 359.868,-794.819 350.131,-766.013"/>
<polygon fill="grey" stroke="grey" stroke-width="2" points="353.328,-764.542 346.81,-756.189 346.697,-766.783 353.328,-764.542"/>
</g>
<!-- 24&#45;&gt;34 -->
<g id="edge86" class="edge"><title>24&#45;&gt;34</title>
<path fill="none" stroke="grey" stroke-width="2" d="M416.888,-863.876C431.793,-854.724 450.329,-843.342 466.382,-833.485"/>
<polygon fill="grey" stroke="grey" stroke-width="2" points="468.315,-836.405 475.005,-828.19 464.652,-830.44 468.315,-836.405"/>
</g>
<!-- 25&#45;&gt;5 -->
<g id="edge25" class="edge"><title>25&#45;&gt;5</title>
<path fill="none" stroke="grey" stroke-width="2" d="M618.084,-863.727C607.845,-843.373 588.06,-810.048 561,-792 549.9,-784.597 488.633,-770.127 433.566,-758.174"/>
<polygon fill="grey" stroke="grey" stroke-width="2" points="434.239,-754.739 423.726,-756.051 432.762,-761.582 434.239,-754.739"/>
</g>
<!-- 25&#45;&gt;31 -->
<g id="edge80" class="edge"><title>25&#45;&gt;31</title>
<path fill="none" stroke="grey" stroke-width="2" d="M673.703,-869.284C722.68,-857.254 799.001,-838.509 851.804,-825.539"/>
<polygon fill="grey" stroke="grey" stroke-width="2" points="852.83,-828.892 861.706,-823.107 851.16,-822.094 852.83,-828.892"/>
</g>
<!-- 26&#45;&gt;6 -->
<g id="edge26" class="edge"><title>26&#45;&gt;6</title>
<path fill="none" stroke="grey" stroke-width="2" d="M477.854,-215.697C484.025,-207.389 491.537,-197.277 498.324,-188.141"/>
<polygon fill="grey" stroke="grey" stroke-width="2" points="501.14,-190.219 504.294,-180.104 495.521,-186.045 501.14,-190.219"/>
</g>
<!-- 26&#45;&gt;10 -->
<g id="edge43" class="edge"><title>26&#45;&gt;10</title>
<path fill="none" stroke="grey" stroke-width="2" d="M430.752,-215.876C411.939,-206.469 388.415,-194.708 368.334,-184.667"/>
<polygon fill="grey" stroke="grey" stroke-width="2" points="369.889,-181.531 359.38,-180.19 366.759,-187.792 369.889,-181.531"/>
</g>
<!-- 27&#45;&gt;6 -->
<g id="edge27" class="edge"><title>27&#45;&gt;6</title>
<path fill="none" stroke="grey" stroke-width="2" d="M361.887,-215.966C390.654,-206.142 427.008,-193.729 457.289,-183.389"/>
<polygon fill="grey" stroke="grey" stroke-width="2" points="458.557,-186.655 466.89,-180.111 456.295,-180.03 458.557,-186.655"/>
</g>
<!-- 27&#45;&gt;10 -->
<g id="edge44" class="edge"><title>27&#45;&gt;10</title>
<path fill="none" stroke="grey" stroke-width="2" d="M315.213,-215.697C316.646,-207.983 318.368,-198.712 319.965,-190.112"/>
<polygon fill="grey" stroke="grey" stroke-width="2" points="323.439,-190.575 321.823,-180.104 316.556,-189.297 323.439,-190.575"/>
</g>
<!-- 28 -->
<g id="node29" class="node"><title>28</title>
<path fill="none" stroke="#b6d856" stroke-width="2" stroke-dasharray="5,2" d="M713,-468C713,-468 621,-468 621,-468 615,-468 609,-462 609,-456 609,-456 609,-444 609,-444 609,-438 615,-432 621,-432 621,-432 713,-432 713,-432 719,-432 725,-438 725,-444 725,-444 725,-456 725,-456 725,-462 719,-468 713,-468"/>
<text text-anchor="middle" x="667" y="-447.5" font-family="sans" font-size="10.00">parse_megablast_nt</text>
</g>
<!-- 28&#45;&gt;7 -->
<g id="edge29" class="edge"><title>28&#45;&gt;7</title>
<path fill="none" stroke="grey" stroke-width="2" d="M687.715,-431.575C697.323,-422.147 707.758,-409.648 713,-396 730.021,-351.685 725.782,-295.324 720.998,-262.394"/>
<polygon fill="grey" stroke="grey" stroke-width="2" points="724.401,-261.508 719.384,-252.176 717.487,-262.599 724.401,-261.508"/>
</g>
<!-- 28&#45;&gt;22 -->
<g id="edge60" class="edge"><title>28&#45;&gt;22</title>
<path fill="none" stroke="grey" stroke-width="2" d="M652.245,-431.634C644.91,-421.849 636.814,-409.008 633,-396 626.966,-375.418 632.43,-351.575 638.874,-333.751"/>
<polygon fill="grey" stroke="grey" stroke-width="2" points="642.198,-334.862 642.595,-324.274 635.683,-332.303 642.198,-334.862"/>
</g>
<!-- 28&#45;&gt;26 -->
<g id="edge67" class="edge"><title>28&#45;&gt;26</title>
<path fill="none" stroke="grey" stroke-width="2" d="M650.811,-431.849C615.13,-394.049 529.614,-303.452 488.224,-259.604"/>
<polygon fill="grey" stroke="grey" stroke-width="2" points="490.676,-257.102 481.266,-252.232 485.585,-261.907 490.676,-257.102"/>
</g>
<!-- 45 -->
<g id="node46" class="node"><title>45</title>
<path fill="none" stroke="#d8d356" stroke-width="2" stroke-dasharray="5,2" d="M692,-396C692,-396 654,-396 654,-396 648,-396 642,-390 642,-384 642,-384 642,-372 642,-372 642,-366 648,-360 654,-360 654,-360 692,-360 692,-360 698,-360 704,-366 704,-372 704,-372 704,-384 704,-384 704,-390 698,-396 692,-396"/>
<text text-anchor="middle" x="673" y="-375.5" font-family="sans" font-size="10.00">blastn_nt</text>
</g>
<!-- 28&#45;&gt;45 -->
<g id="edge98" class="edge"><title>28&#45;&gt;45</title>
<path fill="none" stroke="grey" stroke-width="2" d="M668.483,-431.697C669.144,-423.983 669.939,-414.712 670.676,-406.112"/>
<polygon fill="grey" stroke="grey" stroke-width="2" points="674.167,-406.367 671.534,-396.104 667.193,-405.769 674.167,-406.367"/>
</g>
<!-- 29&#45;&gt;7 -->
<g id="edge30" class="edge"><title>29&#45;&gt;7</title>
<path fill="none" stroke="grey" stroke-width="2" d="M450.802,-575.839C461.06,-566.302 472.755,-553.627 480,-540 499.032,-504.203 500,-491.542 500,-451 500,-451 500,-451 500,-377 500,-336.031 494.696,-316.631 524,-288 572.112,-240.993 606.754,-271.922 671,-252 671.1,-251.969 671.2,-251.938 671.299,-251.907"/>
<polygon fill="grey" stroke="grey" stroke-width="2" points="672.374,-255.238 680.767,-248.771 670.174,-248.593 672.374,-255.238"/>
</g>
<!-- 30 -->
<g id="node31" class="node"><title>30</title>
<path fill="none" stroke="#b6d856" stroke-width="2" stroke-dasharray="5,2" d="M409,-468C409,-468 317,-468 317,-468 311,-468 305,-462 305,-456 305,-456 305,-444 305,-444 305,-438 311,-432 317,-432 317,-432 409,-432 409,-432 415,-432 421,-438 421,-444 421,-444 421,-456 421,-456 421,-462 415,-468 409,-468"/>
<text text-anchor="middle" x="363" y="-447.5" font-family="sans" font-size="10.00">parse_megablast_nt</text>
</g>
<!-- 29&#45;&gt;30 -->
<g id="edge78" class="edge"><title>29&#45;&gt;30</title>
<path fill="none" stroke="grey" stroke-width="2" d="M408.271,-575.809C397.803,-566.355 386.025,-553.762 379,-540 369.214,-520.831 365.321,-496.669 363.815,-478.359"/>
<polygon fill="grey" stroke="grey" stroke-width="2" points="367.306,-478.095 363.178,-468.337 360.32,-478.539 367.306,-478.095"/>
</g>
<!-- 48 -->
<g id="node49" class="node"><title>48</title>
<path fill="none" stroke="#70d856" stroke-width="2" stroke-dasharray="5,2" d="M459.5,-540C459.5,-540 400.5,-540 400.5,-540 394.5,-540 388.5,-534 388.5,-528 388.5,-528 388.5,-516 388.5,-516 388.5,-510 394.5,-504 400.5,-504 400.5,-504 459.5,-504 459.5,-504 465.5,-504 471.5,-510 471.5,-516 471.5,-516 471.5,-528 471.5,-528 471.5,-534 465.5,-540 459.5,-540"/>
<text text-anchor="middle" x="430" y="-519.5" font-family="sans" font-size="10.00">megablast_nt</text>
</g>
<!-- 29&#45;&gt;48 -->
<g id="edge101" class="edge"><title>29&#45;&gt;48</title>
<path fill="none" stroke="grey" stroke-width="2" d="M430,-575.697C430,-567.983 430,-558.712 430,-550.112"/>
<polygon fill="grey" stroke="grey" stroke-width="2" points="433.5,-550.104 430,-540.104 426.5,-550.104 433.5,-550.104"/>
</g>
<!-- 30&#45;&gt;7 -->
<g id="edge31" class="edge"><title>30&#45;&gt;7</title>
<path fill="none" stroke="grey" stroke-width="2" d="M376.735,-431.905C384.996,-421.565 395.681,-408.087 405,-396 441.636,-348.483 435.157,-319.858 486,-288 556.981,-243.524 590.422,-274.883 671,-252 671.1,-251.971 671.201,-251.943 671.302,-251.914"/>
<polygon fill="grey" stroke="grey" stroke-width="2" points="672.318,-255.263 680.816,-248.936 670.227,-248.583 672.318,-255.263"/>
</g>
<!-- 30&#45;&gt;23 -->
<g id="edge61" class="edge"><title>30&#45;&gt;23</title>
<path fill="none" stroke="grey" stroke-width="2" d="M346.537,-431.919C338.346,-422.218 329.296,-409.366 325,-396 318.306,-375.175 325.602,-351.216 333.858,-333.406"/>
<polygon fill="grey" stroke="grey" stroke-width="2" points="337.117,-334.713 338.46,-324.203 330.856,-331.582 337.117,-334.713"/>
</g>
<!-- 30&#45;&gt;27 -->
<g id="edge72" class="edge"><title>30&#45;&gt;27</title>
<path fill="none" stroke="grey" stroke-width="2" d="M346.274,-431.997C337.259,-422.122 326.483,-409.079 319,-396 302.103,-366.47 298.866,-357.513 293,-324 290.242,-308.24 290.26,-303.764 293,-288 294.523,-279.236 297.365,-270.006 300.394,-261.748"/>
<polygon fill="grey" stroke="grey" stroke-width="2" points="303.724,-262.843 304.107,-252.255 297.205,-260.293 303.724,-262.843"/>
</g>
<!-- 46 -->
<g id="node47" class="node"><title>46</title>
<path fill="none" stroke="#d8d356" stroke-width="2" stroke-dasharray="5,2" d="M384,-396C384,-396 346,-396 346,-396 340,-396 334,-390 334,-384 334,-384 334,-372 334,-372 334,-366 340,-360 346,-360 346,-360 384,-360 384,-360 390,-360 396,-366 396,-372 396,-372 396,-384 396,-384 396,-390 390,-396 384,-396"/>
<text text-anchor="middle" x="365" y="-375.5" font-family="sans" font-size="10.00">blastn_nt</text>
</g>
<!-- 30&#45;&gt;46 -->
<g id="edge99" class="edge"><title>30&#45;&gt;46</title>
<path fill="none" stroke="grey" stroke-width="2" d="M363.494,-431.697C363.715,-423.983 363.98,-414.712 364.225,-406.112"/>
<polygon fill="grey" stroke="grey" stroke-width="2" points="367.724,-406.2 364.511,-396.104 360.727,-406 367.724,-406.2"/>
</g>
<!-- 31&#45;&gt;7 -->
<g id="edge32" class="edge"><title>31&#45;&gt;7</title>
<path fill="none" stroke="grey" stroke-width="2" d="M931.862,-791.87C942.137,-782.343 953.828,-769.665 961,-756 979.796,-720.186 980,-707.447 980,-667 980,-667 980,-667 980,-449 980,-337.482 836.084,-273.979 760.768,-248.382"/>
<polygon fill="grey" stroke="grey" stroke-width="2" points="761.651,-244.988 751.057,-245.163 759.448,-251.632 761.651,-244.988"/>
</g>
<!-- 31&#45;&gt;21 -->
<g id="edge58" class="edge"><title>31&#45;&gt;21</title>
<path fill="none" stroke="grey" stroke-width="2" d="M908.281,-791.697C907.069,-783.983 905.612,-774.712 904.261,-766.112"/>
<polygon fill="grey" stroke="grey" stroke-width="2" points="907.698,-765.44 902.688,-756.104 900.783,-766.526 907.698,-765.44"/>
</g>
<!-- 32&#45;&gt;7 -->
<g id="edge33" class="edge"><title>32&#45;&gt;7</title>
<path fill="none" stroke="grey" stroke-width="2" d="M870.018,-935.915C897.077,-913.802 942.635,-872.762 969,-828 1006.96,-763.552 1018,-741.796 1018,-667 1018,-667 1018,-667 1018,-449 1018,-358.952 973.295,-332.48 895,-288 852.885,-264.074 798.938,-250.021 761.327,-242.467"/>
<polygon fill="grey" stroke="grey" stroke-width="2" points="761.658,-238.966 751.175,-240.506 760.33,-245.839 761.658,-238.966"/>
</g>
<!-- 32&#45;&gt;25 -->
<g id="edge66" class="edge"><title>32&#45;&gt;25</title>
<path fill="none" stroke="grey" stroke-width="2" d="M793.977,-935.966C760.568,-925.431 717.711,-911.918 683.649,-901.178"/>
<polygon fill="grey" stroke="grey" stroke-width="2" points="684.426,-897.753 673.837,-898.084 682.321,-904.429 684.426,-897.753"/>
</g>
<!-- 33&#45;&gt;7 -->
<g id="edge34" class="edge"><title>33&#45;&gt;7</title>
<path fill="none" stroke="grey" stroke-width="2" d="M705.709,-575.868C718.287,-566.599 732.564,-554.151 742,-540 765.005,-505.5 770,-492.467 770,-451 770,-451 770,-451 770,-377 770,-334.109 748.211,-288.411 732.314,-260.778"/>
<polygon fill="grey" stroke="grey" stroke-width="2" points="735.298,-258.949 727.189,-252.13 729.276,-262.517 735.298,-258.949"/>
</g>
<!-- 33&#45;&gt;28 -->
<g id="edge74" class="edge"><title>33&#45;&gt;28</title>
<path fill="none" stroke="grey" stroke-width="2" d="M662.537,-575.919C654.346,-566.218 645.296,-553.366 641,-540 634.267,-519.053 642.136,-495.102 650.934,-477.326"/>
<polygon fill="grey" stroke="grey" stroke-width="2" points="654.213,-478.615 655.83,-468.145 648.036,-475.322 654.213,-478.615"/>
</g>
<!-- 47 -->
<g id="node48" class="node"><title>47</title>
<path fill="none" stroke="#70d856" stroke-width="2" stroke-dasharray="5,2" d="M721.5,-540C721.5,-540 662.5,-540 662.5,-540 656.5,-540 650.5,-534 650.5,-528 650.5,-528 650.5,-516 650.5,-516 650.5,-510 656.5,-504 662.5,-504 662.5,-504 721.5,-504 721.5,-504 727.5,-504 733.5,-510 733.5,-516 733.5,-516 733.5,-528 733.5,-528 733.5,-534 727.5,-540 721.5,-540"/>
<text text-anchor="middle" x="692" y="-519.5" font-family="sans" font-size="10.00">megablast_nt</text>
</g>
<!-- 33&#45;&gt;47 -->
<g id="edge100" class="edge"><title>33&#45;&gt;47</title>
<path fill="none" stroke="grey" stroke-width="2" d="M682.213,-575.697C683.646,-567.983 685.368,-558.712 686.965,-550.112"/>
<polygon fill="grey" stroke="grey" stroke-width="2" points="690.439,-550.575 688.823,-540.104 683.556,-549.297 690.439,-550.575"/>
</g>
<!-- 34&#45;&gt;7 -->
<g id="edge36" class="edge"><title>34&#45;&gt;7</title>
<path fill="none" stroke="grey" stroke-width="2" d="M525.826,-791.949C536.862,-782.532 549.344,-769.929 557,-756 576.481,-720.554 576,-707.447 576,-667 576,-667 576,-667 576,-377 576,-336.553 569.437,-319.345 595,-288 600.31,-281.489 639.186,-265.067 671.462,-252.213"/>
<polygon fill="grey" stroke="grey" stroke-width="2" points="672.777,-255.457 680.788,-248.524 670.202,-248.947 672.777,-255.457"/>
</g>
<!-- 39 -->
<g id="node40" class="node"><title>39</title>
<path fill="none" stroke="#56d8b9" stroke-width="2" stroke-dasharray="5,2" d="M536,-756C536,-756 456,-756 456,-756 450,-756 444,-750 444,-744 444,-744 444,-732 444,-732 444,-726 450,-720 456,-720 456,-720 536,-720 536,-720 542,-720 548,-726 548,-732 548,-732 548,-744 548,-744 548,-750 542,-756 536,-756"/>
<text text-anchor="middle" x="496" y="-735.5" font-family="sans" font-size="10.00">bwa_mem_refbac</text>
</g>
<!-- 34&#45;&gt;39 -->
<g id="edge92" class="edge"><title>34&#45;&gt;39</title>
<path fill="none" stroke="grey" stroke-width="2" d="M501.27,-791.697C500.498,-783.983 499.571,-774.712 498.711,-766.112"/>
<polygon fill="grey" stroke="grey" stroke-width="2" points="502.188,-765.706 497.71,-756.104 495.223,-766.403 502.188,-765.706"/>
</g>
<!-- 35 -->
<g id="node36" class="node"><title>35</title>
<path fill="none" stroke="#d8b456" stroke-width="2" stroke-dasharray="5,2" d="M536,-684C536,-684 456,-684 456,-684 450,-684 444,-678 444,-672 444,-672 444,-660 444,-660 444,-654 450,-648 456,-648 456,-648 536,-648 536,-648 542,-648 548,-654 548,-660 548,-660 548,-672 548,-672 548,-678 542,-684 536,-684"/>
<text text-anchor="middle" x="496" y="-663.5" font-family="sans" font-size="10.00">unmapped_refbac</text>
</g>
<!-- 35&#45;&gt;7 -->
<g id="edge37" class="edge"><title>35&#45;&gt;7</title>
<path fill="none" stroke="grey" stroke-width="2" d="M504.499,-647.993C516.772,-621.822 538,-569.79 538,-523 538,-523 538,-523 538,-377 538,-336.031 533.847,-317.763 562,-288 597.059,-250.936 622.904,-269.019 671,-252 671.098,-251.965 671.197,-251.93 671.296,-251.895"/>
<polygon fill="grey" stroke="grey" stroke-width="2" points="672.463,-255.195 680.678,-248.505 670.084,-248.612 672.463,-255.195"/>
</g>
<!-- 35&#45;&gt;29 -->
<g id="edge75" class="edge"><title>35&#45;&gt;29</title>
<path fill="none" stroke="grey" stroke-width="2" d="M479.685,-647.697C471.693,-639.22 461.928,-628.864 453.178,-619.583"/>
<polygon fill="grey" stroke="grey" stroke-width="2" points="455.534,-616.979 446.127,-612.104 450.441,-621.781 455.534,-616.979"/>
</g>
<!-- 36&#45;&gt;7 -->
<g id="edge38" class="edge"><title>36&#45;&gt;7</title>
<path fill="none" stroke="grey" stroke-width="2" d="M476.059,-935.824C531.432,-889.531 682.324,-755.912 762,-612 798.046,-546.893 808,-525.419 808,-451 808,-451 808,-451 808,-377 808,-329.475 771.254,-285.304 744.209,-259.23"/>
<polygon fill="grey" stroke="grey" stroke-width="2" points="746.569,-256.646 736.876,-252.368 741.786,-261.757 746.569,-256.646"/>
</g>
<!-- 36&#45;&gt;24 -->
<g id="edge64" class="edge"><title>36&#45;&gt;24</title>
<path fill="none" stroke="grey" stroke-width="2" d="M438.685,-935.697C430.693,-927.22 420.928,-916.864 412.178,-907.583"/>
<polygon fill="grey" stroke="grey" stroke-width="2" points="414.534,-904.979 405.127,-900.104 409.441,-909.781 414.534,-904.979"/>
</g>
<!-- 37&#45;&gt;7 -->
<g id="edge39" class="edge"><title>37&#45;&gt;7</title>
<path fill="none" stroke="grey" stroke-width="2" d="M823.506,-647.888C830.603,-611.711 846,-524.729 846,-451 846,-451 846,-451 846,-377 846,-336.031 847.928,-319.72 822,-288 806.36,-268.867 782.064,-256.021 760.676,-247.774"/>
<polygon fill="grey" stroke="grey" stroke-width="2" points="761.689,-244.419 751.095,-244.303 759.305,-251 761.689,-244.419"/>
</g>
<!-- 37&#45;&gt;33 -->
<g id="edge83" class="edge"><title>37&#45;&gt;33</title>
<path fill="none" stroke="grey" stroke-width="2" d="M785.508,-647.876C766.56,-638.469 742.868,-626.708 722.644,-616.667"/>
<polygon fill="grey" stroke="grey" stroke-width="2" points="724.138,-613.502 713.625,-612.19 721.026,-619.771 724.138,-613.502"/>
</g>
<!-- 38&#45;&gt;9 -->
<g id="edge42" class="edge"><title>38&#45;&gt;9</title>
<path fill="none" stroke="grey" stroke-width="2" d="M976.795,-1729.74C866.985,-1703.22 641.599,-1648.79 525.187,-1620.67"/>
<polygon fill="grey" stroke="grey" stroke-width="2" points="525.833,-1617.23 515.291,-1618.28 524.19,-1624.03 525.833,-1617.23"/>
</g>
<!-- 38&#45;&gt;19 -->
<g id="edge57" class="edge"><title>38&#45;&gt;19</title>
<path fill="none" stroke="grey" stroke-width="2" d="M1040,-1727.7C1040,-1719.98 1040,-1710.71 1040,-1702.11"/>
<polygon fill="grey" stroke="grey" stroke-width="2" points="1043.5,-1702.1 1040,-1692.1 1036.5,-1702.1 1043.5,-1702.1"/>
</g>
<!-- 39&#45;&gt;11 -->
<g id="edge45" class="edge"><title>39&#45;&gt;11</title>
<path fill="none" stroke="grey" stroke-width="2" d="M467.094,-719.827C433.522,-698.5 378.59,-659.116 346,-612 308.955,-558.443 223.076,-252.1 211,-180 207.572,-159.535 206.639,-136.078 206.526,-118.384"/>
<polygon fill="grey" stroke="grey" stroke-width="2" points="210.027,-118.198 206.548,-108.191 203.027,-118.184 210.027,-118.198"/>
</g>
<!-- 39&#45;&gt;35 -->
<g id="edge87" class="edge"><title>39&#45;&gt;35</title>
<path fill="none" stroke="grey" stroke-width="2" d="M496,-719.697C496,-711.983 496,-702.712 496,-694.112"/>
<polygon fill="grey" stroke="grey" stroke-width="2" points="499.5,-694.104 496,-684.104 492.5,-694.104 499.5,-694.104"/>
</g>
<!-- 40 -->
<g id="node41" class="node"><title>40</title>
<path fill="none" stroke="#80d856" stroke-width="2" stroke-dasharray="5,2" d="M900.5,-1332C900.5,-1332 839.5,-1332 839.5,-1332 833.5,-1332 827.5,-1326 827.5,-1320 827.5,-1320 827.5,-1308 827.5,-1308 827.5,-1302 833.5,-1296 839.5,-1296 839.5,-1296 900.5,-1296 900.5,-1296 906.5,-1296 912.5,-1302 912.5,-1308 912.5,-1308 912.5,-1320 912.5,-1320 912.5,-1326 906.5,-1332 900.5,-1332"/>
<text text-anchor="middle" x="870" y="-1317" font-family="sans" font-size="10.00">repeatmasker</text>
<text text-anchor="middle" x="870" y="-1306" font-family="sans" font-size="10.00">n: 2</text>
</g>
<!-- 40&#45;&gt;12 -->
<g id="edge46" class="edge"><title>40&#45;&gt;12</title>
<path fill="none" stroke="grey" stroke-width="2" d="M870,-1295.7C870,-1287.98 870,-1278.71 870,-1270.11"/>
<polygon fill="grey" stroke="grey" stroke-width="2" points="873.5,-1270.1 870,-1260.1 866.5,-1270.1 873.5,-1270.1"/>
</g>
<!-- 41&#45;&gt;12 -->
<g id="edge47" class="edge"><title>41&#45;&gt;12</title>
<path fill="none" stroke="grey" stroke-width="2" d="M799.818,-1367.96C801.334,-1349.3 805.66,-1318.96 818,-1296 823.71,-1285.37 832.195,-1275.43 840.663,-1267.1"/>
<polygon fill="grey" stroke="grey" stroke-width="2" points="843.116,-1269.6 848.029,-1260.21 838.334,-1264.48 843.116,-1269.6"/>
</g>
<!-- 41&#45;&gt;14 -->
<g id="edge50" class="edge"><title>41&#45;&gt;14</title>
<path fill="none" stroke="grey" stroke-width="2" d="M764.871,-1377.05C733.337,-1368.77 685.926,-1353.93 649,-1332 619.529,-1314.5 590.977,-1287.4 572.171,-1267.7"/>
<polygon fill="grey" stroke="grey" stroke-width="2" points="574.612,-1265.19 565.218,-1260.29 569.506,-1269.98 574.612,-1265.19"/>
</g>
<!-- 41&#45;&gt;40 -->
<g id="edge93" class="edge"><title>41&#45;&gt;40</title>
<path fill="none" stroke="grey" stroke-width="2" d="M816.551,-1367.7C825.234,-1359.14 835.863,-1348.66 845.348,-1339.3"/>
<polygon fill="grey" stroke="grey" stroke-width="2" points="847.988,-1341.62 852.651,-1332.1 843.073,-1336.63 847.988,-1341.62"/>
</g>
<!-- 42 -->
<g id="node43" class="node"><title>42</title>
<path fill="none" stroke="#80d856" stroke-width="2" stroke-dasharray="5,2" d="M731.5,-1332C731.5,-1332 670.5,-1332 670.5,-1332 664.5,-1332 658.5,-1326 658.5,-1320 658.5,-1320 658.5,-1308 658.5,-1308 658.5,-1302 664.5,-1296 670.5,-1296 670.5,-1296 731.5,-1296 731.5,-1296 737.5,-1296 743.5,-1302 743.5,-1308 743.5,-1308 743.5,-1320 743.5,-1320 743.5,-1326 737.5,-1332 731.5,-1332"/>
<text text-anchor="middle" x="701" y="-1317" font-family="sans" font-size="10.00">repeatmasker</text>
<text text-anchor="middle" x="701" y="-1306" font-family="sans" font-size="10.00">n: 1</text>
</g>
<!-- 41&#45;&gt;42 -->
<g id="edge95" class="edge"><title>41&#45;&gt;42</title>
<path fill="none" stroke="grey" stroke-width="2" d="M775.027,-1367.88C762.45,-1358.89 746.868,-1347.76 733.248,-1338.03"/>
<polygon fill="grey" stroke="grey" stroke-width="2" points="735.237,-1335.15 725.066,-1332.19 731.169,-1340.85 735.237,-1335.15"/>
</g>
<!-- 42&#45;&gt;14 -->
<g id="edge49" class="edge"><title>42&#45;&gt;14</title>
<path fill="none" stroke="grey" stroke-width="2" d="M664.061,-1295.88C643.51,-1286.35 617.749,-1274.41 595.911,-1264.28"/>
<polygon fill="grey" stroke="grey" stroke-width="2" points="597.363,-1261.1 586.819,-1260.07 594.419,-1267.45 597.363,-1261.1"/>
</g>
<!-- 43&#45;&gt;15 -->
<g id="edge51" class="edge"><title>43&#45;&gt;15</title>
<path fill="none" stroke="grey" stroke-width="2" d="M425.438,-1151.7C427.889,-1143.9 430.84,-1134.51 433.568,-1125.83"/>
<polygon fill="grey" stroke="grey" stroke-width="2" points="436.965,-1126.69 436.624,-1116.1 430.287,-1124.59 436.965,-1126.69"/>
</g>
<!-- 44&#45;&gt;16 -->
<g id="edge53" class="edge"><title>44&#45;&gt;16</title>
<path fill="none" stroke="grey" stroke-width="2" d="M827.303,-1151.7C825.187,-1143.9 822.638,-1134.51 820.282,-1125.83"/>
<polygon fill="grey" stroke="grey" stroke-width="2" points="823.64,-1124.84 817.643,-1116.1 816.884,-1126.67 823.64,-1124.84"/>
</g>
<!-- 45&#45;&gt;22 -->
<g id="edge59" class="edge"><title>45&#45;&gt;22</title>
<path fill="none" stroke="grey" stroke-width="2" d="M667.562,-359.697C665.111,-351.898 662.16,-342.509 659.432,-333.829"/>
<polygon fill="grey" stroke="grey" stroke-width="2" points="662.713,-332.595 656.376,-324.104 656.035,-334.694 662.713,-332.595"/>
</g>
<!-- 46&#45;&gt;23 -->
<g id="edge62" class="edge"><title>46&#45;&gt;23</title>
<path fill="none" stroke="grey" stroke-width="2" d="M361.045,-359.697C359.282,-351.983 357.163,-342.712 355.197,-334.112"/>
<polygon fill="grey" stroke="grey" stroke-width="2" points="358.55,-333.073 352.91,-324.104 351.726,-334.633 358.55,-333.073"/>
</g>
<!-- 47&#45;&gt;28 -->
<g id="edge73" class="edge"><title>47&#45;&gt;28</title>
<path fill="none" stroke="grey" stroke-width="2" d="M685.82,-503.697C683.005,-495.813 679.609,-486.304 676.481,-477.546"/>
<polygon fill="grey" stroke="grey" stroke-width="2" points="679.768,-476.345 673.109,-468.104 673.176,-478.699 679.768,-476.345"/>
</g>
<!-- 48&#45;&gt;30 -->
<g id="edge77" class="edge"><title>48&#45;&gt;30</title>
<path fill="none" stroke="grey" stroke-width="2" d="M413.438,-503.697C405.325,-495.22 395.412,-484.864 386.529,-475.583"/>
<polygon fill="grey" stroke="grey" stroke-width="2" points="388.814,-472.908 379.371,-468.104 383.757,-477.749 388.814,-472.908"/>
</g>
<!-- 49&#45;&gt;32 -->
<g id="edge81" class="edge"><title>49&#45;&gt;32</title>
<path fill="none" stroke="grey" stroke-width="2" d="M820.899,-1007.7C824.997,-999.728 829.949,-990.1 834.493,-981.264"/>
<polygon fill="grey" stroke="grey" stroke-width="2" points="837.742,-982.598 839.203,-972.104 831.517,-979.396 837.742,-982.598"/>
</g>
<!-- 50&#45;&gt;36 -->
<g id="edge88" class="edge"><title>50&#45;&gt;36</title>
<path fill="none" stroke="grey" stroke-width="2" d="M424.888,-1007.7C429.489,-999.644 435.06,-989.894 440.153,-980.982"/>
<polygon fill="grey" stroke="grey" stroke-width="2" points="443.304,-982.523 445.226,-972.104 437.226,-979.05 443.304,-982.523"/>
</g>
</g>
</svg>
