<?xml version="1.0" encoding="UTF-8" standalone="no"?>
<!DOCTYPE svg PUBLIC "-//W3C//DTD SVG 1.1//EN"
 "http://www.w3.org/Graphics/SVG/1.1/DTD/svg11.dtd">
<!-- Generated by graphviz version 2.38.0 (20140413.2041)
 -->
<!-- Title: snakemake_dag Pages: 1 -->
<svg width="673pt" height="260pt"
 viewBox="0.00 0.00 672.68 260.00" xmlns="http://www.w3.org/2000/svg" xmlns:xlink="http://www.w3.org/1999/xlink">
<g id="graph0" class="graph" transform="scale(1 1) rotate(0) translate(4 256)">
<title>snakemake_dag</title>
<polygon fill="white" stroke="none" points="-4,4 -4,-256 668.678,-256 668.678,4 -4,4"/>
<!-- 0 -->
<g id="node1" class="node"><title>0</title>
<path fill="none" stroke="#59d856" stroke-width="2" stroke-dasharray="5,2" d="M326.678,-36C326.678,-36 296.678,-36 296.678,-36 290.678,-36 284.678,-30 284.678,-24 284.678,-24 284.678,-12 284.678,-12 284.678,-6 290.678,-0 296.678,-0 296.678,-0 326.678,-0 326.678,-0 332.678,-0 338.678,-6 338.678,-12 338.678,-12 338.678,-24 338.678,-24 338.678,-30 332.678,-36 326.678,-36"/>
<text text-anchor="middle" x="311.678" y="-15.5" font-family="sans" font-size="10.00">all</text>
</g>
<!-- 1 -->
<g id="node2" class="node"><title>1</title>
<path fill="none" stroke="#56d8d8" stroke-width="2" stroke-dasharray="5,2" d="M116.678,-180C116.678,-180 26.678,-180 26.678,-180 20.678,-180 14.678,-174 14.678,-168 14.678,-168 14.678,-156 14.678,-156 14.678,-150 20.678,-144 26.678,-144 26.678,-144 116.678,-144 116.678,-144 122.678,-144 128.678,-150 128.678,-156 128.678,-156 128.678,-168 128.678,-168 128.678,-174 122.678,-180 116.678,-180"/>
<text text-anchor="middle" x="71.678" y="-165" font-family="sans" font-size="10.00">virus_nt_taxonomy</text>
<text text-anchor="middle" x="71.678" y="-154" font-family="sans" font-size="10.00">sample: SRR848994</text>
</g>
<!-- 1&#45;&gt;0 -->
<g id="edge1" class="edge"><title>1&#45;&gt;0</title>
<path fill="none" stroke="grey" stroke-width="2" d="M64.5245,-143.853C57.6076,-124.24 50.3525,-92.2347 66.678,-72 92.316,-40.2228 212,-26.5548 274.087,-21.5214"/>
<polygon fill="grey" stroke="grey" stroke-width="2" points="274.555,-24.9957 284.255,-20.7327 274.014,-18.0166 274.555,-24.9957"/>
</g>
<!-- 7 -->
<g id="node8" class="node"><title>7</title>
<path fill="none" stroke="#d85656" stroke-width="2" stroke-dasharray="5,2" d="M209.178,-108C209.178,-108 88.178,-108 88.178,-108 82.178,-108 76.178,-102 76.178,-96 76.178,-96 76.178,-84 76.178,-84 76.178,-78 82.178,-72 88.178,-72 88.178,-72 209.178,-72 209.178,-72 215.178,-72 221.178,-78 221.178,-84 221.178,-84 221.178,-96 221.178,-96 221.178,-102 215.178,-108 209.178,-108"/>
<text text-anchor="middle" x="148.678" y="-87.5" font-family="sans" font-size="10.00">virus_nt_taxonomy_report</text>
</g>
<!-- 1&#45;&gt;7 -->
<g id="edge15" class="edge"><title>1&#45;&gt;7</title>
<path fill="none" stroke="grey" stroke-width="2" d="M90.7117,-143.697C100.223,-135.05 111.885,-124.449 122.248,-115.027"/>
<polygon fill="grey" stroke="grey" stroke-width="2" points="124.818,-117.421 129.863,-108.104 120.109,-112.241 124.818,-117.421"/>
</g>
<!-- 2 -->
<g id="node3" class="node"><title>2</title>
<path fill="none" stroke="#d6d856" stroke-width="2" stroke-dasharray="5,2" d="M242.178,-252C242.178,-252 147.178,-252 147.178,-252 141.178,-252 135.178,-246 135.178,-240 135.178,-240 135.178,-228 135.178,-228 135.178,-222 141.178,-216 147.178,-216 147.178,-216 242.178,-216 242.178,-216 248.178,-216 254.178,-222 254.178,-228 254.178,-228 254.178,-240 254.178,-240 254.178,-246 248.178,-252 242.178,-252"/>
<text text-anchor="middle" x="194.678" y="-231.5" font-family="sans" font-size="10.00">download_taxonomy</text>
</g>
<!-- 2&#45;&gt;0 -->
<g id="edge2" class="edge"><title>2&#45;&gt;0</title>
<path fill="none" stroke="grey" stroke-width="2" d="M135.16,-224.254C85.8613,-215.648 21.428,-200.774 5.67796,-180 -3.98842,-167.25 1.04142,-159.313 5.67796,-144 16.8228,-107.191 21.7785,-93.4834 53.678,-72 121.77,-26.1419 221.245,-18.5377 274.597,-18.0866"/>
<polygon fill="grey" stroke="grey" stroke-width="2" points="274.631,-21.5867 284.629,-18.0825 274.628,-14.5867 274.631,-21.5867"/>
</g>
<!-- 2&#45;&gt;1 -->
<g id="edge8" class="edge"><title>2&#45;&gt;1</title>
<path fill="none" stroke="grey" stroke-width="2" d="M164.589,-215.876C148.358,-206.639 128.136,-195.131 110.707,-185.212"/>
<polygon fill="grey" stroke="grey" stroke-width="2" points="112.305,-182.094 101.883,-180.19 108.843,-188.178 112.305,-182.094"/>
</g>
<!-- 3 -->
<g id="node4" class="node"><title>3</title>
<path fill="none" stroke="#d85656" stroke-width="2" stroke-dasharray="5,2" d="M372.178,-108C372.178,-108 251.178,-108 251.178,-108 245.178,-108 239.178,-102 239.178,-96 239.178,-96 239.178,-84 239.178,-84 239.178,-78 245.178,-72 251.178,-72 251.178,-72 372.178,-72 372.178,-72 378.178,-72 384.178,-78 384.178,-84 384.178,-84 384.178,-96 384.178,-96 384.178,-102 378.178,-108 372.178,-108"/>
<text text-anchor="middle" x="311.678" y="-87.5" font-family="sans" font-size="10.00">virus_nt_taxonomy_report</text>
</g>
<!-- 2&#45;&gt;3 -->
<g id="edge10" class="edge"><title>2&#45;&gt;3</title>
<path fill="none" stroke="grey" stroke-width="2" d="M194.237,-215.867C194.597,-196.56 197.864,-165.121 213.678,-144 223.566,-130.793 237.745,-120.503 252.257,-112.652"/>
<polygon fill="grey" stroke="grey" stroke-width="2" points="253.959,-115.714 261.3,-108.075 250.798,-109.468 253.959,-115.714"/>
</g>
<!-- 4 -->
<g id="node5" class="node"><title>4</title>
<path fill="none" stroke="#d85656" stroke-width="2" stroke-dasharray="5,2" d="M574.178,-108C574.178,-108 453.178,-108 453.178,-108 447.178,-108 441.178,-102 441.178,-96 441.178,-96 441.178,-84 441.178,-84 441.178,-78 447.178,-72 453.178,-72 453.178,-72 574.178,-72 574.178,-72 580.178,-72 586.178,-78 586.178,-84 586.178,-84 586.178,-96 586.178,-96 586.178,-102 580.178,-108 574.178,-108"/>
<text text-anchor="middle" x="513.678" y="-87.5" font-family="sans" font-size="10.00">virus_nt_taxonomy_report</text>
</g>
<!-- 2&#45;&gt;4 -->
<g id="edge12" class="edge"><title>2&#45;&gt;4</title>
<path fill="none" stroke="grey" stroke-width="2" d="M254.333,-231.033C334.412,-227.06 470.478,-215.183 503.678,-180 518.965,-163.8 520.275,-137.861 518.463,-118.156"/>
<polygon fill="grey" stroke="grey" stroke-width="2" points="521.937,-117.729 517.247,-108.229 514.989,-118.58 521.937,-117.729"/>
</g>
<!-- 5 -->
<g id="node6" class="node"><title>5</title>
<path fill="none" stroke="#56d8d8" stroke-width="2" stroke-dasharray="5,2" d="M482.678,-180C482.678,-180 234.678,-180 234.678,-180 228.678,-180 222.678,-174 222.678,-168 222.678,-168 222.678,-156 222.678,-156 222.678,-150 228.678,-144 234.678,-144 234.678,-144 482.678,-144 482.678,-144 488.678,-144 494.678,-150 494.678,-156 494.678,-156 494.678,-168 494.678,-168 494.678,-174 488.678,-180 482.678,-180"/>
<text text-anchor="middle" x="358.678" y="-165" font-family="sans" font-size="10.00">virus_nt_taxonomy</text>
<text text-anchor="middle" x="358.678" y="-154" font-family="sans" font-size="10.00">sample: I1164_12629_Harvard_SIV_196_06_2_24_12</text>
</g>
<!-- 2&#45;&gt;5 -->
<g id="edge13" class="edge"><title>2&#45;&gt;5</title>
<path fill="none" stroke="grey" stroke-width="2" d="M234.797,-215.876C257.316,-206.264 285.596,-194.193 309.449,-184.013"/>
<polygon fill="grey" stroke="grey" stroke-width="2" points="310.866,-187.213 318.689,-180.068 308.118,-180.775 310.866,-187.213"/>
</g>
<!-- 6 -->
<g id="node7" class="node"><title>6</title>
<path fill="none" stroke="#56d8d8" stroke-width="2" stroke-dasharray="5,2" d="M652.678,-180C652.678,-180 562.678,-180 562.678,-180 556.678,-180 550.678,-174 550.678,-168 550.678,-168 550.678,-156 550.678,-156 550.678,-150 556.678,-144 562.678,-144 562.678,-144 652.678,-144 652.678,-144 658.678,-144 664.678,-150 664.678,-156 664.678,-156 664.678,-168 664.678,-168 664.678,-174 658.678,-180 652.678,-180"/>
<text text-anchor="middle" x="607.678" y="-165" font-family="sans" font-size="10.00">virus_nt_taxonomy</text>
<text text-anchor="middle" x="607.678" y="-154" font-family="sans" font-size="10.00">sample: SRR848973</text>
</g>
<!-- 2&#45;&gt;6 -->
<g id="edge14" class="edge"><title>2&#45;&gt;6</title>
<path fill="none" stroke="grey" stroke-width="2" d="M254.247,-225.264C322.685,-216.03 438.228,-199.381 536.678,-180 537.937,-179.752 539.208,-179.497 540.487,-179.236"/>
<polygon fill="grey" stroke="grey" stroke-width="2" points="541.357,-182.63 550.414,-177.133 539.906,-175.782 541.357,-182.63"/>
</g>
<!-- 2&#45;&gt;7 -->
<g id="edge16" class="edge"><title>2&#45;&gt;7</title>
<path fill="none" stroke="grey" stroke-width="2" d="M189.129,-215.871C181.255,-191.564 166.76,-146.819 157.429,-118.013"/>
<polygon fill="grey" stroke="grey" stroke-width="2" points="160.658,-116.624 154.246,-108.189 153.999,-118.781 160.658,-116.624"/>
</g>
<!-- 3&#45;&gt;0 -->
<g id="edge3" class="edge"><title>3&#45;&gt;0</title>
<path fill="none" stroke="grey" stroke-width="2" d="M311.678,-71.6966C311.678,-63.9827 311.678,-54.7125 311.678,-46.1124"/>
<polygon fill="grey" stroke="grey" stroke-width="2" points="315.178,-46.1043 311.678,-36.1043 308.178,-46.1044 315.178,-46.1043"/>
</g>
<!-- 4&#45;&gt;0 -->
<g id="edge4" class="edge"><title>4&#45;&gt;0</title>
<path fill="none" stroke="grey" stroke-width="2" d="M464.522,-71.9656C428.75,-59.5694 381.074,-43.0481 348.541,-31.7743"/>
<polygon fill="grey" stroke="grey" stroke-width="2" points="349.556,-28.4218 338.961,-28.4544 347.263,-35.0359 349.556,-28.4218"/>
</g>
<!-- 5&#45;&gt;0 -->
<g id="edge5" class="edge"><title>5&#45;&gt;0</title>
<path fill="none" stroke="grey" stroke-width="2" d="M373.956,-143.687C388.211,-125.313 405.502,-95.7159 392.678,-72 383.101,-54.2886 364.746,-41.5465 347.927,-33.0018"/>
<polygon fill="grey" stroke="grey" stroke-width="2" points="349.343,-29.7996 338.807,-28.6817 346.346,-36.1258 349.343,-29.7996"/>
</g>
<!-- 5&#45;&gt;3 -->
<g id="edge9" class="edge"><title>5&#45;&gt;3</title>
<path fill="none" stroke="grey" stroke-width="2" d="M347.06,-143.697C341.539,-135.474 334.831,-125.483 328.746,-116.421"/>
<polygon fill="grey" stroke="grey" stroke-width="2" points="331.642,-114.456 323.162,-108.104 325.831,-118.358 331.642,-114.456"/>
</g>
<!-- 6&#45;&gt;0 -->
<g id="edge6" class="edge"><title>6&#45;&gt;0</title>
<path fill="none" stroke="grey" stroke-width="2" d="M610.529,-143.743C612.77,-123.722 612.961,-91.0308 594.678,-72 561.327,-37.2846 417.958,-24.8054 349.003,-20.7539"/>
<polygon fill="grey" stroke="grey" stroke-width="2" points="349.177,-17.2582 338.997,-20.1947 348.787,-24.2473 349.177,-17.2582"/>
</g>
<!-- 6&#45;&gt;4 -->
<g id="edge11" class="edge"><title>6&#45;&gt;4</title>
<path fill="none" stroke="grey" stroke-width="2" d="M584.442,-143.697C572.49,-134.796 557.755,-123.823 544.831,-114.199"/>
<polygon fill="grey" stroke="grey" stroke-width="2" points="546.758,-111.27 536.647,-108.104 542.577,-116.884 546.758,-111.27"/>
</g>
<!-- 7&#45;&gt;0 -->
<g id="edge7" class="edge"><title>7&#45;&gt;0</title>
<path fill="none" stroke="grey" stroke-width="2" d="M188.552,-71.8761C214.961,-60.5347 249.341,-45.7703 275.058,-34.7262"/>
<polygon fill="grey" stroke="grey" stroke-width="2" points="276.648,-37.8526 284.456,-30.6906 273.886,-31.4206 276.648,-37.8526"/>
</g>
</g>
</svg>
