<?xml version="1.0" encoding="UTF-8" standalone="no"?>
<!DOCTYPE svg PUBLIC "-//W3C//DTD SVG 1.1//EN"
 "http://www.w3.org/Graphics/SVG/1.1/DTD/svg11.dtd">
<!-- Generated by graphviz version 2.30.1 (20150306.0020)
 -->
<!-- Title: snakemake_dag Pages: 1 -->
<svg width="304pt" height="836pt"
 viewBox="0.00 0.00 304.00 836.00" xmlns="http://www.w3.org/2000/svg" xmlns:xlink="http://www.w3.org/1999/xlink">
<g id="graph0" class="graph" transform="scale(1 1) rotate(0) translate(4 832)">
<title>snakemake_dag</title>
<polygon fill="white" stroke="white" points="-4,5 -4,-832 301,-832 301,5 -4,5"/>
<!-- 0 -->
<g id="node1" class="node"><title>0</title>
<path fill="none" stroke="#d8ac56" stroke-width="2" stroke-dasharray="5,2" d="M168,-36C168,-36 138,-36 138,-36 132,-36 126,-30 126,-24 126,-24 126,-12 126,-12 126,-6 132,-0 138,-0 138,-0 168,-0 168,-0 174,-0 180,-6 180,-12 180,-12 180,-24 180,-24 180,-30 174,-36 168,-36"/>
<text text-anchor="middle" x="153" y="-15.5" font-family="sans" font-size="10.00">all</text>
</g>
<!-- 1 -->
<g id="node2" class="node"><title>1</title>
<path fill="none" stroke="#5682d8" stroke-width="2" stroke-dasharray="5,2" d="M126,-108C126,-108 84,-108 84,-108 78,-108 72,-102 72,-96 72,-96 72,-84 72,-84 72,-78 78,-72 84,-72 84,-72 126,-72 126,-72 132,-72 138,-78 138,-84 138,-84 138,-96 138,-96 138,-102 132,-108 126,-108"/>
<text text-anchor="middle" x="105" y="-87.5" font-family="sans" font-size="10.00">bwa_mem</text>
</g>
<!-- 1&#45;&gt;0 -->
<g id="edge1" class="edge"><title>1&#45;&gt;0</title>
<path fill="none" stroke="grey" stroke-width="2" d="M116.865,-71.6966C122.503,-63.4741 129.354,-53.4832 135.569,-44.4207"/>
<polygon fill="grey" stroke="grey" points="138.503,-46.331 141.271,-36.1043 132.729,-42.3723 138.503,-46.331"/>
</g>
<!-- 2 -->
<g id="node3" class="node"><title>2</title>
<path fill="none" stroke="#5682d8" stroke-width="2" stroke-dasharray="5,2" d="M222,-108C222,-108 180,-108 180,-108 174,-108 168,-102 168,-96 168,-96 168,-84 168,-84 168,-78 174,-72 180,-72 180,-72 222,-72 222,-72 228,-72 234,-78 234,-84 234,-84 234,-96 234,-96 234,-102 228,-108 222,-108"/>
<text text-anchor="middle" x="201" y="-87.5" font-family="sans" font-size="10.00">bwa_mem</text>
</g>
<!-- 2&#45;&gt;0 -->
<g id="edge2" class="edge"><title>2&#45;&gt;0</title>
<path fill="none" stroke="grey" stroke-width="2" d="M189.135,-71.6966C183.497,-63.4741 176.646,-53.4832 170.431,-44.4207"/>
<polygon fill="grey" stroke="grey" points="173.271,-42.3723 164.729,-36.1043 167.497,-46.331 173.271,-42.3723"/>
</g>
<!-- 3 -->
<g id="node4" class="node"><title>3</title>
<path fill="none" stroke="#56d8d8" stroke-width="2" stroke-dasharray="5,2" d="M126.25,-180C126.25,-180 37.75,-180 37.75,-180 31.75,-180 25.75,-174 25.75,-168 25.75,-168 25.75,-156 25.75,-156 25.75,-150 31.75,-144 37.75,-144 37.75,-144 126.25,-144 126.25,-144 132.25,-144 138.25,-150 138.25,-156 138.25,-156 138.25,-168 138.25,-168 138.25,-174 132.25,-180 126.25,-180"/>
<text text-anchor="middle" x="82" y="-159.5" font-family="sans" font-size="10.00">repeatmasker_good</text>
</g>
<!-- 3&#45;&gt;1 -->
<g id="edge3" class="edge"><title>3&#45;&gt;1</title>
<path fill="none" stroke="grey" stroke-width="2" d="M87.6854,-143.697C90.2478,-135.898 93.3329,-126.509 96.1847,-117.829"/>
<polygon fill="grey" stroke="grey" points="99.5835,-118.697 99.38,-108.104 92.9333,-116.512 99.5835,-118.697"/>
</g>
<!-- 4 -->
<g id="node5" class="node"><title>4</title>
<path fill="none" stroke="#56d8d8" stroke-width="2" stroke-dasharray="5,2" d="M257.25,-180C257.25,-180 168.75,-180 168.75,-180 162.75,-180 156.75,-174 156.75,-168 156.75,-168 156.75,-156 156.75,-156 156.75,-150 162.75,-144 168.75,-144 168.75,-144 257.25,-144 257.25,-144 263.25,-144 269.25,-150 269.25,-156 269.25,-156 269.25,-168 269.25,-168 269.25,-174 263.25,-180 257.25,-180"/>
<text text-anchor="middle" x="213" y="-159.5" font-family="sans" font-size="10.00">repeatmasker_good</text>
</g>
<!-- 4&#45;&gt;2 -->
<g id="edge4" class="edge"><title>4&#45;&gt;2</title>
<path fill="none" stroke="grey" stroke-width="2" d="M210.034,-143.697C208.711,-135.983 207.122,-126.712 205.648,-118.112"/>
<polygon fill="grey" stroke="grey" points="209.072,-117.369 203.932,-108.104 202.172,-118.552 209.072,-117.369"/>
</g>
<!-- 5 -->
<g id="node6" class="node"><title>5</title>
<path fill="none" stroke="#d6d856" stroke-width="2" stroke-dasharray="5,2" d="M141,-252C141,-252 81,-252 81,-252 75,-252 69,-246 69,-240 69,-240 69,-228 69,-228 69,-222 75,-216 81,-216 81,-216 141,-216 141,-216 147,-216 153,-222 153,-228 153,-228 153,-240 153,-240 153,-246 147,-252 141,-252"/>
<text text-anchor="middle" x="111" y="-231.5" font-family="sans" font-size="10.00">repeatmasker</text>
</g>
<!-- 5&#45;&gt;3 -->
<g id="edge5" class="edge"><title>5&#45;&gt;3</title>
<path fill="none" stroke="grey" stroke-width="2" d="M103.831,-215.697C100.565,-207.813 96.626,-198.304 92.9978,-189.546"/>
<polygon fill="grey" stroke="grey" points="96.147,-188.003 89.0861,-180.104 89.68,-190.683 96.147,-188.003"/>
</g>
<!-- 6 -->
<g id="node7" class="node"><title>6</title>
<path fill="none" stroke="#d85656" stroke-width="2" stroke-dasharray="5,2" d="M127.25,-324C127.25,-324 86.75,-324 86.75,-324 80.75,-324 74.75,-318 74.75,-312 74.75,-312 74.75,-300 74.75,-300 74.75,-294 80.75,-288 86.75,-288 86.75,-288 127.25,-288 127.25,-288 133.25,-288 139.25,-294 139.25,-300 139.25,-300 139.25,-312 139.25,-312 139.25,-318 133.25,-324 127.25,-324"/>
<text text-anchor="middle" x="107" y="-309" font-family="sans" font-size="10.00">split_fasta</text>
<text text-anchor="middle" x="107" y="-298" font-family="sans" font-size="10.00">n: 1</text>
</g>
<!-- 6&#45;&gt;3 -->
<g id="edge6" class="edge"><title>6&#45;&gt;3</title>
<path fill="none" stroke="grey" stroke-width="2" d="M85.7334,-287.701C75.891,-278.305 65.2366,-265.798 60,-252 52.2327,-231.534 59.1606,-207.371 67.2361,-189.39"/>
<polygon fill="grey" stroke="grey" points="70.5284,-190.623 71.7546,-180.1 64.2334,-187.562 70.5284,-190.623"/>
</g>
<!-- 6&#45;&gt;5 -->
<g id="edge9" class="edge"><title>6&#45;&gt;5</title>
<path fill="none" stroke="grey" stroke-width="2" d="M107.989,-287.697C108.43,-279.983 108.959,-270.712 109.451,-262.112"/>
<polygon fill="grey" stroke="grey" points="112.946,-262.288 110.023,-252.104 105.958,-261.888 112.946,-262.288"/>
</g>
<!-- 7 -->
<g id="node8" class="node"><title>7</title>
<path fill="none" stroke="#d85656" stroke-width="2" stroke-dasharray="5,2" d="M210.25,-324C210.25,-324 169.75,-324 169.75,-324 163.75,-324 157.75,-318 157.75,-312 157.75,-312 157.75,-300 157.75,-300 157.75,-294 163.75,-288 169.75,-288 169.75,-288 210.25,-288 210.25,-288 216.25,-288 222.25,-294 222.25,-300 222.25,-300 222.25,-312 222.25,-312 222.25,-318 216.25,-324 210.25,-324"/>
<text text-anchor="middle" x="190" y="-309" font-family="sans" font-size="10.00">split_fasta</text>
<text text-anchor="middle" x="190" y="-298" font-family="sans" font-size="10.00">n: 2</text>
</g>
<!-- 7&#45;&gt;4 -->
<g id="edge7" class="edge"><title>7&#45;&gt;4</title>
<path fill="none" stroke="grey" stroke-width="2" d="M192.283,-287.905C194.729,-269.963 198.826,-240.95 203,-216 204.412,-207.558 206.091,-198.388 207.666,-190.086"/>
<polygon fill="grey" stroke="grey" points="211.124,-190.635 209.577,-180.154 204.25,-189.312 211.124,-190.635"/>
</g>
<!-- 8 -->
<g id="node9" class="node"><title>8</title>
<path fill="none" stroke="#d6d856" stroke-width="2" stroke-dasharray="5,2" d="M284,-252C284,-252 224,-252 224,-252 218,-252 212,-246 212,-240 212,-240 212,-228 212,-228 212,-222 218,-216 224,-216 224,-216 284,-216 284,-216 290,-216 296,-222 296,-228 296,-228 296,-240 296,-240 296,-246 290,-252 284,-252"/>
<text text-anchor="middle" x="254" y="-231.5" font-family="sans" font-size="10.00">repeatmasker</text>
</g>
<!-- 7&#45;&gt;8 -->
<g id="edge12" class="edge"><title>7&#45;&gt;8</title>
<path fill="none" stroke="grey" stroke-width="2" d="M205.82,-287.697C213.57,-279.22 223.039,-268.864 231.524,-259.583"/>
<polygon fill="grey" stroke="grey" points="234.197,-261.846 238.362,-252.104 229.031,-257.123 234.197,-261.846"/>
</g>
<!-- 8&#45;&gt;4 -->
<g id="edge8" class="edge"><title>8&#45;&gt;4</title>
<path fill="none" stroke="grey" stroke-width="2" d="M243.865,-215.697C239.148,-207.644 233.438,-197.894 228.218,-188.982"/>
<polygon fill="grey" stroke="grey" points="231.092,-186.964 223.018,-180.104 225.052,-190.502 231.092,-186.964"/>
</g>
<!-- 9 -->
<g id="node10" class="node"><title>9</title>
<path fill="none" stroke="#56d8a9" stroke-width="2" stroke-dasharray="5,2" d="M174.25,-396C174.25,-396 121.75,-396 121.75,-396 115.75,-396 109.75,-390 109.75,-384 109.75,-384 109.75,-372 109.75,-372 109.75,-366 115.75,-360 121.75,-360 121.75,-360 174.25,-360 174.25,-360 180.25,-360 186.25,-366 186.25,-372 186.25,-372 186.25,-384 186.25,-384 186.25,-390 180.25,-396 174.25,-396"/>
<text text-anchor="middle" x="148" y="-375.5" font-family="sans" font-size="10.00">tantan_good</text>
</g>
<!-- 9&#45;&gt;6 -->
<g id="edge10" class="edge"><title>9&#45;&gt;6</title>
<path fill="none" stroke="grey" stroke-width="2" d="M137.865,-359.697C133.148,-351.644 127.438,-341.894 122.218,-332.982"/>
<polygon fill="grey" stroke="grey" points="125.092,-330.964 117.018,-324.104 119.052,-334.502 125.092,-330.964"/>
</g>
<!-- 9&#45;&gt;7 -->
<g id="edge11" class="edge"><title>9&#45;&gt;7</title>
<path fill="none" stroke="grey" stroke-width="2" d="M158.382,-359.697C163.265,-351.559 169.187,-341.689 174.579,-332.701"/>
<polygon fill="grey" stroke="grey" points="177.594,-334.48 179.737,-324.104 171.591,-330.879 177.594,-334.48"/>
</g>
<!-- 10 -->
<g id="node11" class="node"><title>10</title>
<path fill="none" stroke="#80d856" stroke-width="2" stroke-dasharray="5,2" d="M163,-468C163,-468 133,-468 133,-468 127,-468 121,-462 121,-456 121,-456 121,-444 121,-444 121,-438 127,-432 133,-432 133,-432 163,-432 163,-432 169,-432 175,-438 175,-444 175,-444 175,-456 175,-456 175,-462 169,-468 163,-468"/>
<text text-anchor="middle" x="148" y="-447.5" font-family="sans" font-size="10.00">tantan</text>
</g>
<!-- 10&#45;&gt;9 -->
<g id="edge13" class="edge"><title>10&#45;&gt;9</title>
<path fill="none" stroke="grey" stroke-width="2" d="M148,-431.697C148,-423.983 148,-414.712 148,-406.112"/>
<polygon fill="grey" stroke="grey" points="151.5,-406.104 148,-396.104 144.5,-406.104 151.5,-406.104"/>
</g>
<!-- 11 -->
<g id="node12" class="node"><title>11</title>
<path fill="none" stroke="#d88556" stroke-width="2" stroke-dasharray="5,2" d="M163,-540C163,-540 133,-540 133,-540 127,-540 121,-534 121,-528 121,-528 121,-516 121,-516 121,-510 127,-504 133,-504 133,-504 163,-504 163,-504 169,-504 175,-510 175,-516 175,-516 175,-528 175,-528 175,-534 169,-540 163,-540"/>
<text text-anchor="middle" x="148" y="-519.5" font-family="sans" font-size="10.00">cd_hit</text>
</g>
<!-- 11&#45;&gt;10 -->
<g id="edge14" class="edge"><title>11&#45;&gt;10</title>
<path fill="none" stroke="grey" stroke-width="2" d="M148,-503.697C148,-495.983 148,-486.712 148,-478.112"/>
<polygon fill="grey" stroke="grey" points="151.5,-478.104 148,-468.104 144.5,-478.104 151.5,-478.104"/>
</g>
<!-- 12 -->
<g id="node13" class="node"><title>12</title>
<path fill="none" stroke="#56a9d8" stroke-width="2" stroke-dasharray="5,2" d="M171.25,-612C171.25,-612 124.75,-612 124.75,-612 118.75,-612 112.75,-606 112.75,-600 112.75,-600 112.75,-588 112.75,-588 112.75,-582 118.75,-576 124.75,-576 124.75,-576 171.25,-576 171.25,-576 177.25,-576 183.25,-582 183.25,-588 183.25,-588 183.25,-600 183.25,-600 183.25,-606 177.25,-612 171.25,-612"/>
<text text-anchor="middle" x="148" y="-591.5" font-family="sans" font-size="10.00">fastq2fasta</text>
</g>
<!-- 12&#45;&gt;11 -->
<g id="edge15" class="edge"><title>12&#45;&gt;11</title>
<path fill="none" stroke="grey" stroke-width="2" d="M148,-575.697C148,-567.983 148,-558.712 148,-550.112"/>
<polygon fill="grey" stroke="grey" points="151.5,-550.104 148,-540.104 144.5,-550.104 151.5,-550.104"/>
</g>
<!-- 13 -->
<g id="node14" class="node"><title>13</title>
<path fill="none" stroke="#56d882" stroke-width="2" stroke-dasharray="5,2" d="M176,-684C176,-684 120,-684 120,-684 114,-684 108,-678 108,-672 108,-672 108,-660 108,-660 108,-654 114,-648 120,-648 120,-648 176,-648 176,-648 182,-648 188,-654 188,-660 188,-660 188,-672 188,-672 188,-678 182,-684 176,-684"/>
<text text-anchor="middle" x="148" y="-663.5" font-family="sans" font-size="10.00">merge_reads</text>
</g>
<!-- 13&#45;&gt;12 -->
<g id="edge16" class="edge"><title>13&#45;&gt;12</title>
<path fill="none" stroke="grey" stroke-width="2" d="M148,-647.697C148,-639.983 148,-630.712 148,-622.112"/>
<polygon fill="grey" stroke="grey" points="151.5,-622.104 148,-612.104 144.5,-622.104 151.5,-622.104"/>
</g>
<!-- 14 -->
<g id="node15" class="node"><title>14</title>
<path fill="none" stroke="#afd856" stroke-width="2" stroke-dasharray="5,2" d="M167,-756C167,-756 129,-756 129,-756 123,-756 117,-750 117,-744 117,-744 117,-732 117,-732 117,-726 123,-720 129,-720 129,-720 167,-720 167,-720 173,-720 179,-726 179,-732 179,-732 179,-744 179,-744 179,-750 173,-756 167,-756"/>
<text text-anchor="middle" x="148" y="-735.5" font-family="sans" font-size="10.00">fastq_join</text>
</g>
<!-- 14&#45;&gt;13 -->
<g id="edge17" class="edge"><title>14&#45;&gt;13</title>
<path fill="none" stroke="grey" stroke-width="2" d="M148,-719.697C148,-711.983 148,-702.712 148,-694.112"/>
<polygon fill="grey" stroke="grey" points="151.5,-694.104 148,-684.104 144.5,-694.104 151.5,-694.104"/>
</g>
<!-- 15 -->
<g id="node16" class="node"><title>15</title>
<path fill="none" stroke="#59d856" stroke-width="2" stroke-dasharray="5,2" d="M284,-828C284,-828 12,-828 12,-828 6,-828 0,-822 0,-816 0,-816 0,-804 0,-804 0,-798 6,-792 12,-792 12,-792 284,-792 284,-792 290,-792 296,-798 296,-804 296,-804 296,-816 296,-816 296,-822 290,-828 284,-828"/>
<text text-anchor="middle" x="148" y="-813" font-family="sans" font-size="10.00">fastp</text>
<text text-anchor="middle" x="148" y="-802" font-family="sans" font-size="10.00">sample: I1164_12629_Harvard_SIV_196_06_2_24_12_mini</text>
</g>
<!-- 15&#45;&gt;14 -->
<g id="edge18" class="edge"><title>15&#45;&gt;14</title>
<path fill="none" stroke="grey" stroke-width="2" d="M148,-791.697C148,-783.983 148,-774.712 148,-766.112"/>
<polygon fill="grey" stroke="grey" points="151.5,-766.104 148,-756.104 144.5,-766.104 151.5,-766.104"/>
</g>
</g>
</svg>
