<?xml version="1.0" encoding="UTF-8" standalone="no"?>
<!DOCTYPE svg PUBLIC "-//W3C//DTD SVG 1.1//EN"
 "http://www.w3.org/Graphics/SVG/1.1/DTD/svg11.dtd">
<!-- Generated by graphviz version 2.30.1 (20150306.0020)
 -->
<!-- Title: snakemake_dag Pages: 1 -->
<svg width="360pt" height="980pt"
 viewBox="0.00 0.00 360.00 980.00" xmlns="http://www.w3.org/2000/svg" xmlns:xlink="http://www.w3.org/1999/xlink">
<g id="graph0" class="graph" transform="scale(1 1) rotate(0) translate(4 976)">
<title>snakemake_dag</title>
<polygon fill="white" stroke="white" points="-4,5 -4,-976 357,-976 357,5 -4,5"/>
<!-- 0 -->
<g id="node1" class="node"><title>0</title>
<path fill="none" stroke="#d8a456" stroke-width="2" stroke-dasharray="5,2" d="M193,-36C193,-36 163,-36 163,-36 157,-36 151,-30 151,-24 151,-24 151,-12 151,-12 151,-6 157,-0 163,-0 163,-0 193,-0 193,-0 199,-0 205,-6 205,-12 205,-12 205,-24 205,-24 205,-30 199,-36 193,-36"/>
<text text-anchor="middle" x="178" y="-15.5" font-family="sans" font-size="10.00">all</text>
</g>
<!-- 1 -->
<g id="node2" class="node"><title>1</title>
<path fill="none" stroke="#59d856" stroke-width="2" stroke-dasharray="5,2" d="M157,-108C157,-108 69,-108 69,-108 63,-108 57,-102 57,-96 57,-96 57,-84 57,-84 57,-78 63,-72 69,-72 69,-72 157,-72 157,-72 163,-72 169,-78 169,-84 169,-84 169,-96 169,-96 169,-102 163,-108 157,-108"/>
<text text-anchor="middle" x="113" y="-87.5" font-family="sans" font-size="10.00">unmapped_masked</text>
</g>
<!-- 1&#45;&gt;0 -->
<g id="edge1" class="edge"><title>1&#45;&gt;0</title>
<path fill="none" stroke="grey" stroke-width="2" d="M129.067,-71.6966C136.939,-63.2198 146.555,-52.8636 155.173,-43.5826"/>
<polygon fill="grey" stroke="grey" points="157.878,-45.8139 162.117,-36.1043 152.748,-41.0507 157.878,-45.8139"/>
</g>
<!-- 2 -->
<g id="node3" class="node"><title>2</title>
<path fill="none" stroke="#59d856" stroke-width="2" stroke-dasharray="5,2" d="M287,-108C287,-108 199,-108 199,-108 193,-108 187,-102 187,-96 187,-96 187,-84 187,-84 187,-78 193,-72 199,-72 199,-72 287,-72 287,-72 293,-72 299,-78 299,-84 299,-84 299,-96 299,-96 299,-102 293,-108 287,-108"/>
<text text-anchor="middle" x="243" y="-87.5" font-family="sans" font-size="10.00">unmapped_masked</text>
</g>
<!-- 2&#45;&gt;0 -->
<g id="edge2" class="edge"><title>2&#45;&gt;0</title>
<path fill="none" stroke="grey" stroke-width="2" d="M226.933,-71.6966C219.061,-63.2198 209.445,-52.8636 200.827,-43.5826"/>
<polygon fill="grey" stroke="grey" points="203.252,-41.0507 193.883,-36.1043 198.122,-45.8139 203.252,-41.0507"/>
</g>
<!-- 3 -->
<g id="node4" class="node"><title>3</title>
<path fill="none" stroke="#56c9d8" stroke-width="2" stroke-dasharray="5,2" d="M172.25,-180C172.25,-180 95.75,-180 95.75,-180 89.75,-180 83.75,-174 83.75,-168 83.75,-168 83.75,-156 83.75,-156 83.75,-150 89.75,-144 95.75,-144 95.75,-144 172.25,-144 172.25,-144 178.25,-144 184.25,-150 184.25,-156 184.25,-156 184.25,-168 184.25,-168 184.25,-174 178.25,-180 172.25,-180"/>
<text text-anchor="middle" x="134" y="-159.5" font-family="sans" font-size="10.00">unmapped_reads</text>
</g>
<!-- 3&#45;&gt;1 -->
<g id="edge3" class="edge"><title>3&#45;&gt;1</title>
<path fill="none" stroke="grey" stroke-width="2" d="M128.809,-143.697C126.469,-135.898 123.653,-126.509 121.049,-117.829"/>
<polygon fill="grey" stroke="grey" points="124.357,-116.677 118.131,-108.104 117.652,-118.688 124.357,-116.677"/>
</g>
<!-- 4 -->
<g id="node5" class="node"><title>4</title>
<path fill="none" stroke="#56d8a2" stroke-width="2" stroke-dasharray="5,2" d="M112.25,-324C112.25,-324 23.75,-324 23.75,-324 17.75,-324 11.75,-318 11.75,-312 11.75,-312 11.75,-300 11.75,-300 11.75,-294 17.75,-288 23.75,-288 23.75,-288 112.25,-288 112.25,-288 118.25,-288 124.25,-294 124.25,-300 124.25,-300 124.25,-312 124.25,-312 124.25,-318 118.25,-324 112.25,-324"/>
<text text-anchor="middle" x="68" y="-303.5" font-family="sans" font-size="10.00">repeatmasker_good</text>
</g>
<!-- 4&#45;&gt;1 -->
<g id="edge4" class="edge"><title>4&#45;&gt;1</title>
<path fill="none" stroke="grey" stroke-width="2" d="M65.438,-287.945C61.6108,-257.88 56.5789,-193.912 74,-144 77.5012,-133.969 83.6055,-124.232 89.9595,-115.898"/>
<polygon fill="grey" stroke="grey" points="92.7255,-118.044 96.3096,-108.074 87.2903,-113.633 92.7255,-118.044"/>
</g>
<!-- 7 -->
<g id="node8" class="node"><title>7</title>
<path fill="none" stroke="#9fd856" stroke-width="2" stroke-dasharray="5,2" d="M146,-252C146,-252 104,-252 104,-252 98,-252 92,-246 92,-240 92,-240 92,-228 92,-228 92,-222 98,-216 104,-216 104,-216 146,-216 146,-216 152,-216 158,-222 158,-228 158,-228 158,-240 158,-240 158,-246 152,-252 146,-252"/>
<text text-anchor="middle" x="125" y="-231.5" font-family="sans" font-size="10.00">bwa_mem</text>
</g>
<!-- 4&#45;&gt;7 -->
<g id="edge13" class="edge"><title>4&#45;&gt;7</title>
<path fill="none" stroke="grey" stroke-width="2" d="M82.0899,-287.697C88.9234,-279.305 97.2569,-269.07 104.756,-259.861"/>
<polygon fill="grey" stroke="grey" points="107.472,-262.069 111.072,-252.104 102.044,-257.649 107.472,-262.069"/>
</g>
<!-- 5 -->
<g id="node6" class="node"><title>5</title>
<path fill="none" stroke="#56c9d8" stroke-width="2" stroke-dasharray="5,2" d="M340.25,-180C340.25,-180 263.75,-180 263.75,-180 257.75,-180 251.75,-174 251.75,-168 251.75,-168 251.75,-156 251.75,-156 251.75,-150 257.75,-144 263.75,-144 263.75,-144 340.25,-144 340.25,-144 346.25,-144 352.25,-150 352.25,-156 352.25,-156 352.25,-168 352.25,-168 352.25,-174 346.25,-180 340.25,-180"/>
<text text-anchor="middle" x="302" y="-159.5" font-family="sans" font-size="10.00">unmapped_reads</text>
</g>
<!-- 5&#45;&gt;2 -->
<g id="edge5" class="edge"><title>5&#45;&gt;2</title>
<path fill="none" stroke="grey" stroke-width="2" d="M287.416,-143.697C280.342,-135.305 271.717,-125.07 263.955,-115.861"/>
<polygon fill="grey" stroke="grey" points="266.537,-113.495 257.417,-108.104 261.185,-118.006 266.537,-113.495"/>
</g>
<!-- 6 -->
<g id="node7" class="node"><title>6</title>
<path fill="none" stroke="#56d8a2" stroke-width="2" stroke-dasharray="5,2" d="M287.25,-324C287.25,-324 198.75,-324 198.75,-324 192.75,-324 186.75,-318 186.75,-312 186.75,-312 186.75,-300 186.75,-300 186.75,-294 192.75,-288 198.75,-288 198.75,-288 287.25,-288 287.25,-288 293.25,-288 299.25,-294 299.25,-300 299.25,-300 299.25,-312 299.25,-312 299.25,-318 293.25,-324 287.25,-324"/>
<text text-anchor="middle" x="243" y="-303.5" font-family="sans" font-size="10.00">repeatmasker_good</text>
</g>
<!-- 6&#45;&gt;2 -->
<g id="edge6" class="edge"><title>6&#45;&gt;2</title>
<path fill="none" stroke="grey" stroke-width="2" d="M242.714,-287.608C242.268,-258.083 241.507,-196.268 242,-144 242.078,-135.682 242.226,-126.63 242.384,-118.4"/>
<polygon fill="grey" stroke="grey" points="245.888,-118.254 242.594,-108.185 238.89,-118.111 245.888,-118.254"/>
</g>
<!-- 10 -->
<g id="node11" class="node"><title>10</title>
<path fill="none" stroke="#9fd856" stroke-width="2" stroke-dasharray="5,2" d="M314,-252C314,-252 272,-252 272,-252 266,-252 260,-246 260,-240 260,-240 260,-228 260,-228 260,-222 266,-216 272,-216 272,-216 314,-216 314,-216 320,-216 326,-222 326,-228 326,-228 326,-240 326,-240 326,-246 320,-252 314,-252"/>
<text text-anchor="middle" x="293" y="-231.5" font-family="sans" font-size="10.00">bwa_mem</text>
</g>
<!-- 6&#45;&gt;10 -->
<g id="edge16" class="edge"><title>6&#45;&gt;10</title>
<path fill="none" stroke="grey" stroke-width="2" d="M255.36,-287.697C261.233,-279.474 268.369,-269.483 274.842,-260.421"/>
<polygon fill="grey" stroke="grey" points="277.818,-262.276 280.783,-252.104 272.122,-258.207 277.818,-262.276"/>
</g>
<!-- 7&#45;&gt;3 -->
<g id="edge7" class="edge"><title>7&#45;&gt;3</title>
<path fill="none" stroke="grey" stroke-width="2" d="M127.225,-215.697C128.217,-207.983 129.408,-198.712 130.514,-190.112"/>
<polygon fill="grey" stroke="grey" points="133.997,-190.469 131.801,-180.104 127.054,-189.576 133.997,-190.469"/>
</g>
<!-- 8 -->
<g id="node9" class="node"><title>8</title>
<path fill="none" stroke="#567bd8" stroke-width="2" stroke-dasharray="5,2" d="M141,-396C141,-396 81,-396 81,-396 75,-396 69,-390 69,-384 69,-384 69,-372 69,-372 69,-366 75,-360 81,-360 81,-360 141,-360 141,-360 147,-360 153,-366 153,-372 153,-372 153,-384 153,-384 153,-390 147,-396 141,-396"/>
<text text-anchor="middle" x="111" y="-375.5" font-family="sans" font-size="10.00">repeatmasker</text>
</g>
<!-- 8&#45;&gt;4 -->
<g id="edge8" class="edge"><title>8&#45;&gt;4</title>
<path fill="none" stroke="grey" stroke-width="2" d="M100.371,-359.697C95.3719,-351.559 89.309,-341.689 83.7879,-332.701"/>
<polygon fill="grey" stroke="grey" points="86.7234,-330.793 78.5069,-324.104 80.7589,-334.457 86.7234,-330.793"/>
</g>
<!-- 9 -->
<g id="node10" class="node"><title>9</title>
<path fill="none" stroke="#d85656" stroke-width="2" stroke-dasharray="5,2" d="M127.25,-468C127.25,-468 86.75,-468 86.75,-468 80.75,-468 74.75,-462 74.75,-456 74.75,-456 74.75,-444 74.75,-444 74.75,-438 80.75,-432 86.75,-432 86.75,-432 127.25,-432 127.25,-432 133.25,-432 139.25,-438 139.25,-444 139.25,-444 139.25,-456 139.25,-456 139.25,-462 133.25,-468 127.25,-468"/>
<text text-anchor="middle" x="107" y="-453" font-family="sans" font-size="10.00">split_fasta</text>
<text text-anchor="middle" x="107" y="-442" font-family="sans" font-size="10.00">n: 2</text>
</g>
<!-- 9&#45;&gt;4 -->
<g id="edge9" class="edge"><title>9&#45;&gt;4</title>
<path fill="none" stroke="grey" stroke-width="2" d="M85.7334,-431.701C75.891,-422.305 65.2366,-409.798 60,-396 52.4533,-376.116 55.2837,-352.005 59.5412,-333.896"/>
<polygon fill="grey" stroke="grey" points="62.9838,-334.567 62.1452,-324.005 56.2145,-332.785 62.9838,-334.567"/>
</g>
<!-- 9&#45;&gt;8 -->
<g id="edge14" class="edge"><title>9&#45;&gt;8</title>
<path fill="none" stroke="grey" stroke-width="2" d="M107.989,-431.697C108.43,-423.983 108.959,-414.712 109.451,-406.112"/>
<polygon fill="grey" stroke="grey" points="112.946,-406.288 110.023,-396.104 105.958,-405.888 112.946,-406.288"/>
</g>
<!-- 10&#45;&gt;5 -->
<g id="edge10" class="edge"><title>10&#45;&gt;5</title>
<path fill="none" stroke="grey" stroke-width="2" d="M295.225,-215.697C296.217,-207.983 297.408,-198.712 298.514,-190.112"/>
<polygon fill="grey" stroke="grey" points="301.997,-190.469 299.801,-180.104 295.054,-189.576 301.997,-190.469"/>
</g>
<!-- 11 -->
<g id="node12" class="node"><title>11</title>
<path fill="none" stroke="#567bd8" stroke-width="2" stroke-dasharray="5,2" d="M284,-396C284,-396 224,-396 224,-396 218,-396 212,-390 212,-384 212,-384 212,-372 212,-372 212,-366 218,-360 224,-360 224,-360 284,-360 284,-360 290,-360 296,-366 296,-372 296,-372 296,-384 296,-384 296,-390 290,-396 284,-396"/>
<text text-anchor="middle" x="254" y="-375.5" font-family="sans" font-size="10.00">repeatmasker</text>
</g>
<!-- 11&#45;&gt;6 -->
<g id="edge11" class="edge"><title>11&#45;&gt;6</title>
<path fill="none" stroke="grey" stroke-width="2" d="M251.281,-359.697C250.069,-351.983 248.612,-342.712 247.261,-334.112"/>
<polygon fill="grey" stroke="grey" points="250.698,-333.44 245.688,-324.104 243.783,-334.526 250.698,-333.44"/>
</g>
<!-- 12 -->
<g id="node13" class="node"><title>12</title>
<path fill="none" stroke="#d85656" stroke-width="2" stroke-dasharray="5,2" d="M210.25,-468C210.25,-468 169.75,-468 169.75,-468 163.75,-468 157.75,-462 157.75,-456 157.75,-456 157.75,-444 157.75,-444 157.75,-438 163.75,-432 169.75,-432 169.75,-432 210.25,-432 210.25,-432 216.25,-432 222.25,-438 222.25,-444 222.25,-444 222.25,-456 222.25,-456 222.25,-462 216.25,-468 210.25,-468"/>
<text text-anchor="middle" x="190" y="-453" font-family="sans" font-size="10.00">split_fasta</text>
<text text-anchor="middle" x="190" y="-442" font-family="sans" font-size="10.00">n: 1</text>
</g>
<!-- 12&#45;&gt;6 -->
<g id="edge12" class="edge"><title>12&#45;&gt;6</title>
<path fill="none" stroke="grey" stroke-width="2" d="M190.005,-431.934C190.569,-413.509 193.127,-383.63 203,-360 207.133,-350.108 213.542,-340.408 220.028,-332.067"/>
<polygon fill="grey" stroke="grey" points="222.826,-334.175 226.458,-324.222 217.412,-329.737 222.826,-334.175"/>
</g>
<!-- 12&#45;&gt;11 -->
<g id="edge17" class="edge"><title>12&#45;&gt;11</title>
<path fill="none" stroke="grey" stroke-width="2" d="M205.82,-431.697C213.57,-423.22 223.039,-412.864 231.524,-403.583"/>
<polygon fill="grey" stroke="grey" points="234.197,-405.846 238.362,-396.104 229.031,-401.123 234.197,-405.846"/>
</g>
<!-- 13 -->
<g id="node14" class="node"><title>13</title>
<path fill="none" stroke="#c6d856" stroke-width="2" stroke-dasharray="5,2" d="M174.25,-540C174.25,-540 121.75,-540 121.75,-540 115.75,-540 109.75,-534 109.75,-528 109.75,-528 109.75,-516 109.75,-516 109.75,-510 115.75,-504 121.75,-504 121.75,-504 174.25,-504 174.25,-504 180.25,-504 186.25,-510 186.25,-516 186.25,-516 186.25,-528 186.25,-528 186.25,-534 180.25,-540 174.25,-540"/>
<text text-anchor="middle" x="148" y="-519.5" font-family="sans" font-size="10.00">tantan_good</text>
</g>
<!-- 13&#45;&gt;9 -->
<g id="edge15" class="edge"><title>13&#45;&gt;9</title>
<path fill="none" stroke="grey" stroke-width="2" d="M137.865,-503.697C133.148,-495.644 127.438,-485.894 122.218,-476.982"/>
<polygon fill="grey" stroke="grey" points="125.092,-474.964 117.018,-468.104 119.052,-478.502 125.092,-474.964"/>
</g>
<!-- 13&#45;&gt;12 -->
<g id="edge18" class="edge"><title>13&#45;&gt;12</title>
<path fill="none" stroke="grey" stroke-width="2" d="M158.382,-503.697C163.265,-495.559 169.187,-485.689 174.579,-476.701"/>
<polygon fill="grey" stroke="grey" points="177.594,-478.48 179.737,-468.104 171.591,-474.879 177.594,-478.48"/>
</g>
<!-- 14 -->
<g id="node15" class="node"><title>14</title>
<path fill="none" stroke="#56d8c9" stroke-width="2" stroke-dasharray="5,2" d="M163,-612C163,-612 133,-612 133,-612 127,-612 121,-606 121,-600 121,-600 121,-588 121,-588 121,-582 127,-576 133,-576 133,-576 163,-576 163,-576 169,-576 175,-582 175,-588 175,-588 175,-600 175,-600 175,-606 169,-612 163,-612"/>
<text text-anchor="middle" x="148" y="-591.5" font-family="sans" font-size="10.00">tantan</text>
</g>
<!-- 14&#45;&gt;13 -->
<g id="edge19" class="edge"><title>14&#45;&gt;13</title>
<path fill="none" stroke="grey" stroke-width="2" d="M148,-575.697C148,-567.983 148,-558.712 148,-550.112"/>
<polygon fill="grey" stroke="grey" points="151.5,-550.104 148,-540.104 144.5,-550.104 151.5,-550.104"/>
</g>
<!-- 15 -->
<g id="node16" class="node"><title>15</title>
<path fill="none" stroke="#d8c356" stroke-width="2" stroke-dasharray="5,2" d="M163,-684C163,-684 133,-684 133,-684 127,-684 121,-678 121,-672 121,-672 121,-660 121,-660 121,-654 127,-648 133,-648 133,-648 163,-648 163,-648 169,-648 175,-654 175,-660 175,-660 175,-672 175,-672 175,-678 169,-684 163,-684"/>
<text text-anchor="middle" x="148" y="-663.5" font-family="sans" font-size="10.00">cd_hit</text>
</g>
<!-- 15&#45;&gt;14 -->
<g id="edge20" class="edge"><title>15&#45;&gt;14</title>
<path fill="none" stroke="grey" stroke-width="2" d="M148,-647.697C148,-639.983 148,-630.712 148,-622.112"/>
<polygon fill="grey" stroke="grey" points="151.5,-622.104 148,-612.104 144.5,-622.104 151.5,-622.104"/>
</g>
<!-- 16 -->
<g id="node17" class="node"><title>16</title>
<path fill="none" stroke="#56a2d8" stroke-width="2" stroke-dasharray="5,2" d="M171.25,-756C171.25,-756 124.75,-756 124.75,-756 118.75,-756 112.75,-750 112.75,-744 112.75,-744 112.75,-732 112.75,-732 112.75,-726 118.75,-720 124.75,-720 124.75,-720 171.25,-720 171.25,-720 177.25,-720 183.25,-726 183.25,-732 183.25,-732 183.25,-744 183.25,-744 183.25,-750 177.25,-756 171.25,-756"/>
<text text-anchor="middle" x="148" y="-735.5" font-family="sans" font-size="10.00">fastq2fasta</text>
</g>
<!-- 16&#45;&gt;15 -->
<g id="edge21" class="edge"><title>16&#45;&gt;15</title>
<path fill="none" stroke="grey" stroke-width="2" d="M148,-719.697C148,-711.983 148,-702.712 148,-694.112"/>
<polygon fill="grey" stroke="grey" points="151.5,-694.104 148,-684.104 144.5,-694.104 151.5,-694.104"/>
</g>
<!-- 17 -->
<g id="node18" class="node"><title>17</title>
<path fill="none" stroke="#d87d56" stroke-width="2" stroke-dasharray="5,2" d="M176,-828C176,-828 120,-828 120,-828 114,-828 108,-822 108,-816 108,-816 108,-804 108,-804 108,-798 114,-792 120,-792 120,-792 176,-792 176,-792 182,-792 188,-798 188,-804 188,-804 188,-816 188,-816 188,-822 182,-828 176,-828"/>
<text text-anchor="middle" x="148" y="-807.5" font-family="sans" font-size="10.00">merge_reads</text>
</g>
<!-- 17&#45;&gt;16 -->
<g id="edge22" class="edge"><title>17&#45;&gt;16</title>
<path fill="none" stroke="grey" stroke-width="2" d="M148,-791.697C148,-783.983 148,-774.712 148,-766.112"/>
<polygon fill="grey" stroke="grey" points="151.5,-766.104 148,-756.104 144.5,-766.104 151.5,-766.104"/>
</g>
<!-- 18 -->
<g id="node19" class="node"><title>18</title>
<path fill="none" stroke="#56d87b" stroke-width="2" stroke-dasharray="5,2" d="M167,-900C167,-900 129,-900 129,-900 123,-900 117,-894 117,-888 117,-888 117,-876 117,-876 117,-870 123,-864 129,-864 129,-864 167,-864 167,-864 173,-864 179,-870 179,-876 179,-876 179,-888 179,-888 179,-894 173,-900 167,-900"/>
<text text-anchor="middle" x="148" y="-879.5" font-family="sans" font-size="10.00">fastq_join</text>
</g>
<!-- 18&#45;&gt;17 -->
<g id="edge23" class="edge"><title>18&#45;&gt;17</title>
<path fill="none" stroke="grey" stroke-width="2" d="M148,-863.697C148,-855.983 148,-846.712 148,-838.112"/>
<polygon fill="grey" stroke="grey" points="151.5,-838.104 148,-828.104 144.5,-838.104 151.5,-838.104"/>
</g>
<!-- 19 -->
<g id="node20" class="node"><title>19</title>
<path fill="none" stroke="#78d856" stroke-width="2" stroke-dasharray="5,2" d="M284,-972C284,-972 12,-972 12,-972 6,-972 0,-966 0,-960 0,-960 0,-948 0,-948 0,-942 6,-936 12,-936 12,-936 284,-936 284,-936 290,-936 296,-942 296,-948 296,-948 296,-960 296,-960 296,-966 290,-972 284,-972"/>
<text text-anchor="middle" x="148" y="-957" font-family="sans" font-size="10.00">fastp</text>
<text text-anchor="middle" x="148" y="-946" font-family="sans" font-size="10.00">sample: I1164_12629_Harvard_SIV_196_06_2_24_12_mini</text>
</g>
<!-- 19&#45;&gt;18 -->
<g id="edge24" class="edge"><title>19&#45;&gt;18</title>
<path fill="none" stroke="grey" stroke-width="2" d="M148,-935.697C148,-927.983 148,-918.712 148,-910.112"/>
<polygon fill="grey" stroke="grey" points="151.5,-910.104 148,-900.104 144.5,-910.104 151.5,-910.104"/>
</g>
</g>
</svg>
