<?xml version="1.0" encoding="UTF-8" standalone="no"?>
<!DOCTYPE svg PUBLIC "-//W3C//DTD SVG 1.1//EN"
 "http://www.w3.org/Graphics/SVG/1.1/DTD/svg11.dtd">
<!-- Generated by graphviz version 2.30.1 (20150306.0020)
 -->
<!-- Title: snakemake_dag Pages: 1 -->
<svg width="591pt" height="836pt"
 viewBox="0.00 0.00 591.00 836.00" xmlns="http://www.w3.org/2000/svg" xmlns:xlink="http://www.w3.org/1999/xlink">
<g id="graph0" class="graph" transform="scale(1 1) rotate(0) translate(4 832)">
<title>snakemake_dag</title>
<polygon fill="white" stroke="white" points="-4,5 -4,-832 588,-832 588,5 -4,5"/>
<!-- 0 -->
<g id="node1" class="node"><title>0</title>
<path fill="none" stroke="#56d8d8" stroke-width="2" d="M306,-36C306,-36 276,-36 276,-36 270,-36 264,-30 264,-24 264,-24 264,-12 264,-12 264,-6 270,-0 276,-0 276,-0 306,-0 306,-0 312,-0 318,-6 318,-12 318,-12 318,-24 318,-24 318,-30 312,-36 306,-36"/>
<text text-anchor="middle" x="291" y="-15.5" font-family="sans" font-size="10.00">all</text>
</g>
<!-- 1 -->
<g id="node2" class="node"><title>1</title>
<path fill="none" stroke="#56a9d8" stroke-width="2" stroke-dasharray="5,2" d="M152,-108C152,-108 110,-108 110,-108 104,-108 98,-102 98,-96 98,-96 98,-84 98,-84 98,-78 104,-72 110,-72 110,-72 152,-72 152,-72 158,-72 164,-78 164,-84 164,-84 164,-96 164,-96 164,-102 158,-108 152,-108"/>
<text text-anchor="middle" x="131" y="-87.5" font-family="sans" font-size="10.00">bwa_mem</text>
</g>
<!-- 1&#45;&gt;0 -->
<g id="edge1" class="edge"><title>1&#45;&gt;0</title>
<path fill="none" stroke="grey" stroke-width="2" d="M164.152,-74.496C190.599,-62.9254 227.593,-46.7406 254.808,-34.8342"/>
<polygon fill="grey" stroke="grey" points="256.234,-38.0306 263.993,-30.8158 253.428,-31.6175 256.234,-38.0306"/>
</g>
<!-- 2 -->
<g id="node3" class="node"><title>2</title>
<path fill="none" stroke="#56a9d8" stroke-width="2" d="M366,-108C366,-108 324,-108 324,-108 318,-108 312,-102 312,-96 312,-96 312,-84 312,-84 312,-78 318,-72 324,-72 324,-72 366,-72 366,-72 372,-72 378,-78 378,-84 378,-84 378,-96 378,-96 378,-102 372,-108 366,-108"/>
<text text-anchor="middle" x="345" y="-87.5" font-family="sans" font-size="10.00">bwa_mem</text>
</g>
<!-- 2&#45;&gt;0 -->
<g id="edge2" class="edge"><title>2&#45;&gt;0</title>
<path fill="none" stroke="grey" stroke-width="2" d="M331.652,-71.6966C325.243,-63.3893 317.442,-53.2771 310.394,-44.1407"/>
<polygon fill="grey" stroke="grey" points="313.074,-41.8844 304.195,-36.1043 307.532,-46.16 313.074,-41.8844"/>
</g>
<!-- 3 -->
<g id="node4" class="node"><title>3</title>
<path fill="none" stroke="#56a9d8" stroke-width="2" stroke-dasharray="5,2" d="M259,-108C259,-108 217,-108 217,-108 211,-108 205,-102 205,-96 205,-96 205,-84 205,-84 205,-78 211,-72 217,-72 217,-72 259,-72 259,-72 265,-72 271,-78 271,-84 271,-84 271,-96 271,-96 271,-102 265,-108 259,-108"/>
<text text-anchor="middle" x="238" y="-87.5" font-family="sans" font-size="10.00">bwa_mem</text>
</g>
<!-- 3&#45;&gt;0 -->
<g id="edge3" class="edge"><title>3&#45;&gt;0</title>
<path fill="none" stroke="grey" stroke-width="2" d="M251.101,-71.6966C257.391,-63.3893 265.047,-53.2771 271.965,-44.1407"/>
<polygon fill="grey" stroke="grey" points="274.804,-46.1897 278.05,-36.1043 269.223,-41.9642 274.804,-46.1897"/>
</g>
<!-- 4 -->
<g id="node5" class="node"><title>4</title>
<path fill="none" stroke="#56a9d8" stroke-width="2" d="M485,-108C485,-108 443,-108 443,-108 437,-108 431,-102 431,-96 431,-96 431,-84 431,-84 431,-78 437,-72 443,-72 443,-72 485,-72 485,-72 491,-72 497,-78 497,-84 497,-84 497,-96 497,-96 497,-102 491,-108 485,-108"/>
<text text-anchor="middle" x="464" y="-87.5" font-family="sans" font-size="10.00">bwa_mem</text>
</g>
<!-- 4&#45;&gt;0 -->
<g id="edge4" class="edge"><title>4&#45;&gt;0</title>
<path fill="none" stroke="grey" stroke-width="2" d="M430.644,-75.5033C401.052,-63.5297 357.912,-46.0742 327.427,-33.7393"/>
<polygon fill="grey" stroke="grey" points="328.59,-30.4343 318.007,-29.9279 325.965,-36.9233 328.59,-30.4343"/>
</g>
<!-- 5 -->
<g id="node6" class="node"><title>5</title>
<path fill="none" stroke="#59d856" stroke-width="2" stroke-dasharray="5,2" d="M139.25,-180C139.25,-180 50.75,-180 50.75,-180 44.75,-180 38.75,-174 38.75,-168 38.75,-168 38.75,-156 38.75,-156 38.75,-150 44.75,-144 50.75,-144 50.75,-144 139.25,-144 139.25,-144 145.25,-144 151.25,-150 151.25,-156 151.25,-156 151.25,-168 151.25,-168 151.25,-174 145.25,-180 139.25,-180"/>
<text text-anchor="middle" x="95" y="-159.5" font-family="sans" font-size="10.00">repeatmasker_good</text>
</g>
<!-- 5&#45;&gt;1 -->
<g id="edge5" class="edge"><title>5&#45;&gt;1</title>
<path fill="none" stroke="grey" stroke-width="2" d="M103.899,-143.697C107.997,-135.728 112.949,-126.1 117.493,-117.264"/>
<polygon fill="grey" stroke="grey" points="120.742,-118.598 122.203,-108.104 114.517,-115.396 120.742,-118.598"/>
</g>
<!-- 6 -->
<g id="node7" class="node"><title>6</title>
<path fill="none" stroke="#59d856" stroke-width="2" d="M401.25,-180C401.25,-180 312.75,-180 312.75,-180 306.75,-180 300.75,-174 300.75,-168 300.75,-168 300.75,-156 300.75,-156 300.75,-150 306.75,-144 312.75,-144 312.75,-144 401.25,-144 401.25,-144 407.25,-144 413.25,-150 413.25,-156 413.25,-156 413.25,-168 413.25,-168 413.25,-174 407.25,-180 401.25,-180"/>
<text text-anchor="middle" x="357" y="-159.5" font-family="sans" font-size="10.00">repeatmasker_good</text>
</g>
<!-- 6&#45;&gt;2 -->
<g id="edge6" class="edge"><title>6&#45;&gt;2</title>
<path fill="none" stroke="grey" stroke-width="2" d="M354.034,-143.697C352.711,-135.983 351.122,-126.712 349.648,-118.112"/>
<polygon fill="grey" stroke="grey" points="353.072,-117.369 347.932,-108.104 346.172,-118.552 353.072,-117.369"/>
</g>
<!-- 7 -->
<g id="node8" class="node"><title>7</title>
<path fill="none" stroke="#59d856" stroke-width="2" stroke-dasharray="5,2" d="M270.25,-180C270.25,-180 181.75,-180 181.75,-180 175.75,-180 169.75,-174 169.75,-168 169.75,-168 169.75,-156 169.75,-156 169.75,-150 175.75,-144 181.75,-144 181.75,-144 270.25,-144 270.25,-144 276.25,-144 282.25,-150 282.25,-156 282.25,-156 282.25,-168 282.25,-168 282.25,-174 276.25,-180 270.25,-180"/>
<text text-anchor="middle" x="226" y="-159.5" font-family="sans" font-size="10.00">repeatmasker_good</text>
</g>
<!-- 7&#45;&gt;3 -->
<g id="edge7" class="edge"><title>7&#45;&gt;3</title>
<path fill="none" stroke="grey" stroke-width="2" d="M228.966,-143.697C230.289,-135.983 231.878,-126.712 233.352,-118.112"/>
<polygon fill="grey" stroke="grey" points="236.828,-118.552 235.068,-108.104 229.928,-117.369 236.828,-118.552"/>
</g>
<!-- 8 -->
<g id="node9" class="node"><title>8</title>
<path fill="none" stroke="#59d856" stroke-width="2" d="M532.25,-180C532.25,-180 443.75,-180 443.75,-180 437.75,-180 431.75,-174 431.75,-168 431.75,-168 431.75,-156 431.75,-156 431.75,-150 437.75,-144 443.75,-144 443.75,-144 532.25,-144 532.25,-144 538.25,-144 544.25,-150 544.25,-156 544.25,-156 544.25,-168 544.25,-168 544.25,-174 538.25,-180 532.25,-180"/>
<text text-anchor="middle" x="488" y="-159.5" font-family="sans" font-size="10.00">repeatmasker_good</text>
</g>
<!-- 8&#45;&gt;4 -->
<g id="edge8" class="edge"><title>8&#45;&gt;4</title>
<path fill="none" stroke="grey" stroke-width="2" d="M482.067,-143.697C479.394,-135.898 476.174,-126.509 473.199,-117.829"/>
<polygon fill="grey" stroke="grey" points="476.418,-116.429 469.864,-108.104 469.797,-118.699 476.418,-116.429"/>
</g>
<!-- 9 -->
<g id="node10" class="node"><title>9</title>
<path fill="none" stroke="#d88556" stroke-width="2" stroke-dasharray="5,2" d="M143,-252C143,-252 83,-252 83,-252 77,-252 71,-246 71,-240 71,-240 71,-228 71,-228 71,-222 77,-216 83,-216 83,-216 143,-216 143,-216 149,-216 155,-222 155,-228 155,-228 155,-240 155,-240 155,-246 149,-252 143,-252"/>
<text text-anchor="middle" x="113" y="-231.5" font-family="sans" font-size="10.00">repeatmasker</text>
</g>
<!-- 9&#45;&gt;5 -->
<g id="edge9" class="edge"><title>9&#45;&gt;5</title>
<path fill="none" stroke="grey" stroke-width="2" d="M108.551,-215.697C106.545,-207.898 104.131,-198.509 101.899,-189.829"/>
<polygon fill="grey" stroke="grey" points="105.278,-188.918 99.3983,-180.104 98.499,-190.661 105.278,-188.918"/>
</g>
<!-- 10 -->
<g id="node11" class="node"><title>10</title>
<path fill="none" stroke="#5682d8" stroke-width="2" stroke-dasharray="5,2" d="M127.25,-324C127.25,-324 86.75,-324 86.75,-324 80.75,-324 74.75,-318 74.75,-312 74.75,-312 74.75,-300 74.75,-300 74.75,-294 80.75,-288 86.75,-288 86.75,-288 127.25,-288 127.25,-288 133.25,-288 139.25,-294 139.25,-300 139.25,-300 139.25,-312 139.25,-312 139.25,-318 133.25,-324 127.25,-324"/>
<text text-anchor="middle" x="107" y="-309" font-family="sans" font-size="10.00">split_fasta</text>
<text text-anchor="middle" x="107" y="-298" font-family="sans" font-size="10.00">n: 1</text>
</g>
<!-- 10&#45;&gt;5 -->
<g id="edge10" class="edge"><title>10&#45;&gt;5</title>
<path fill="none" stroke="grey" stroke-width="2" d="M86.6214,-287.531C77.1934,-278.092 66.9936,-265.597 62,-252 56.484,-236.981 57.6021,-231.384 62,-216 64.7131,-206.51 69.6715,-197.065 74.9347,-188.834"/>
<polygon fill="grey" stroke="grey" points="77.9221,-190.666 80.6735,-180.434 72.1423,-186.717 77.9221,-190.666"/>
</g>
<!-- 10&#45;&gt;9 -->
<g id="edge17" class="edge"><title>10&#45;&gt;9</title>
<path fill="none" stroke="grey" stroke-width="2" d="M108.483,-287.697C109.144,-279.983 109.939,-270.712 110.676,-262.112"/>
<polygon fill="grey" stroke="grey" points="114.167,-262.367 111.534,-252.104 107.193,-261.769 114.167,-262.367"/>
</g>
<!-- 11 -->
<g id="node12" class="node"><title>11</title>
<path fill="none" stroke="#d88556" stroke-width="2" d="M429,-252C429,-252 369,-252 369,-252 363,-252 357,-246 357,-240 357,-240 357,-228 357,-228 357,-222 363,-216 369,-216 369,-216 429,-216 429,-216 435,-216 441,-222 441,-228 441,-228 441,-240 441,-240 441,-246 435,-252 429,-252"/>
<text text-anchor="middle" x="399" y="-231.5" font-family="sans" font-size="10.00">repeatmasker</text>
</g>
<!-- 11&#45;&gt;6 -->
<g id="edge11" class="edge"><title>11&#45;&gt;6</title>
<path fill="none" stroke="grey" stroke-width="2" d="M388.618,-215.697C383.735,-207.559 377.813,-197.689 372.421,-188.701"/>
<polygon fill="grey" stroke="grey" points="375.409,-186.879 367.263,-180.104 369.406,-190.48 375.409,-186.879"/>
</g>
<!-- 12 -->
<g id="node13" class="node"><title>12</title>
<path fill="none" stroke="#5682d8" stroke-width="2" d="M414.25,-324C414.25,-324 373.75,-324 373.75,-324 367.75,-324 361.75,-318 361.75,-312 361.75,-312 361.75,-300 361.75,-300 361.75,-294 367.75,-288 373.75,-288 373.75,-288 414.25,-288 414.25,-288 420.25,-288 426.25,-294 426.25,-300 426.25,-300 426.25,-312 426.25,-312 426.25,-318 420.25,-324 414.25,-324"/>
<text text-anchor="middle" x="394" y="-309" font-family="sans" font-size="10.00">split_fasta</text>
<text text-anchor="middle" x="394" y="-298" font-family="sans" font-size="10.00">n: 1</text>
</g>
<!-- 12&#45;&gt;6 -->
<g id="edge12" class="edge"><title>12&#45;&gt;6</title>
<path fill="none" stroke="grey" stroke-width="2" d="M373.177,-287.615C363.542,-278.198 353.115,-265.697 348,-252 340.597,-232.176 343.624,-208.242 348.076,-190.188"/>
<polygon fill="grey" stroke="grey" points="351.514,-190.884 350.793,-180.314 344.765,-189.027 351.514,-190.884"/>
</g>
<!-- 12&#45;&gt;11 -->
<g id="edge19" class="edge"><title>12&#45;&gt;11</title>
<path fill="none" stroke="grey" stroke-width="2" d="M395.236,-287.697C395.787,-279.983 396.449,-270.712 397.063,-262.112"/>
<polygon fill="grey" stroke="grey" points="400.557,-262.328 397.778,-252.104 393.575,-261.83 400.557,-262.328"/>
</g>
<!-- 13 -->
<g id="node14" class="node"><title>13</title>
<path fill="none" stroke="#d88556" stroke-width="2" stroke-dasharray="5,2" d="M286,-252C286,-252 226,-252 226,-252 220,-252 214,-246 214,-240 214,-240 214,-228 214,-228 214,-222 220,-216 226,-216 226,-216 286,-216 286,-216 292,-216 298,-222 298,-228 298,-228 298,-240 298,-240 298,-246 292,-252 286,-252"/>
<text text-anchor="middle" x="256" y="-231.5" font-family="sans" font-size="10.00">repeatmasker</text>
</g>
<!-- 13&#45;&gt;7 -->
<g id="edge13" class="edge"><title>13&#45;&gt;7</title>
<path fill="none" stroke="grey" stroke-width="2" d="M248.584,-215.697C245.206,-207.813 241.13,-198.304 237.377,-189.546"/>
<polygon fill="grey" stroke="grey" points="240.487,-187.917 233.33,-180.104 234.053,-190.675 240.487,-187.917"/>
</g>
<!-- 14 -->
<g id="node15" class="node"><title>14</title>
<path fill="none" stroke="#5682d8" stroke-width="2" stroke-dasharray="5,2" d="M210.25,-324C210.25,-324 169.75,-324 169.75,-324 163.75,-324 157.75,-318 157.75,-312 157.75,-312 157.75,-300 157.75,-300 157.75,-294 163.75,-288 169.75,-288 169.75,-288 210.25,-288 210.25,-288 216.25,-288 222.25,-294 222.25,-300 222.25,-300 222.25,-312 222.25,-312 222.25,-318 216.25,-324 210.25,-324"/>
<text text-anchor="middle" x="190" y="-309" font-family="sans" font-size="10.00">split_fasta</text>
<text text-anchor="middle" x="190" y="-298" font-family="sans" font-size="10.00">n: 2</text>
</g>
<!-- 14&#45;&gt;7 -->
<g id="edge14" class="edge"><title>14&#45;&gt;7</title>
<path fill="none" stroke="grey" stroke-width="2" d="M191.822,-287.703C193.983,-269.596 198.178,-240.45 205,-216 207.447,-207.229 210.848,-197.918 214.2,-189.587"/>
<polygon fill="grey" stroke="grey" points="217.434,-190.925 218.054,-180.348 210.974,-188.23 217.434,-190.925"/>
</g>
<!-- 14&#45;&gt;13 -->
<g id="edge21" class="edge"><title>14&#45;&gt;13</title>
<path fill="none" stroke="grey" stroke-width="2" d="M206.315,-287.697C214.307,-279.22 224.072,-268.864 232.822,-259.583"/>
<polygon fill="grey" stroke="grey" points="235.559,-261.781 239.873,-252.104 230.466,-256.979 235.559,-261.781"/>
</g>
<!-- 15 -->
<g id="node16" class="node"><title>15</title>
<path fill="none" stroke="#d88556" stroke-width="2" d="M571,-252C571,-252 511,-252 511,-252 505,-252 499,-246 499,-240 499,-240 499,-228 499,-228 499,-222 505,-216 511,-216 511,-216 571,-216 571,-216 577,-216 583,-222 583,-228 583,-228 583,-240 583,-240 583,-246 577,-252 571,-252"/>
<text text-anchor="middle" x="541" y="-231.5" font-family="sans" font-size="10.00">repeatmasker</text>
</g>
<!-- 15&#45;&gt;8 -->
<g id="edge15" class="edge"><title>15&#45;&gt;8</title>
<path fill="none" stroke="grey" stroke-width="2" d="M527.899,-215.697C521.609,-207.389 513.953,-197.277 507.035,-188.141"/>
<polygon fill="grey" stroke="grey" points="509.777,-185.964 500.95,-180.104 504.196,-190.19 509.777,-185.964"/>
</g>
<!-- 16 -->
<g id="node17" class="node"><title>16</title>
<path fill="none" stroke="#5682d8" stroke-width="2" d="M497.25,-324C497.25,-324 456.75,-324 456.75,-324 450.75,-324 444.75,-318 444.75,-312 444.75,-312 444.75,-300 444.75,-300 444.75,-294 450.75,-288 456.75,-288 456.75,-288 497.25,-288 497.25,-288 503.25,-288 509.25,-294 509.25,-300 509.25,-300 509.25,-312 509.25,-312 509.25,-318 503.25,-324 497.25,-324"/>
<text text-anchor="middle" x="477" y="-309" font-family="sans" font-size="10.00">split_fasta</text>
<text text-anchor="middle" x="477" y="-298" font-family="sans" font-size="10.00">n: 2</text>
</g>
<!-- 16&#45;&gt;8 -->
<g id="edge16" class="edge"><title>16&#45;&gt;8</title>
<path fill="none" stroke="grey" stroke-width="2" d="M478.327,-287.871C480.202,-263.67 483.646,-219.211 485.878,-190.393"/>
<polygon fill="grey" stroke="grey" points="489.386,-190.43 486.668,-180.189 482.406,-189.889 489.386,-190.43"/>
</g>
<!-- 16&#45;&gt;15 -->
<g id="edge23" class="edge"><title>16&#45;&gt;15</title>
<path fill="none" stroke="grey" stroke-width="2" d="M492.82,-287.697C500.57,-279.22 510.039,-268.864 518.524,-259.583"/>
<polygon fill="grey" stroke="grey" points="521.197,-261.846 525.362,-252.104 516.031,-257.123 521.197,-261.846"/>
</g>
<!-- 17 -->
<g id="node18" class="node"><title>17</title>
<path fill="none" stroke="#d8ac56" stroke-width="2" stroke-dasharray="5,2" d="M174.25,-396C174.25,-396 121.75,-396 121.75,-396 115.75,-396 109.75,-390 109.75,-384 109.75,-384 109.75,-372 109.75,-372 109.75,-366 115.75,-360 121.75,-360 121.75,-360 174.25,-360 174.25,-360 180.25,-360 186.25,-366 186.25,-372 186.25,-372 186.25,-384 186.25,-384 186.25,-390 180.25,-396 174.25,-396"/>
<text text-anchor="middle" x="148" y="-375.5" font-family="sans" font-size="10.00">tantan_good</text>
</g>
<!-- 17&#45;&gt;10 -->
<g id="edge18" class="edge"><title>17&#45;&gt;10</title>
<path fill="none" stroke="grey" stroke-width="2" d="M137.865,-359.697C133.148,-351.644 127.438,-341.894 122.218,-332.982"/>
<polygon fill="grey" stroke="grey" points="125.092,-330.964 117.018,-324.104 119.052,-334.502 125.092,-330.964"/>
</g>
<!-- 17&#45;&gt;14 -->
<g id="edge22" class="edge"><title>17&#45;&gt;14</title>
<path fill="none" stroke="grey" stroke-width="2" d="M158.382,-359.697C163.265,-351.559 169.187,-341.689 174.579,-332.701"/>
<polygon fill="grey" stroke="grey" points="177.594,-334.48 179.737,-324.104 171.591,-330.879 177.594,-334.48"/>
</g>
<!-- 18 -->
<g id="node19" class="node"><title>18</title>
<path fill="none" stroke="#d8ac56" stroke-width="2" d="M441.25,-396C441.25,-396 388.75,-396 388.75,-396 382.75,-396 376.75,-390 376.75,-384 376.75,-384 376.75,-372 376.75,-372 376.75,-366 382.75,-360 388.75,-360 388.75,-360 441.25,-360 441.25,-360 447.25,-360 453.25,-366 453.25,-372 453.25,-372 453.25,-384 453.25,-384 453.25,-390 447.25,-396 441.25,-396"/>
<text text-anchor="middle" x="415" y="-375.5" font-family="sans" font-size="10.00">tantan_good</text>
</g>
<!-- 18&#45;&gt;12 -->
<g id="edge20" class="edge"><title>18&#45;&gt;12</title>
<path fill="none" stroke="grey" stroke-width="2" d="M409.809,-359.697C407.469,-351.898 404.653,-342.509 402.049,-333.829"/>
<polygon fill="grey" stroke="grey" points="405.357,-332.677 399.131,-324.104 398.652,-334.688 405.357,-332.677"/>
</g>
<!-- 18&#45;&gt;16 -->
<g id="edge24" class="edge"><title>18&#45;&gt;16</title>
<path fill="none" stroke="grey" stroke-width="2" d="M430.326,-359.697C437.759,-351.305 446.823,-341.07 454.98,-331.861"/>
<polygon fill="grey" stroke="grey" points="457.84,-333.911 461.85,-324.104 452.6,-329.27 457.84,-333.911"/>
</g>
<!-- 19 -->
<g id="node20" class="node"><title>19</title>
<path fill="none" stroke="#80d856" stroke-width="2" stroke-dasharray="5,2" d="M163,-468C163,-468 133,-468 133,-468 127,-468 121,-462 121,-456 121,-456 121,-444 121,-444 121,-438 127,-432 133,-432 133,-432 163,-432 163,-432 169,-432 175,-438 175,-444 175,-444 175,-456 175,-456 175,-462 169,-468 163,-468"/>
<text text-anchor="middle" x="148" y="-447.5" font-family="sans" font-size="10.00">tantan</text>
</g>
<!-- 19&#45;&gt;17 -->
<g id="edge25" class="edge"><title>19&#45;&gt;17</title>
<path fill="none" stroke="grey" stroke-width="2" d="M148,-431.697C148,-423.983 148,-414.712 148,-406.112"/>
<polygon fill="grey" stroke="grey" points="151.5,-406.104 148,-396.104 144.5,-406.104 151.5,-406.104"/>
</g>
<!-- 20 -->
<g id="node21" class="node"><title>20</title>
<path fill="none" stroke="#80d856" stroke-width="2" d="M430,-468C430,-468 400,-468 400,-468 394,-468 388,-462 388,-456 388,-456 388,-444 388,-444 388,-438 394,-432 400,-432 400,-432 430,-432 430,-432 436,-432 442,-438 442,-444 442,-444 442,-456 442,-456 442,-462 436,-468 430,-468"/>
<text text-anchor="middle" x="415" y="-447.5" font-family="sans" font-size="10.00">tantan</text>
</g>
<!-- 20&#45;&gt;18 -->
<g id="edge26" class="edge"><title>20&#45;&gt;18</title>
<path fill="none" stroke="grey" stroke-width="2" d="M415,-431.697C415,-423.983 415,-414.712 415,-406.112"/>
<polygon fill="grey" stroke="grey" points="418.5,-406.104 415,-396.104 411.5,-406.104 418.5,-406.104"/>
</g>
<!-- 21 -->
<g id="node22" class="node"><title>21</title>
<path fill="none" stroke="#d6d856" stroke-width="2" stroke-dasharray="5,2" d="M163,-540C163,-540 133,-540 133,-540 127,-540 121,-534 121,-528 121,-528 121,-516 121,-516 121,-510 127,-504 133,-504 133,-504 163,-504 163,-504 169,-504 175,-510 175,-516 175,-516 175,-528 175,-528 175,-534 169,-540 163,-540"/>
<text text-anchor="middle" x="148" y="-519.5" font-family="sans" font-size="10.00">cd_hit</text>
</g>
<!-- 21&#45;&gt;19 -->
<g id="edge27" class="edge"><title>21&#45;&gt;19</title>
<path fill="none" stroke="grey" stroke-width="2" d="M148,-503.697C148,-495.983 148,-486.712 148,-478.112"/>
<polygon fill="grey" stroke="grey" points="151.5,-478.104 148,-468.104 144.5,-478.104 151.5,-478.104"/>
</g>
<!-- 22 -->
<g id="node23" class="node"><title>22</title>
<path fill="none" stroke="#d6d856" stroke-width="2" d="M430,-540C430,-540 400,-540 400,-540 394,-540 388,-534 388,-528 388,-528 388,-516 388,-516 388,-510 394,-504 400,-504 400,-504 430,-504 430,-504 436,-504 442,-510 442,-516 442,-516 442,-528 442,-528 442,-534 436,-540 430,-540"/>
<text text-anchor="middle" x="415" y="-519.5" font-family="sans" font-size="10.00">cd_hit</text>
</g>
<!-- 22&#45;&gt;20 -->
<g id="edge28" class="edge"><title>22&#45;&gt;20</title>
<path fill="none" stroke="grey" stroke-width="2" d="M415,-503.697C415,-495.983 415,-486.712 415,-478.112"/>
<polygon fill="grey" stroke="grey" points="418.5,-478.104 415,-468.104 411.5,-478.104 418.5,-478.104"/>
</g>
<!-- 23 -->
<g id="node24" class="node"><title>23</title>
<path fill="none" stroke="#56d882" stroke-width="2" stroke-dasharray="5,2" d="M171.25,-612C171.25,-612 124.75,-612 124.75,-612 118.75,-612 112.75,-606 112.75,-600 112.75,-600 112.75,-588 112.75,-588 112.75,-582 118.75,-576 124.75,-576 124.75,-576 171.25,-576 171.25,-576 177.25,-576 183.25,-582 183.25,-588 183.25,-588 183.25,-600 183.25,-600 183.25,-606 177.25,-612 171.25,-612"/>
<text text-anchor="middle" x="148" y="-591.5" font-family="sans" font-size="10.00">fastq2fasta</text>
</g>
<!-- 23&#45;&gt;21 -->
<g id="edge29" class="edge"><title>23&#45;&gt;21</title>
<path fill="none" stroke="grey" stroke-width="2" d="M148,-575.697C148,-567.983 148,-558.712 148,-550.112"/>
<polygon fill="grey" stroke="grey" points="151.5,-550.104 148,-540.104 144.5,-550.104 151.5,-550.104"/>
</g>
<!-- 24 -->
<g id="node25" class="node"><title>24</title>
<path fill="none" stroke="#56d882" stroke-width="2" d="M438.25,-612C438.25,-612 391.75,-612 391.75,-612 385.75,-612 379.75,-606 379.75,-600 379.75,-600 379.75,-588 379.75,-588 379.75,-582 385.75,-576 391.75,-576 391.75,-576 438.25,-576 438.25,-576 444.25,-576 450.25,-582 450.25,-588 450.25,-588 450.25,-600 450.25,-600 450.25,-606 444.25,-612 438.25,-612"/>
<text text-anchor="middle" x="415" y="-591.5" font-family="sans" font-size="10.00">fastq2fasta</text>
</g>
<!-- 24&#45;&gt;22 -->
<g id="edge30" class="edge"><title>24&#45;&gt;22</title>
<path fill="none" stroke="grey" stroke-width="2" d="M415,-575.697C415,-567.983 415,-558.712 415,-550.112"/>
<polygon fill="grey" stroke="grey" points="418.5,-550.104 415,-540.104 411.5,-550.104 418.5,-550.104"/>
</g>
<!-- 25 -->
<g id="node26" class="node"><title>25</title>
<path fill="none" stroke="#d85656" stroke-width="2" stroke-dasharray="5,2" d="M176,-684C176,-684 120,-684 120,-684 114,-684 108,-678 108,-672 108,-672 108,-660 108,-660 108,-654 114,-648 120,-648 120,-648 176,-648 176,-648 182,-648 188,-654 188,-660 188,-660 188,-672 188,-672 188,-678 182,-684 176,-684"/>
<text text-anchor="middle" x="148" y="-663.5" font-family="sans" font-size="10.00">merge_reads</text>
</g>
<!-- 25&#45;&gt;23 -->
<g id="edge31" class="edge"><title>25&#45;&gt;23</title>
<path fill="none" stroke="grey" stroke-width="2" d="M148,-647.697C148,-639.983 148,-630.712 148,-622.112"/>
<polygon fill="grey" stroke="grey" points="151.5,-622.104 148,-612.104 144.5,-622.104 151.5,-622.104"/>
</g>
<!-- 26 -->
<g id="node27" class="node"><title>26</title>
<path fill="none" stroke="#d85656" stroke-width="2" d="M443,-684C443,-684 387,-684 387,-684 381,-684 375,-678 375,-672 375,-672 375,-660 375,-660 375,-654 381,-648 387,-648 387,-648 443,-648 443,-648 449,-648 455,-654 455,-660 455,-660 455,-672 455,-672 455,-678 449,-684 443,-684"/>
<text text-anchor="middle" x="415" y="-663.5" font-family="sans" font-size="10.00">merge_reads</text>
</g>
<!-- 26&#45;&gt;24 -->
<g id="edge32" class="edge"><title>26&#45;&gt;24</title>
<path fill="none" stroke="grey" stroke-width="2" d="M415,-647.697C415,-639.983 415,-630.712 415,-622.112"/>
<polygon fill="grey" stroke="grey" points="418.5,-622.104 415,-612.104 411.5,-622.104 418.5,-622.104"/>
</g>
<!-- 27 -->
<g id="node28" class="node"><title>27</title>
<path fill="none" stroke="#afd856" stroke-width="2" stroke-dasharray="5,2" d="M167,-756C167,-756 129,-756 129,-756 123,-756 117,-750 117,-744 117,-744 117,-732 117,-732 117,-726 123,-720 129,-720 129,-720 167,-720 167,-720 173,-720 179,-726 179,-732 179,-732 179,-744 179,-744 179,-750 173,-756 167,-756"/>
<text text-anchor="middle" x="148" y="-735.5" font-family="sans" font-size="10.00">fastq_join</text>
</g>
<!-- 27&#45;&gt;25 -->
<g id="edge33" class="edge"><title>27&#45;&gt;25</title>
<path fill="none" stroke="grey" stroke-width="2" d="M148,-719.697C148,-711.983 148,-702.712 148,-694.112"/>
<polygon fill="grey" stroke="grey" points="151.5,-694.104 148,-684.104 144.5,-694.104 151.5,-694.104"/>
</g>
<!-- 28 -->
<g id="node29" class="node"><title>28</title>
<path fill="none" stroke="#afd856" stroke-width="2" d="M434,-756C434,-756 396,-756 396,-756 390,-756 384,-750 384,-744 384,-744 384,-732 384,-732 384,-726 390,-720 396,-720 396,-720 434,-720 434,-720 440,-720 446,-726 446,-732 446,-732 446,-744 446,-744 446,-750 440,-756 434,-756"/>
<text text-anchor="middle" x="415" y="-735.5" font-family="sans" font-size="10.00">fastq_join</text>
</g>
<!-- 28&#45;&gt;26 -->
<g id="edge34" class="edge"><title>28&#45;&gt;26</title>
<path fill="none" stroke="grey" stroke-width="2" d="M415,-719.697C415,-711.983 415,-702.712 415,-694.112"/>
<polygon fill="grey" stroke="grey" points="418.5,-694.104 415,-684.104 411.5,-694.104 418.5,-694.104"/>
</g>
<!-- 29 -->
<g id="node30" class="node"><title>29</title>
<path fill="none" stroke="#56d8a9" stroke-width="2" stroke-dasharray="5,2" d="M284,-828C284,-828 12,-828 12,-828 6,-828 0,-822 0,-816 0,-816 0,-804 0,-804 0,-798 6,-792 12,-792 12,-792 284,-792 284,-792 290,-792 296,-798 296,-804 296,-804 296,-816 296,-816 296,-822 290,-828 284,-828"/>
<text text-anchor="middle" x="148" y="-813" font-family="sans" font-size="10.00">fastp</text>
<text text-anchor="middle" x="148" y="-802" font-family="sans" font-size="10.00">sample: I1164_12629_Harvard_SIV_196_06_2_24_12_mini</text>
</g>
<!-- 29&#45;&gt;27 -->
<g id="edge35" class="edge"><title>29&#45;&gt;27</title>
<path fill="none" stroke="grey" stroke-width="2" d="M148,-791.697C148,-783.983 148,-774.712 148,-766.112"/>
<polygon fill="grey" stroke="grey" points="151.5,-766.104 148,-756.104 144.5,-766.104 151.5,-766.104"/>
</g>
<!-- 30 -->
<g id="node31" class="node"><title>30</title>
<path fill="none" stroke="#56d8a9" stroke-width="2" d="M464,-828C464,-828 366,-828 366,-828 360,-828 354,-822 354,-816 354,-816 354,-804 354,-804 354,-798 360,-792 366,-792 366,-792 464,-792 464,-792 470,-792 476,-798 476,-804 476,-804 476,-816 476,-816 476,-822 470,-828 464,-828"/>
<text text-anchor="middle" x="415" y="-813" font-family="sans" font-size="10.00">fastp</text>
<text text-anchor="middle" x="415" y="-802" font-family="sans" font-size="10.00">sample: test_seq_001</text>
</g>
<!-- 30&#45;&gt;28 -->
<g id="edge36" class="edge"><title>30&#45;&gt;28</title>
<path fill="none" stroke="grey" stroke-width="2" d="M415,-791.697C415,-783.983 415,-774.712 415,-766.112"/>
<polygon fill="grey" stroke="grey" points="418.5,-766.104 415,-756.104 411.5,-766.104 418.5,-766.104"/>
</g>
</g>
</svg>
