<?xml version="1.0" encoding="UTF-8" standalone="no"?>
<!DOCTYPE svg PUBLIC "-//W3C//DTD SVG 1.1//EN"
 "http://www.w3.org/Graphics/SVG/1.1/DTD/svg11.dtd">
<!-- Generated by graphviz version 2.30.1 (20180420.1509)
 -->
<!-- Title: snakemake_dag Pages: 1 -->
<svg width="1187pt" height="1844pt"
 viewBox="0.00 0.00 1187.00 1844.00" xmlns="http://www.w3.org/2000/svg" xmlns:xlink="http://www.w3.org/1999/xlink">
<g id="graph0" class="graph" transform="scale(1 1) rotate(0) translate(4 1840)">
<title>snakemake_dag</title>
<polygon fill="white" stroke="white" points="-4,5 -4,-1840 1184,-1840 1184,5 -4,5"/>
<!-- 0 -->
<g id="node1" class="node"><title>0</title>
<path fill="none" stroke="#8fd856" stroke-width="2" d="M370,-36C370,-36 340,-36 340,-36 334,-36 328,-30 328,-24 328,-24 328,-12 328,-12 328,-6 334,-0 340,-0 340,-0 370,-0 370,-0 376,-0 382,-6 382,-12 382,-12 382,-24 382,-24 382,-30 376,-36 370,-36"/>
<text text-anchor="middle" x="355" y="-15.5" font-family="sans" font-size="10.00">all</text>
</g>
<!-- 1 -->
<g id="node2" class="node"><title>1</title>
<path fill="none" stroke="#56d8b9" stroke-width="2" stroke-dasharray="5,2" d="M413,-756C413,-756 267,-756 267,-756 261,-756 255,-750 255,-744 255,-744 255,-732 255,-732 255,-726 261,-720 267,-720 267,-720 413,-720 413,-720 419,-720 425,-726 425,-732 425,-732 425,-744 425,-744 425,-750 419,-756 413,-756"/>
<text text-anchor="middle" x="340" y="-735.5" font-family="sans" font-size="10.00">merge_classify_phages_results</text>
</g>
<!-- 1&#45;&gt;0 -->
<g id="edge1" class="edge"><title>1&#45;&gt;0</title>
<path fill="none" stroke="grey" stroke-width="2" d="M271.741,-719.974C248.745,-711.831 224.099,-700.214 205,-684 169.904,-654.204 152,-641.038 152,-595 152,-595 152,-595 152,-521 152,-424.401 114,-403.599 114,-307 114,-307 114,-307 114,-161 114,-67.6537 249.869,-34.4295 317.573,-23.6683"/>
<polygon fill="grey" stroke="grey" points="318.454,-27.0754 327.823,-22.1283 317.414,-20.1531 318.454,-27.0754"/>
</g>
<!-- 4 -->
<g id="node5" class="node"><title>4</title>
<path fill="none" stroke="#70d856" stroke-width="2" d="M315,-108C315,-108 265,-108 265,-108 259,-108 253,-102 253,-96 253,-96 253,-84 253,-84 253,-78 259,-72 265,-72 265,-72 315,-72 315,-72 321,-72 327,-78 327,-84 327,-84 327,-96 327,-96 327,-102 321,-108 315,-108"/>
<text text-anchor="middle" x="290" y="-87.5" font-family="sans" font-size="10.00">query_taxid</text>
</g>
<!-- 1&#45;&gt;4 -->
<g id="edge18" class="edge"><title>1&#45;&gt;4</title>
<path fill="none" stroke="grey" stroke-width="2" d="M299.803,-719.944C255.371,-698.076 190,-655.603 190,-595 190,-595 190,-595 190,-521 190,-353.232 125.512,-289.52 209,-144 217.026,-130.01 230.42,-119.06 244.027,-110.838"/>
<polygon fill="grey" stroke="grey" points="245.944,-113.775 252.946,-105.824 242.514,-107.673 245.944,-113.775"/>
</g>
<!-- 2 -->
<g id="node3" class="node"><title>2</title>
<path fill="none" stroke="#56d863" stroke-width="2" d="M416,-180C416,-180 230,-180 230,-180 224,-180 218,-174 218,-168 218,-168 218,-156 218,-156 218,-150 224,-144 230,-144 230,-144 416,-144 416,-144 422,-144 428,-150 428,-156 428,-156 428,-168 428,-168 428,-174 422,-180 416,-180"/>
<text text-anchor="middle" x="323" y="-159.5" font-family="sans" font-size="10.00">merge_classify_phages_viruses_results</text>
</g>
<!-- 2&#45;&gt;0 -->
<g id="edge2" class="edge"><title>2&#45;&gt;0</title>
<path fill="none" stroke="grey" stroke-width="2" d="M327.347,-143.845C329.938,-133.484 333.247,-120.005 336,-108 340.738,-87.3402 345.728,-63.8921 349.405,-46.2519"/>
<polygon fill="grey" stroke="grey" points="352.907,-46.598 351.51,-36.0957 346.053,-45.1769 352.907,-46.598"/>
</g>
<!-- 2&#45;&gt;4 -->
<g id="edge19" class="edge"><title>2&#45;&gt;4</title>
<path fill="none" stroke="grey" stroke-width="2" d="M314.843,-143.697C311.086,-135.728 306.547,-126.1 302.382,-117.264"/>
<polygon fill="grey" stroke="grey" points="305.494,-115.657 298.063,-108.104 299.162,-118.642 305.494,-115.657"/>
</g>
<!-- 3 -->
<g id="node4" class="node"><title>3</title>
<path fill="none" stroke="#56d88a" stroke-width="2" d="M571.25,-180C571.25,-180 458.75,-180 458.75,-180 452.75,-180 446.75,-174 446.75,-168 446.75,-168 446.75,-156 446.75,-156 446.75,-150 452.75,-144 458.75,-144 458.75,-144 571.25,-144 571.25,-144 577.25,-144 583.25,-150 583.25,-156 583.25,-156 583.25,-168 583.25,-168 583.25,-174 577.25,-180 571.25,-180"/>
<text text-anchor="middle" x="515" y="-159.5" font-family="sans" font-size="10.00">merge_non_viral_results</text>
</g>
<!-- 3&#45;&gt;0 -->
<g id="edge3" class="edge"><title>3&#45;&gt;0</title>
<path fill="none" stroke="grey" stroke-width="2" d="M495.7,-143.871C467.35,-118.711 414.328,-71.6535 382.089,-43.0415"/>
<polygon fill="grey" stroke="grey" points="384.171,-40.2094 374.368,-36.1893 379.524,-45.4449 384.171,-40.2094"/>
</g>
<!-- 4&#45;&gt;0 -->
<g id="edge4" class="edge"><title>4&#45;&gt;0</title>
<path fill="none" stroke="grey" stroke-width="2" d="M306.067,-71.6966C313.939,-63.2198 323.555,-52.8636 332.173,-43.5826"/>
<polygon fill="grey" stroke="grey" points="334.878,-45.8139 339.117,-36.1043 329.748,-41.0507 334.878,-45.8139"/>
</g>
<!-- 5 -->
<g id="node6" class="node"><title>5</title>
<path fill="none" stroke="#d8d356" stroke-width="2" d="M651.25,-252C651.25,-252 566.75,-252 566.75,-252 560.75,-252 554.75,-246 554.75,-240 554.75,-240 554.75,-228 554.75,-228 554.75,-222 560.75,-216 566.75,-216 566.75,-216 651.25,-216 651.25,-216 657.25,-216 663.25,-222 663.25,-228 663.25,-228 663.25,-240 663.25,-240 663.25,-246 657.25,-252 651.25,-252"/>
<text text-anchor="middle" x="609" y="-231.5" font-family="sans" font-size="10.00">merge_unassigned</text>
</g>
<!-- 5&#45;&gt;0 -->
<g id="edge5" class="edge"><title>5&#45;&gt;0</title>
<path fill="none" stroke="grey" stroke-width="2" d="M609.931,-215.865C610.1,-196.557 607.627,-165.117 592,-144 542.087,-76.5532 444.852,-42.0952 391.76,-27.6226"/>
<polygon fill="grey" stroke="grey" points="392.631,-24.2327 382.069,-25.0699 390.848,-31.0018 392.631,-24.2327"/>
</g>
<!-- 6 -->
<g id="node7" class="node"><title>6</title>
<path fill="none" stroke="#569ad8" stroke-width="2" stroke-dasharray="5,2" d="M170,-972C170,-972 58,-972 58,-972 52,-972 46,-966 46,-960 46,-960 46,-948 46,-948 46,-942 52,-936 58,-936 58,-936 170,-936 170,-936 176,-936 182,-942 182,-948 182,-948 182,-960 182,-960 182,-966 176,-972 170,-972"/>
<text text-anchor="middle" x="114" y="-951.5" font-family="sans" font-size="10.00">prepare_taxonomy_data</text>
</g>
<!-- 6&#45;&gt;0 -->
<g id="edge6" class="edge"><title>6&#45;&gt;0</title>
<path fill="none" stroke="grey" stroke-width="2" d="M97.5091,-935.772C75.1569,-910.534 38,-861.051 38,-811 38,-811 38,-811 38,-161 38,-39.5556 234.174,-21.3078 317.875,-19.0492"/>
<polygon fill="grey" stroke="grey" points="318.047,-22.5464 327.973,-18.8403 317.902,-15.5479 318.047,-22.5464"/>
</g>
<!-- 12 -->
<g id="node13" class="node"><title>12</title>
<path fill="none" stroke="#56b9d8" stroke-width="2" stroke-dasharray="5,2" d="M643.25,-900C643.25,-900 572.75,-900 572.75,-900 566.75,-900 560.75,-894 560.75,-888 560.75,-888 560.75,-876 560.75,-876 560.75,-870 566.75,-864 572.75,-864 572.75,-864 643.25,-864 643.25,-864 649.25,-864 655.25,-870 655.25,-876 655.25,-876 655.25,-888 655.25,-888 655.25,-894 649.25,-900 643.25,-900"/>
<text text-anchor="middle" x="608" y="-879.5" font-family="sans" font-size="10.00">classify_phages</text>
</g>
<!-- 6&#45;&gt;12 -->
<g id="edge47" class="edge"><title>6&#45;&gt;12</title>
<path fill="none" stroke="grey" stroke-width="2" d="M182.17,-943.34C280.135,-929.459 458.995,-904.114 550.596,-891.134"/>
<polygon fill="grey" stroke="grey" points="551.111,-894.596 560.521,-889.728 550.129,-887.665 551.111,-894.596"/>
</g>
<!-- 13 -->
<g id="node14" class="node"><title>13</title>
<path fill="none" stroke="#56b9d8" stroke-width="2" stroke-dasharray="5,2" d="M435.25,-900C435.25,-900 364.75,-900 364.75,-900 358.75,-900 352.75,-894 352.75,-888 352.75,-888 352.75,-876 352.75,-876 352.75,-870 358.75,-864 364.75,-864 364.75,-864 435.25,-864 435.25,-864 441.25,-864 447.25,-870 447.25,-876 447.25,-876 447.25,-888 447.25,-888 447.25,-894 441.25,-900 435.25,-900"/>
<text text-anchor="middle" x="400" y="-879.5" font-family="sans" font-size="10.00">classify_phages</text>
</g>
<!-- 6&#45;&gt;13 -->
<g id="edge49" class="edge"><title>6&#45;&gt;13</title>
<path fill="none" stroke="grey" stroke-width="2" d="M182.141,-936.322C231.089,-924.342 296.335,-908.373 342.628,-897.042"/>
<polygon fill="grey" stroke="grey" points="343.617,-900.403 352.498,-894.626 341.953,-893.604 343.617,-900.403"/>
</g>
<!-- 14 -->
<g id="node15" class="node"><title>14</title>
<path fill="none" stroke="#d8b456" stroke-width="2" d="M521.25,-252C521.25,-252 410.75,-252 410.75,-252 404.75,-252 398.75,-246 398.75,-240 398.75,-240 398.75,-228 398.75,-228 398.75,-222 404.75,-216 410.75,-216 410.75,-216 521.25,-216 521.25,-216 527.25,-216 533.25,-222 533.25,-228 533.25,-228 533.25,-240 533.25,-240 533.25,-246 527.25,-252 521.25,-252"/>
<text text-anchor="middle" x="466" y="-231.5" font-family="sans" font-size="10.00">classify_phages_viruses</text>
</g>
<!-- 6&#45;&gt;14 -->
<g id="edge52" class="edge"><title>6&#45;&gt;14</title>
<path fill="none" stroke="grey" stroke-width="2" d="M114,-935.951C114,-909.292 114,-856.115 114,-811 114,-811 114,-811 114,-521 114,-390.953 184.23,-362.245 291,-288 307.338,-276.639 349.647,-263.694 388.57,-253.441"/>
<polygon fill="grey" stroke="grey" points="389.576,-256.796 398.375,-250.895 387.816,-250.021 389.576,-256.796"/>
</g>
<!-- 15 -->
<g id="node16" class="node"><title>15</title>
<path fill="none" stroke="#d8b456" stroke-width="2" d="M368.25,-252C368.25,-252 257.75,-252 257.75,-252 251.75,-252 245.75,-246 245.75,-240 245.75,-240 245.75,-228 245.75,-228 245.75,-222 251.75,-216 257.75,-216 257.75,-216 368.25,-216 368.25,-216 374.25,-216 380.25,-222 380.25,-228 380.25,-228 380.25,-240 380.25,-240 380.25,-246 374.25,-252 368.25,-252"/>
<text text-anchor="middle" x="313" y="-231.5" font-family="sans" font-size="10.00">classify_phages_viruses</text>
</g>
<!-- 6&#45;&gt;15 -->
<g id="edge55" class="edge"><title>6&#45;&gt;15</title>
<path fill="none" stroke="grey" stroke-width="2" d="M106.31,-935.907C95.2064,-909.623 76,-857.447 76,-811 76,-811 76,-811 76,-377 76,-301.109 166.528,-264.785 235.684,-248.108"/>
<polygon fill="grey" stroke="grey" points="236.765,-251.451 245.719,-245.788 235.188,-244.631 236.765,-251.451"/>
</g>
<!-- 7 -->
<g id="node8" class="node"><title>7</title>
<path fill="none" stroke="#d89c56" stroke-width="2" stroke-dasharray="5,2" d="M490,-1620C490,-1620 388,-1620 388,-1620 382,-1620 376,-1614 376,-1608 376,-1608 376,-1596 376,-1596 376,-1590 382,-1584 388,-1584 388,-1584 490,-1584 490,-1584 496,-1584 502,-1590 502,-1596 502,-1596 502,-1608 502,-1608 502,-1614 496,-1620 490,-1620"/>
<text text-anchor="middle" x="439" y="-1599.5" font-family="sans" font-size="10.00">refgenome_bam_stats</text>
</g>
<!-- 7&#45;&gt;0 -->
<g id="edge7" class="edge"><title>7&#45;&gt;0</title>
<path fill="none" stroke="grey" stroke-width="2" d="M375.634,-1593.9C254.062,-1578.5 0,-1537 0,-1459 0,-1459 0,-1459 0,-161 0,-115.41 13.6724,-98.1738 51,-72 93.4532,-42.2322 245.504,-27.1797 317.147,-21.608"/>
<polygon fill="grey" stroke="grey" points="317.812,-25.0679 327.519,-20.8242 317.284,-18.0878 317.812,-25.0679"/>
</g>
<!-- 8 -->
<g id="node9" class="node"><title>8</title>
<path fill="none" stroke="#5663d8" stroke-width="2" stroke-dasharray="5,2" d="M1059.25,-1044C1059.25,-1044 984.75,-1044 984.75,-1044 978.75,-1044 972.75,-1038 972.75,-1032 972.75,-1032 972.75,-1020 972.75,-1020 972.75,-1014 978.75,-1008 984.75,-1008 984.75,-1008 1059.25,-1008 1059.25,-1008 1065.25,-1008 1071.25,-1014 1071.25,-1020 1071.25,-1020 1071.25,-1032 1071.25,-1032 1071.25,-1038 1065.25,-1044 1059.25,-1044"/>
<text text-anchor="middle" x="1022" y="-1023.5" font-family="sans" font-size="10.00">preprocess_stats</text>
</g>
<!-- 8&#45;&gt;0 -->
<g id="edge8" class="edge"><title>8&#45;&gt;0</title>
<path fill="none" stroke="grey" stroke-width="2" d="M1022,-1007.95C1022,-981.292 1022,-928.115 1022,-883 1022,-883 1022,-883 1022,-161 1022,-98.458 970.852,-95.7612 913,-72 818.155,-33.0453 501.348,-22.31 392.275,-19.7314"/>
<polygon fill="grey" stroke="grey" points="392.162,-16.2281 382.085,-19.5002 392.003,-23.2263 392.162,-16.2281"/>
</g>
<!-- 9 -->
<g id="node10" class="node"><title>9</title>
<path fill="none" stroke="#5673d8" stroke-width="2" d="M740,-252C740,-252 694,-252 694,-252 688,-252 682,-246 682,-240 682,-240 682,-228 682,-228 682,-222 688,-216 694,-216 694,-216 740,-216 740,-216 746,-216 752,-222 752,-228 752,-228 752,-240 752,-240 752,-246 746,-252 740,-252"/>
<text text-anchor="middle" x="717" y="-231.5" font-family="sans" font-size="10.00">blast_stats</text>
</g>
<!-- 9&#45;&gt;0 -->
<g id="edge9" class="edge"><title>9&#45;&gt;0</title>
<path fill="none" stroke="grey" stroke-width="2" d="M703.586,-215.833C676.953,-182.923 613.988,-110.789 545,-72 496.088,-44.4987 431.949,-30.4894 392.115,-23.9674"/>
<polygon fill="grey" stroke="grey" points="392.467,-20.48 382.046,-22.394 391.386,-27.3961 392.467,-20.48"/>
</g>
<!-- 10 -->
<g id="node11" class="node"><title>10</title>
<path fill="none" stroke="#56c1d8" stroke-width="2" stroke-dasharray="5,2" d="M892,-108C892,-108 812,-108 812,-108 806,-108 800,-102 800,-96 800,-96 800,-84 800,-84 800,-78 806,-72 812,-72 812,-72 892,-72 892,-72 898,-72 904,-78 904,-84 904,-84 904,-96 904,-96 904,-102 898,-108 892,-108"/>
<text text-anchor="middle" x="852" y="-87.5" font-family="sans" font-size="10.00">refbac_bam_stats</text>
</g>
<!-- 10&#45;&gt;0 -->
<g id="edge10" class="edge"><title>10&#45;&gt;0</title>
<path fill="none" stroke="grey" stroke-width="2" d="M799.752,-81.6411C698.927,-67.4404 479.763,-36.5722 392.218,-24.2419"/>
<polygon fill="grey" stroke="grey" points="392.601,-20.7615 382.211,-22.8325 391.625,-27.6931 392.601,-20.7615"/>
</g>
<!-- 11 -->
<g id="node12" class="node"><title>11</title>
<path fill="none" stroke="#56c1d8" stroke-width="2" stroke-dasharray="5,2" d="M316,-612C316,-612 236,-612 236,-612 230,-612 224,-606 224,-600 224,-600 224,-588 224,-588 224,-582 230,-576 236,-576 236,-576 316,-576 316,-576 322,-576 328,-582 328,-588 328,-588 328,-600 328,-600 328,-606 322,-612 316,-612"/>
<text text-anchor="middle" x="276" y="-591.5" font-family="sans" font-size="10.00">refbac_bam_stats</text>
</g>
<!-- 11&#45;&gt;0 -->
<g id="edge11" class="edge"><title>11&#45;&gt;0</title>
<path fill="none" stroke="grey" stroke-width="2" d="M266.054,-575.706C251.995,-549.584 228,-498.102 228,-451 228,-451 228,-451 228,-377 228,-273.101 185.694,-245.252 209,-144 216.981,-109.326 218.753,-97.0709 244,-72 264.551,-51.5923 294.482,-37.9323 318.085,-29.5983"/>
<polygon fill="grey" stroke="grey" points="319.401,-32.8486 327.768,-26.3485 317.174,-26.2124 319.401,-32.8486"/>
</g>
<!-- 12&#45;&gt;1 -->
<g id="edge12" class="edge"><title>12&#45;&gt;1</title>
<path fill="none" stroke="grey" stroke-width="2" d="M602.391,-863.778C594.876,-843.476 579.564,-810.201 555,-792 544.586,-784.284 485.481,-769.99 431.875,-758.189"/>
<polygon fill="grey" stroke="grey" points="432.459,-754.734 421.942,-756.017 430.963,-761.573 432.459,-754.734"/>
</g>
<!-- 32 -->
<g id="node33" class="node"><title>32</title>
<path fill="none" stroke="#d8ac56" stroke-width="2" stroke-dasharray="5,2" d="M897,-828C897,-828 823,-828 823,-828 817,-828 811,-822 811,-816 811,-816 811,-804 811,-804 811,-798 817,-792 823,-792 823,-792 897,-792 897,-792 903,-792 909,-798 909,-804 909,-804 909,-816 909,-816 909,-822 903,-828 897,-828"/>
<text text-anchor="middle" x="860" y="-807.5" font-family="sans" font-size="10.00">unmasked_other</text>
</g>
<!-- 12&#45;&gt;32 -->
<g id="edge81" class="edge"><title>12&#45;&gt;32</title>
<path fill="none" stroke="grey" stroke-width="2" d="M655.399,-867.834C696.622,-856.383 756.534,-839.74 800.881,-827.422"/>
<polygon fill="grey" stroke="grey" points="801.963,-830.754 810.661,-824.705 800.089,-824.009 801.963,-830.754"/>
</g>
<!-- 13&#45;&gt;1 -->
<g id="edge13" class="edge"><title>13&#45;&gt;1</title>
<path fill="none" stroke="grey" stroke-width="2" d="M392.763,-863.871C382.447,-839.457 363.419,-794.426 351.254,-765.635"/>
<polygon fill="grey" stroke="grey" points="354.379,-764.038 347.263,-756.189 347.931,-766.763 354.379,-764.038"/>
</g>
<!-- 33 -->
<g id="node34" class="node"><title>33</title>
<path fill="none" stroke="#d8ac56" stroke-width="2" stroke-dasharray="5,2" d="M534,-828C534,-828 460,-828 460,-828 454,-828 448,-822 448,-816 448,-816 448,-804 448,-804 448,-798 454,-792 460,-792 460,-792 534,-792 534,-792 540,-792 546,-798 546,-804 546,-804 546,-816 546,-816 546,-822 540,-828 534,-828"/>
<text text-anchor="middle" x="497" y="-807.5" font-family="sans" font-size="10.00">unmasked_other</text>
</g>
<!-- 13&#45;&gt;33 -->
<g id="edge83" class="edge"><title>13&#45;&gt;33</title>
<path fill="none" stroke="grey" stroke-width="2" d="M423.978,-863.697C436.311,-854.796 451.516,-843.823 464.853,-834.199"/>
<polygon fill="grey" stroke="grey" points="467.237,-836.794 473.298,-828.104 463.141,-831.118 467.237,-836.794"/>
</g>
<!-- 14&#45;&gt;2 -->
<g id="edge14" class="edge"><title>14&#45;&gt;2</title>
<path fill="none" stroke="grey" stroke-width="2" d="M431.018,-215.876C411.802,-206.469 387.774,-194.708 367.263,-184.667"/>
<polygon fill="grey" stroke="grey" points="368.637,-181.443 358.116,-180.19 365.559,-187.73 368.637,-181.443"/>
</g>
<!-- 14&#45;&gt;3 -->
<g id="edge16" class="edge"><title>14&#45;&gt;3</title>
<path fill="none" stroke="grey" stroke-width="2" d="M478.112,-215.697C483.868,-207.474 490.862,-197.483 497.206,-188.421"/>
<polygon fill="grey" stroke="grey" points="500.16,-190.304 503.027,-180.104 494.425,-186.29 500.16,-190.304"/>
</g>
<!-- 15&#45;&gt;2 -->
<g id="edge15" class="edge"><title>15&#45;&gt;2</title>
<path fill="none" stroke="grey" stroke-width="2" d="M315.472,-215.697C316.574,-207.983 317.898,-198.712 319.127,-190.112"/>
<polygon fill="grey" stroke="grey" points="322.607,-190.499 320.557,-180.104 315.677,-189.509 322.607,-190.499"/>
</g>
<!-- 15&#45;&gt;3 -->
<g id="edge17" class="edge"><title>15&#45;&gt;3</title>
<path fill="none" stroke="grey" stroke-width="2" d="M362.156,-215.966C390.503,-206.142 426.325,-193.729 456.163,-183.389"/>
<polygon fill="grey" stroke="grey" points="457.32,-186.692 465.623,-180.111 455.028,-180.078 457.32,-186.692"/>
</g>
<!-- 16 -->
<g id="node17" class="node"><title>16</title>
<path fill="none" stroke="#56d8d0" stroke-width="2" d="M684,-324C684,-324 614,-324 614,-324 608,-324 602,-318 602,-312 602,-312 602,-300 602,-300 602,-294 608,-288 614,-288 614,-288 684,-288 684,-288 690,-288 696,-294 696,-300 696,-300 696,-312 696,-312 696,-318 690,-324 684,-324"/>
<text text-anchor="middle" x="649" y="-303.5" font-family="sans" font-size="10.00">parse_blastn_nt</text>
</g>
<!-- 16&#45;&gt;5 -->
<g id="edge20" class="edge"><title>16&#45;&gt;5</title>
<path fill="none" stroke="grey" stroke-width="2" d="M639.112,-287.697C634.511,-279.644 628.94,-269.894 623.847,-260.982"/>
<polygon fill="grey" stroke="grey" points="626.774,-259.05 618.774,-252.104 620.696,-262.523 626.774,-259.05"/>
</g>
<!-- 16&#45;&gt;9 -->
<g id="edge36" class="edge"><title>16&#45;&gt;9</title>
<path fill="none" stroke="grey" stroke-width="2" d="M665.809,-287.697C674.126,-279.135 684.305,-268.656 693.39,-259.304"/>
<polygon fill="grey" stroke="grey" points="695.927,-261.716 700.384,-252.104 690.906,-256.838 695.927,-261.716"/>
</g>
<!-- 16&#45;&gt;14 -->
<g id="edge51" class="edge"><title>16&#45;&gt;14</title>
<path fill="none" stroke="grey" stroke-width="2" d="M604.233,-287.876C578.882,-278.179 546.989,-265.98 520.227,-255.743"/>
<polygon fill="grey" stroke="grey" points="521.212,-252.372 510.621,-252.068 518.711,-258.91 521.212,-252.372"/>
</g>
<!-- 17 -->
<g id="node18" class="node"><title>17</title>
<path fill="none" stroke="#56d8d0" stroke-width="2" d="M382,-324C382,-324 312,-324 312,-324 306,-324 300,-318 300,-312 300,-312 300,-300 300,-300 300,-294 306,-288 312,-288 312,-288 382,-288 382,-288 388,-288 394,-294 394,-300 394,-300 394,-312 394,-312 394,-318 388,-324 382,-324"/>
<text text-anchor="middle" x="347" y="-303.5" font-family="sans" font-size="10.00">parse_blastn_nt</text>
</g>
<!-- 17&#45;&gt;5 -->
<g id="edge21" class="edge"><title>17&#45;&gt;5</title>
<path fill="none" stroke="grey" stroke-width="2" d="M394.271,-291.756C398.907,-290.478 403.544,-289.208 408,-288 453.596,-275.636 505.118,-262.058 544.584,-251.741"/>
<polygon fill="grey" stroke="grey" points="545.556,-255.104 554.346,-249.191 543.787,-248.332 545.556,-255.104"/>
</g>
<!-- 17&#45;&gt;9 -->
<g id="edge37" class="edge"><title>17&#45;&gt;9</title>
<path fill="none" stroke="grey" stroke-width="2" d="M394.133,-291.18C398.798,-290.019 403.478,-288.934 408,-288 523.972,-264.049 557.214,-281.11 672,-252 672.101,-251.974 672.202,-251.949 672.304,-251.923"/>
<polygon fill="grey" stroke="grey" points="673.25,-255.293 681.868,-249.131 671.288,-248.573 673.25,-255.293"/>
</g>
<!-- 17&#45;&gt;15 -->
<g id="edge54" class="edge"><title>17&#45;&gt;15</title>
<path fill="none" stroke="grey" stroke-width="2" d="M338.596,-287.697C334.725,-279.728 330.048,-270.1 325.757,-261.264"/>
<polygon fill="grey" stroke="grey" points="328.825,-259.57 321.308,-252.104 322.529,-262.629 328.825,-259.57"/>
</g>
<!-- 18 -->
<g id="node19" class="node"><title>18</title>
<path fill="none" stroke="#5682d8" stroke-width="2" stroke-dasharray="5,2" d="M1066,-1764C1066,-1764 964,-1764 964,-1764 958,-1764 952,-1758 952,-1752 952,-1752 952,-1740 952,-1740 952,-1734 958,-1728 964,-1728 964,-1728 1066,-1728 1066,-1728 1072,-1728 1078,-1734 1078,-1740 1078,-1740 1078,-1752 1078,-1752 1078,-1758 1072,-1764 1066,-1764"/>
<text text-anchor="middle" x="1015" y="-1743.5" font-family="sans" font-size="10.00">bwa_mem_refgenome</text>
</g>
<!-- 18&#45;&gt;7 -->
<g id="edge22" class="edge"><title>18&#45;&gt;7</title>
<path fill="none" stroke="grey" stroke-width="2" d="M951.986,-1729.47C844.452,-1702.96 626.099,-1649.13 512.062,-1621.01"/>
<polygon fill="grey" stroke="grey" points="512.575,-1617.53 502.028,-1618.54 510.899,-1624.33 512.575,-1617.53"/>
</g>
<!-- 20 -->
<g id="node21" class="node"><title>20</title>
<path fill="none" stroke="#61d856" stroke-width="2" stroke-dasharray="5,2" d="M1066.25,-1692C1066.25,-1692 963.75,-1692 963.75,-1692 957.75,-1692 951.75,-1686 951.75,-1680 951.75,-1680 951.75,-1668 951.75,-1668 951.75,-1662 957.75,-1656 963.75,-1656 963.75,-1656 1066.25,-1656 1066.25,-1656 1072.25,-1656 1078.25,-1662 1078.25,-1668 1078.25,-1668 1078.25,-1680 1078.25,-1680 1078.25,-1686 1072.25,-1692 1066.25,-1692"/>
<text text-anchor="middle" x="1015" y="-1671.5" font-family="sans" font-size="10.00">unmapped_refgenome</text>
</g>
<!-- 18&#45;&gt;20 -->
<g id="edge61" class="edge"><title>18&#45;&gt;20</title>
<path fill="none" stroke="grey" stroke-width="2" d="M1015,-1727.7C1015,-1719.98 1015,-1710.71 1015,-1702.11"/>
<polygon fill="grey" stroke="grey" points="1018.5,-1702.1 1015,-1692.1 1011.5,-1702.1 1018.5,-1702.1"/>
</g>
<!-- 19 -->
<g id="node20" class="node"><title>19</title>
<path fill="none" stroke="#56d8a9" stroke-width="2" stroke-dasharray="5,2" d="M1135,-1836C1135,-1836 1059,-1836 1059,-1836 1053,-1836 1047,-1830 1047,-1824 1047,-1824 1047,-1812 1047,-1812 1047,-1806 1053,-1800 1059,-1800 1059,-1800 1135,-1800 1135,-1800 1141,-1800 1147,-1806 1147,-1812 1147,-1812 1147,-1824 1147,-1824 1147,-1830 1141,-1836 1135,-1836"/>
<text text-anchor="middle" x="1097" y="-1821" font-family="sans" font-size="10.00">preprocess</text>
<text text-anchor="middle" x="1097" y="-1810" font-family="sans" font-size="10.00">run: SRR5557999</text>
</g>
<!-- 19&#45;&gt;8 -->
<g id="edge23" class="edge"><title>19&#45;&gt;8</title>
<path fill="none" stroke="grey" stroke-width="2" d="M1115.2,-1799.6C1139.36,-1774.53 1179,-1725.67 1179,-1675 1179,-1675 1179,-1675 1179,-1169 1179,-1111.41 1120.17,-1071.12 1074.54,-1048.52"/>
<polygon fill="grey" stroke="grey" points="1075.85,-1045.27 1065.32,-1044.11 1072.82,-1051.58 1075.85,-1045.27"/>
</g>
<!-- 19&#45;&gt;18 -->
<g id="edge60" class="edge"><title>19&#45;&gt;18</title>
<path fill="none" stroke="grey" stroke-width="2" d="M1076.73,-1799.7C1066.5,-1790.97 1053.94,-1780.24 1042.82,-1770.75"/>
<polygon fill="grey" stroke="grey" points="1044.91,-1767.94 1035.04,-1764.1 1040.37,-1773.26 1044.91,-1767.94"/>
</g>
<!-- 20&#45;&gt;8 -->
<g id="edge24" class="edge"><title>20&#45;&gt;8</title>
<path fill="none" stroke="grey" stroke-width="2" d="M1011.98,-1655.95C1006.12,-1621.89 993.399,-1542.95 989,-1476 978.493,-1316.09 1005.98,-1124.32 1017.35,-1054.29"/>
<polygon fill="grey" stroke="grey" points="1020.85,-1054.56 1019.02,-1044.12 1013.94,-1053.42 1020.85,-1054.56"/>
</g>
<!-- 23 -->
<g id="node24" class="node"><title>23</title>
<path fill="none" stroke="#56a9d8" stroke-width="2" stroke-dasharray="5,2" d="M1076,-1620C1076,-1620 1046,-1620 1046,-1620 1040,-1620 1034,-1614 1034,-1608 1034,-1608 1034,-1596 1034,-1596 1034,-1590 1040,-1584 1046,-1584 1046,-1584 1076,-1584 1076,-1584 1082,-1584 1088,-1590 1088,-1596 1088,-1596 1088,-1608 1088,-1608 1088,-1614 1082,-1620 1076,-1620"/>
<text text-anchor="middle" x="1061" y="-1599.5" font-family="sans" font-size="10.00">cd_hit</text>
</g>
<!-- 20&#45;&gt;23 -->
<g id="edge66" class="edge"><title>20&#45;&gt;23</title>
<path fill="none" stroke="grey" stroke-width="2" d="M1026.37,-1655.7C1031.72,-1647.56 1038.2,-1637.69 1044.11,-1628.7"/>
<polygon fill="grey" stroke="grey" points="1047.19,-1630.38 1049.76,-1620.1 1041.34,-1626.54 1047.19,-1630.38"/>
</g>
<!-- 21 -->
<g id="node22" class="node"><title>21</title>
<path fill="none" stroke="#a7d856" stroke-width="2" stroke-dasharray="5,2" d="M862.25,-1116C862.25,-1116 727.75,-1116 727.75,-1116 721.75,-1116 715.75,-1110 715.75,-1104 715.75,-1104 715.75,-1092 715.75,-1092 715.75,-1086 721.75,-1080 727.75,-1080 727.75,-1080 862.25,-1080 862.25,-1080 868.25,-1080 874.25,-1086 874.25,-1092 874.25,-1092 874.25,-1104 874.25,-1104 874.25,-1110 868.25,-1116 862.25,-1116"/>
<text text-anchor="middle" x="795" y="-1095.5" font-family="sans" font-size="10.00">parse_megablast_refgenome</text>
</g>
<!-- 21&#45;&gt;8 -->
<g id="edge25" class="edge"><title>21&#45;&gt;8</title>
<path fill="none" stroke="grey" stroke-width="2" d="M850.24,-1079.97C884.428,-1069.42 928.292,-1055.9 963.134,-1045.15"/>
<polygon fill="grey" stroke="grey" points="964.182,-1048.49 972.707,-1042.2 962.119,-1041.8 964.182,-1048.49"/>
</g>
<!-- 28 -->
<g id="node29" class="node"><title>28</title>
<path fill="none" stroke="#c6d856" stroke-width="2" stroke-dasharray="5,2" d="M846,-972C846,-972 762,-972 762,-972 756,-972 750,-966 750,-960 750,-960 750,-948 750,-948 750,-942 756,-936 762,-936 762,-936 846,-936 846,-936 852,-936 858,-942 858,-948 858,-948 858,-960 858,-960 858,-966 852,-972 846,-972"/>
<text text-anchor="middle" x="804" y="-951.5" font-family="sans" font-size="10.00">parse_blastn_virus</text>
</g>
<!-- 21&#45;&gt;28 -->
<g id="edge73" class="edge"><title>21&#45;&gt;28</title>
<path fill="none" stroke="grey" stroke-width="2" d="M804.542,-1079.93C809.64,-1069.82 815.39,-1056.57 818,-1044 822.306,-1023.26 818.139,-999.558 813.258,-981.831"/>
<polygon fill="grey" stroke="grey" points="816.581,-980.728 810.36,-972.151 809.875,-982.735 816.581,-980.728"/>
</g>
<!-- 47 -->
<g id="node48" class="node"><title>47</title>
<path fill="none" stroke="#d88d56" stroke-width="2" stroke-dasharray="5,2" d="M797,-1044C797,-1044 745,-1044 745,-1044 739,-1044 733,-1038 733,-1032 733,-1032 733,-1020 733,-1020 733,-1014 739,-1008 745,-1008 745,-1008 797,-1008 797,-1008 803,-1008 809,-1014 809,-1020 809,-1020 809,-1032 809,-1032 809,-1038 803,-1044 797,-1044"/>
<text text-anchor="middle" x="771" y="-1023.5" font-family="sans" font-size="10.00">blastn_virus</text>
</g>
<!-- 21&#45;&gt;47 -->
<g id="edge100" class="edge"><title>21&#45;&gt;47</title>
<path fill="none" stroke="grey" stroke-width="2" d="M789.067,-1079.7C786.394,-1071.9 783.174,-1062.51 780.199,-1053.83"/>
<polygon fill="grey" stroke="grey" points="783.418,-1052.43 776.864,-1044.1 776.797,-1054.7 783.418,-1052.43"/>
</g>
<!-- 22 -->
<g id="node23" class="node"><title>22</title>
<path fill="none" stroke="#a7d856" stroke-width="2" stroke-dasharray="5,2" d="M491.25,-1116C491.25,-1116 356.75,-1116 356.75,-1116 350.75,-1116 344.75,-1110 344.75,-1104 344.75,-1104 344.75,-1092 344.75,-1092 344.75,-1086 350.75,-1080 356.75,-1080 356.75,-1080 491.25,-1080 491.25,-1080 497.25,-1080 503.25,-1086 503.25,-1092 503.25,-1092 503.25,-1104 503.25,-1104 503.25,-1110 497.25,-1116 491.25,-1116"/>
<text text-anchor="middle" x="424" y="-1095.5" font-family="sans" font-size="10.00">parse_megablast_refgenome</text>
</g>
<!-- 22&#45;&gt;8 -->
<g id="edge26" class="edge"><title>22&#45;&gt;8</title>
<path fill="none" stroke="grey" stroke-width="2" d="M503.41,-1087.7C624.83,-1073.49 853.923,-1046.67 962.298,-1033.99"/>
<polygon fill="grey" stroke="grey" points="962.877,-1037.44 972.402,-1032.81 962.063,-1030.49 962.877,-1037.44"/>
</g>
<!-- 29 -->
<g id="node30" class="node"><title>29</title>
<path fill="none" stroke="#c6d856" stroke-width="2" stroke-dasharray="5,2" d="M479,-972C479,-972 395,-972 395,-972 389,-972 383,-966 383,-960 383,-960 383,-948 383,-948 383,-942 389,-936 395,-936 395,-936 479,-936 479,-936 485,-936 491,-942 491,-948 491,-948 491,-960 491,-960 491,-966 485,-972 479,-972"/>
<text text-anchor="middle" x="437" y="-951.5" font-family="sans" font-size="10.00">parse_blastn_virus</text>
</g>
<!-- 22&#45;&gt;29 -->
<g id="edge75" class="edge"><title>22&#45;&gt;29</title>
<path fill="none" stroke="grey" stroke-width="2" d="M432.306,-1079.79C436.741,-1069.63 441.741,-1056.38 444,-1044 447.731,-1023.54 445.629,-1000.09 442.783,-982.391"/>
<polygon fill="grey" stroke="grey" points="446.166,-981.423 440.961,-972.195 439.275,-982.655 446.166,-981.423"/>
</g>
<!-- 48 -->
<g id="node49" class="node"><title>48</title>
<path fill="none" stroke="#d88d56" stroke-width="2" stroke-dasharray="5,2" d="M423,-1044C423,-1044 371,-1044 371,-1044 365,-1044 359,-1038 359,-1032 359,-1032 359,-1020 359,-1020 359,-1014 365,-1008 371,-1008 371,-1008 423,-1008 423,-1008 429,-1008 435,-1014 435,-1020 435,-1020 435,-1032 435,-1032 435,-1038 429,-1044 423,-1044"/>
<text text-anchor="middle" x="397" y="-1023.5" font-family="sans" font-size="10.00">blastn_virus</text>
</g>
<!-- 22&#45;&gt;48 -->
<g id="edge101" class="edge"><title>22&#45;&gt;48</title>
<path fill="none" stroke="grey" stroke-width="2" d="M417.326,-1079.7C414.285,-1071.81 410.617,-1062.3 407.239,-1053.55"/>
<polygon fill="grey" stroke="grey" points="410.462,-1052.17 403.597,-1044.1 403.931,-1054.69 410.462,-1052.17"/>
</g>
<!-- 23&#45;&gt;8 -->
<g id="edge27" class="edge"><title>23&#45;&gt;8</title>
<path fill="none" stroke="grey" stroke-width="2" d="M1078.36,-1583.93C1101.89,-1558.89 1141,-1509.65 1141,-1459 1141,-1459 1141,-1459 1141,-1169 1141,-1117.41 1094.28,-1074.72 1059.39,-1050.03"/>
<polygon fill="grey" stroke="grey" points="1061.03,-1046.92 1050.81,-1044.15 1057.08,-1052.69 1061.03,-1046.92"/>
</g>
<!-- 24 -->
<g id="node25" class="node"><title>24</title>
<path fill="none" stroke="#56d0d8" stroke-width="2" stroke-dasharray="5,2" d="M1076,-1548C1076,-1548 1046,-1548 1046,-1548 1040,-1548 1034,-1542 1034,-1536 1034,-1536 1034,-1524 1034,-1524 1034,-1518 1040,-1512 1046,-1512 1046,-1512 1076,-1512 1076,-1512 1082,-1512 1088,-1518 1088,-1524 1088,-1524 1088,-1536 1088,-1536 1088,-1542 1082,-1548 1076,-1548"/>
<text text-anchor="middle" x="1061" y="-1527.5" font-family="sans" font-size="10.00">tantan</text>
</g>
<!-- 23&#45;&gt;24 -->
<g id="edge67" class="edge"><title>23&#45;&gt;24</title>
<path fill="none" stroke="grey" stroke-width="2" d="M1061,-1583.7C1061,-1575.98 1061,-1566.71 1061,-1558.11"/>
<polygon fill="grey" stroke="grey" points="1064.5,-1558.1 1061,-1548.1 1057.5,-1558.1 1064.5,-1558.1"/>
</g>
<!-- 24&#45;&gt;8 -->
<g id="edge28" class="edge"><title>24&#45;&gt;8</title>
<path fill="none" stroke="grey" stroke-width="2" d="M1069.5,-1511.99C1081.77,-1485.82 1103,-1433.79 1103,-1387 1103,-1387 1103,-1387 1103,-1169 1103,-1122.96 1070.48,-1078.25 1046.65,-1051.67"/>
<polygon fill="grey" stroke="grey" points="1048.93,-1048.99 1039.58,-1044.02 1043.79,-1053.74 1048.93,-1048.99"/>
</g>
<!-- 25 -->
<g id="node26" class="node"><title>25</title>
<path fill="none" stroke="#80d856" stroke-width="2" stroke-dasharray="5,2" d="M1062.25,-1476C1062.25,-1476 1009.75,-1476 1009.75,-1476 1003.75,-1476 997.75,-1470 997.75,-1464 997.75,-1464 997.75,-1452 997.75,-1452 997.75,-1446 1003.75,-1440 1009.75,-1440 1009.75,-1440 1062.25,-1440 1062.25,-1440 1068.25,-1440 1074.25,-1446 1074.25,-1452 1074.25,-1452 1074.25,-1464 1074.25,-1464 1074.25,-1470 1068.25,-1476 1062.25,-1476"/>
<text text-anchor="middle" x="1036" y="-1455.5" font-family="sans" font-size="10.00">tantan_good</text>
</g>
<!-- 24&#45;&gt;25 -->
<g id="edge68" class="edge"><title>24&#45;&gt;25</title>
<path fill="none" stroke="grey" stroke-width="2" d="M1054.82,-1511.7C1052,-1503.81 1048.61,-1494.3 1045.48,-1485.55"/>
<polygon fill="grey" stroke="grey" points="1048.77,-1484.34 1042.11,-1476.1 1042.18,-1486.7 1048.77,-1484.34"/>
</g>
<!-- 25&#45;&gt;8 -->
<g id="edge29" class="edge"><title>25&#45;&gt;8</title>
<path fill="none" stroke="grey" stroke-width="2" d="M1040.45,-1439.65C1046.88,-1413.02 1058,-1360.4 1058,-1315 1058,-1315 1058,-1315 1058,-1169 1058,-1127.78 1043.57,-1081.83 1032.98,-1053.66"/>
<polygon fill="grey" stroke="grey" points="1036.16,-1052.19 1029.29,-1044.13 1029.64,-1054.72 1036.16,-1052.19"/>
</g>
<!-- 45 -->
<g id="node46" class="node"><title>45</title>
<path fill="none" stroke="#56d873" stroke-width="2" stroke-dasharray="5,2" d="M853,-1404C853,-1404 809,-1404 809,-1404 803,-1404 797,-1398 797,-1392 797,-1392 797,-1380 797,-1380 797,-1374 803,-1368 809,-1368 809,-1368 853,-1368 853,-1368 859,-1368 865,-1374 865,-1380 865,-1380 865,-1392 865,-1392 865,-1398 859,-1404 853,-1404"/>
<text text-anchor="middle" x="831" y="-1383.5" font-family="sans" font-size="10.00">split_fasta</text>
</g>
<!-- 25&#45;&gt;45 -->
<g id="edge98" class="edge"><title>25&#45;&gt;45</title>
<path fill="none" stroke="grey" stroke-width="2" d="M997.441,-1443.83C962.668,-1431.96 911.547,-1414.5 875.148,-1402.07"/>
<polygon fill="grey" stroke="grey" points="875.892,-1398.63 865.298,-1398.71 873.63,-1405.26 875.892,-1398.63"/>
</g>
<!-- 26 -->
<g id="node27" class="node"><title>26</title>
<path fill="none" stroke="#d85656" stroke-width="2" stroke-dasharray="5,2" d="M947,-1260C947,-1260 857,-1260 857,-1260 851,-1260 845,-1254 845,-1248 845,-1248 845,-1236 845,-1236 845,-1230 851,-1224 857,-1224 857,-1224 947,-1224 947,-1224 953,-1224 959,-1230 959,-1236 959,-1236 959,-1248 959,-1248 959,-1254 953,-1260 947,-1260"/>
<text text-anchor="middle" x="902" y="-1239.5" font-family="sans" font-size="10.00">repeatmasker_good</text>
</g>
<!-- 26&#45;&gt;8 -->
<g id="edge30" class="edge"><title>26&#45;&gt;8</title>
<path fill="none" stroke="grey" stroke-width="2" d="M924.16,-1223.98C935.474,-1214.4 948.763,-1201.63 958,-1188 973.369,-1165.32 999.267,-1093.41 1012.93,-1053.81"/>
<polygon fill="grey" stroke="grey" points="1016.27,-1054.85 1016.21,-1044.25 1009.65,-1052.58 1016.27,-1054.85"/>
</g>
<!-- 26&#45;&gt;21 -->
<g id="edge63" class="edge"><title>26&#45;&gt;21</title>
<path fill="none" stroke="grey" stroke-width="2" d="M902.994,-1224C903.261,-1204.81 901.033,-1173.48 886,-1152 876.971,-1139.1 863.716,-1128.88 850.101,-1121"/>
<polygon fill="grey" stroke="grey" points="851.604,-1117.83 841.143,-1116.15 848.272,-1123.99 851.604,-1117.83"/>
</g>
<!-- 26&#45;&gt;32 -->
<g id="edge82" class="edge"><title>26&#45;&gt;32</title>
<path fill="none" stroke="grey" stroke-width="2" d="M910.499,-1223.99C922.772,-1197.82 944,-1145.79 944,-1099 944,-1099 944,-1099 944,-953 944,-906.596 910.359,-862.055 885.656,-835.604"/>
<polygon fill="grey" stroke="grey" points="888.098,-833.094 878.642,-828.315 883.054,-837.948 888.098,-833.094"/>
</g>
<!-- 36 -->
<g id="node37" class="node"><title>36</title>
<path fill="none" stroke="#56d89a" stroke-width="2" stroke-dasharray="5,2" d="M760.25,-612C760.25,-612 635.75,-612 635.75,-612 629.75,-612 623.75,-606 623.75,-600 623.75,-600 623.75,-588 623.75,-588 623.75,-582 629.75,-576 635.75,-576 635.75,-576 760.25,-576 760.25,-576 766.25,-576 772.25,-582 772.25,-588 772.25,-588 772.25,-600 772.25,-600 772.25,-606 766.25,-612 760.25,-612"/>
<text text-anchor="middle" x="698" y="-591.5" font-family="sans" font-size="10.00">refbac_unmapped_masked</text>
</g>
<!-- 26&#45;&gt;36 -->
<g id="edge88" class="edge"><title>26&#45;&gt;36</title>
<path fill="none" stroke="grey" stroke-width="2" d="M844.975,-1232.07C811.96,-1224.64 771.114,-1211.35 741,-1188 703.88,-1159.22 684,-1145.97 684,-1099 684,-1099 684,-1099 684,-737 684,-697.022 689.564,-651.017 693.676,-622.471"/>
<polygon fill="grey" stroke="grey" points="697.16,-622.84 695.167,-612.434 690.236,-621.811 697.16,-622.84"/>
</g>
<!-- 42 -->
<g id="node43" class="node"><title>42</title>
<path fill="none" stroke="#d8c356" stroke-width="2" stroke-dasharray="5,2" d="M865.25,-1188C865.25,-1188 762.75,-1188 762.75,-1188 756.75,-1188 750.75,-1182 750.75,-1176 750.75,-1176 750.75,-1164 750.75,-1164 750.75,-1158 756.75,-1152 762.75,-1152 762.75,-1152 865.25,-1152 865.25,-1152 871.25,-1152 877.25,-1158 877.25,-1164 877.25,-1164 877.25,-1176 877.25,-1176 877.25,-1182 871.25,-1188 865.25,-1188"/>
<text text-anchor="middle" x="814" y="-1167.5" font-family="sans" font-size="10.00">megablast_refgenome</text>
</g>
<!-- 26&#45;&gt;42 -->
<g id="edge95" class="edge"><title>26&#45;&gt;42</title>
<path fill="none" stroke="grey" stroke-width="2" d="M880.247,-1223.7C869.164,-1214.88 855.526,-1204.03 843.51,-1194.47"/>
<polygon fill="grey" stroke="grey" points="845.507,-1191.59 835.503,-1188.1 841.15,-1197.07 845.507,-1191.59"/>
</g>
<!-- 27 -->
<g id="node28" class="node"><title>27</title>
<path fill="none" stroke="#d85656" stroke-width="2" stroke-dasharray="5,2" d="M577,-1260C577,-1260 487,-1260 487,-1260 481,-1260 475,-1254 475,-1248 475,-1248 475,-1236 475,-1236 475,-1230 481,-1224 487,-1224 487,-1224 577,-1224 577,-1224 583,-1224 589,-1230 589,-1236 589,-1236 589,-1248 589,-1248 589,-1254 583,-1260 577,-1260"/>
<text text-anchor="middle" x="532" y="-1239.5" font-family="sans" font-size="10.00">repeatmasker_good</text>
</g>
<!-- 27&#45;&gt;8 -->
<g id="edge31" class="edge"><title>27&#45;&gt;8</title>
<path fill="none" stroke="grey" stroke-width="2" d="M567.591,-1223.84C608.669,-1204.52 678.596,-1173.06 741,-1152 802.69,-1131.18 823.26,-1141.89 883,-1116 923.095,-1098.63 964.745,-1070.37 991.87,-1050.36"/>
<polygon fill="grey" stroke="grey" points="994.229,-1052.97 1000.15,-1044.18 990.04,-1047.36 994.229,-1052.97"/>
</g>
<!-- 27&#45;&gt;22 -->
<g id="edge65" class="edge"><title>27&#45;&gt;22</title>
<path fill="none" stroke="grey" stroke-width="2" d="M522.161,-1223.99C511.251,-1205.61 492.709,-1175.77 474,-1152 466.375,-1142.31 457.309,-1132.32 449.005,-1123.66"/>
<polygon fill="grey" stroke="grey" points="451.445,-1121.15 441.959,-1116.43 446.433,-1126.04 451.445,-1121.15"/>
</g>
<!-- 27&#45;&gt;33 -->
<g id="edge84" class="edge"><title>27&#45;&gt;33</title>
<path fill="none" stroke="grey" stroke-width="2" d="M532,-1223.95C532,-1197.29 532,-1144.11 532,-1099 532,-1099 532,-1099 532,-953 532,-911.843 517.968,-865.876 507.673,-837.69"/>
<polygon fill="grey" stroke="grey" points="510.882,-836.278 504.083,-828.152 504.331,-838.744 510.882,-836.278"/>
</g>
<!-- 37 -->
<g id="node38" class="node"><title>37</title>
<path fill="none" stroke="#56d89a" stroke-width="2" stroke-dasharray="5,2" d="M490.25,-612C490.25,-612 365.75,-612 365.75,-612 359.75,-612 353.75,-606 353.75,-600 353.75,-600 353.75,-588 353.75,-588 353.75,-582 359.75,-576 365.75,-576 365.75,-576 490.25,-576 490.25,-576 496.25,-576 502.25,-582 502.25,-588 502.25,-588 502.25,-600 502.25,-600 502.25,-606 496.25,-612 490.25,-612"/>
<text text-anchor="middle" x="428" y="-591.5" font-family="sans" font-size="10.00">refbac_unmapped_masked</text>
</g>
<!-- 27&#45;&gt;37 -->
<g id="edge90" class="edge"><title>27&#45;&gt;37</title>
<path fill="none" stroke="grey" stroke-width="2" d="M474.99,-1239.25C386.712,-1233.16 227,-1207.2 227,-1099 227,-1099 227,-1099 227,-809 227,-768.553 223.509,-753.617 246,-720 278.202,-671.869 335.78,-637.013 377.569,-616.527"/>
<polygon fill="grey" stroke="grey" points="379.253,-619.6 386.762,-612.125 376.231,-613.287 379.253,-619.6"/>
</g>
<!-- 43 -->
<g id="node44" class="node"><title>43</title>
<path fill="none" stroke="#d8c356" stroke-width="2" stroke-dasharray="5,2" d="M453.25,-1188C453.25,-1188 350.75,-1188 350.75,-1188 344.75,-1188 338.75,-1182 338.75,-1176 338.75,-1176 338.75,-1164 338.75,-1164 338.75,-1158 344.75,-1152 350.75,-1152 350.75,-1152 453.25,-1152 453.25,-1152 459.25,-1152 465.25,-1158 465.25,-1164 465.25,-1164 465.25,-1176 465.25,-1176 465.25,-1182 459.25,-1188 453.25,-1188"/>
<text text-anchor="middle" x="402" y="-1167.5" font-family="sans" font-size="10.00">megablast_refgenome</text>
</g>
<!-- 27&#45;&gt;43 -->
<g id="edge96" class="edge"><title>27&#45;&gt;43</title>
<path fill="none" stroke="grey" stroke-width="2" d="M500.198,-1223.88C482.886,-1214.55 461.279,-1202.92 442.744,-1192.94"/>
<polygon fill="grey" stroke="grey" points="444.388,-1189.85 433.924,-1188.19 441.069,-1196.01 444.388,-1189.85"/>
</g>
<!-- 28&#45;&gt;9 -->
<g id="edge32" class="edge"><title>28&#45;&gt;9</title>
<path fill="none" stroke="grey" stroke-width="2" d="M825.067,-935.843C850.893,-913.656 894.16,-872.539 918,-828 952.795,-762.996 958,-740.731 958,-667 958,-667 958,-667 958,-449 958,-368.698 940.049,-336.437 876,-288 842.559,-262.71 796.389,-249.098 762.415,-242.031"/>
<polygon fill="grey" stroke="grey" points="762.777,-238.535 752.29,-240.042 761.428,-245.404 762.777,-238.535"/>
</g>
<!-- 28&#45;&gt;12 -->
<g id="edge46" class="edge"><title>28&#45;&gt;12</title>
<path fill="none" stroke="grey" stroke-width="2" d="M756.304,-935.966C728.816,-926.149 694.085,-913.745 665.144,-903.409"/>
<polygon fill="grey" stroke="grey" points="666.165,-900.057 655.57,-899.989 663.81,-906.649 666.165,-900.057"/>
</g>
<!-- 29&#45;&gt;9 -->
<g id="edge33" class="edge"><title>29&#45;&gt;9</title>
<path fill="none" stroke="grey" stroke-width="2" d="M453.491,-935.813C498.667,-888.873 628.548,-754.865 741,-648 758.337,-631.524 769.617,-633.035 781,-612 815.463,-548.314 806,-523.413 806,-451 806,-451 806,-451 806,-377 806,-329.864 770.356,-285.518 744.183,-259.308"/>
<polygon fill="grey" stroke="grey" points="746.364,-256.547 736.752,-252.091 741.487,-261.569 746.364,-256.547"/>
</g>
<!-- 29&#45;&gt;13 -->
<g id="edge48" class="edge"><title>29&#45;&gt;13</title>
<path fill="none" stroke="grey" stroke-width="2" d="M427.854,-935.697C423.597,-927.644 418.444,-917.894 413.734,-908.982"/>
<polygon fill="grey" stroke="grey" points="416.808,-907.31 409.041,-900.104 410.62,-910.581 416.808,-907.31"/>
</g>
<!-- 30 -->
<g id="node31" class="node"><title>30</title>
<path fill="none" stroke="#97d856" stroke-width="2" stroke-dasharray="5,2" d="M712,-468C712,-468 620,-468 620,-468 614,-468 608,-462 608,-456 608,-456 608,-444 608,-444 608,-438 614,-432 620,-432 620,-432 712,-432 712,-432 718,-432 724,-438 724,-444 724,-444 724,-456 724,-456 724,-462 718,-468 712,-468"/>
<text text-anchor="middle" x="666" y="-447.5" font-family="sans" font-size="10.00">parse_megablast_nt</text>
</g>
<!-- 30&#45;&gt;9 -->
<g id="edge34" class="edge"><title>30&#45;&gt;9</title>
<path fill="none" stroke="grey" stroke-width="2" d="M685.697,-431.921C695.197,-422.407 705.667,-409.726 711,-396 728.202,-351.729 725.223,-295.353 721.268,-262.409"/>
<polygon fill="grey" stroke="grey" points="724.697,-261.641 719.917,-252.186 717.757,-262.558 724.697,-261.641"/>
</g>
<!-- 30&#45;&gt;14 -->
<g id="edge50" class="edge"><title>30&#45;&gt;14</title>
<path fill="none" stroke="grey" stroke-width="2" d="M649.971,-431.849C614.644,-394.049 529.974,-303.452 488.994,-259.604"/>
<polygon fill="grey" stroke="grey" points="491.49,-257.149 482.105,-252.232 486.376,-261.928 491.49,-257.149"/>
</g>
<!-- 30&#45;&gt;16 -->
<g id="edge56" class="edge"><title>30&#45;&gt;16</title>
<path fill="none" stroke="grey" stroke-width="2" d="M650.817,-431.703C643.268,-421.939 634.934,-409.095 631,-396 624.83,-375.459 630.302,-351.613 636.785,-333.777"/>
<polygon fill="grey" stroke="grey" points="640.112,-334.88 640.53,-324.294 633.601,-332.309 640.112,-334.88"/>
</g>
<!-- 40 -->
<g id="node41" class="node"><title>40</title>
<path fill="none" stroke="#d87556" stroke-width="2" stroke-dasharray="5,2" d="M690,-396C690,-396 652,-396 652,-396 646,-396 640,-390 640,-384 640,-384 640,-372 640,-372 640,-366 646,-360 652,-360 652,-360 690,-360 690,-360 696,-360 702,-366 702,-372 702,-372 702,-384 702,-384 702,-390 696,-396 690,-396"/>
<text text-anchor="middle" x="671" y="-375.5" font-family="sans" font-size="10.00">blastn_nt</text>
</g>
<!-- 30&#45;&gt;40 -->
<g id="edge93" class="edge"><title>30&#45;&gt;40</title>
<path fill="none" stroke="grey" stroke-width="2" d="M667.236,-431.697C667.787,-423.983 668.449,-414.712 669.063,-406.112"/>
<polygon fill="grey" stroke="grey" points="672.557,-406.328 669.778,-396.104 665.575,-405.83 672.557,-406.328"/>
</g>
<!-- 31 -->
<g id="node32" class="node"><title>31</title>
<path fill="none" stroke="#97d856" stroke-width="2" stroke-dasharray="5,2" d="M407,-468C407,-468 315,-468 315,-468 309,-468 303,-462 303,-456 303,-456 303,-444 303,-444 303,-438 309,-432 315,-432 315,-432 407,-432 407,-432 413,-432 419,-438 419,-444 419,-444 419,-456 419,-456 419,-462 413,-468 407,-468"/>
<text text-anchor="middle" x="361" y="-447.5" font-family="sans" font-size="10.00">parse_megablast_nt</text>
</g>
<!-- 31&#45;&gt;9 -->
<g id="edge35" class="edge"><title>31&#45;&gt;9</title>
<path fill="none" stroke="grey" stroke-width="2" d="M374.735,-431.905C382.996,-421.565 393.681,-408.087 403,-396 439.636,-348.483 433.109,-319.782 484,-288 556.158,-242.936 590.128,-275.118 672,-252 672.1,-251.972 672.201,-251.943 672.302,-251.915"/>
<polygon fill="grey" stroke="grey" points="673.315,-255.265 681.819,-248.946 671.23,-248.583 673.315,-255.265"/>
</g>
<!-- 31&#45;&gt;15 -->
<g id="edge53" class="edge"><title>31&#45;&gt;15</title>
<path fill="none" stroke="grey" stroke-width="2" d="M344.274,-431.997C335.259,-422.122 324.483,-409.079 317,-396 300.103,-366.47 296.866,-357.513 291,-324 288.242,-308.24 287.873,-303.691 291,-288 292.791,-279.011 296.137,-269.638 299.687,-261.318"/>
<polygon fill="grey" stroke="grey" points="302.916,-262.672 303.869,-252.12 296.544,-259.775 302.916,-262.672"/>
</g>
<!-- 31&#45;&gt;17 -->
<g id="edge58" class="edge"><title>31&#45;&gt;17</title>
<path fill="none" stroke="grey" stroke-width="2" d="M344.537,-431.919C336.346,-422.218 327.296,-409.366 323,-396 316.306,-375.175 323.602,-351.216 331.858,-333.406"/>
<polygon fill="grey" stroke="grey" points="335.117,-334.713 336.46,-324.203 328.856,-331.582 335.117,-334.713"/>
</g>
<!-- 41 -->
<g id="node42" class="node"><title>41</title>
<path fill="none" stroke="#d87556" stroke-width="2" stroke-dasharray="5,2" d="M382,-396C382,-396 344,-396 344,-396 338,-396 332,-390 332,-384 332,-384 332,-372 332,-372 332,-366 338,-360 344,-360 344,-360 382,-360 382,-360 388,-360 394,-366 394,-372 394,-372 394,-384 394,-384 394,-390 388,-396 382,-396"/>
<text text-anchor="middle" x="363" y="-375.5" font-family="sans" font-size="10.00">blastn_nt</text>
</g>
<!-- 31&#45;&gt;41 -->
<g id="edge94" class="edge"><title>31&#45;&gt;41</title>
<path fill="none" stroke="grey" stroke-width="2" d="M361.494,-431.697C361.715,-423.983 361.98,-414.712 362.225,-406.112"/>
<polygon fill="grey" stroke="grey" points="365.724,-406.2 362.511,-396.104 358.727,-406 365.724,-406.2"/>
</g>
<!-- 32&#45;&gt;9 -->
<g id="edge38" class="edge"><title>32&#45;&gt;9</title>
<path fill="none" stroke="grey" stroke-width="2" d="M876.619,-791.695C885.12,-781.929 894.929,-769.086 901,-756 918.022,-719.309 920,-707.447 920,-667 920,-667 920,-667 920,-449 920,-370.061 902.015,-342.594 845,-288 822.125,-266.096 788.917,-252.703 762.058,-244.861"/>
<polygon fill="grey" stroke="grey" points="762.68,-241.402 752.109,-242.121 760.821,-248.151 762.68,-241.402"/>
</g>
<!-- 38 -->
<g id="node39" class="node"><title>38</title>
<path fill="none" stroke="#56d882" stroke-width="2" stroke-dasharray="5,2" d="M880,-756C880,-756 800,-756 800,-756 794,-756 788,-750 788,-744 788,-744 788,-732 788,-732 788,-726 794,-720 800,-720 800,-720 880,-720 880,-720 886,-720 892,-726 892,-732 892,-732 892,-744 892,-744 892,-750 886,-756 880,-756"/>
<text text-anchor="middle" x="840" y="-735.5" font-family="sans" font-size="10.00">bwa_mem_refbac</text>
</g>
<!-- 32&#45;&gt;38 -->
<g id="edge91" class="edge"><title>32&#45;&gt;38</title>
<path fill="none" stroke="grey" stroke-width="2" d="M855.056,-791.697C852.828,-783.898 850.145,-774.509 847.665,-765.829"/>
<polygon fill="grey" stroke="grey" points="851,-764.758 844.887,-756.104 844.269,-766.681 851,-764.758"/>
</g>
<!-- 33&#45;&gt;9 -->
<g id="edge39" class="edge"><title>33&#45;&gt;9</title>
<path fill="none" stroke="grey" stroke-width="2" d="M522.555,-791.894C534.467,-782.631 547.793,-770.182 556,-756 576.259,-720.993 575,-707.447 575,-667 575,-667 575,-667 575,-593 575,-457.209 514.886,-399.074 593,-288 595.531,-284.401 637.868,-266.745 672.376,-252.787"/>
<polygon fill="grey" stroke="grey" points="673.896,-255.948 681.862,-248.963 671.279,-249.456 673.896,-255.948"/>
</g>
<!-- 39 -->
<g id="node40" class="node"><title>39</title>
<path fill="none" stroke="#56d882" stroke-width="2" stroke-dasharray="5,2" d="M535,-756C535,-756 455,-756 455,-756 449,-756 443,-750 443,-744 443,-744 443,-732 443,-732 443,-726 449,-720 455,-720 455,-720 535,-720 535,-720 541,-720 547,-726 547,-732 547,-732 547,-744 547,-744 547,-750 541,-756 535,-756"/>
<text text-anchor="middle" x="495" y="-735.5" font-family="sans" font-size="10.00">bwa_mem_refbac</text>
</g>
<!-- 33&#45;&gt;39 -->
<g id="edge92" class="edge"><title>33&#45;&gt;39</title>
<path fill="none" stroke="grey" stroke-width="2" d="M496.506,-791.697C496.285,-783.983 496.02,-774.712 495.775,-766.112"/>
<polygon fill="grey" stroke="grey" points="499.273,-766 495.489,-756.104 492.276,-766.2 499.273,-766"/>
</g>
<!-- 34 -->
<g id="node35" class="node"><title>34</title>
<path fill="none" stroke="#b6d856" stroke-width="2" stroke-dasharray="5,2" d="M842,-684C842,-684 762,-684 762,-684 756,-684 750,-678 750,-672 750,-672 750,-660 750,-660 750,-654 756,-648 762,-648 762,-648 842,-648 842,-648 848,-648 854,-654 854,-660 854,-660 854,-672 854,-672 854,-678 848,-684 842,-684"/>
<text text-anchor="middle" x="802" y="-663.5" font-family="sans" font-size="10.00">unmapped_refbac</text>
</g>
<!-- 34&#45;&gt;9 -->
<g id="edge40" class="edge"><title>34&#45;&gt;9</title>
<path fill="none" stroke="grey" stroke-width="2" d="M810.499,-647.993C822.772,-621.822 844,-569.79 844,-523 844,-523 844,-523 844,-377 844,-336.031 845.744,-319.869 820,-288 805.163,-269.633 782.271,-256.965 761.833,-248.633"/>
<polygon fill="grey" stroke="grey" points="762.939,-245.308 752.349,-244.994 760.432,-251.844 762.939,-245.308"/>
</g>
<!-- 34&#45;&gt;36 -->
<g id="edge87" class="edge"><title>34&#45;&gt;36</title>
<path fill="none" stroke="grey" stroke-width="2" d="M776.559,-647.876C763.213,-638.893 746.676,-627.763 732.222,-618.034"/>
<polygon fill="grey" stroke="grey" points="733.789,-614.87 723.539,-612.19 729.881,-620.677 733.789,-614.87"/>
</g>
<!-- 35 -->
<g id="node36" class="node"><title>35</title>
<path fill="none" stroke="#b6d856" stroke-width="2" stroke-dasharray="5,2" d="M535,-684C535,-684 455,-684 455,-684 449,-684 443,-678 443,-672 443,-672 443,-660 443,-660 443,-654 449,-648 455,-648 455,-648 535,-648 535,-648 541,-648 547,-654 547,-660 547,-660 547,-672 547,-672 547,-678 541,-684 535,-684"/>
<text text-anchor="middle" x="495" y="-663.5" font-family="sans" font-size="10.00">unmapped_refbac</text>
</g>
<!-- 35&#45;&gt;9 -->
<g id="edge41" class="edge"><title>35&#45;&gt;9</title>
<path fill="none" stroke="grey" stroke-width="2" d="M503.297,-647.971C515.277,-621.77 536,-569.701 536,-523 536,-523 536,-523 536,-377 536,-336.031 531.728,-317.65 560,-288 596.081,-250.159 622.64,-269.244 672,-252 672.099,-251.966 672.197,-251.931 672.296,-251.897"/>
<polygon fill="grey" stroke="grey" points="673.454,-255.199 681.688,-248.532 671.093,-248.61 673.454,-255.199"/>
</g>
<!-- 35&#45;&gt;37 -->
<g id="edge89" class="edge"><title>35&#45;&gt;37</title>
<path fill="none" stroke="grey" stroke-width="2" d="M478.438,-647.697C470.325,-639.22 460.412,-628.864 451.529,-619.583"/>
<polygon fill="grey" stroke="grey" points="453.814,-616.908 444.371,-612.104 448.757,-621.749 453.814,-616.908"/>
</g>
<!-- 36&#45;&gt;9 -->
<g id="edge42" class="edge"><title>36&#45;&gt;9</title>
<path fill="none" stroke="grey" stroke-width="2" d="M718.802,-575.839C729.06,-566.302 740.755,-553.627 748,-540 767.032,-504.203 768,-491.542 768,-451 768,-451 768,-451 768,-377 768,-334.588 747.6,-289.023 732.604,-261.258"/>
<polygon fill="grey" stroke="grey" points="735.49,-259.248 727.567,-252.214 729.375,-262.654 735.49,-259.248"/>
</g>
<!-- 36&#45;&gt;30 -->
<g id="edge77" class="edge"><title>36&#45;&gt;30</title>
<path fill="none" stroke="grey" stroke-width="2" d="M674.695,-575.819C664.099,-566.538 652.68,-554.094 647,-540 638.878,-519.846 644.966,-495.659 652.341,-477.59"/>
<polygon fill="grey" stroke="grey" points="655.631,-478.806 656.488,-468.246 649.233,-475.966 655.631,-478.806"/>
</g>
<!-- 49 -->
<g id="node50" class="node"><title>49</title>
<path fill="none" stroke="#ced856" stroke-width="2" stroke-dasharray="5,2" d="M727.25,-540C727.25,-540 668.75,-540 668.75,-540 662.75,-540 656.75,-534 656.75,-528 656.75,-528 656.75,-516 656.75,-516 656.75,-510 662.75,-504 668.75,-504 668.75,-504 727.25,-504 727.25,-504 733.25,-504 739.25,-510 739.25,-516 739.25,-516 739.25,-528 739.25,-528 739.25,-534 733.25,-540 727.25,-540"/>
<text text-anchor="middle" x="698" y="-519.5" font-family="sans" font-size="10.00">megablast_nt</text>
</g>
<!-- 36&#45;&gt;49 -->
<g id="edge102" class="edge"><title>36&#45;&gt;49</title>
<path fill="none" stroke="grey" stroke-width="2" d="M698,-575.697C698,-567.983 698,-558.712 698,-550.112"/>
<polygon fill="grey" stroke="grey" points="701.5,-550.104 698,-540.104 694.5,-550.104 701.5,-550.104"/>
</g>
<!-- 37&#45;&gt;9 -->
<g id="edge43" class="edge"><title>37&#45;&gt;9</title>
<path fill="none" stroke="grey" stroke-width="2" d="M448.802,-575.839C459.06,-566.302 470.755,-553.627 478,-540 497.032,-504.203 498,-491.542 498,-451 498,-451 498,-451 498,-377 498,-336.031 492.63,-316.563 522,-288 571.15,-240.201 606.469,-272.154 672,-252 672.1,-251.969 672.2,-251.939 672.3,-251.908"/>
<polygon fill="grey" stroke="grey" points="673.369,-255.24 681.772,-248.787 671.179,-248.592 673.369,-255.24"/>
</g>
<!-- 37&#45;&gt;31 -->
<g id="edge79" class="edge"><title>37&#45;&gt;31</title>
<path fill="none" stroke="grey" stroke-width="2" d="M406.271,-575.809C395.803,-566.355 384.025,-553.762 377,-540 367.214,-520.831 363.321,-496.669 361.815,-478.359"/>
<polygon fill="grey" stroke="grey" points="365.306,-478.095 361.178,-468.337 358.32,-478.539 365.306,-478.095"/>
</g>
<!-- 50 -->
<g id="node51" class="node"><title>50</title>
<path fill="none" stroke="#ced856" stroke-width="2" stroke-dasharray="5,2" d="M457.25,-540C457.25,-540 398.75,-540 398.75,-540 392.75,-540 386.75,-534 386.75,-528 386.75,-528 386.75,-516 386.75,-516 386.75,-510 392.75,-504 398.75,-504 398.75,-504 457.25,-504 457.25,-504 463.25,-504 469.25,-510 469.25,-516 469.25,-516 469.25,-528 469.25,-528 469.25,-534 463.25,-540 457.25,-540"/>
<text text-anchor="middle" x="428" y="-519.5" font-family="sans" font-size="10.00">megablast_nt</text>
</g>
<!-- 37&#45;&gt;50 -->
<g id="edge103" class="edge"><title>37&#45;&gt;50</title>
<path fill="none" stroke="grey" stroke-width="2" d="M428,-575.697C428,-567.983 428,-558.712 428,-550.112"/>
<polygon fill="grey" stroke="grey" points="431.5,-550.104 428,-540.104 424.5,-550.104 431.5,-550.104"/>
</g>
<!-- 38&#45;&gt;10 -->
<g id="edge44" class="edge"><title>38&#45;&gt;10</title>
<path fill="none" stroke="grey" stroke-width="2" d="M848.499,-719.993C860.772,-693.822 882,-641.79 882,-595 882,-595 882,-595 882,-449 882,-325.109 863.938,-177.941 855.844,-118.208"/>
<polygon fill="grey" stroke="grey" points="859.283,-117.528 854.455,-108.098 852.349,-118.481 859.283,-117.528"/>
</g>
<!-- 38&#45;&gt;34 -->
<g id="edge85" class="edge"><title>38&#45;&gt;34</title>
<path fill="none" stroke="grey" stroke-width="2" d="M830.607,-719.697C826.235,-711.644 820.943,-701.894 816.105,-692.982"/>
<polygon fill="grey" stroke="grey" points="819.132,-691.223 811.285,-684.104 812.98,-694.563 819.132,-691.223"/>
</g>
<!-- 39&#45;&gt;11 -->
<g id="edge45" class="edge"><title>39&#45;&gt;11</title>
<path fill="none" stroke="grey" stroke-width="2" d="M468.583,-719.871C429.204,-694.338 355.045,-646.253 311.134,-617.781"/>
<polygon fill="grey" stroke="grey" points="312.805,-614.693 302.51,-612.189 308.997,-620.566 312.805,-614.693"/>
</g>
<!-- 39&#45;&gt;35 -->
<g id="edge86" class="edge"><title>39&#45;&gt;35</title>
<path fill="none" stroke="grey" stroke-width="2" d="M495,-719.697C495,-711.983 495,-702.712 495,-694.112"/>
<polygon fill="grey" stroke="grey" points="498.5,-694.104 495,-684.104 491.5,-694.104 498.5,-694.104"/>
</g>
<!-- 40&#45;&gt;16 -->
<g id="edge57" class="edge"><title>40&#45;&gt;16</title>
<path fill="none" stroke="grey" stroke-width="2" d="M665.562,-359.697C663.111,-351.898 660.16,-342.509 657.432,-333.829"/>
<polygon fill="grey" stroke="grey" points="660.713,-332.595 654.376,-324.104 654.035,-334.694 660.713,-332.595"/>
</g>
<!-- 41&#45;&gt;17 -->
<g id="edge59" class="edge"><title>41&#45;&gt;17</title>
<path fill="none" stroke="grey" stroke-width="2" d="M359.045,-359.697C357.282,-351.983 355.163,-342.712 353.197,-334.112"/>
<polygon fill="grey" stroke="grey" points="356.55,-333.073 350.91,-324.104 349.726,-334.633 356.55,-333.073"/>
</g>
<!-- 42&#45;&gt;21 -->
<g id="edge62" class="edge"><title>42&#45;&gt;21</title>
<path fill="none" stroke="grey" stroke-width="2" d="M809.303,-1151.7C807.187,-1143.9 804.638,-1134.51 802.282,-1125.83"/>
<polygon fill="grey" stroke="grey" points="805.64,-1124.84 799.643,-1116.1 798.884,-1126.67 805.64,-1124.84"/>
</g>
<!-- 43&#45;&gt;22 -->
<g id="edge64" class="edge"><title>43&#45;&gt;22</title>
<path fill="none" stroke="grey" stroke-width="2" d="M407.438,-1151.7C409.889,-1143.9 412.84,-1134.51 415.568,-1125.83"/>
<polygon fill="grey" stroke="grey" points="418.965,-1126.69 418.624,-1116.1 412.287,-1124.59 418.965,-1126.69"/>
</g>
<!-- 44 -->
<g id="node45" class="node"><title>44</title>
<path fill="none" stroke="#d86656" stroke-width="2" stroke-dasharray="5,2" d="M932.25,-1332C932.25,-1332 871.75,-1332 871.75,-1332 865.75,-1332 859.75,-1326 859.75,-1320 859.75,-1320 859.75,-1308 859.75,-1308 859.75,-1302 865.75,-1296 871.75,-1296 871.75,-1296 932.25,-1296 932.25,-1296 938.25,-1296 944.25,-1302 944.25,-1308 944.25,-1308 944.25,-1320 944.25,-1320 944.25,-1326 938.25,-1332 932.25,-1332"/>
<text text-anchor="middle" x="902" y="-1317" font-family="sans" font-size="10.00">repeatmasker</text>
<text text-anchor="middle" x="902" y="-1306" font-family="sans" font-size="10.00">n: 1</text>
</g>
<!-- 44&#45;&gt;26 -->
<g id="edge69" class="edge"><title>44&#45;&gt;26</title>
<path fill="none" stroke="grey" stroke-width="2" d="M902,-1295.7C902,-1287.98 902,-1278.71 902,-1270.11"/>
<polygon fill="grey" stroke="grey" points="905.5,-1270.1 902,-1260.1 898.5,-1270.1 905.5,-1270.1"/>
</g>
<!-- 45&#45;&gt;26 -->
<g id="edge70" class="edge"><title>45&#45;&gt;26</title>
<path fill="none" stroke="grey" stroke-width="2" d="M831.818,-1367.96C833.334,-1349.3 837.66,-1318.96 850,-1296 855.71,-1285.37 864.195,-1275.43 872.663,-1267.1"/>
<polygon fill="grey" stroke="grey" points="875.116,-1269.6 880.029,-1260.21 870.334,-1264.48 875.116,-1269.6"/>
</g>
<!-- 45&#45;&gt;27 -->
<g id="edge72" class="edge"><title>45&#45;&gt;27</title>
<path fill="none" stroke="grey" stroke-width="2" d="M796.786,-1381.25C754.844,-1375.53 682.617,-1361.94 628,-1332 598.091,-1315.6 570.257,-1287.84 552.344,-1267.68"/>
<polygon fill="grey" stroke="grey" points="554.954,-1265.35 545.753,-1260.1 549.67,-1269.94 554.954,-1265.35"/>
</g>
<!-- 45&#45;&gt;44 -->
<g id="edge97" class="edge"><title>45&#45;&gt;44</title>
<path fill="none" stroke="grey" stroke-width="2" d="M848.551,-1367.7C857.234,-1359.14 867.863,-1348.66 877.348,-1339.3"/>
<polygon fill="grey" stroke="grey" points="879.988,-1341.62 884.651,-1332.1 875.073,-1336.63 879.988,-1341.62"/>
</g>
<!-- 46 -->
<g id="node47" class="node"><title>46</title>
<path fill="none" stroke="#d86656" stroke-width="2" stroke-dasharray="5,2" d="M710.25,-1332C710.25,-1332 649.75,-1332 649.75,-1332 643.75,-1332 637.75,-1326 637.75,-1320 637.75,-1320 637.75,-1308 637.75,-1308 637.75,-1302 643.75,-1296 649.75,-1296 649.75,-1296 710.25,-1296 710.25,-1296 716.25,-1296 722.25,-1302 722.25,-1308 722.25,-1308 722.25,-1320 722.25,-1320 722.25,-1326 716.25,-1332 710.25,-1332"/>
<text text-anchor="middle" x="680" y="-1317" font-family="sans" font-size="10.00">repeatmasker</text>
<text text-anchor="middle" x="680" y="-1306" font-family="sans" font-size="10.00">n: 2</text>
</g>
<!-- 45&#45;&gt;46 -->
<g id="edge99" class="edge"><title>45&#45;&gt;46</title>
<path fill="none" stroke="grey" stroke-width="2" d="M796.736,-1369.12C775.781,-1359.4 748.713,-1346.85 725.918,-1336.29"/>
<polygon fill="grey" stroke="grey" points="727.311,-1333.07 716.767,-1332.04 724.367,-1339.43 727.311,-1333.07"/>
</g>
<!-- 46&#45;&gt;27 -->
<g id="edge71" class="edge"><title>46&#45;&gt;27</title>
<path fill="none" stroke="grey" stroke-width="2" d="M643.795,-1295.88C623.742,-1286.39 598.628,-1274.51 577.286,-1264.42"/>
<polygon fill="grey" stroke="grey" points="578.624,-1261.18 568.087,-1260.07 575.631,-1267.51 578.624,-1261.18"/>
</g>
<!-- 47&#45;&gt;28 -->
<g id="edge74" class="edge"><title>47&#45;&gt;28</title>
<path fill="none" stroke="grey" stroke-width="2" d="M779.157,-1007.7C782.914,-999.728 787.453,-990.1 791.618,-981.264"/>
<polygon fill="grey" stroke="grey" points="794.838,-982.642 795.937,-972.104 788.506,-979.657 794.838,-982.642"/>
</g>
<!-- 48&#45;&gt;29 -->
<g id="edge76" class="edge"><title>48&#45;&gt;29</title>
<path fill="none" stroke="grey" stroke-width="2" d="M406.888,-1007.7C411.489,-999.644 417.06,-989.894 422.153,-980.982"/>
<polygon fill="grey" stroke="grey" points="425.304,-982.523 427.226,-972.104 419.226,-979.05 425.304,-982.523"/>
</g>
<!-- 49&#45;&gt;30 -->
<g id="edge78" class="edge"><title>49&#45;&gt;30</title>
<path fill="none" stroke="grey" stroke-width="2" d="M690.09,-503.697C686.447,-495.728 682.046,-486.1 678.006,-477.264"/>
<polygon fill="grey" stroke="grey" points="681.16,-475.744 673.819,-468.104 674.794,-478.654 681.16,-475.744"/>
</g>
<!-- 50&#45;&gt;31 -->
<g id="edge80" class="edge"><title>50&#45;&gt;31</title>
<path fill="none" stroke="grey" stroke-width="2" d="M411.438,-503.697C403.325,-495.22 393.412,-484.864 384.529,-475.583"/>
<polygon fill="grey" stroke="grey" points="386.814,-472.908 377.371,-468.104 381.757,-477.749 386.814,-472.908"/>
</g>
</g>
</svg>
