<?xml version="1.0" encoding="UTF-8" standalone="no"?>
<!DOCTYPE svg PUBLIC "-//W3C//DTD SVG 1.1//EN"
 "http://www.w3.org/Graphics/SVG/1.1/DTD/svg11.dtd">
<!-- Generated by graphviz version 2.30.1 (20150306.0020)
 -->
<!-- Title: snakemake_dag Pages: 1 -->
<svg width="304pt" height="476pt"
 viewBox="0.00 0.00 304.00 476.00" xmlns="http://www.w3.org/2000/svg" xmlns:xlink="http://www.w3.org/1999/xlink">
<g id="graph0" class="graph" transform="scale(1 1) rotate(0) translate(4 472)">
<title>snakemake_dag</title>
<polygon fill="white" stroke="white" points="-4,5 -4,-472 301,-472 301,5 -4,5"/>
<!-- 0 -->
<g id="node1" class="node"><title>0</title>
<path fill="none" stroke="#d85656" stroke-width="2" d="M163,-36C163,-36 133,-36 133,-36 127,-36 121,-30 121,-24 121,-24 121,-12 121,-12 121,-6 127,-0 133,-0 133,-0 163,-0 163,-0 169,-0 175,-6 175,-12 175,-12 175,-24 175,-24 175,-30 169,-36 163,-36"/>
<text text-anchor="middle" x="148" y="-15.5" font-family="sans" font-size="10.00">all</text>
</g>
<!-- 1 -->
<g id="node2" class="node"><title>1</title>
<path fill="none" stroke="#56d8c9" stroke-width="2" d="M163,-108C163,-108 133,-108 133,-108 127,-108 121,-102 121,-96 121,-96 121,-84 121,-84 121,-78 127,-72 133,-72 133,-72 163,-72 163,-72 169,-72 175,-78 175,-84 175,-84 175,-96 175,-96 175,-102 169,-108 163,-108"/>
<text text-anchor="middle" x="148" y="-87.5" font-family="sans" font-size="10.00">tantan</text>
</g>
<!-- 1&#45;&gt;0 -->
<g id="edge1" class="edge"><title>1&#45;&gt;0</title>
<path fill="none" stroke="grey" stroke-width="2" d="M148,-71.6966C148,-63.9827 148,-54.7125 148,-46.1124"/>
<polygon fill="grey" stroke="grey" points="151.5,-46.1043 148,-36.1043 144.5,-46.1044 151.5,-46.1043"/>
</g>
<!-- 2 -->
<g id="node3" class="node"><title>2</title>
<path fill="none" stroke="#56d87b" stroke-width="2" stroke-dasharray="5,2" d="M163,-180C163,-180 133,-180 133,-180 127,-180 121,-174 121,-168 121,-168 121,-156 121,-156 121,-150 127,-144 133,-144 133,-144 163,-144 163,-144 169,-144 175,-150 175,-156 175,-156 175,-168 175,-168 175,-174 169,-180 163,-180"/>
<text text-anchor="middle" x="148" y="-159.5" font-family="sans" font-size="10.00">cd_hit</text>
</g>
<!-- 2&#45;&gt;1 -->
<g id="edge2" class="edge"><title>2&#45;&gt;1</title>
<path fill="none" stroke="grey" stroke-width="2" d="M148,-143.697C148,-135.983 148,-126.712 148,-118.112"/>
<polygon fill="grey" stroke="grey" points="151.5,-118.104 148,-108.104 144.5,-118.104 151.5,-118.104"/>
</g>
<!-- 3 -->
<g id="node4" class="node"><title>3</title>
<path fill="none" stroke="#d8a456" stroke-width="2" stroke-dasharray="5,2" d="M171.25,-252C171.25,-252 124.75,-252 124.75,-252 118.75,-252 112.75,-246 112.75,-240 112.75,-240 112.75,-228 112.75,-228 112.75,-222 118.75,-216 124.75,-216 124.75,-216 171.25,-216 171.25,-216 177.25,-216 183.25,-222 183.25,-228 183.25,-228 183.25,-240 183.25,-240 183.25,-246 177.25,-252 171.25,-252"/>
<text text-anchor="middle" x="148" y="-231.5" font-family="sans" font-size="10.00">fastq2fasta</text>
</g>
<!-- 3&#45;&gt;2 -->
<g id="edge3" class="edge"><title>3&#45;&gt;2</title>
<path fill="none" stroke="grey" stroke-width="2" d="M148,-215.697C148,-207.983 148,-198.712 148,-190.112"/>
<polygon fill="grey" stroke="grey" points="151.5,-190.104 148,-180.104 144.5,-190.104 151.5,-190.104"/>
</g>
<!-- 4 -->
<g id="node5" class="node"><title>4</title>
<path fill="none" stroke="#56a2d8" stroke-width="2" stroke-dasharray="5,2" d="M176,-324C176,-324 120,-324 120,-324 114,-324 108,-318 108,-312 108,-312 108,-300 108,-300 108,-294 114,-288 120,-288 120,-288 176,-288 176,-288 182,-288 188,-294 188,-300 188,-300 188,-312 188,-312 188,-318 182,-324 176,-324"/>
<text text-anchor="middle" x="148" y="-303.5" font-family="sans" font-size="10.00">merge_reads</text>
</g>
<!-- 4&#45;&gt;3 -->
<g id="edge4" class="edge"><title>4&#45;&gt;3</title>
<path fill="none" stroke="grey" stroke-width="2" d="M148,-287.697C148,-279.983 148,-270.712 148,-262.112"/>
<polygon fill="grey" stroke="grey" points="151.5,-262.104 148,-252.104 144.5,-262.104 151.5,-262.104"/>
</g>
<!-- 5 -->
<g id="node6" class="node"><title>5</title>
<path fill="none" stroke="#78d856" stroke-width="2" stroke-dasharray="5,2" d="M167,-396C167,-396 129,-396 129,-396 123,-396 117,-390 117,-384 117,-384 117,-372 117,-372 117,-366 123,-360 129,-360 129,-360 167,-360 167,-360 173,-360 179,-366 179,-372 179,-372 179,-384 179,-384 179,-390 173,-396 167,-396"/>
<text text-anchor="middle" x="148" y="-375.5" font-family="sans" font-size="10.00">fastq_join</text>
</g>
<!-- 5&#45;&gt;4 -->
<g id="edge5" class="edge"><title>5&#45;&gt;4</title>
<path fill="none" stroke="grey" stroke-width="2" d="M148,-359.697C148,-351.983 148,-342.712 148,-334.112"/>
<polygon fill="grey" stroke="grey" points="151.5,-334.104 148,-324.104 144.5,-334.104 151.5,-334.104"/>
</g>
<!-- 6 -->
<g id="node7" class="node"><title>6</title>
<path fill="none" stroke="#c6d856" stroke-width="2" stroke-dasharray="5,2" d="M284,-468C284,-468 12,-468 12,-468 6,-468 0,-462 0,-456 0,-456 0,-444 0,-444 0,-438 6,-432 12,-432 12,-432 284,-432 284,-432 290,-432 296,-438 296,-444 296,-444 296,-456 296,-456 296,-462 290,-468 284,-468"/>
<text text-anchor="middle" x="148" y="-453" font-family="sans" font-size="10.00">fastp</text>
<text text-anchor="middle" x="148" y="-442" font-family="sans" font-size="10.00">sample: I1164_12629_Harvard_SIV_196_06_2_24_12_mini</text>
</g>
<!-- 6&#45;&gt;5 -->
<g id="edge6" class="edge"><title>6&#45;&gt;5</title>
<path fill="none" stroke="grey" stroke-width="2" d="M148,-431.697C148,-423.983 148,-414.712 148,-406.112"/>
<polygon fill="grey" stroke="grey" points="151.5,-406.104 148,-396.104 144.5,-406.104 151.5,-406.104"/>
</g>
</g>
</svg>
