<?xml version="1.0" encoding="UTF-8" standalone="no"?>
<!DOCTYPE svg PUBLIC "-//W3C//DTD SVG 1.1//EN"
 "http://www.w3.org/Graphics/SVG/1.1/DTD/svg11.dtd">
<!-- Generated by graphviz version 2.38.0 (20140413.2041)
 -->
<!-- Title: snakemake_dag Pages: 1 -->
<svg width="652pt" height="260pt"
 viewBox="0.00 0.00 652.13 260.00" xmlns="http://www.w3.org/2000/svg" xmlns:xlink="http://www.w3.org/1999/xlink">
<g id="graph0" class="graph" transform="scale(1 1) rotate(0) translate(4 256)">
<title>snakemake_dag</title>
<polygon fill="white" stroke="none" points="-4,4 -4,-256 648.126,-256 648.126,4 -4,4"/>
<!-- 0 -->
<g id="node1" class="node"><title>0</title>
<path fill="none" stroke="#d6d856" stroke-width="2" stroke-dasharray="5,2" d="M249.949,-36C249.949,-36 219.949,-36 219.949,-36 213.949,-36 207.949,-30 207.949,-24 207.949,-24 207.949,-12 207.949,-12 207.949,-6 213.949,-0 219.949,-0 219.949,-0 249.949,-0 249.949,-0 255.949,-0 261.949,-6 261.949,-12 261.949,-12 261.949,-24 261.949,-24 261.949,-30 255.949,-36 249.949,-36"/>
<text text-anchor="middle" x="234.949" y="-15.5" font-family="sans" font-size="10.00">all</text>
</g>
<!-- 1 -->
<g id="node2" class="node"><title>1</title>
<path fill="none" stroke="#d85656" stroke-width="2" stroke-dasharray="5,2" d="M117.949,-180C117.949,-180 27.949,-180 27.949,-180 21.949,-180 15.949,-174 15.949,-168 15.949,-168 15.949,-156 15.949,-156 15.949,-150 21.949,-144 27.949,-144 27.949,-144 117.949,-144 117.949,-144 123.949,-144 129.949,-150 129.949,-156 129.949,-156 129.949,-168 129.949,-168 129.949,-174 123.949,-180 117.949,-180"/>
<text text-anchor="middle" x="72.949" y="-165" font-family="sans" font-size="10.00">virus_nt_taxonomy</text>
<text text-anchor="middle" x="72.949" y="-154" font-family="sans" font-size="10.00">sample: SRR848973</text>
</g>
<!-- 1&#45;&gt;0 -->
<g id="edge1" class="edge"><title>1&#45;&gt;0</title>
<path fill="none" stroke="grey" stroke-width="2" d="M61.3241,-143.894C49.811,-124.611 36.0215,-93.1949 51.949,-72 69.4433,-48.7201 149.447,-32.391 197.694,-24.4645"/>
<polygon fill="grey" stroke="grey" stroke-width="2" points="198.441,-27.8895 207.764,-22.8559 197.337,-20.9772 198.441,-27.8895"/>
</g>
<!-- 7 -->
<g id="node8" class="node"><title>7</title>
<path fill="none" stroke="#56d8d8" stroke-width="2" stroke-dasharray="5,2" d="M194.449,-108C194.449,-108 73.449,-108 73.449,-108 67.449,-108 61.449,-102 61.449,-96 61.449,-96 61.449,-84 61.449,-84 61.449,-78 67.449,-72 73.449,-72 73.449,-72 194.449,-72 194.449,-72 200.449,-72 206.449,-78 206.449,-84 206.449,-84 206.449,-96 206.449,-96 206.449,-102 200.449,-108 194.449,-108"/>
<text text-anchor="middle" x="133.949" y="-87.5" font-family="sans" font-size="10.00">virus_nt_taxonomy_report</text>
</g>
<!-- 1&#45;&gt;7 -->
<g id="edge15" class="edge"><title>1&#45;&gt;7</title>
<path fill="none" stroke="grey" stroke-width="2" d="M88.0276,-143.697C95.3407,-135.305 104.259,-125.07 112.284,-115.861"/>
<polygon fill="grey" stroke="grey" stroke-width="2" points="115.113,-117.943 119.044,-108.104 109.835,-113.344 115.113,-117.943"/>
</g>
<!-- 2 -->
<g id="node3" class="node"><title>2</title>
<path fill="none" stroke="#d85656" stroke-width="2" stroke-dasharray="5,2" d="M287.949,-180C287.949,-180 197.949,-180 197.949,-180 191.949,-180 185.949,-174 185.949,-168 185.949,-168 185.949,-156 185.949,-156 185.949,-150 191.949,-144 197.949,-144 197.949,-144 287.949,-144 287.949,-144 293.949,-144 299.949,-150 299.949,-156 299.949,-156 299.949,-168 299.949,-168 299.949,-174 293.949,-180 287.949,-180"/>
<text text-anchor="middle" x="242.949" y="-165" font-family="sans" font-size="10.00">virus_nt_taxonomy</text>
<text text-anchor="middle" x="242.949" y="-154" font-family="sans" font-size="10.00">sample: SRR848994</text>
</g>
<!-- 2&#45;&gt;0 -->
<g id="edge2" class="edge"><title>2&#45;&gt;0</title>
<path fill="none" stroke="grey" stroke-width="2" d="M241.984,-143.871C240.621,-119.67 238.116,-75.2108 236.492,-46.3932"/>
<polygon fill="grey" stroke="grey" stroke-width="2" points="239.974,-45.9765 235.917,-36.1893 232.986,-46.3703 239.974,-45.9765"/>
</g>
<!-- 6 -->
<g id="node7" class="node"><title>6</title>
<path fill="none" stroke="#56d8d8" stroke-width="2" stroke-dasharray="5,2" d="M396.449,-108C396.449,-108 275.449,-108 275.449,-108 269.449,-108 263.449,-102 263.449,-96 263.449,-96 263.449,-84 263.449,-84 263.449,-78 269.449,-72 275.449,-72 275.449,-72 396.449,-72 396.449,-72 402.449,-72 408.449,-78 408.449,-84 408.449,-84 408.449,-96 408.449,-96 408.449,-102 402.449,-108 396.449,-108"/>
<text text-anchor="middle" x="335.949" y="-87.5" font-family="sans" font-size="10.00">virus_nt_taxonomy_report</text>
</g>
<!-- 2&#45;&gt;6 -->
<g id="edge13" class="edge"><title>2&#45;&gt;6</title>
<path fill="none" stroke="grey" stroke-width="2" d="M265.938,-143.697C277.763,-134.796 292.341,-123.823 305.128,-114.199"/>
<polygon fill="grey" stroke="grey" stroke-width="2" points="307.34,-116.915 313.225,-108.104 303.13,-111.322 307.34,-116.915"/>
</g>
<!-- 3 -->
<g id="node4" class="node"><title>3</title>
<path fill="none" stroke="#d85656" stroke-width="2" stroke-dasharray="5,2" d="M615.949,-180C615.949,-180 367.949,-180 367.949,-180 361.949,-180 355.949,-174 355.949,-168 355.949,-168 355.949,-156 355.949,-156 355.949,-150 361.949,-144 367.949,-144 367.949,-144 615.949,-144 615.949,-144 621.949,-144 627.949,-150 627.949,-156 627.949,-156 627.949,-168 627.949,-168 627.949,-174 621.949,-180 615.949,-180"/>
<text text-anchor="middle" x="491.949" y="-165" font-family="sans" font-size="10.00">virus_nt_taxonomy</text>
<text text-anchor="middle" x="491.949" y="-154" font-family="sans" font-size="10.00">sample: I1164_12629_Harvard_SIV_196_06_2_24_12</text>
</g>
<!-- 3&#45;&gt;0 -->
<g id="edge3" class="edge"><title>3&#45;&gt;0</title>
<path fill="none" stroke="grey" stroke-width="2" d="M479.502,-143.98C462.393,-121.006 432.021,-81.8097 416.949,-72 372.198,-42.8741 311.067,-29.3782 272.294,-23.3995"/>
<polygon fill="grey" stroke="grey" stroke-width="2" points="272.381,-19.8757 261.983,-21.9058 271.378,-26.8034 272.381,-19.8757"/>
</g>
<!-- 4 -->
<g id="node5" class="node"><title>4</title>
<path fill="none" stroke="#56d8d8" stroke-width="2" stroke-dasharray="5,2" d="M598.449,-108C598.449,-108 477.449,-108 477.449,-108 471.449,-108 465.449,-102 465.449,-96 465.449,-96 465.449,-84 465.449,-84 465.449,-78 471.449,-72 477.449,-72 477.449,-72 598.449,-72 598.449,-72 604.449,-72 610.449,-78 610.449,-84 610.449,-84 610.449,-96 610.449,-96 610.449,-102 604.449,-108 598.449,-108"/>
<text text-anchor="middle" x="537.949" y="-87.5" font-family="sans" font-size="10.00">virus_nt_taxonomy_report</text>
</g>
<!-- 3&#45;&gt;4 -->
<g id="edge12" class="edge"><title>3&#45;&gt;4</title>
<path fill="none" stroke="grey" stroke-width="2" d="M503.32,-143.697C508.667,-135.559 515.153,-125.689 521.06,-116.701"/>
<polygon fill="grey" stroke="grey" stroke-width="2" points="524.142,-118.384 526.709,-108.104 518.292,-114.539 524.142,-118.384"/>
</g>
<!-- 4&#45;&gt;0 -->
<g id="edge4" class="edge"><title>4&#45;&gt;0</title>
<path fill="none" stroke="grey" stroke-width="2" d="M465.373,-72.2333C404.533,-58.1778 320.133,-38.6796 272.181,-27.6014"/>
<polygon fill="grey" stroke="grey" stroke-width="2" points="272.769,-24.1451 262.238,-25.3043 271.193,-30.9655 272.769,-24.1451"/>
</g>
<!-- 5 -->
<g id="node6" class="node"><title>5</title>
<path fill="none" stroke="#59d856" stroke-width="2" stroke-dasharray="5,2" d="M290.449,-252C290.449,-252 195.449,-252 195.449,-252 189.449,-252 183.449,-246 183.449,-240 183.449,-240 183.449,-228 183.449,-228 183.449,-222 189.449,-216 195.449,-216 195.449,-216 290.449,-216 290.449,-216 296.449,-216 302.449,-222 302.449,-228 302.449,-228 302.449,-240 302.449,-240 302.449,-246 296.449,-252 290.449,-252"/>
<text text-anchor="middle" x="242.949" y="-231.5" font-family="sans" font-size="10.00">download_taxonomy</text>
</g>
<!-- 5&#45;&gt;0 -->
<g id="edge5" class="edge"><title>5&#45;&gt;0</title>
<path fill="none" stroke="grey" stroke-width="2" d="M183.178,-227.954C120.656,-221.29 28.6292,-207.089 6.94897,-180 -18.5389,-148.153 36.7408,-75.5312 40.949,-72 85.8235,-34.3442 155.208,-23.2815 197.7,-20.1287"/>
<polygon fill="grey" stroke="grey" stroke-width="2" points="198.132,-23.6085 207.892,-19.4862 197.692,-16.6223 198.132,-23.6085"/>
</g>
<!-- 5&#45;&gt;1 -->
<g id="edge8" class="edge"><title>5&#45;&gt;1</title>
<path fill="none" stroke="grey" stroke-width="2" d="M201.362,-215.876C177.916,-206.222 148.445,-194.087 123.652,-183.878"/>
<polygon fill="grey" stroke="grey" stroke-width="2" points="124.98,-180.639 114.401,-180.068 122.315,-187.112 124.98,-180.639"/>
</g>
<!-- 5&#45;&gt;2 -->
<g id="edge9" class="edge"><title>5&#45;&gt;2</title>
<path fill="none" stroke="grey" stroke-width="2" d="M242.949,-215.697C242.949,-207.983 242.949,-198.712 242.949,-190.112"/>
<polygon fill="grey" stroke="grey" stroke-width="2" points="246.449,-190.104 242.949,-180.104 239.449,-190.104 246.449,-190.104"/>
</g>
<!-- 5&#45;&gt;3 -->
<g id="edge10" class="edge"><title>5&#45;&gt;3</title>
<path fill="none" stroke="grey" stroke-width="2" d="M302.591,-216.233C338.251,-206.208 383.759,-193.415 421.225,-182.882"/>
<polygon fill="grey" stroke="grey" stroke-width="2" points="422.385,-186.192 431.064,-180.116 420.49,-179.453 422.385,-186.192"/>
</g>
<!-- 5&#45;&gt;4 -->
<g id="edge11" class="edge"><title>5&#45;&gt;4</title>
<path fill="none" stroke="grey" stroke-width="2" d="M302.467,-229.254C407.156,-222.056 615.283,-204.776 636.949,-180 647.482,-167.956 645.17,-157.726 636.949,-144 628.937,-130.623 616.268,-120.432 602.634,-112.741"/>
<polygon fill="grey" stroke="grey" stroke-width="2" points="604.063,-109.539 593.575,-108.039 600.839,-115.752 604.063,-109.539"/>
</g>
<!-- 5&#45;&gt;6 -->
<g id="edge14" class="edge"><title>5&#45;&gt;6</title>
<path fill="none" stroke="grey" stroke-width="2" d="M271.343,-215.925C284.457,-206.75 299.238,-194.367 308.949,-180 321.555,-161.35 328.438,-136.618 332.093,-117.959"/>
<polygon fill="grey" stroke="grey" stroke-width="2" points="335.554,-118.489 333.85,-108.032 328.661,-117.269 335.554,-118.489"/>
</g>
<!-- 5&#45;&gt;7 -->
<g id="edge16" class="edge"><title>5&#45;&gt;7</title>
<path fill="none" stroke="grey" stroke-width="2" d="M216.482,-215.936C203.371,-206.515 188.021,-193.914 176.949,-180 161.914,-161.106 150.416,-136.094 143.109,-117.397"/>
<polygon fill="grey" stroke="grey" stroke-width="2" points="146.372,-116.131 139.579,-108.001 139.819,-118.593 146.372,-116.131"/>
</g>
<!-- 6&#45;&gt;0 -->
<g id="edge6" class="edge"><title>6&#45;&gt;0</title>
<path fill="none" stroke="grey" stroke-width="2" d="M311.242,-71.8761C298.28,-62.8931 282.221,-51.7625 268.184,-42.0341"/>
<polygon fill="grey" stroke="grey" stroke-width="2" points="269.964,-39.0095 259.751,-36.1898 265.977,-44.7628 269.964,-39.0095"/>
</g>
<!-- 7&#45;&gt;0 -->
<g id="edge7" class="edge"><title>7&#45;&gt;0</title>
<path fill="none" stroke="grey" stroke-width="2" d="M158.656,-71.8761C171.618,-62.8931 187.677,-51.7625 201.714,-42.0341"/>
<polygon fill="grey" stroke="grey" stroke-width="2" points="203.921,-44.7628 210.147,-36.1898 199.934,-39.0095 203.921,-44.7628"/>
</g>
</g>
</svg>
