<?xml version="1.0" encoding="UTF-8" standalone="no"?>
<!DOCTYPE svg PUBLIC "-//W3C//DTD SVG 1.1//EN"
 "http://www.w3.org/Graphics/SVG/1.1/DTD/svg11.dtd">
<!-- Generated by graphviz version 2.38.0 (20140413.2041)
 -->
<!-- Title: snakemake_dag Pages: 1 -->
<svg width="1287pt" height="1268pt"
 viewBox="0.00 0.00 1286.50 1268.00" xmlns="http://www.w3.org/2000/svg" xmlns:xlink="http://www.w3.org/1999/xlink">
<g id="graph0" class="graph" transform="scale(1 1) rotate(0) translate(4 1264)">
<title>snakemake_dag</title>
<polygon fill="white" stroke="none" points="-4,4 -4,-1264 1282.5,-1264 1282.5,4 -4,4"/>
<!-- 0 -->
<g id="node1" class="node"><title>0</title>
<path fill="none" stroke="#d87556" stroke-width="2" stroke-dasharray="5,2" d="M669,-36C669,-36 639,-36 639,-36 633,-36 627,-30 627,-24 627,-24 627,-12 627,-12 627,-6 633,-0 639,-0 639,-0 669,-0 669,-0 675,-0 681,-6 681,-12 681,-12 681,-24 681,-24 681,-30 675,-36 669,-36"/>
<text text-anchor="middle" x="654" y="-15.5" font-family="sans" font-size="10.00">all</text>
</g>
<!-- 1 -->
<g id="node2" class="node"><title>1</title>
<path fill="none" stroke="#56d892" stroke-width="2" stroke-dasharray="5,2" d="M173.5,-180C173.5,-180 106.5,-180 106.5,-180 100.5,-180 94.5,-174 94.5,-168 94.5,-168 94.5,-156 94.5,-156 94.5,-150 100.5,-144 106.5,-144 106.5,-144 173.5,-144 173.5,-144 179.5,-144 185.5,-150 185.5,-156 185.5,-156 185.5,-168 185.5,-168 185.5,-174 179.5,-180 173.5,-180"/>
<text text-anchor="middle" x="140" y="-159.5" font-family="sans" font-size="10.00">blastn_virus_nt</text>
</g>
<!-- 1&#45;&gt;0 -->
<g id="edge1" class="edge"><title>1&#45;&gt;0</title>
<path fill="none" stroke="grey" stroke-width="2" d="M129.544,-143.966C118.873,-124.157 106.197,-91.6718 124,-72 157.019,-35.5144 501.537,-23.0611 616.725,-19.8998"/>
<polygon fill="grey" stroke="grey" stroke-width="2" points="616.923,-23.3959 626.827,-19.6304 616.737,-16.3983 616.923,-23.3959"/>
</g>
<!-- 14 -->
<g id="node15" class="node"><title>14</title>
<path fill="none" stroke="#d8cb56" stroke-width="2" stroke-dasharray="5,2" d="M228.5,-108C228.5,-108 145.5,-108 145.5,-108 139.5,-108 133.5,-102 133.5,-96 133.5,-96 133.5,-84 133.5,-84 133.5,-78 139.5,-72 145.5,-72 145.5,-72 228.5,-72 228.5,-72 234.5,-72 240.5,-78 240.5,-84 240.5,-84 240.5,-96 240.5,-96 240.5,-102 234.5,-108 228.5,-108"/>
<text text-anchor="middle" x="187" y="-87.5" font-family="sans" font-size="10.00">parse_virusntblast</text>
</g>
<!-- 1&#45;&gt;14 -->
<g id="edge37" class="edge"><title>1&#45;&gt;14</title>
<path fill="none" stroke="grey" stroke-width="2" d="M151.618,-143.697C157.139,-135.474 163.847,-125.483 169.932,-116.421"/>
<polygon fill="grey" stroke="grey" stroke-width="2" points="172.847,-118.358 175.516,-108.104 167.035,-114.456 172.847,-118.358"/>
</g>
<!-- 2 -->
<g id="node3" class="node"><title>2</title>
<path fill="none" stroke="#d8cb56" stroke-width="2" stroke-dasharray="5,2" d="M594.5,-108C594.5,-108 511.5,-108 511.5,-108 505.5,-108 499.5,-102 499.5,-96 499.5,-96 499.5,-84 499.5,-84 499.5,-78 505.5,-72 511.5,-72 511.5,-72 594.5,-72 594.5,-72 600.5,-72 606.5,-78 606.5,-84 606.5,-84 606.5,-96 606.5,-96 606.5,-102 600.5,-108 594.5,-108"/>
<text text-anchor="middle" x="553" y="-87.5" font-family="sans" font-size="10.00">parse_virusntblast</text>
</g>
<!-- 2&#45;&gt;0 -->
<g id="edge2" class="edge"><title>2&#45;&gt;0</title>
<path fill="none" stroke="grey" stroke-width="2" d="M577.707,-71.8761C590.669,-62.8931 606.728,-51.7625 620.765,-42.0341"/>
<polygon fill="grey" stroke="grey" stroke-width="2" points="622.972,-44.7628 629.198,-36.1898 618.985,-39.0095 622.972,-44.7628"/>
</g>
<!-- 3 -->
<g id="node4" class="node"><title>3</title>
<path fill="none" stroke="#56d892" stroke-width="2" stroke-dasharray="5,2" d="M982.5,-180C982.5,-180 915.5,-180 915.5,-180 909.5,-180 903.5,-174 903.5,-168 903.5,-168 903.5,-156 903.5,-156 903.5,-150 909.5,-144 915.5,-144 915.5,-144 982.5,-144 982.5,-144 988.5,-144 994.5,-150 994.5,-156 994.5,-156 994.5,-168 994.5,-168 994.5,-174 988.5,-180 982.5,-180"/>
<text text-anchor="middle" x="949" y="-159.5" font-family="sans" font-size="10.00">blastn_virus_nt</text>
</g>
<!-- 3&#45;&gt;0 -->
<g id="edge3" class="edge"><title>3&#45;&gt;0</title>
<path fill="none" stroke="grey" stroke-width="2" d="M942.089,-143.67C933.029,-123.26 915.151,-89.8801 889,-72 828.53,-30.655 740.802,-21.0754 691.42,-19.1484"/>
<polygon fill="grey" stroke="grey" stroke-width="2" points="691.297,-15.6431 681.195,-18.8383 691.084,-22.6399 691.297,-15.6431"/>
</g>
<!-- 8 -->
<g id="node9" class="node"><title>8</title>
<path fill="none" stroke="#d8cb56" stroke-width="2" stroke-dasharray="5,2" d="M1036.5,-108C1036.5,-108 953.5,-108 953.5,-108 947.5,-108 941.5,-102 941.5,-96 941.5,-96 941.5,-84 941.5,-84 941.5,-78 947.5,-72 953.5,-72 953.5,-72 1036.5,-72 1036.5,-72 1042.5,-72 1048.5,-78 1048.5,-84 1048.5,-84 1048.5,-96 1048.5,-96 1048.5,-102 1042.5,-108 1036.5,-108"/>
<text text-anchor="middle" x="995" y="-87.5" font-family="sans" font-size="10.00">parse_virusntblast</text>
</g>
<!-- 3&#45;&gt;8 -->
<g id="edge29" class="edge"><title>3&#45;&gt;8</title>
<path fill="none" stroke="grey" stroke-width="2" d="M960.371,-143.697C965.718,-135.559 972.204,-125.689 978.111,-116.701"/>
<polygon fill="grey" stroke="grey" stroke-width="2" points="981.193,-118.384 983.76,-108.104 975.343,-114.539 981.193,-118.384"/>
</g>
<!-- 4 -->
<g id="node5" class="node"><title>4</title>
<path fill="none" stroke="#d8cb56" stroke-width="2" stroke-dasharray="5,2" d="M1200.5,-108C1200.5,-108 1117.5,-108 1117.5,-108 1111.5,-108 1105.5,-102 1105.5,-96 1105.5,-96 1105.5,-84 1105.5,-84 1105.5,-78 1111.5,-72 1117.5,-72 1117.5,-72 1200.5,-72 1200.5,-72 1206.5,-72 1212.5,-78 1212.5,-84 1212.5,-84 1212.5,-96 1212.5,-96 1212.5,-102 1206.5,-108 1200.5,-108"/>
<text text-anchor="middle" x="1159" y="-87.5" font-family="sans" font-size="10.00">parse_virusntblast</text>
</g>
<!-- 4&#45;&gt;0 -->
<g id="edge4" class="edge"><title>4&#45;&gt;0</title>
<path fill="none" stroke="grey" stroke-width="2" d="M1105.31,-74.9234C1100.49,-73.8574 1095.67,-72.8629 1091,-72 944.042,-44.8275 766.607,-28.242 691.007,-21.9245"/>
<polygon fill="grey" stroke="grey" stroke-width="2" points="691.283,-18.4355 681.029,-21.1012 690.708,-25.4118 691.283,-18.4355"/>
</g>
<!-- 5 -->
<g id="node6" class="node"><title>5</title>
<path fill="none" stroke="#d8cb56" stroke-width="2" stroke-dasharray="5,2" d="M392.5,-108C392.5,-108 309.5,-108 309.5,-108 303.5,-108 297.5,-102 297.5,-96 297.5,-96 297.5,-84 297.5,-84 297.5,-78 303.5,-72 309.5,-72 309.5,-72 392.5,-72 392.5,-72 398.5,-72 404.5,-78 404.5,-84 404.5,-84 404.5,-96 404.5,-96 404.5,-102 398.5,-108 392.5,-108"/>
<text text-anchor="middle" x="351" y="-87.5" font-family="sans" font-size="10.00">parse_virusntblast</text>
</g>
<!-- 5&#45;&gt;0 -->
<g id="edge5" class="edge"><title>5&#45;&gt;0</title>
<path fill="none" stroke="grey" stroke-width="2" d="M404.794,-75.4295C409.594,-74.2554 414.383,-73.0977 419,-72 488.793,-55.4079 570.56,-37.2564 616.922,-27.0841"/>
<polygon fill="grey" stroke="grey" stroke-width="2" points="617.794,-30.4761 626.813,-24.9171 616.296,-23.6383 617.794,-30.4761"/>
</g>
<!-- 6 -->
<g id="node7" class="node"><title>6</title>
<path fill="none" stroke="#70d856" stroke-width="2" stroke-dasharray="5,2" d="M120,-324C120,-324 12,-324 12,-324 6,-324 0,-318 0,-312 0,-312 0,-300 0,-300 0,-294 6,-288 12,-288 12,-288 120,-288 120,-288 126,-288 132,-294 132,-300 132,-300 132,-312 132,-312 132,-318 126,-324 120,-324"/>
<text text-anchor="middle" x="66" y="-303.5" font-family="sans" font-size="10.00">megablast_ref_genome</text>
</g>
<!-- 6&#45;&gt;0 -->
<g id="edge6" class="edge"><title>6&#45;&gt;0</title>
<path fill="none" stroke="grey" stroke-width="2" d="M62.8686,-287.727C55.8964,-243.077 44.627,-123.724 112,-72 151.953,-41.3273 500.948,-24.9951 616.801,-20.3823"/>
<polygon fill="grey" stroke="grey" stroke-width="2" points="617.098,-23.8735 626.953,-19.9845 616.824,-16.8788 617.098,-23.8735"/>
</g>
<!-- 19 -->
<g id="node20" class="node"><title>19</title>
<path fill="none" stroke="#5692d8" stroke-width="2" stroke-dasharray="5,2" d="M191.5,-252C191.5,-252 114.5,-252 114.5,-252 108.5,-252 102.5,-246 102.5,-240 102.5,-240 102.5,-228 102.5,-228 102.5,-222 108.5,-216 114.5,-216 114.5,-216 191.5,-216 191.5,-216 197.5,-216 203.5,-222 203.5,-228 203.5,-228 203.5,-240 203.5,-240 203.5,-246 197.5,-252 191.5,-252"/>
<text text-anchor="middle" x="153" y="-231.5" font-family="sans" font-size="10.00">parse_megablast</text>
</g>
<!-- 6&#45;&gt;19 -->
<g id="edge43" class="edge"><title>6&#45;&gt;19</title>
<path fill="none" stroke="grey" stroke-width="2" d="M87.5056,-287.697C98.4625,-278.881 111.946,-268.032 123.825,-258.474"/>
<polygon fill="grey" stroke="grey" stroke-width="2" points="126.145,-261.1 131.742,-252.104 121.756,-255.646 126.145,-261.1"/>
</g>
<!-- 7 -->
<g id="node8" class="node"><title>7</title>
<path fill="none" stroke="#56d892" stroke-width="2" stroke-dasharray="5,2" d="M780.5,-180C780.5,-180 713.5,-180 713.5,-180 707.5,-180 701.5,-174 701.5,-168 701.5,-168 701.5,-156 701.5,-156 701.5,-150 707.5,-144 713.5,-144 713.5,-144 780.5,-144 780.5,-144 786.5,-144 792.5,-150 792.5,-156 792.5,-156 792.5,-168 792.5,-168 792.5,-174 786.5,-180 780.5,-180"/>
<text text-anchor="middle" x="747" y="-159.5" font-family="sans" font-size="10.00">blastn_virus_nt</text>
</g>
<!-- 7&#45;&gt;0 -->
<g id="edge7" class="edge"><title>7&#45;&gt;0</title>
<path fill="none" stroke="grey" stroke-width="2" d="M735.782,-143.871C719.653,-119.244 689.784,-73.6377 670.953,-44.8845"/>
<polygon fill="grey" stroke="grey" stroke-width="2" points="673.665,-42.6372 665.258,-36.1893 667.809,-46.4724 673.665,-42.6372"/>
</g>
<!-- 9 -->
<g id="node10" class="node"><title>9</title>
<path fill="none" stroke="#d8cb56" stroke-width="2" stroke-dasharray="5,2" d="M834.5,-108C834.5,-108 751.5,-108 751.5,-108 745.5,-108 739.5,-102 739.5,-96 739.5,-96 739.5,-84 739.5,-84 739.5,-78 745.5,-72 751.5,-72 751.5,-72 834.5,-72 834.5,-72 840.5,-72 846.5,-78 846.5,-84 846.5,-84 846.5,-96 846.5,-96 846.5,-102 840.5,-108 834.5,-108"/>
<text text-anchor="middle" x="793" y="-87.5" font-family="sans" font-size="10.00">parse_virusntblast</text>
</g>
<!-- 7&#45;&gt;9 -->
<g id="edge31" class="edge"><title>7&#45;&gt;9</title>
<path fill="none" stroke="grey" stroke-width="2" d="M758.371,-143.697C763.718,-135.559 770.204,-125.689 776.111,-116.701"/>
<polygon fill="grey" stroke="grey" stroke-width="2" points="779.193,-118.384 781.76,-108.104 773.343,-114.539 779.193,-118.384"/>
</g>
<!-- 8&#45;&gt;0 -->
<g id="edge8" class="edge"><title>8&#45;&gt;0</title>
<path fill="none" stroke="grey" stroke-width="2" d="M941.241,-75.2796C936.433,-74.1375 931.633,-73.0281 927,-72 843.042,-53.3694 743.75,-35.0058 691.111,-25.5575"/>
<polygon fill="grey" stroke="grey" stroke-width="2" points="691.683,-22.1044 681.223,-23.7892 690.451,-28.9951 691.683,-22.1044"/>
</g>
<!-- 9&#45;&gt;0 -->
<g id="edge9" class="edge"><title>9&#45;&gt;0</title>
<path fill="none" stroke="grey" stroke-width="2" d="M758.997,-71.8761C738.133,-61.3692 711.436,-47.9245 690.183,-37.2217"/>
<polygon fill="grey" stroke="grey" stroke-width="2" points="691.648,-34.0406 681.142,-32.6687 688.499,-40.2926 691.648,-34.0406"/>
</g>
<!-- 10 -->
<g id="node11" class="node"><title>10</title>
<path fill="none" stroke="#70d856" stroke-width="2" stroke-dasharray="5,2" d="M929,-324C929,-324 821,-324 821,-324 815,-324 809,-318 809,-312 809,-312 809,-300 809,-300 809,-294 815,-288 821,-288 821,-288 929,-288 929,-288 935,-288 941,-294 941,-300 941,-300 941,-312 941,-312 941,-318 935,-324 929,-324"/>
<text text-anchor="middle" x="875" y="-303.5" font-family="sans" font-size="10.00">megablast_ref_genome</text>
</g>
<!-- 10&#45;&gt;0 -->
<g id="edge10" class="edge"><title>10&#45;&gt;0</title>
<path fill="none" stroke="grey" stroke-width="2" d="M879.459,-287.911C889.359,-245.707 908.313,-135.385 855,-72 834.137,-47.1954 743.594,-31.1063 691.425,-23.714"/>
<polygon fill="grey" stroke="grey" stroke-width="2" points="691.609,-20.2063 681.225,-22.31 690.654,-27.1409 691.609,-20.2063"/>
</g>
<!-- 21 -->
<g id="node22" class="node"><title>21</title>
<path fill="none" stroke="#5692d8" stroke-width="2" stroke-dasharray="5,2" d="M1000.5,-252C1000.5,-252 923.5,-252 923.5,-252 917.5,-252 911.5,-246 911.5,-240 911.5,-240 911.5,-228 911.5,-228 911.5,-222 917.5,-216 923.5,-216 923.5,-216 1000.5,-216 1000.5,-216 1006.5,-216 1012.5,-222 1012.5,-228 1012.5,-228 1012.5,-240 1012.5,-240 1012.5,-246 1006.5,-252 1000.5,-252"/>
<text text-anchor="middle" x="962" y="-231.5" font-family="sans" font-size="10.00">parse_megablast</text>
</g>
<!-- 10&#45;&gt;21 -->
<g id="edge48" class="edge"><title>10&#45;&gt;21</title>
<path fill="none" stroke="grey" stroke-width="2" d="M896.506,-287.697C907.463,-278.881 920.946,-268.032 932.825,-258.474"/>
<polygon fill="grey" stroke="grey" stroke-width="2" points="935.145,-261.1 940.742,-252.104 930.756,-255.646 935.145,-261.1"/>
</g>
<!-- 11 -->
<g id="node12" class="node"><title>11</title>
<path fill="none" stroke="#70d856" stroke-width="2" stroke-dasharray="5,2" d="M1131,-324C1131,-324 1023,-324 1023,-324 1017,-324 1011,-318 1011,-312 1011,-312 1011,-300 1011,-300 1011,-294 1017,-288 1023,-288 1023,-288 1131,-288 1131,-288 1137,-288 1143,-294 1143,-300 1143,-300 1143,-312 1143,-312 1143,-318 1137,-324 1131,-324"/>
<text text-anchor="middle" x="1077" y="-303.5" font-family="sans" font-size="10.00">megablast_ref_genome</text>
</g>
<!-- 11&#45;&gt;0 -->
<g id="edge11" class="edge"><title>11&#45;&gt;0</title>
<path fill="none" stroke="grey" stroke-width="2" d="M1081.86,-287.792C1092.84,-244.832 1114.37,-132.019 1057,-72 1007.28,-19.9864 781.051,-17.2083 691.07,-18.2303"/>
<polygon fill="grey" stroke="grey" stroke-width="2" points="690.994,-14.7309 681.042,-18.3667 691.089,-21.7302 690.994,-14.7309"/>
</g>
<!-- 22 -->
<g id="node23" class="node"><title>22</title>
<path fill="none" stroke="#5692d8" stroke-width="2" stroke-dasharray="5,2" d="M1203.5,-252C1203.5,-252 1126.5,-252 1126.5,-252 1120.5,-252 1114.5,-246 1114.5,-240 1114.5,-240 1114.5,-228 1114.5,-228 1114.5,-222 1120.5,-216 1126.5,-216 1126.5,-216 1203.5,-216 1203.5,-216 1209.5,-216 1215.5,-222 1215.5,-228 1215.5,-228 1215.5,-240 1215.5,-240 1215.5,-246 1209.5,-252 1203.5,-252"/>
<text text-anchor="middle" x="1165" y="-231.5" font-family="sans" font-size="10.00">parse_megablast</text>
</g>
<!-- 11&#45;&gt;22 -->
<g id="edge49" class="edge"><title>11&#45;&gt;22</title>
<path fill="none" stroke="grey" stroke-width="2" d="M1098.75,-287.697C1109.84,-278.881 1123.47,-268.032 1135.49,-258.474"/>
<polygon fill="grey" stroke="grey" stroke-width="2" points="1137.85,-261.069 1143.5,-252.104 1133.49,-255.59 1137.85,-261.069"/>
</g>
<!-- 12 -->
<g id="node13" class="node"><title>12</title>
<path fill="none" stroke="#70d856" stroke-width="2" stroke-dasharray="5,2" d="M525,-324C525,-324 417,-324 417,-324 411,-324 405,-318 405,-312 405,-312 405,-300 405,-300 405,-294 411,-288 417,-288 417,-288 525,-288 525,-288 531,-288 537,-294 537,-300 537,-300 537,-312 537,-312 537,-318 531,-324 525,-324"/>
<text text-anchor="middle" x="471" y="-303.5" font-family="sans" font-size="10.00">megablast_ref_genome</text>
</g>
<!-- 12&#45;&gt;0 -->
<g id="edge12" class="edge"><title>12&#45;&gt;0</title>
<path fill="none" stroke="grey" stroke-width="2" d="M466.6,-287.791C456.963,-245.79 438.725,-136.748 490,-72 520.224,-33.834 578.275,-22.7729 616.573,-19.7798"/>
<polygon fill="grey" stroke="grey" stroke-width="2" points="617.052,-23.2566 626.812,-19.1337 616.611,-16.2705 617.052,-23.2566"/>
</g>
<!-- 20 -->
<g id="node21" class="node"><title>20</title>
<path fill="none" stroke="#5692d8" stroke-width="2" stroke-dasharray="5,2" d="M596.5,-252C596.5,-252 519.5,-252 519.5,-252 513.5,-252 507.5,-246 507.5,-240 507.5,-240 507.5,-228 507.5,-228 507.5,-222 513.5,-216 519.5,-216 519.5,-216 596.5,-216 596.5,-216 602.5,-216 608.5,-222 608.5,-228 608.5,-228 608.5,-240 608.5,-240 608.5,-246 602.5,-252 596.5,-252"/>
<text text-anchor="middle" x="558" y="-231.5" font-family="sans" font-size="10.00">parse_megablast</text>
</g>
<!-- 12&#45;&gt;20 -->
<g id="edge46" class="edge"><title>12&#45;&gt;20</title>
<path fill="none" stroke="grey" stroke-width="2" d="M492.506,-287.697C503.463,-278.881 516.946,-268.032 528.825,-258.474"/>
<polygon fill="grey" stroke="grey" stroke-width="2" points="531.145,-261.1 536.742,-252.104 526.756,-255.646 531.145,-261.1"/>
</g>
<!-- 13 -->
<g id="node14" class="node"><title>13</title>
<path fill="none" stroke="#56d892" stroke-width="2" stroke-dasharray="5,2" d="M632.5,-180C632.5,-180 565.5,-180 565.5,-180 559.5,-180 553.5,-174 553.5,-168 553.5,-168 553.5,-156 553.5,-156 553.5,-150 559.5,-144 565.5,-144 565.5,-144 632.5,-144 632.5,-144 638.5,-144 644.5,-150 644.5,-156 644.5,-156 644.5,-168 644.5,-168 644.5,-174 638.5,-180 632.5,-180"/>
<text text-anchor="middle" x="599" y="-159.5" font-family="sans" font-size="10.00">blastn_virus_nt</text>
</g>
<!-- 13&#45;&gt;0 -->
<g id="edge13" class="edge"><title>13&#45;&gt;0</title>
<path fill="none" stroke="grey" stroke-width="2" d="M605.634,-143.871C615.091,-119.457 632.532,-74.4258 643.684,-45.6351"/>
<polygon fill="grey" stroke="grey" stroke-width="2" points="646.994,-46.7784 647.342,-36.1893 640.467,-44.2501 646.994,-46.7784"/>
</g>
<!-- 13&#45;&gt;2 -->
<g id="edge20" class="edge"><title>13&#45;&gt;2</title>
<path fill="none" stroke="grey" stroke-width="2" d="M587.629,-143.697C582.282,-135.559 575.796,-125.689 569.889,-116.701"/>
<polygon fill="grey" stroke="grey" stroke-width="2" points="572.657,-114.539 564.24,-108.104 566.807,-118.384 572.657,-114.539"/>
</g>
<!-- 14&#45;&gt;0 -->
<g id="edge14" class="edge"><title>14&#45;&gt;0</title>
<path fill="none" stroke="grey" stroke-width="2" d="M240.698,-74.9806C245.519,-73.9023 250.338,-72.8894 255,-72 386.885,-46.8384 545.559,-29.5911 616.519,-22.5518"/>
<polygon fill="grey" stroke="grey" stroke-width="2" points="617.128,-26.0089 626.738,-21.5487 616.444,-19.0424 617.128,-26.0089"/>
</g>
<!-- 15 -->
<g id="node16" class="node"><title>15</title>
<path fill="none" stroke="#70d856" stroke-width="2" stroke-dasharray="5,2" d="M727,-324C727,-324 619,-324 619,-324 613,-324 607,-318 607,-312 607,-312 607,-300 607,-300 607,-294 613,-288 619,-288 619,-288 727,-288 727,-288 733,-288 739,-294 739,-300 739,-300 739,-312 739,-312 739,-318 733,-324 727,-324"/>
<text text-anchor="middle" x="673" y="-303.5" font-family="sans" font-size="10.00">megablast_ref_genome</text>
</g>
<!-- 15&#45;&gt;0 -->
<g id="edge15" class="edge"><title>15&#45;&gt;0</title>
<path fill="none" stroke="grey" stroke-width="2" d="M671.868,-287.966C668.701,-240.291 659.726,-105.185 655.836,-46.63"/>
<polygon fill="grey" stroke="grey" stroke-width="2" points="659.305,-46.0524 655.15,-36.3065 652.32,-46.5165 659.305,-46.0524"/>
</g>
<!-- 25 -->
<g id="node26" class="node"><title>25</title>
<path fill="none" stroke="#5692d8" stroke-width="2" stroke-dasharray="5,2" d="M798.5,-252C798.5,-252 721.5,-252 721.5,-252 715.5,-252 709.5,-246 709.5,-240 709.5,-240 709.5,-228 709.5,-228 709.5,-222 715.5,-216 721.5,-216 721.5,-216 798.5,-216 798.5,-216 804.5,-216 810.5,-222 810.5,-228 810.5,-228 810.5,-240 810.5,-240 810.5,-246 804.5,-252 798.5,-252"/>
<text text-anchor="middle" x="760" y="-231.5" font-family="sans" font-size="10.00">parse_megablast</text>
</g>
<!-- 15&#45;&gt;25 -->
<g id="edge56" class="edge"><title>15&#45;&gt;25</title>
<path fill="none" stroke="grey" stroke-width="2" d="M694.506,-287.697C705.463,-278.881 718.946,-268.032 730.825,-258.474"/>
<polygon fill="grey" stroke="grey" stroke-width="2" points="733.145,-261.1 738.742,-252.104 728.756,-255.646 733.145,-261.1"/>
</g>
<!-- 16 -->
<g id="node17" class="node"><title>16</title>
<path fill="none" stroke="#56d892" stroke-width="2" stroke-dasharray="5,2" d="M430.5,-180C430.5,-180 363.5,-180 363.5,-180 357.5,-180 351.5,-174 351.5,-168 351.5,-168 351.5,-156 351.5,-156 351.5,-150 357.5,-144 363.5,-144 363.5,-144 430.5,-144 430.5,-144 436.5,-144 442.5,-150 442.5,-156 442.5,-156 442.5,-168 442.5,-168 442.5,-174 436.5,-180 430.5,-180"/>
<text text-anchor="middle" x="397" y="-159.5" font-family="sans" font-size="10.00">blastn_virus_nt</text>
</g>
<!-- 16&#45;&gt;0 -->
<g id="edge16" class="edge"><title>16&#45;&gt;0</title>
<path fill="none" stroke="grey" stroke-width="2" d="M404.037,-143.85C413.221,-123.618 431.221,-90.4123 457,-72 505.223,-37.5569 574.565,-25.4966 616.82,-21.2741"/>
<polygon fill="grey" stroke="grey" stroke-width="2" points="617.304,-24.7447 626.949,-20.3607 616.675,-17.773 617.304,-24.7447"/>
</g>
<!-- 16&#45;&gt;5 -->
<g id="edge26" class="edge"><title>16&#45;&gt;5</title>
<path fill="none" stroke="grey" stroke-width="2" d="M385.629,-143.697C380.282,-135.559 373.796,-125.689 367.889,-116.701"/>
<polygon fill="grey" stroke="grey" stroke-width="2" points="370.657,-114.539 362.24,-108.104 364.807,-118.384 370.657,-114.539"/>
</g>
<!-- 17 -->
<g id="node18" class="node"><title>17</title>
<path fill="none" stroke="#56d892" stroke-width="2" stroke-dasharray="5,2" d="M1266.5,-180C1266.5,-180 1199.5,-180 1199.5,-180 1193.5,-180 1187.5,-174 1187.5,-168 1187.5,-168 1187.5,-156 1187.5,-156 1187.5,-150 1193.5,-144 1199.5,-144 1199.5,-144 1266.5,-144 1266.5,-144 1272.5,-144 1278.5,-150 1278.5,-156 1278.5,-156 1278.5,-168 1278.5,-168 1278.5,-174 1272.5,-180 1266.5,-180"/>
<text text-anchor="middle" x="1233" y="-159.5" font-family="sans" font-size="10.00">blastn_virus_nt</text>
</g>
<!-- 17&#45;&gt;0 -->
<g id="edge17" class="edge"><title>17&#45;&gt;0</title>
<path fill="none" stroke="grey" stroke-width="2" d="M1236.32,-143.831C1239.14,-123.58 1240.12,-90.3555 1221,-72 1182.79,-35.3213 811.285,-22.9119 691.22,-19.8415"/>
<polygon fill="grey" stroke="grey" stroke-width="2" points="691.136,-16.3385 681.052,-19.5887 690.961,-23.3363 691.136,-16.3385"/>
</g>
<!-- 17&#45;&gt;4 -->
<g id="edge23" class="edge"><title>17&#45;&gt;4</title>
<path fill="none" stroke="grey" stroke-width="2" d="M1214.71,-143.697C1205.57,-135.05 1194.36,-124.449 1184.4,-115.027"/>
<polygon fill="grey" stroke="grey" stroke-width="2" points="1186.75,-112.434 1177.08,-108.104 1181.94,-117.519 1186.75,-112.434"/>
</g>
<!-- 18 -->
<g id="node19" class="node"><title>18</title>
<path fill="none" stroke="#70d856" stroke-width="2" stroke-dasharray="5,2" d="M323,-324C323,-324 215,-324 215,-324 209,-324 203,-318 203,-312 203,-312 203,-300 203,-300 203,-294 209,-288 215,-288 215,-288 323,-288 323,-288 329,-288 335,-294 335,-300 335,-300 335,-312 335,-312 335,-318 329,-324 323,-324"/>
<text text-anchor="middle" x="269" y="-303.5" font-family="sans" font-size="10.00">megablast_ref_genome</text>
</g>
<!-- 18&#45;&gt;0 -->
<g id="edge18" class="edge"><title>18&#45;&gt;0</title>
<path fill="none" stroke="grey" stroke-width="2" d="M264.098,-287.85C253.011,-245.022 231.172,-132.492 288,-72 332.212,-24.9371 532.905,-19.111 616.88,-18.775"/>
<polygon fill="grey" stroke="grey" stroke-width="2" points="616.998,-22.2749 626.993,-18.7592 616.987,-15.2749 616.998,-22.2749"/>
</g>
<!-- 23 -->
<g id="node24" class="node"><title>23</title>
<path fill="none" stroke="#5692d8" stroke-width="2" stroke-dasharray="5,2" d="M394.5,-252C394.5,-252 317.5,-252 317.5,-252 311.5,-252 305.5,-246 305.5,-240 305.5,-240 305.5,-228 305.5,-228 305.5,-222 311.5,-216 317.5,-216 317.5,-216 394.5,-216 394.5,-216 400.5,-216 406.5,-222 406.5,-228 406.5,-228 406.5,-240 406.5,-240 406.5,-246 400.5,-252 394.5,-252"/>
<text text-anchor="middle" x="356" y="-231.5" font-family="sans" font-size="10.00">parse_megablast</text>
</g>
<!-- 18&#45;&gt;23 -->
<g id="edge51" class="edge"><title>18&#45;&gt;23</title>
<path fill="none" stroke="grey" stroke-width="2" d="M290.506,-287.697C301.463,-278.881 314.946,-268.032 326.825,-258.474"/>
<polygon fill="grey" stroke="grey" stroke-width="2" points="329.145,-261.1 334.742,-252.104 324.756,-255.646 329.145,-261.1"/>
</g>
<!-- 19&#45;&gt;1 -->
<g id="edge19" class="edge"><title>19&#45;&gt;1</title>
<path fill="none" stroke="grey" stroke-width="2" d="M149.787,-215.697C148.354,-207.983 146.632,-198.712 145.035,-190.112"/>
<polygon fill="grey" stroke="grey" stroke-width="2" points="148.444,-189.297 143.177,-180.104 141.561,-190.575 148.444,-189.297"/>
</g>
<!-- 19&#45;&gt;14 -->
<g id="edge38" class="edge"><title>19&#45;&gt;14</title>
<path fill="none" stroke="grey" stroke-width="2" d="M171.169,-215.677C179.885,-206.097 189.412,-193.43 194,-180 200.828,-160.015 198.404,-136.091 194.643,-118.083"/>
<polygon fill="grey" stroke="grey" stroke-width="2" points="198.025,-117.174 192.334,-108.238 191.21,-118.773 198.025,-117.174"/>
</g>
<!-- 20&#45;&gt;2 -->
<g id="edge21" class="edge"><title>20&#45;&gt;2</title>
<path fill="none" stroke="grey" stroke-width="2" d="M552.176,-215.56C549.069,-205.33 545.569,-192.08 544,-180 541.317,-159.339 543.918,-135.891 547.001,-118.251"/>
<polygon fill="grey" stroke="grey" stroke-width="2" points="550.503,-118.574 548.94,-108.095 543.627,-117.261 550.503,-118.574"/>
</g>
<!-- 20&#45;&gt;13 -->
<g id="edge36" class="edge"><title>20&#45;&gt;13</title>
<path fill="none" stroke="grey" stroke-width="2" d="M568.135,-215.697C572.852,-207.644 578.562,-197.894 583.782,-188.982"/>
<polygon fill="grey" stroke="grey" stroke-width="2" points="586.948,-190.502 588.982,-180.104 580.908,-186.964 586.948,-190.502"/>
</g>
<!-- 21&#45;&gt;3 -->
<g id="edge22" class="edge"><title>21&#45;&gt;3</title>
<path fill="none" stroke="grey" stroke-width="2" d="M958.787,-215.697C957.354,-207.983 955.632,-198.712 954.035,-190.112"/>
<polygon fill="grey" stroke="grey" stroke-width="2" points="957.444,-189.297 952.177,-180.104 950.561,-190.575 957.444,-189.297"/>
</g>
<!-- 21&#45;&gt;8 -->
<g id="edge30" class="edge"><title>21&#45;&gt;8</title>
<path fill="none" stroke="grey" stroke-width="2" d="M980.169,-215.677C988.885,-206.097 998.412,-193.43 1003,-180 1009.83,-159.997 1007.13,-136.074 1003.1,-118.07"/>
<polygon fill="grey" stroke="grey" stroke-width="2" points="1006.46,-117.081 1000.64,-108.229 999.669,-118.779 1006.46,-117.081"/>
</g>
<!-- 22&#45;&gt;4 -->
<g id="edge24" class="edge"><title>22&#45;&gt;4</title>
<path fill="none" stroke="grey" stroke-width="2" d="M1164.28,-215.871C1163.25,-191.67 1161.38,-147.211 1160.16,-118.393"/>
<polygon fill="grey" stroke="grey" stroke-width="2" points="1163.65,-118.033 1159.73,-108.189 1156.65,-118.328 1163.65,-118.033"/>
</g>
<!-- 22&#45;&gt;17 -->
<g id="edge41" class="edge"><title>22&#45;&gt;17</title>
<path fill="none" stroke="grey" stroke-width="2" d="M1181.81,-215.697C1190.13,-207.135 1200.31,-196.656 1209.39,-187.304"/>
<polygon fill="grey" stroke="grey" stroke-width="2" points="1211.93,-189.716 1216.38,-180.104 1206.91,-184.838 1211.93,-189.716"/>
</g>
<!-- 23&#45;&gt;5 -->
<g id="edge25" class="edge"><title>23&#45;&gt;5</title>
<path fill="none" stroke="grey" stroke-width="2" d="M350.176,-215.56C347.069,-205.33 343.569,-192.08 342,-180 339.317,-159.339 341.918,-135.891 345.001,-118.251"/>
<polygon fill="grey" stroke="grey" stroke-width="2" points="348.503,-118.574 346.94,-108.095 341.627,-117.261 348.503,-118.574"/>
</g>
<!-- 23&#45;&gt;16 -->
<g id="edge40" class="edge"><title>23&#45;&gt;16</title>
<path fill="none" stroke="grey" stroke-width="2" d="M366.135,-215.697C370.852,-207.644 376.562,-197.894 381.782,-188.982"/>
<polygon fill="grey" stroke="grey" stroke-width="2" points="384.948,-190.502 386.982,-180.104 378.908,-186.964 384.948,-190.502"/>
</g>
<!-- 24 -->
<g id="node25" class="node"><title>24</title>
<path fill="none" stroke="#59d856" stroke-width="2" stroke-dasharray="5,2" d="M203.5,-396C203.5,-396 114.5,-396 114.5,-396 108.5,-396 102.5,-390 102.5,-384 102.5,-384 102.5,-372 102.5,-372 102.5,-366 108.5,-360 114.5,-360 114.5,-360 203.5,-360 203.5,-360 209.5,-360 215.5,-366 215.5,-372 215.5,-372 215.5,-384 215.5,-384 215.5,-390 209.5,-396 203.5,-396"/>
<text text-anchor="middle" x="159" y="-375.5" font-family="sans" font-size="10.00">unmapped_masked</text>
</g>
<!-- 24&#45;&gt;6 -->
<g id="edge27" class="edge"><title>24&#45;&gt;6</title>
<path fill="none" stroke="grey" stroke-width="2" d="M136.011,-359.697C124.186,-350.796 109.608,-339.823 96.8214,-330.199"/>
<polygon fill="grey" stroke="grey" stroke-width="2" points="98.8188,-327.322 88.7243,-324.104 94.6092,-332.915 98.8188,-327.322"/>
</g>
<!-- 24&#45;&gt;19 -->
<g id="edge44" class="edge"><title>24&#45;&gt;19</title>
<path fill="none" stroke="grey" stroke-width="2" d="M158.276,-359.871C157.254,-335.67 155.375,-291.211 154.157,-262.393"/>
<polygon fill="grey" stroke="grey" stroke-width="2" points="157.645,-262.033 153.726,-252.189 150.652,-262.328 157.645,-262.033"/>
</g>
<!-- 25&#45;&gt;7 -->
<g id="edge28" class="edge"><title>25&#45;&gt;7</title>
<path fill="none" stroke="grey" stroke-width="2" d="M756.787,-215.697C755.354,-207.983 753.632,-198.712 752.035,-190.112"/>
<polygon fill="grey" stroke="grey" stroke-width="2" points="755.444,-189.297 750.177,-180.104 748.561,-190.575 755.444,-189.297"/>
</g>
<!-- 25&#45;&gt;9 -->
<g id="edge32" class="edge"><title>25&#45;&gt;9</title>
<path fill="none" stroke="grey" stroke-width="2" d="M778.169,-215.677C786.885,-206.097 796.412,-193.43 801,-180 807.834,-159.997 805.127,-136.074 801.099,-118.07"/>
<polygon fill="grey" stroke="grey" stroke-width="2" points="804.459,-117.081 798.637,-108.229 797.669,-118.779 804.459,-117.081"/>
</g>
<!-- 26 -->
<g id="node27" class="node"><title>26</title>
<path fill="none" stroke="#59d856" stroke-width="2" stroke-dasharray="5,2" d="M930.5,-396C930.5,-396 841.5,-396 841.5,-396 835.5,-396 829.5,-390 829.5,-384 829.5,-384 829.5,-372 829.5,-372 829.5,-366 835.5,-360 841.5,-360 841.5,-360 930.5,-360 930.5,-360 936.5,-360 942.5,-366 942.5,-372 942.5,-372 942.5,-384 942.5,-384 942.5,-390 936.5,-396 930.5,-396"/>
<text text-anchor="middle" x="886" y="-375.5" font-family="sans" font-size="10.00">unmapped_masked</text>
</g>
<!-- 26&#45;&gt;10 -->
<g id="edge33" class="edge"><title>26&#45;&gt;10</title>
<path fill="none" stroke="grey" stroke-width="2" d="M883.281,-359.697C882.069,-351.983 880.612,-342.712 879.261,-334.112"/>
<polygon fill="grey" stroke="grey" stroke-width="2" points="882.698,-333.44 877.688,-324.104 875.783,-334.526 882.698,-333.44"/>
</g>
<!-- 26&#45;&gt;21 -->
<g id="edge47" class="edge"><title>26&#45;&gt;21</title>
<path fill="none" stroke="grey" stroke-width="2" d="M915.202,-359.913C927.979,-350.887 941.88,-338.633 950,-324 960.434,-305.196 963.108,-280.819 963.355,-262.332"/>
<polygon fill="grey" stroke="grey" stroke-width="2" points="966.854,-262.182 963.261,-252.215 959.854,-262.248 966.854,-262.182"/>
</g>
<!-- 27 -->
<g id="node28" class="node"><title>27</title>
<path fill="none" stroke="#59d856" stroke-width="2" stroke-dasharray="5,2" d="M1123.5,-396C1123.5,-396 1034.5,-396 1034.5,-396 1028.5,-396 1022.5,-390 1022.5,-384 1022.5,-384 1022.5,-372 1022.5,-372 1022.5,-366 1028.5,-360 1034.5,-360 1034.5,-360 1123.5,-360 1123.5,-360 1129.5,-360 1135.5,-366 1135.5,-372 1135.5,-372 1135.5,-384 1135.5,-384 1135.5,-390 1129.5,-396 1123.5,-396"/>
<text text-anchor="middle" x="1079" y="-375.5" font-family="sans" font-size="10.00">unmapped_masked</text>
</g>
<!-- 27&#45;&gt;11 -->
<g id="edge34" class="edge"><title>27&#45;&gt;11</title>
<path fill="none" stroke="grey" stroke-width="2" d="M1078.51,-359.697C1078.29,-351.983 1078.02,-342.712 1077.77,-334.112"/>
<polygon fill="grey" stroke="grey" stroke-width="2" points="1081.27,-334 1077.49,-324.104 1074.28,-334.2 1081.27,-334"/>
</g>
<!-- 27&#45;&gt;22 -->
<g id="edge50" class="edge"><title>27&#45;&gt;22</title>
<path fill="none" stroke="grey" stroke-width="2" d="M1113.69,-359.804C1127.82,-351.03 1142.92,-339.01 1152,-324 1163.21,-305.458 1166.09,-280.868 1166.37,-262.234"/>
<polygon fill="grey" stroke="grey" stroke-width="2" points="1169.87,-262.01 1166.28,-252.041 1162.87,-262.072 1169.87,-262.01"/>
</g>
<!-- 28 -->
<g id="node29" class="node"><title>28</title>
<path fill="none" stroke="#59d856" stroke-width="2" stroke-dasharray="5,2" d="M524.5,-396C524.5,-396 435.5,-396 435.5,-396 429.5,-396 423.5,-390 423.5,-384 423.5,-384 423.5,-372 423.5,-372 423.5,-366 429.5,-360 435.5,-360 435.5,-360 524.5,-360 524.5,-360 530.5,-360 536.5,-366 536.5,-372 536.5,-372 536.5,-384 536.5,-384 536.5,-390 530.5,-396 524.5,-396"/>
<text text-anchor="middle" x="480" y="-375.5" font-family="sans" font-size="10.00">unmapped_masked</text>
</g>
<!-- 28&#45;&gt;12 -->
<g id="edge35" class="edge"><title>28&#45;&gt;12</title>
<path fill="none" stroke="grey" stroke-width="2" d="M477.775,-359.697C476.783,-351.983 475.592,-342.712 474.486,-334.112"/>
<polygon fill="grey" stroke="grey" stroke-width="2" points="477.946,-333.576 473.199,-324.104 471.003,-334.469 477.946,-333.576"/>
</g>
<!-- 28&#45;&gt;20 -->
<g id="edge45" class="edge"><title>28&#45;&gt;20</title>
<path fill="none" stroke="grey" stroke-width="2" d="M510.447,-359.869C523.527,-350.905 537.689,-338.715 546,-324 556.575,-305.275 559.238,-280.892 559.445,-262.383"/>
<polygon fill="grey" stroke="grey" stroke-width="2" points="562.944,-262.209 559.325,-252.251 555.944,-262.292 562.944,-262.209"/>
</g>
<!-- 29 -->
<g id="node30" class="node"><title>29</title>
<path fill="none" stroke="#59d856" stroke-width="2" stroke-dasharray="5,2" d="M736.5,-396C736.5,-396 647.5,-396 647.5,-396 641.5,-396 635.5,-390 635.5,-384 635.5,-384 635.5,-372 635.5,-372 635.5,-366 641.5,-360 647.5,-360 647.5,-360 736.5,-360 736.5,-360 742.5,-360 748.5,-366 748.5,-372 748.5,-372 748.5,-384 748.5,-384 748.5,-390 742.5,-396 736.5,-396"/>
<text text-anchor="middle" x="692" y="-375.5" font-family="sans" font-size="10.00">unmapped_masked</text>
</g>
<!-- 29&#45;&gt;15 -->
<g id="edge39" class="edge"><title>29&#45;&gt;15</title>
<path fill="none" stroke="grey" stroke-width="2" d="M687.303,-359.697C685.187,-351.898 682.638,-342.509 680.282,-333.829"/>
<polygon fill="grey" stroke="grey" stroke-width="2" points="683.64,-332.838 677.643,-324.104 676.884,-334.672 683.64,-332.838"/>
</g>
<!-- 29&#45;&gt;25 -->
<g id="edge55" class="edge"><title>29&#45;&gt;25</title>
<path fill="none" stroke="grey" stroke-width="2" d="M716.708,-359.89C728.125,-350.626 740.737,-338.177 748,-324 757.806,-304.861 760.529,-280.51 760.954,-262.119"/>
<polygon fill="grey" stroke="grey" stroke-width="2" points="764.454,-262.071 760.976,-252.063 757.454,-262.056 764.454,-262.071"/>
</g>
<!-- 30 -->
<g id="node31" class="node"><title>30</title>
<path fill="none" stroke="#59d856" stroke-width="2" stroke-dasharray="5,2" d="M375.5,-396C375.5,-396 286.5,-396 286.5,-396 280.5,-396 274.5,-390 274.5,-384 274.5,-384 274.5,-372 274.5,-372 274.5,-366 280.5,-360 286.5,-360 286.5,-360 375.5,-360 375.5,-360 381.5,-360 387.5,-366 387.5,-372 387.5,-372 387.5,-384 387.5,-384 387.5,-390 381.5,-396 375.5,-396"/>
<text text-anchor="middle" x="331" y="-375.5" font-family="sans" font-size="10.00">unmapped_masked</text>
</g>
<!-- 30&#45;&gt;18 -->
<g id="edge42" class="edge"><title>30&#45;&gt;18</title>
<path fill="none" stroke="grey" stroke-width="2" d="M315.674,-359.697C308.241,-351.305 299.177,-341.07 291.02,-331.861"/>
<polygon fill="grey" stroke="grey" stroke-width="2" points="293.4,-329.27 284.15,-324.104 288.16,-333.911 293.4,-329.27"/>
</g>
<!-- 30&#45;&gt;23 -->
<g id="edge52" class="edge"><title>30&#45;&gt;23</title>
<path fill="none" stroke="grey" stroke-width="2" d="M335.681,-359.915C338.39,-349.579 341.707,-336.101 344,-324 347.894,-303.449 351.003,-279.996 353.079,-262.326"/>
<polygon fill="grey" stroke="grey" stroke-width="2" points="356.584,-262.48 354.237,-252.149 349.629,-261.689 356.584,-262.48"/>
</g>
<!-- 31 -->
<g id="node32" class="node"><title>31</title>
<path fill="none" stroke="#56a9d8" stroke-width="2" stroke-dasharray="5,2" d="M269.5,-468C269.5,-468 192.5,-468 192.5,-468 186.5,-468 180.5,-462 180.5,-456 180.5,-456 180.5,-444 180.5,-444 180.5,-438 186.5,-432 192.5,-432 192.5,-432 269.5,-432 269.5,-432 275.5,-432 281.5,-438 281.5,-444 281.5,-444 281.5,-456 281.5,-456 281.5,-462 275.5,-468 269.5,-468"/>
<text text-anchor="middle" x="231" y="-447.5" font-family="sans" font-size="10.00">unmapped_reads</text>
</g>
<!-- 31&#45;&gt;24 -->
<g id="edge53" class="edge"><title>31&#45;&gt;24</title>
<path fill="none" stroke="grey" stroke-width="2" d="M213.202,-431.697C204.396,-423.135 193.618,-412.656 183.999,-403.304"/>
<polygon fill="grey" stroke="grey" stroke-width="2" points="186.203,-400.566 176.593,-396.104 181.323,-405.585 186.203,-400.566"/>
</g>
<!-- 32 -->
<g id="node33" class="node"><title>32</title>
<path fill="none" stroke="#d85656" stroke-width="2" stroke-dasharray="5,2" d="M259,-612C259,-612 169,-612 169,-612 163,-612 157,-606 157,-600 157,-600 157,-588 157,-588 157,-582 163,-576 169,-576 169,-576 259,-576 259,-576 265,-576 271,-582 271,-588 271,-588 271,-600 271,-600 271,-606 265,-612 259,-612"/>
<text text-anchor="middle" x="214" y="-591.5" font-family="sans" font-size="10.00">repeatmasker_good</text>
</g>
<!-- 32&#45;&gt;24 -->
<g id="edge54" class="edge"><title>32&#45;&gt;24</title>
<path fill="none" stroke="grey" stroke-width="2" d="M200.256,-575.889C193.034,-565.98 184.724,-552.939 180,-540 163.585,-495.038 159.707,-438.888 158.956,-406.174"/>
<polygon fill="grey" stroke="grey" stroke-width="2" points="162.454,-405.975 158.808,-396.028 155.455,-406.078 162.454,-405.975"/>
</g>
<!-- 43 -->
<g id="node44" class="node"><title>43</title>
<path fill="none" stroke="#8fd856" stroke-width="2" stroke-dasharray="5,2" d="M245,-540C245,-540 201,-540 201,-540 195,-540 189,-534 189,-528 189,-528 189,-516 189,-516 189,-510 195,-504 201,-504 201,-504 245,-504 245,-504 251,-504 257,-510 257,-516 257,-516 257,-528 257,-528 257,-534 251,-540 245,-540"/>
<text text-anchor="middle" x="223" y="-519.5" font-family="sans" font-size="10.00">bwa_mem</text>
</g>
<!-- 32&#45;&gt;43 -->
<g id="edge85" class="edge"><title>32&#45;&gt;43</title>
<path fill="none" stroke="grey" stroke-width="2" d="M216.225,-575.697C217.217,-567.983 218.408,-558.712 219.514,-550.112"/>
<polygon fill="grey" stroke="grey" stroke-width="2" points="222.997,-550.469 220.801,-540.104 216.054,-549.576 222.997,-550.469"/>
</g>
<!-- 33 -->
<g id="node34" class="node"><title>33</title>
<path fill="none" stroke="#d85656" stroke-width="2" stroke-dasharray="5,2" d="M881,-612C881,-612 791,-612 791,-612 785,-612 779,-606 779,-600 779,-600 779,-588 779,-588 779,-582 785,-576 791,-576 791,-576 881,-576 881,-576 887,-576 893,-582 893,-588 893,-588 893,-600 893,-600 893,-606 887,-612 881,-612"/>
<text text-anchor="middle" x="836" y="-591.5" font-family="sans" font-size="10.00">repeatmasker_good</text>
</g>
<!-- 33&#45;&gt;26 -->
<g id="edge57" class="edge"><title>33&#45;&gt;26</title>
<path fill="none" stroke="grey" stroke-width="2" d="M833.334,-575.848C829.369,-545.634 824.247,-481.441 843,-432 846.885,-421.757 853.572,-412 860.531,-403.714"/>
<polygon fill="grey" stroke="grey" stroke-width="2" points="863.146,-406.04 867.203,-396.252 857.928,-401.374 863.146,-406.04"/>
</g>
<!-- 48 -->
<g id="node49" class="node"><title>48</title>
<path fill="none" stroke="#8fd856" stroke-width="2" stroke-dasharray="5,2" d="M917,-540C917,-540 873,-540 873,-540 867,-540 861,-534 861,-528 861,-528 861,-516 861,-516 861,-510 867,-504 873,-504 873,-504 917,-504 917,-504 923,-504 929,-510 929,-516 929,-516 929,-528 929,-528 929,-534 923,-540 917,-540"/>
<text text-anchor="middle" x="895" y="-519.5" font-family="sans" font-size="10.00">bwa_mem</text>
</g>
<!-- 33&#45;&gt;48 -->
<g id="edge90" class="edge"><title>33&#45;&gt;48</title>
<path fill="none" stroke="grey" stroke-width="2" d="M850.584,-575.697C857.658,-567.305 866.283,-557.07 874.045,-547.861"/>
<polygon fill="grey" stroke="grey" stroke-width="2" points="876.815,-550.006 880.583,-540.104 871.463,-545.495 876.815,-550.006"/>
</g>
<!-- 34 -->
<g id="node35" class="node"><title>34</title>
<path fill="none" stroke="#56a9d8" stroke-width="2" stroke-dasharray="5,2" d="M941.5,-468C941.5,-468 864.5,-468 864.5,-468 858.5,-468 852.5,-462 852.5,-456 852.5,-456 852.5,-444 852.5,-444 852.5,-438 858.5,-432 864.5,-432 864.5,-432 941.5,-432 941.5,-432 947.5,-432 953.5,-438 953.5,-444 953.5,-444 953.5,-456 953.5,-456 953.5,-462 947.5,-468 941.5,-468"/>
<text text-anchor="middle" x="903" y="-447.5" font-family="sans" font-size="10.00">unmapped_reads</text>
</g>
<!-- 34&#45;&gt;26 -->
<g id="edge58" class="edge"><title>34&#45;&gt;26</title>
<path fill="none" stroke="grey" stroke-width="2" d="M898.798,-431.697C896.904,-423.898 894.623,-414.509 892.516,-405.829"/>
<polygon fill="grey" stroke="grey" stroke-width="2" points="895.915,-404.996 890.154,-396.104 889.113,-406.648 895.915,-404.996"/>
</g>
<!-- 35 -->
<g id="node36" class="node"><title>35</title>
<path fill="none" stroke="#d85656" stroke-width="2" stroke-dasharray="5,2" d="M1055,-612C1055,-612 965,-612 965,-612 959,-612 953,-606 953,-600 953,-600 953,-588 953,-588 953,-582 959,-576 965,-576 965,-576 1055,-576 1055,-576 1061,-576 1067,-582 1067,-588 1067,-588 1067,-600 1067,-600 1067,-606 1061,-612 1055,-612"/>
<text text-anchor="middle" x="1010" y="-591.5" font-family="sans" font-size="10.00">repeatmasker_good</text>
</g>
<!-- 35&#45;&gt;27 -->
<g id="edge59" class="edge"><title>35&#45;&gt;27</title>
<path fill="none" stroke="grey" stroke-width="2" d="M1007.56,-575.996C1003.97,-545.462 999.981,-480.051 1023,-432 1028.28,-420.982 1036.91,-411.084 1045.83,-402.908"/>
<polygon fill="grey" stroke="grey" stroke-width="2" points="1048.36,-405.348 1053.67,-396.181 1043.81,-400.036 1048.36,-405.348"/>
</g>
<!-- 51 -->
<g id="node52" class="node"><title>51</title>
<path fill="none" stroke="#8fd856" stroke-width="2" stroke-dasharray="5,2" d="M1096,-540C1096,-540 1052,-540 1052,-540 1046,-540 1040,-534 1040,-528 1040,-528 1040,-516 1040,-516 1040,-510 1046,-504 1052,-504 1052,-504 1096,-504 1096,-504 1102,-504 1108,-510 1108,-516 1108,-516 1108,-528 1108,-528 1108,-534 1102,-540 1096,-540"/>
<text text-anchor="middle" x="1074" y="-519.5" font-family="sans" font-size="10.00">bwa_mem</text>
</g>
<!-- 35&#45;&gt;51 -->
<g id="edge93" class="edge"><title>35&#45;&gt;51</title>
<path fill="none" stroke="grey" stroke-width="2" d="M1025.82,-575.697C1033.57,-567.22 1043.04,-556.864 1051.52,-547.583"/>
<polygon fill="grey" stroke="grey" stroke-width="2" points="1054.2,-549.846 1058.36,-540.104 1049.03,-545.123 1054.2,-549.846"/>
</g>
<!-- 36 -->
<g id="node37" class="node"><title>36</title>
<path fill="none" stroke="#56a9d8" stroke-width="2" stroke-dasharray="5,2" d="M1121.5,-468C1121.5,-468 1044.5,-468 1044.5,-468 1038.5,-468 1032.5,-462 1032.5,-456 1032.5,-456 1032.5,-444 1032.5,-444 1032.5,-438 1038.5,-432 1044.5,-432 1044.5,-432 1121.5,-432 1121.5,-432 1127.5,-432 1133.5,-438 1133.5,-444 1133.5,-444 1133.5,-456 1133.5,-456 1133.5,-462 1127.5,-468 1121.5,-468"/>
<text text-anchor="middle" x="1083" y="-447.5" font-family="sans" font-size="10.00">unmapped_reads</text>
</g>
<!-- 36&#45;&gt;27 -->
<g id="edge60" class="edge"><title>36&#45;&gt;27</title>
<path fill="none" stroke="grey" stroke-width="2" d="M1082.01,-431.697C1081.57,-423.983 1081.04,-414.712 1080.55,-406.112"/>
<polygon fill="grey" stroke="grey" stroke-width="2" points="1084.04,-405.888 1079.98,-396.104 1077.05,-406.288 1084.04,-405.888"/>
</g>
<!-- 37 -->
<g id="node38" class="node"><title>37</title>
<path fill="none" stroke="#d85656" stroke-width="2" stroke-dasharray="5,2" d="M558,-612C558,-612 468,-612 468,-612 462,-612 456,-606 456,-600 456,-600 456,-588 456,-588 456,-582 462,-576 468,-576 468,-576 558,-576 558,-576 564,-576 570,-582 570,-588 570,-588 570,-600 570,-600 570,-606 564,-612 558,-612"/>
<text text-anchor="middle" x="513" y="-591.5" font-family="sans" font-size="10.00">repeatmasker_good</text>
</g>
<!-- 37&#45;&gt;28 -->
<g id="edge61" class="edge"><title>37&#45;&gt;28</title>
<path fill="none" stroke="grey" stroke-width="2" d="M509.133,-575.871C506.874,-565.519 504.07,-552.04 502,-540 493.971,-493.288 487.005,-438.545 483.165,-406.431"/>
<polygon fill="grey" stroke="grey" stroke-width="2" points="486.635,-405.972 481.985,-396.452 479.684,-406.794 486.635,-405.972"/>
</g>
<!-- 54 -->
<g id="node55" class="node"><title>54</title>
<path fill="none" stroke="#8fd856" stroke-width="2" stroke-dasharray="5,2" d="M567,-540C567,-540 523,-540 523,-540 517,-540 511,-534 511,-528 511,-528 511,-516 511,-516 511,-510 517,-504 523,-504 523,-504 567,-504 567,-504 573,-504 579,-510 579,-516 579,-516 579,-528 579,-528 579,-534 573,-540 567,-540"/>
<text text-anchor="middle" x="545" y="-519.5" font-family="sans" font-size="10.00">bwa_mem</text>
</g>
<!-- 37&#45;&gt;54 -->
<g id="edge96" class="edge"><title>37&#45;&gt;54</title>
<path fill="none" stroke="grey" stroke-width="2" d="M520.91,-575.697C524.553,-567.728 528.954,-558.1 532.994,-549.264"/>
<polygon fill="grey" stroke="grey" stroke-width="2" points="536.206,-550.654 537.181,-540.104 529.84,-547.744 536.206,-550.654"/>
</g>
<!-- 38 -->
<g id="node39" class="node"><title>38</title>
<path fill="none" stroke="#56a9d8" stroke-width="2" stroke-dasharray="5,2" d="M591.5,-468C591.5,-468 514.5,-468 514.5,-468 508.5,-468 502.5,-462 502.5,-456 502.5,-456 502.5,-444 502.5,-444 502.5,-438 508.5,-432 514.5,-432 514.5,-432 591.5,-432 591.5,-432 597.5,-432 603.5,-438 603.5,-444 603.5,-444 603.5,-456 603.5,-456 603.5,-462 597.5,-468 591.5,-468"/>
<text text-anchor="middle" x="553" y="-447.5" font-family="sans" font-size="10.00">unmapped_reads</text>
</g>
<!-- 38&#45;&gt;28 -->
<g id="edge62" class="edge"><title>38&#45;&gt;28</title>
<path fill="none" stroke="grey" stroke-width="2" d="M534.955,-431.697C525.938,-423.05 514.882,-412.449 505.057,-403.027"/>
<polygon fill="grey" stroke="grey" stroke-width="2" points="507.478,-400.499 497.837,-396.104 502.633,-405.552 507.478,-400.499"/>
</g>
<!-- 39 -->
<g id="node40" class="node"><title>39</title>
<path fill="none" stroke="#d85656" stroke-width="2" stroke-dasharray="5,2" d="M723,-612C723,-612 633,-612 633,-612 627,-612 621,-606 621,-600 621,-600 621,-588 621,-588 621,-582 627,-576 633,-576 633,-576 723,-576 723,-576 729,-576 735,-582 735,-588 735,-588 735,-600 735,-600 735,-606 729,-612 723,-612"/>
<text text-anchor="middle" x="678" y="-591.5" font-family="sans" font-size="10.00">repeatmasker_good</text>
</g>
<!-- 39&#45;&gt;29 -->
<g id="edge63" class="edge"><title>39&#45;&gt;29</title>
<path fill="none" stroke="grey" stroke-width="2" d="M670.623,-575.674C658.943,-545.729 639.074,-482.637 655,-432 658.099,-422.148 663.751,-412.53 669.721,-404.251"/>
<polygon fill="grey" stroke="grey" stroke-width="2" points="672.629,-406.211 675.963,-396.154 667.086,-401.937 672.629,-406.211"/>
</g>
<!-- 57 -->
<g id="node58" class="node"><title>57</title>
<path fill="none" stroke="#8fd856" stroke-width="2" stroke-dasharray="5,2" d="M729,-540C729,-540 685,-540 685,-540 679,-540 673,-534 673,-528 673,-528 673,-516 673,-516 673,-510 679,-504 685,-504 685,-504 729,-504 729,-504 735,-504 741,-510 741,-516 741,-516 741,-528 741,-528 741,-534 735,-540 729,-540"/>
<text text-anchor="middle" x="707" y="-519.5" font-family="sans" font-size="10.00">bwa_mem</text>
</g>
<!-- 39&#45;&gt;57 -->
<g id="edge99" class="edge"><title>39&#45;&gt;57</title>
<path fill="none" stroke="grey" stroke-width="2" d="M685.169,-575.697C688.435,-567.813 692.374,-558.304 696.002,-549.546"/>
<polygon fill="grey" stroke="grey" stroke-width="2" points="699.32,-550.683 699.914,-540.104 692.853,-548.003 699.32,-550.683"/>
</g>
<!-- 40 -->
<g id="node41" class="node"><title>40</title>
<path fill="none" stroke="#56a9d8" stroke-width="2" stroke-dasharray="5,2" d="M753.5,-468C753.5,-468 676.5,-468 676.5,-468 670.5,-468 664.5,-462 664.5,-456 664.5,-456 664.5,-444 664.5,-444 664.5,-438 670.5,-432 676.5,-432 676.5,-432 753.5,-432 753.5,-432 759.5,-432 765.5,-438 765.5,-444 765.5,-444 765.5,-456 765.5,-456 765.5,-462 759.5,-468 753.5,-468"/>
<text text-anchor="middle" x="715" y="-447.5" font-family="sans" font-size="10.00">unmapped_reads</text>
</g>
<!-- 40&#45;&gt;29 -->
<g id="edge64" class="edge"><title>40&#45;&gt;29</title>
<path fill="none" stroke="grey" stroke-width="2" d="M709.315,-431.697C706.752,-423.898 703.667,-414.509 700.815,-405.829"/>
<polygon fill="grey" stroke="grey" stroke-width="2" points="704.067,-404.512 697.62,-396.104 697.416,-406.697 704.067,-404.512"/>
</g>
<!-- 41 -->
<g id="node42" class="node"><title>41</title>
<path fill="none" stroke="#d85656" stroke-width="2" stroke-dasharray="5,2" d="M407,-612C407,-612 317,-612 317,-612 311,-612 305,-606 305,-600 305,-600 305,-588 305,-588 305,-582 311,-576 317,-576 317,-576 407,-576 407,-576 413,-576 419,-582 419,-588 419,-588 419,-600 419,-600 419,-606 413,-612 407,-612"/>
<text text-anchor="middle" x="362" y="-591.5" font-family="sans" font-size="10.00">repeatmasker_good</text>
</g>
<!-- 41&#45;&gt;30 -->
<g id="edge65" class="edge"><title>41&#45;&gt;30</title>
<path fill="none" stroke="grey" stroke-width="2" d="M353.858,-575.704C349.394,-565.522 344.144,-552.272 341,-540 329.26,-494.177 328.659,-438.734 329.608,-406.313"/>
<polygon fill="grey" stroke="grey" stroke-width="2" points="333.109,-406.369 329.976,-396.248 326.113,-406.114 333.109,-406.369"/>
</g>
<!-- 60 -->
<g id="node61" class="node"><title>60</title>
<path fill="none" stroke="#8fd856" stroke-width="2" stroke-dasharray="5,2" d="M406,-540C406,-540 362,-540 362,-540 356,-540 350,-534 350,-528 350,-528 350,-516 350,-516 350,-510 356,-504 362,-504 362,-504 406,-504 406,-504 412,-504 418,-510 418,-516 418,-516 418,-528 418,-528 418,-534 412,-540 406,-540"/>
<text text-anchor="middle" x="384" y="-519.5" font-family="sans" font-size="10.00">bwa_mem</text>
</g>
<!-- 41&#45;&gt;60 -->
<g id="edge102" class="edge"><title>41&#45;&gt;60</title>
<path fill="none" stroke="grey" stroke-width="2" d="M367.438,-575.697C369.889,-567.898 372.84,-558.509 375.568,-549.829"/>
<polygon fill="grey" stroke="grey" stroke-width="2" points="378.965,-550.694 378.624,-540.104 372.287,-548.595 378.965,-550.694"/>
</g>
<!-- 42 -->
<g id="node43" class="node"><title>42</title>
<path fill="none" stroke="#56a9d8" stroke-width="2" stroke-dasharray="5,2" d="M430.5,-468C430.5,-468 353.5,-468 353.5,-468 347.5,-468 341.5,-462 341.5,-456 341.5,-456 341.5,-444 341.5,-444 341.5,-438 347.5,-432 353.5,-432 353.5,-432 430.5,-432 430.5,-432 436.5,-432 442.5,-438 442.5,-444 442.5,-444 442.5,-456 442.5,-456 442.5,-462 436.5,-468 430.5,-468"/>
<text text-anchor="middle" x="392" y="-447.5" font-family="sans" font-size="10.00">unmapped_reads</text>
</g>
<!-- 42&#45;&gt;30 -->
<g id="edge66" class="edge"><title>42&#45;&gt;30</title>
<path fill="none" stroke="grey" stroke-width="2" d="M376.921,-431.697C369.608,-423.305 360.69,-413.07 352.665,-403.861"/>
<polygon fill="grey" stroke="grey" stroke-width="2" points="355.114,-401.344 345.905,-396.104 349.836,-405.943 355.114,-401.344"/>
</g>
<!-- 43&#45;&gt;31 -->
<g id="edge67" class="edge"><title>43&#45;&gt;31</title>
<path fill="none" stroke="grey" stroke-width="2" d="M224.978,-503.697C225.859,-495.983 226.919,-486.712 227.901,-478.112"/>
<polygon fill="grey" stroke="grey" stroke-width="2" points="231.387,-478.437 229.045,-468.104 224.432,-477.642 231.387,-478.437"/>
</g>
<!-- 44 -->
<g id="node45" class="node"><title>44</title>
<path fill="none" stroke="#56c9d8" stroke-width="2" stroke-dasharray="5,2" d="M308.5,-684C308.5,-684 247.5,-684 247.5,-684 241.5,-684 235.5,-678 235.5,-672 235.5,-672 235.5,-660 235.5,-660 235.5,-654 241.5,-648 247.5,-648 247.5,-648 308.5,-648 308.5,-648 314.5,-648 320.5,-654 320.5,-660 320.5,-660 320.5,-672 320.5,-672 320.5,-678 314.5,-684 308.5,-684"/>
<text text-anchor="middle" x="278" y="-663.5" font-family="sans" font-size="10.00">repeatmasker</text>
</g>
<!-- 44&#45;&gt;32 -->
<g id="edge68" class="edge"><title>44&#45;&gt;32</title>
<path fill="none" stroke="grey" stroke-width="2" d="M262.18,-647.697C254.43,-639.22 244.961,-628.864 236.476,-619.583"/>
<polygon fill="grey" stroke="grey" stroke-width="2" points="238.969,-617.123 229.638,-612.104 233.803,-621.846 238.969,-617.123"/>
</g>
<!-- 45 -->
<g id="node46" class="node"><title>45</title>
<path fill="none" stroke="#56d8a9" stroke-width="2" stroke-dasharray="5,2" d="M293,-756C293,-756 249,-756 249,-756 243,-756 237,-750 237,-744 237,-744 237,-732 237,-732 237,-726 243,-720 249,-720 249,-720 293,-720 293,-720 299,-720 305,-726 305,-732 305,-732 305,-744 305,-744 305,-750 299,-756 293,-756"/>
<text text-anchor="middle" x="271" y="-741" font-family="sans" font-size="10.00">split_fasta</text>
<text text-anchor="middle" x="271" y="-730" font-family="sans" font-size="10.00">n: 1</text>
</g>
<!-- 45&#45;&gt;32 -->
<g id="edge69" class="edge"><title>45&#45;&gt;32</title>
<path fill="none" stroke="grey" stroke-width="2" d="M251.844,-719.695C242.492,-710.12 231.991,-697.452 226,-684 217.345,-664.566 214.507,-640.563 213.744,-622.384"/>
<polygon fill="grey" stroke="grey" stroke-width="2" points="217.238,-622.087 213.505,-612.172 210.24,-622.251 217.238,-622.087"/>
</g>
<!-- 45&#45;&gt;44 -->
<g id="edge86" class="edge"><title>45&#45;&gt;44</title>
<path fill="none" stroke="grey" stroke-width="2" d="M272.73,-719.697C273.502,-711.983 274.429,-702.712 275.289,-694.112"/>
<polygon fill="grey" stroke="grey" stroke-width="2" points="278.777,-694.403 276.29,-684.104 271.812,-693.706 278.777,-694.403"/>
</g>
<!-- 46 -->
<g id="node47" class="node"><title>46</title>
<path fill="none" stroke="#56c9d8" stroke-width="2" stroke-dasharray="5,2" d="M899.5,-684C899.5,-684 838.5,-684 838.5,-684 832.5,-684 826.5,-678 826.5,-672 826.5,-672 826.5,-660 826.5,-660 826.5,-654 832.5,-648 838.5,-648 838.5,-648 899.5,-648 899.5,-648 905.5,-648 911.5,-654 911.5,-660 911.5,-660 911.5,-672 911.5,-672 911.5,-678 905.5,-684 899.5,-684"/>
<text text-anchor="middle" x="869" y="-663.5" font-family="sans" font-size="10.00">repeatmasker</text>
</g>
<!-- 46&#45;&gt;33 -->
<g id="edge70" class="edge"><title>46&#45;&gt;33</title>
<path fill="none" stroke="grey" stroke-width="2" d="M860.843,-647.697C857.086,-639.728 852.547,-630.1 848.382,-621.264"/>
<polygon fill="grey" stroke="grey" stroke-width="2" points="851.494,-619.657 844.063,-612.104 845.162,-622.642 851.494,-619.657"/>
</g>
<!-- 47 -->
<g id="node48" class="node"><title>47</title>
<path fill="none" stroke="#56d8a9" stroke-width="2" stroke-dasharray="5,2" d="M885,-756C885,-756 841,-756 841,-756 835,-756 829,-750 829,-744 829,-744 829,-732 829,-732 829,-726 835,-720 841,-720 841,-720 885,-720 885,-720 891,-720 897,-726 897,-732 897,-732 897,-744 897,-744 897,-750 891,-756 885,-756"/>
<text text-anchor="middle" x="863" y="-741" font-family="sans" font-size="10.00">split_fasta</text>
<text text-anchor="middle" x="863" y="-730" font-family="sans" font-size="10.00">n: 2</text>
</g>
<!-- 47&#45;&gt;33 -->
<g id="edge71" class="edge"><title>47&#45;&gt;33</title>
<path fill="none" stroke="grey" stroke-width="2" d="M842.177,-719.615C832.542,-710.198 822.115,-697.697 817,-684 809.398,-663.644 815.448,-639.473 822.675,-621.461"/>
<polygon fill="grey" stroke="grey" stroke-width="2" points="825.946,-622.717 826.732,-612.151 819.529,-619.92 825.946,-622.717"/>
</g>
<!-- 47&#45;&gt;46 -->
<g id="edge88" class="edge"><title>47&#45;&gt;46</title>
<path fill="none" stroke="grey" stroke-width="2" d="M864.483,-719.697C865.144,-711.983 865.939,-702.712 866.676,-694.112"/>
<polygon fill="grey" stroke="grey" stroke-width="2" points="870.167,-694.367 867.534,-684.104 863.193,-693.769 870.167,-694.367"/>
</g>
<!-- 48&#45;&gt;34 -->
<g id="edge72" class="edge"><title>48&#45;&gt;34</title>
<path fill="none" stroke="grey" stroke-width="2" d="M896.978,-503.697C897.859,-495.983 898.919,-486.712 899.901,-478.112"/>
<polygon fill="grey" stroke="grey" stroke-width="2" points="903.387,-478.437 901.045,-468.104 896.432,-477.642 903.387,-478.437"/>
</g>
<!-- 49 -->
<g id="node50" class="node"><title>49</title>
<path fill="none" stroke="#56c9d8" stroke-width="2" stroke-dasharray="5,2" d="M1043.5,-684C1043.5,-684 982.5,-684 982.5,-684 976.5,-684 970.5,-678 970.5,-672 970.5,-672 970.5,-660 970.5,-660 970.5,-654 976.5,-648 982.5,-648 982.5,-648 1043.5,-648 1043.5,-648 1049.5,-648 1055.5,-654 1055.5,-660 1055.5,-660 1055.5,-672 1055.5,-672 1055.5,-678 1049.5,-684 1043.5,-684"/>
<text text-anchor="middle" x="1013" y="-663.5" font-family="sans" font-size="10.00">repeatmasker</text>
</g>
<!-- 49&#45;&gt;35 -->
<g id="edge73" class="edge"><title>49&#45;&gt;35</title>
<path fill="none" stroke="grey" stroke-width="2" d="M1012.26,-647.697C1011.93,-639.983 1011.53,-630.712 1011.16,-622.112"/>
<polygon fill="grey" stroke="grey" stroke-width="2" points="1014.66,-621.945 1010.73,-612.104 1007.66,-622.245 1014.66,-621.945"/>
</g>
<!-- 50 -->
<g id="node51" class="node"><title>50</title>
<path fill="none" stroke="#56d8a9" stroke-width="2" stroke-dasharray="5,2" d="M971,-756C971,-756 927,-756 927,-756 921,-756 915,-750 915,-744 915,-744 915,-732 915,-732 915,-726 921,-720 927,-720 927,-720 971,-720 971,-720 977,-720 983,-726 983,-732 983,-732 983,-744 983,-744 983,-750 977,-756 971,-756"/>
<text text-anchor="middle" x="949" y="-741" font-family="sans" font-size="10.00">split_fasta</text>
<text text-anchor="middle" x="949" y="-730" font-family="sans" font-size="10.00">n: 1</text>
</g>
<!-- 50&#45;&gt;35 -->
<g id="edge74" class="edge"><title>50&#45;&gt;35</title>
<path fill="none" stroke="grey" stroke-width="2" d="M948.315,-719.741C948.245,-701.152 950.106,-671.133 961,-648 965.905,-637.584 973.601,-627.818 981.452,-619.577"/>
<polygon fill="grey" stroke="grey" stroke-width="2" points="983.991,-621.988 988.63,-612.462 979.064,-617.016 983.991,-621.988"/>
</g>
<!-- 50&#45;&gt;49 -->
<g id="edge91" class="edge"><title>50&#45;&gt;49</title>
<path fill="none" stroke="grey" stroke-width="2" d="M964.82,-719.697C972.57,-711.22 982.039,-700.864 990.524,-691.583"/>
<polygon fill="grey" stroke="grey" stroke-width="2" points="993.197,-693.846 997.362,-684.104 988.031,-689.123 993.197,-693.846"/>
</g>
<!-- 51&#45;&gt;36 -->
<g id="edge75" class="edge"><title>51&#45;&gt;36</title>
<path fill="none" stroke="grey" stroke-width="2" d="M1076.22,-503.697C1077.22,-495.983 1078.41,-486.712 1079.51,-478.112"/>
<polygon fill="grey" stroke="grey" stroke-width="2" points="1083,-478.469 1080.8,-468.104 1076.05,-477.576 1083,-478.469"/>
</g>
<!-- 52 -->
<g id="node53" class="node"><title>52</title>
<path fill="none" stroke="#56c9d8" stroke-width="2" stroke-dasharray="5,2" d="M607.5,-684C607.5,-684 546.5,-684 546.5,-684 540.5,-684 534.5,-678 534.5,-672 534.5,-672 534.5,-660 534.5,-660 534.5,-654 540.5,-648 546.5,-648 546.5,-648 607.5,-648 607.5,-648 613.5,-648 619.5,-654 619.5,-660 619.5,-660 619.5,-672 619.5,-672 619.5,-678 613.5,-684 607.5,-684"/>
<text text-anchor="middle" x="577" y="-663.5" font-family="sans" font-size="10.00">repeatmasker</text>
</g>
<!-- 52&#45;&gt;37 -->
<g id="edge76" class="edge"><title>52&#45;&gt;37</title>
<path fill="none" stroke="grey" stroke-width="2" d="M561.18,-647.697C553.43,-639.22 543.961,-628.864 535.476,-619.583"/>
<polygon fill="grey" stroke="grey" stroke-width="2" points="537.969,-617.123 528.638,-612.104 532.803,-621.846 537.969,-617.123"/>
</g>
<!-- 53 -->
<g id="node54" class="node"><title>53</title>
<path fill="none" stroke="#56d8a9" stroke-width="2" stroke-dasharray="5,2" d="M592,-756C592,-756 548,-756 548,-756 542,-756 536,-750 536,-744 536,-744 536,-732 536,-732 536,-726 542,-720 548,-720 548,-720 592,-720 592,-720 598,-720 604,-726 604,-732 604,-732 604,-744 604,-744 604,-750 598,-756 592,-756"/>
<text text-anchor="middle" x="570" y="-741" font-family="sans" font-size="10.00">split_fasta</text>
<text text-anchor="middle" x="570" y="-730" font-family="sans" font-size="10.00">n: 2</text>
</g>
<!-- 53&#45;&gt;37 -->
<g id="edge77" class="edge"><title>53&#45;&gt;37</title>
<path fill="none" stroke="grey" stroke-width="2" d="M550.844,-719.695C541.492,-710.12 530.991,-697.452 525,-684 516.345,-664.566 513.507,-640.563 512.744,-622.384"/>
<polygon fill="grey" stroke="grey" stroke-width="2" points="516.238,-622.087 512.505,-612.172 509.24,-622.251 516.238,-622.087"/>
</g>
<!-- 53&#45;&gt;52 -->
<g id="edge94" class="edge"><title>53&#45;&gt;52</title>
<path fill="none" stroke="grey" stroke-width="2" d="M571.73,-719.697C572.502,-711.983 573.429,-702.712 574.289,-694.112"/>
<polygon fill="grey" stroke="grey" stroke-width="2" points="577.777,-694.403 575.29,-684.104 570.812,-693.706 577.777,-694.403"/>
</g>
<!-- 54&#45;&gt;38 -->
<g id="edge78" class="edge"><title>54&#45;&gt;38</title>
<path fill="none" stroke="grey" stroke-width="2" d="M546.978,-503.697C547.859,-495.983 548.919,-486.712 549.901,-478.112"/>
<polygon fill="grey" stroke="grey" stroke-width="2" points="553.387,-478.437 551.045,-468.104 546.432,-477.642 553.387,-478.437"/>
</g>
<!-- 55 -->
<g id="node56" class="node"><title>55</title>
<path fill="none" stroke="#56c9d8" stroke-width="2" stroke-dasharray="5,2" d="M753.5,-684C753.5,-684 692.5,-684 692.5,-684 686.5,-684 680.5,-678 680.5,-672 680.5,-672 680.5,-660 680.5,-660 680.5,-654 686.5,-648 692.5,-648 692.5,-648 753.5,-648 753.5,-648 759.5,-648 765.5,-654 765.5,-660 765.5,-660 765.5,-672 765.5,-672 765.5,-678 759.5,-684 753.5,-684"/>
<text text-anchor="middle" x="723" y="-663.5" font-family="sans" font-size="10.00">repeatmasker</text>
</g>
<!-- 55&#45;&gt;39 -->
<g id="edge79" class="edge"><title>55&#45;&gt;39</title>
<path fill="none" stroke="grey" stroke-width="2" d="M711.876,-647.697C706.645,-639.559 700.3,-629.689 694.522,-620.701"/>
<polygon fill="grey" stroke="grey" stroke-width="2" points="697.347,-618.623 688.996,-612.104 691.459,-622.409 697.347,-618.623"/>
</g>
<!-- 56 -->
<g id="node57" class="node"><title>56</title>
<path fill="none" stroke="#56d8a9" stroke-width="2" stroke-dasharray="5,2" d="M678,-756C678,-756 634,-756 634,-756 628,-756 622,-750 622,-744 622,-744 622,-732 622,-732 622,-726 628,-720 634,-720 634,-720 678,-720 678,-720 684,-720 690,-726 690,-732 690,-732 690,-744 690,-744 690,-750 684,-756 678,-756"/>
<text text-anchor="middle" x="656" y="-741" font-family="sans" font-size="10.00">split_fasta</text>
<text text-anchor="middle" x="656" y="-730" font-family="sans" font-size="10.00">n: 1</text>
</g>
<!-- 56&#45;&gt;39 -->
<g id="edge80" class="edge"><title>56&#45;&gt;39</title>
<path fill="none" stroke="grey" stroke-width="2" d="M658.654,-719.871C662.403,-695.67 669.291,-651.211 673.756,-622.393"/>
<polygon fill="grey" stroke="grey" stroke-width="2" points="677.264,-622.607 675.337,-612.189 670.347,-621.535 677.264,-622.607"/>
</g>
<!-- 56&#45;&gt;55 -->
<g id="edge97" class="edge"><title>56&#45;&gt;55</title>
<path fill="none" stroke="grey" stroke-width="2" d="M672.562,-719.697C680.675,-711.22 690.588,-700.864 699.471,-691.583"/>
<polygon fill="grey" stroke="grey" stroke-width="2" points="702.243,-693.749 706.629,-684.104 697.186,-688.908 702.243,-693.749"/>
</g>
<!-- 57&#45;&gt;40 -->
<g id="edge81" class="edge"><title>57&#45;&gt;40</title>
<path fill="none" stroke="grey" stroke-width="2" d="M708.978,-503.697C709.859,-495.983 710.919,-486.712 711.901,-478.112"/>
<polygon fill="grey" stroke="grey" stroke-width="2" points="715.387,-478.437 713.045,-468.104 708.432,-477.642 715.387,-478.437"/>
</g>
<!-- 58 -->
<g id="node59" class="node"><title>58</title>
<path fill="none" stroke="#56c9d8" stroke-width="2" stroke-dasharray="5,2" d="M454.5,-684C454.5,-684 393.5,-684 393.5,-684 387.5,-684 381.5,-678 381.5,-672 381.5,-672 381.5,-660 381.5,-660 381.5,-654 387.5,-648 393.5,-648 393.5,-648 454.5,-648 454.5,-648 460.5,-648 466.5,-654 466.5,-660 466.5,-660 466.5,-672 466.5,-672 466.5,-678 460.5,-684 454.5,-684"/>
<text text-anchor="middle" x="424" y="-663.5" font-family="sans" font-size="10.00">repeatmasker</text>
</g>
<!-- 58&#45;&gt;41 -->
<g id="edge82" class="edge"><title>58&#45;&gt;41</title>
<path fill="none" stroke="grey" stroke-width="2" d="M408.674,-647.697C401.241,-639.305 392.177,-629.07 384.02,-619.861"/>
<polygon fill="grey" stroke="grey" stroke-width="2" points="386.4,-617.27 377.15,-612.104 381.16,-621.911 386.4,-617.27"/>
</g>
<!-- 59 -->
<g id="node60" class="node"><title>59</title>
<path fill="none" stroke="#56d8a9" stroke-width="2" stroke-dasharray="5,2" d="M379,-756C379,-756 335,-756 335,-756 329,-756 323,-750 323,-744 323,-744 323,-732 323,-732 323,-726 329,-720 335,-720 335,-720 379,-720 379,-720 385,-720 391,-726 391,-732 391,-732 391,-744 391,-744 391,-750 385,-756 379,-756"/>
<text text-anchor="middle" x="357" y="-741" font-family="sans" font-size="10.00">split_fasta</text>
<text text-anchor="middle" x="357" y="-730" font-family="sans" font-size="10.00">n: 2</text>
</g>
<!-- 59&#45;&gt;41 -->
<g id="edge83" class="edge"><title>59&#45;&gt;41</title>
<path fill="none" stroke="grey" stroke-width="2" d="M357.603,-719.871C358.455,-695.67 360.021,-651.211 361.035,-622.393"/>
<polygon fill="grey" stroke="grey" stroke-width="2" points="364.541,-622.306 361.395,-612.189 357.545,-622.06 364.541,-622.306"/>
</g>
<!-- 59&#45;&gt;58 -->
<g id="edge100" class="edge"><title>59&#45;&gt;58</title>
<path fill="none" stroke="grey" stroke-width="2" d="M373.562,-719.697C381.675,-711.22 391.588,-700.864 400.471,-691.583"/>
<polygon fill="grey" stroke="grey" stroke-width="2" points="403.243,-693.749 407.629,-684.104 398.186,-688.908 403.243,-693.749"/>
</g>
<!-- 60&#45;&gt;42 -->
<g id="edge84" class="edge"><title>60&#45;&gt;42</title>
<path fill="none" stroke="grey" stroke-width="2" d="M385.978,-503.697C386.859,-495.983 387.919,-486.712 388.901,-478.112"/>
<polygon fill="grey" stroke="grey" stroke-width="2" points="392.387,-478.437 390.045,-468.104 385.432,-477.642 392.387,-478.437"/>
</g>
<!-- 61 -->
<g id="node62" class="node"><title>61</title>
<path fill="none" stroke="#d88d56" stroke-width="2" stroke-dasharray="5,2" d="M340.5,-828C340.5,-828 287.5,-828 287.5,-828 281.5,-828 275.5,-822 275.5,-816 275.5,-816 275.5,-804 275.5,-804 275.5,-798 281.5,-792 287.5,-792 287.5,-792 340.5,-792 340.5,-792 346.5,-792 352.5,-798 352.5,-804 352.5,-804 352.5,-816 352.5,-816 352.5,-822 346.5,-828 340.5,-828"/>
<text text-anchor="middle" x="314" y="-807.5" font-family="sans" font-size="10.00">tantan_good</text>
</g>
<!-- 61&#45;&gt;45 -->
<g id="edge87" class="edge"><title>61&#45;&gt;45</title>
<path fill="none" stroke="grey" stroke-width="2" d="M303.371,-791.697C298.372,-783.559 292.309,-773.689 286.788,-764.701"/>
<polygon fill="grey" stroke="grey" stroke-width="2" points="289.723,-762.793 281.507,-756.104 283.759,-766.457 289.723,-762.793"/>
</g>
<!-- 61&#45;&gt;59 -->
<g id="edge101" class="edge"><title>61&#45;&gt;59</title>
<path fill="none" stroke="grey" stroke-width="2" d="M324.629,-791.697C329.628,-783.559 335.691,-773.689 341.212,-764.701"/>
<polygon fill="grey" stroke="grey" stroke-width="2" points="344.241,-766.457 346.493,-756.104 338.277,-762.793 344.241,-766.457"/>
</g>
<!-- 62 -->
<g id="node63" class="node"><title>62</title>
<path fill="none" stroke="#d88d56" stroke-width="2" stroke-dasharray="5,2" d="M932.5,-828C932.5,-828 879.5,-828 879.5,-828 873.5,-828 867.5,-822 867.5,-816 867.5,-816 867.5,-804 867.5,-804 867.5,-798 873.5,-792 879.5,-792 879.5,-792 932.5,-792 932.5,-792 938.5,-792 944.5,-798 944.5,-804 944.5,-804 944.5,-816 944.5,-816 944.5,-822 938.5,-828 932.5,-828"/>
<text text-anchor="middle" x="906" y="-807.5" font-family="sans" font-size="10.00">tantan_good</text>
</g>
<!-- 62&#45;&gt;47 -->
<g id="edge89" class="edge"><title>62&#45;&gt;47</title>
<path fill="none" stroke="grey" stroke-width="2" d="M895.371,-791.697C890.372,-783.559 884.309,-773.689 878.788,-764.701"/>
<polygon fill="grey" stroke="grey" stroke-width="2" points="881.723,-762.793 873.507,-756.104 875.759,-766.457 881.723,-762.793"/>
</g>
<!-- 62&#45;&gt;50 -->
<g id="edge92" class="edge"><title>62&#45;&gt;50</title>
<path fill="none" stroke="grey" stroke-width="2" d="M916.629,-791.697C921.628,-783.559 927.691,-773.689 933.212,-764.701"/>
<polygon fill="grey" stroke="grey" stroke-width="2" points="936.241,-766.457 938.493,-756.104 930.277,-762.793 936.241,-766.457"/>
</g>
<!-- 63 -->
<g id="node64" class="node"><title>63</title>
<path fill="none" stroke="#d88d56" stroke-width="2" stroke-dasharray="5,2" d="M639.5,-828C639.5,-828 586.5,-828 586.5,-828 580.5,-828 574.5,-822 574.5,-816 574.5,-816 574.5,-804 574.5,-804 574.5,-798 580.5,-792 586.5,-792 586.5,-792 639.5,-792 639.5,-792 645.5,-792 651.5,-798 651.5,-804 651.5,-804 651.5,-816 651.5,-816 651.5,-822 645.5,-828 639.5,-828"/>
<text text-anchor="middle" x="613" y="-807.5" font-family="sans" font-size="10.00">tantan_good</text>
</g>
<!-- 63&#45;&gt;53 -->
<g id="edge95" class="edge"><title>63&#45;&gt;53</title>
<path fill="none" stroke="grey" stroke-width="2" d="M602.371,-791.697C597.372,-783.559 591.309,-773.689 585.788,-764.701"/>
<polygon fill="grey" stroke="grey" stroke-width="2" points="588.723,-762.793 580.507,-756.104 582.759,-766.457 588.723,-762.793"/>
</g>
<!-- 63&#45;&gt;56 -->
<g id="edge98" class="edge"><title>63&#45;&gt;56</title>
<path fill="none" stroke="grey" stroke-width="2" d="M623.629,-791.697C628.628,-783.559 634.691,-773.689 640.212,-764.701"/>
<polygon fill="grey" stroke="grey" stroke-width="2" points="643.241,-766.457 645.493,-756.104 637.277,-762.793 643.241,-766.457"/>
</g>
<!-- 64 -->
<g id="node65" class="node"><title>64</title>
<path fill="none" stroke="#5673d8" stroke-width="2" stroke-dasharray="5,2" d="M329,-900C329,-900 299,-900 299,-900 293,-900 287,-894 287,-888 287,-888 287,-876 287,-876 287,-870 293,-864 299,-864 299,-864 329,-864 329,-864 335,-864 341,-870 341,-876 341,-876 341,-888 341,-888 341,-894 335,-900 329,-900"/>
<text text-anchor="middle" x="314" y="-879.5" font-family="sans" font-size="10.00">tantan</text>
</g>
<!-- 64&#45;&gt;61 -->
<g id="edge103" class="edge"><title>64&#45;&gt;61</title>
<path fill="none" stroke="grey" stroke-width="2" d="M314,-863.697C314,-855.983 314,-846.712 314,-838.112"/>
<polygon fill="grey" stroke="grey" stroke-width="2" points="317.5,-838.104 314,-828.104 310.5,-838.104 317.5,-838.104"/>
</g>
<!-- 65 -->
<g id="node66" class="node"><title>65</title>
<path fill="none" stroke="#5673d8" stroke-width="2" stroke-dasharray="5,2" d="M921,-900C921,-900 891,-900 891,-900 885,-900 879,-894 879,-888 879,-888 879,-876 879,-876 879,-870 885,-864 891,-864 891,-864 921,-864 921,-864 927,-864 933,-870 933,-876 933,-876 933,-888 933,-888 933,-894 927,-900 921,-900"/>
<text text-anchor="middle" x="906" y="-879.5" font-family="sans" font-size="10.00">tantan</text>
</g>
<!-- 65&#45;&gt;62 -->
<g id="edge104" class="edge"><title>65&#45;&gt;62</title>
<path fill="none" stroke="grey" stroke-width="2" d="M906,-863.697C906,-855.983 906,-846.712 906,-838.112"/>
<polygon fill="grey" stroke="grey" stroke-width="2" points="909.5,-838.104 906,-828.104 902.5,-838.104 909.5,-838.104"/>
</g>
<!-- 66 -->
<g id="node67" class="node"><title>66</title>
<path fill="none" stroke="#5673d8" stroke-width="2" stroke-dasharray="5,2" d="M628,-900C628,-900 598,-900 598,-900 592,-900 586,-894 586,-888 586,-888 586,-876 586,-876 586,-870 592,-864 598,-864 598,-864 628,-864 628,-864 634,-864 640,-870 640,-876 640,-876 640,-888 640,-888 640,-894 634,-900 628,-900"/>
<text text-anchor="middle" x="613" y="-879.5" font-family="sans" font-size="10.00">tantan</text>
</g>
<!-- 66&#45;&gt;63 -->
<g id="edge105" class="edge"><title>66&#45;&gt;63</title>
<path fill="none" stroke="grey" stroke-width="2" d="M613,-863.697C613,-855.983 613,-846.712 613,-838.112"/>
<polygon fill="grey" stroke="grey" stroke-width="2" points="616.5,-838.104 613,-828.104 609.5,-838.104 616.5,-838.104"/>
</g>
<!-- 67 -->
<g id="node68" class="node"><title>67</title>
<path fill="none" stroke="#d8ac56" stroke-width="2" stroke-dasharray="5,2" d="M329,-972C329,-972 299,-972 299,-972 293,-972 287,-966 287,-960 287,-960 287,-948 287,-948 287,-942 293,-936 299,-936 299,-936 329,-936 329,-936 335,-936 341,-942 341,-948 341,-948 341,-960 341,-960 341,-966 335,-972 329,-972"/>
<text text-anchor="middle" x="314" y="-951.5" font-family="sans" font-size="10.00">cd_hit</text>
</g>
<!-- 67&#45;&gt;64 -->
<g id="edge106" class="edge"><title>67&#45;&gt;64</title>
<path fill="none" stroke="grey" stroke-width="2" d="M314,-935.697C314,-927.983 314,-918.712 314,-910.112"/>
<polygon fill="grey" stroke="grey" stroke-width="2" points="317.5,-910.104 314,-900.104 310.5,-910.104 317.5,-910.104"/>
</g>
<!-- 68 -->
<g id="node69" class="node"><title>68</title>
<path fill="none" stroke="#d8ac56" stroke-width="2" stroke-dasharray="5,2" d="M921,-972C921,-972 891,-972 891,-972 885,-972 879,-966 879,-960 879,-960 879,-948 879,-948 879,-942 885,-936 891,-936 891,-936 921,-936 921,-936 927,-936 933,-942 933,-948 933,-948 933,-960 933,-960 933,-966 927,-972 921,-972"/>
<text text-anchor="middle" x="906" y="-951.5" font-family="sans" font-size="10.00">cd_hit</text>
</g>
<!-- 68&#45;&gt;65 -->
<g id="edge107" class="edge"><title>68&#45;&gt;65</title>
<path fill="none" stroke="grey" stroke-width="2" d="M906,-935.697C906,-927.983 906,-918.712 906,-910.112"/>
<polygon fill="grey" stroke="grey" stroke-width="2" points="909.5,-910.104 906,-900.104 902.5,-910.104 909.5,-910.104"/>
</g>
<!-- 69 -->
<g id="node70" class="node"><title>69</title>
<path fill="none" stroke="#d8ac56" stroke-width="2" stroke-dasharray="5,2" d="M628,-972C628,-972 598,-972 598,-972 592,-972 586,-966 586,-960 586,-960 586,-948 586,-948 586,-942 592,-936 598,-936 598,-936 628,-936 628,-936 634,-936 640,-942 640,-948 640,-948 640,-960 640,-960 640,-966 634,-972 628,-972"/>
<text text-anchor="middle" x="613" y="-951.5" font-family="sans" font-size="10.00">cd_hit</text>
</g>
<!-- 69&#45;&gt;66 -->
<g id="edge108" class="edge"><title>69&#45;&gt;66</title>
<path fill="none" stroke="grey" stroke-width="2" d="M613,-935.697C613,-927.983 613,-918.712 613,-910.112"/>
<polygon fill="grey" stroke="grey" stroke-width="2" points="616.5,-910.104 613,-900.104 609.5,-910.104 616.5,-910.104"/>
</g>
<!-- 70 -->
<g id="node71" class="node"><title>70</title>
<path fill="none" stroke="#c6d856" stroke-width="2" stroke-dasharray="5,2" d="M338,-1044C338,-1044 290,-1044 290,-1044 284,-1044 278,-1038 278,-1032 278,-1032 278,-1020 278,-1020 278,-1014 284,-1008 290,-1008 290,-1008 338,-1008 338,-1008 344,-1008 350,-1014 350,-1020 350,-1020 350,-1032 350,-1032 350,-1038 344,-1044 338,-1044"/>
<text text-anchor="middle" x="314" y="-1023.5" font-family="sans" font-size="10.00">fastq2fasta</text>
</g>
<!-- 70&#45;&gt;67 -->
<g id="edge109" class="edge"><title>70&#45;&gt;67</title>
<path fill="none" stroke="grey" stroke-width="2" d="M314,-1007.7C314,-999.983 314,-990.712 314,-982.112"/>
<polygon fill="grey" stroke="grey" stroke-width="2" points="317.5,-982.104 314,-972.104 310.5,-982.104 317.5,-982.104"/>
</g>
<!-- 71 -->
<g id="node72" class="node"><title>71</title>
<path fill="none" stroke="#c6d856" stroke-width="2" stroke-dasharray="5,2" d="M930,-1044C930,-1044 882,-1044 882,-1044 876,-1044 870,-1038 870,-1032 870,-1032 870,-1020 870,-1020 870,-1014 876,-1008 882,-1008 882,-1008 930,-1008 930,-1008 936,-1008 942,-1014 942,-1020 942,-1020 942,-1032 942,-1032 942,-1038 936,-1044 930,-1044"/>
<text text-anchor="middle" x="906" y="-1023.5" font-family="sans" font-size="10.00">fastq2fasta</text>
</g>
<!-- 71&#45;&gt;68 -->
<g id="edge110" class="edge"><title>71&#45;&gt;68</title>
<path fill="none" stroke="grey" stroke-width="2" d="M906,-1007.7C906,-999.983 906,-990.712 906,-982.112"/>
<polygon fill="grey" stroke="grey" stroke-width="2" points="909.5,-982.104 906,-972.104 902.5,-982.104 909.5,-982.104"/>
</g>
<!-- 72 -->
<g id="node73" class="node"><title>72</title>
<path fill="none" stroke="#c6d856" stroke-width="2" stroke-dasharray="5,2" d="M637,-1044C637,-1044 589,-1044 589,-1044 583,-1044 577,-1038 577,-1032 577,-1032 577,-1020 577,-1020 577,-1014 583,-1008 589,-1008 589,-1008 637,-1008 637,-1008 643,-1008 649,-1014 649,-1020 649,-1020 649,-1032 649,-1032 649,-1038 643,-1044 637,-1044"/>
<text text-anchor="middle" x="613" y="-1023.5" font-family="sans" font-size="10.00">fastq2fasta</text>
</g>
<!-- 72&#45;&gt;69 -->
<g id="edge111" class="edge"><title>72&#45;&gt;69</title>
<path fill="none" stroke="grey" stroke-width="2" d="M613,-1007.7C613,-999.983 613,-990.712 613,-982.112"/>
<polygon fill="grey" stroke="grey" stroke-width="2" points="616.5,-982.104 613,-972.104 609.5,-982.104 616.5,-982.104"/>
</g>
<!-- 73 -->
<g id="node74" class="node"><title>73</title>
<path fill="none" stroke="#56d873" stroke-width="2" stroke-dasharray="5,2" d="M342,-1116C342,-1116 286,-1116 286,-1116 280,-1116 274,-1110 274,-1104 274,-1104 274,-1092 274,-1092 274,-1086 280,-1080 286,-1080 286,-1080 342,-1080 342,-1080 348,-1080 354,-1086 354,-1092 354,-1092 354,-1104 354,-1104 354,-1110 348,-1116 342,-1116"/>
<text text-anchor="middle" x="314" y="-1095.5" font-family="sans" font-size="10.00">merge_reads</text>
</g>
<!-- 73&#45;&gt;70 -->
<g id="edge112" class="edge"><title>73&#45;&gt;70</title>
<path fill="none" stroke="grey" stroke-width="2" d="M314,-1079.7C314,-1071.98 314,-1062.71 314,-1054.11"/>
<polygon fill="grey" stroke="grey" stroke-width="2" points="317.5,-1054.1 314,-1044.1 310.5,-1054.1 317.5,-1054.1"/>
</g>
<!-- 74 -->
<g id="node75" class="node"><title>74</title>
<path fill="none" stroke="#56d873" stroke-width="2" stroke-dasharray="5,2" d="M934,-1116C934,-1116 878,-1116 878,-1116 872,-1116 866,-1110 866,-1104 866,-1104 866,-1092 866,-1092 866,-1086 872,-1080 878,-1080 878,-1080 934,-1080 934,-1080 940,-1080 946,-1086 946,-1092 946,-1092 946,-1104 946,-1104 946,-1110 940,-1116 934,-1116"/>
<text text-anchor="middle" x="906" y="-1095.5" font-family="sans" font-size="10.00">merge_reads</text>
</g>
<!-- 74&#45;&gt;71 -->
<g id="edge113" class="edge"><title>74&#45;&gt;71</title>
<path fill="none" stroke="grey" stroke-width="2" d="M906,-1079.7C906,-1071.98 906,-1062.71 906,-1054.11"/>
<polygon fill="grey" stroke="grey" stroke-width="2" points="909.5,-1054.1 906,-1044.1 902.5,-1054.1 909.5,-1054.1"/>
</g>
<!-- 75 -->
<g id="node76" class="node"><title>75</title>
<path fill="none" stroke="#56d873" stroke-width="2" stroke-dasharray="5,2" d="M641,-1116C641,-1116 585,-1116 585,-1116 579,-1116 573,-1110 573,-1104 573,-1104 573,-1092 573,-1092 573,-1086 579,-1080 585,-1080 585,-1080 641,-1080 641,-1080 647,-1080 653,-1086 653,-1092 653,-1092 653,-1104 653,-1104 653,-1110 647,-1116 641,-1116"/>
<text text-anchor="middle" x="613" y="-1095.5" font-family="sans" font-size="10.00">merge_reads</text>
</g>
<!-- 75&#45;&gt;72 -->
<g id="edge114" class="edge"><title>75&#45;&gt;72</title>
<path fill="none" stroke="grey" stroke-width="2" d="M613,-1079.7C613,-1071.98 613,-1062.71 613,-1054.11"/>
<polygon fill="grey" stroke="grey" stroke-width="2" points="616.5,-1054.1 613,-1044.1 609.5,-1054.1 616.5,-1054.1"/>
</g>
<!-- 76 -->
<g id="node77" class="node"><title>76</title>
<path fill="none" stroke="#afd856" stroke-width="2" stroke-dasharray="5,2" d="M334.5,-1188C334.5,-1188 293.5,-1188 293.5,-1188 287.5,-1188 281.5,-1182 281.5,-1176 281.5,-1176 281.5,-1164 281.5,-1164 281.5,-1158 287.5,-1152 293.5,-1152 293.5,-1152 334.5,-1152 334.5,-1152 340.5,-1152 346.5,-1158 346.5,-1164 346.5,-1164 346.5,-1176 346.5,-1176 346.5,-1182 340.5,-1188 334.5,-1188"/>
<text text-anchor="middle" x="314" y="-1167.5" font-family="sans" font-size="10.00">fastq_join</text>
</g>
<!-- 76&#45;&gt;73 -->
<g id="edge115" class="edge"><title>76&#45;&gt;73</title>
<path fill="none" stroke="grey" stroke-width="2" d="M314,-1151.7C314,-1143.98 314,-1134.71 314,-1126.11"/>
<polygon fill="grey" stroke="grey" stroke-width="2" points="317.5,-1126.1 314,-1116.1 310.5,-1126.1 317.5,-1126.1"/>
</g>
<!-- 77 -->
<g id="node78" class="node"><title>77</title>
<path fill="none" stroke="#afd856" stroke-width="2" stroke-dasharray="5,2" d="M926.5,-1188C926.5,-1188 885.5,-1188 885.5,-1188 879.5,-1188 873.5,-1182 873.5,-1176 873.5,-1176 873.5,-1164 873.5,-1164 873.5,-1158 879.5,-1152 885.5,-1152 885.5,-1152 926.5,-1152 926.5,-1152 932.5,-1152 938.5,-1158 938.5,-1164 938.5,-1164 938.5,-1176 938.5,-1176 938.5,-1182 932.5,-1188 926.5,-1188"/>
<text text-anchor="middle" x="906" y="-1167.5" font-family="sans" font-size="10.00">fastq_join</text>
</g>
<!-- 77&#45;&gt;74 -->
<g id="edge116" class="edge"><title>77&#45;&gt;74</title>
<path fill="none" stroke="grey" stroke-width="2" d="M906,-1151.7C906,-1143.98 906,-1134.71 906,-1126.11"/>
<polygon fill="grey" stroke="grey" stroke-width="2" points="909.5,-1126.1 906,-1116.1 902.5,-1126.1 909.5,-1126.1"/>
</g>
<!-- 78 -->
<g id="node79" class="node"><title>78</title>
<path fill="none" stroke="#afd856" stroke-width="2" stroke-dasharray="5,2" d="M633.5,-1188C633.5,-1188 592.5,-1188 592.5,-1188 586.5,-1188 580.5,-1182 580.5,-1176 580.5,-1176 580.5,-1164 580.5,-1164 580.5,-1158 586.5,-1152 592.5,-1152 592.5,-1152 633.5,-1152 633.5,-1152 639.5,-1152 645.5,-1158 645.5,-1164 645.5,-1164 645.5,-1176 645.5,-1176 645.5,-1182 639.5,-1188 633.5,-1188"/>
<text text-anchor="middle" x="613" y="-1167.5" font-family="sans" font-size="10.00">fastq_join</text>
</g>
<!-- 78&#45;&gt;75 -->
<g id="edge117" class="edge"><title>78&#45;&gt;75</title>
<path fill="none" stroke="grey" stroke-width="2" d="M613,-1151.7C613,-1143.98 613,-1134.71 613,-1126.11"/>
<polygon fill="grey" stroke="grey" stroke-width="2" points="616.5,-1126.1 613,-1116.1 609.5,-1126.1 616.5,-1126.1"/>
</g>
<!-- 79 -->
<g id="node80" class="node"><title>79</title>
<path fill="none" stroke="#56d8c9" stroke-width="2" stroke-dasharray="5,2" d="M438,-1260C438,-1260 190,-1260 190,-1260 184,-1260 178,-1254 178,-1248 178,-1248 178,-1236 178,-1236 178,-1230 184,-1224 190,-1224 190,-1224 438,-1224 438,-1224 444,-1224 450,-1230 450,-1236 450,-1236 450,-1248 450,-1248 450,-1254 444,-1260 438,-1260"/>
<text text-anchor="middle" x="314" y="-1245" font-family="sans" font-size="10.00">fastp</text>
<text text-anchor="middle" x="314" y="-1234" font-family="sans" font-size="10.00">sample: I1164_12629_Harvard_SIV_196_06_2_24_12</text>
</g>
<!-- 79&#45;&gt;76 -->
<g id="edge118" class="edge"><title>79&#45;&gt;76</title>
<path fill="none" stroke="grey" stroke-width="2" d="M314,-1223.7C314,-1215.98 314,-1206.71 314,-1198.11"/>
<polygon fill="grey" stroke="grey" stroke-width="2" points="317.5,-1198.1 314,-1188.1 310.5,-1198.1 317.5,-1198.1"/>
</g>
<!-- 80 -->
<g id="node81" class="node"><title>80</title>
<path fill="none" stroke="#56d8c9" stroke-width="2" stroke-dasharray="5,2" d="M951,-1260C951,-1260 861,-1260 861,-1260 855,-1260 849,-1254 849,-1248 849,-1248 849,-1236 849,-1236 849,-1230 855,-1224 861,-1224 861,-1224 951,-1224 951,-1224 957,-1224 963,-1230 963,-1236 963,-1236 963,-1248 963,-1248 963,-1254 957,-1260 951,-1260"/>
<text text-anchor="middle" x="906" y="-1245" font-family="sans" font-size="10.00">fastp</text>
<text text-anchor="middle" x="906" y="-1234" font-family="sans" font-size="10.00">sample: SRR848994</text>
</g>
<!-- 80&#45;&gt;77 -->
<g id="edge119" class="edge"><title>80&#45;&gt;77</title>
<path fill="none" stroke="grey" stroke-width="2" d="M906,-1223.7C906,-1215.98 906,-1206.71 906,-1198.11"/>
<polygon fill="grey" stroke="grey" stroke-width="2" points="909.5,-1198.1 906,-1188.1 902.5,-1198.1 909.5,-1198.1"/>
</g>
<!-- 81 -->
<g id="node82" class="node"><title>81</title>
<path fill="none" stroke="#56d8c9" stroke-width="2" stroke-dasharray="5,2" d="M658,-1260C658,-1260 568,-1260 568,-1260 562,-1260 556,-1254 556,-1248 556,-1248 556,-1236 556,-1236 556,-1230 562,-1224 568,-1224 568,-1224 658,-1224 658,-1224 664,-1224 670,-1230 670,-1236 670,-1236 670,-1248 670,-1248 670,-1254 664,-1260 658,-1260"/>
<text text-anchor="middle" x="613" y="-1245" font-family="sans" font-size="10.00">fastp</text>
<text text-anchor="middle" x="613" y="-1234" font-family="sans" font-size="10.00">sample: SRR848973</text>
</g>
<!-- 81&#45;&gt;78 -->
<g id="edge120" class="edge"><title>81&#45;&gt;78</title>
<path fill="none" stroke="grey" stroke-width="2" d="M613,-1223.7C613,-1215.98 613,-1206.71 613,-1198.11"/>
<polygon fill="grey" stroke="grey" stroke-width="2" points="616.5,-1198.1 613,-1188.1 609.5,-1198.1 616.5,-1198.1"/>
</g>
</g>
</svg>
